<?xml version="1.0" encoding="UTF-8" standalone="no"?>
<!-- This is a Stata 15.1 generated SVG file (http://www.stata.com) -->

<svg version="1.1" width="6.00in" height="4.00in" viewBox="0 0 4320 2880" xmlns="http://www.w3.org/2000/svg" xmlns:xlink="http://www.w3.org/1999/xlink">
	<desc>Stata Graph - Graph</desc>
	<rect x="0" y="0" width="4320" height="2880" style="fill:#FFFFFF;stroke:none"/>
	<rect x="0.00" y="0.00" width="4320.00" height="2880.00" style="fill:#FFFFFF"/>
	<rect x="2.88" y="2.88" width="4314.24" height="2874.24" style="fill:none;stroke:#FFFFFF;stroke-width:5.76"/>
	<rect x="375.70" y="100.85" width="3843.45" height="2212.82" style="fill:#E0E0E0"/>
	<rect x="378.58" y="103.73" width="3837.69" height="2207.06" style="fill:none;stroke:#FFFFFF;stroke-width:5.76"/>
	<line x1="375.70" y1="2250.35" x2="4219.15" y2="2250.35" style="stroke:#FFFFFF;stroke-width:5.76"/>
	<line x1="375.70" y1="2060.67" x2="4219.15" y2="2060.67" style="stroke:#FFFFFF;stroke-width:5.76"/>
	<line x1="375.70" y1="1870.99" x2="4219.15" y2="1870.99" style="stroke:#FFFFFF;stroke-width:5.76"/>
	<line x1="375.70" y1="1681.45" x2="4219.15" y2="1681.45" style="stroke:#FFFFFF;stroke-width:5.76"/>
	<line x1="375.70" y1="1491.77" x2="4219.15" y2="1491.77" style="stroke:#FFFFFF;stroke-width:5.76"/>
	<line x1="375.70" y1="1302.10" x2="4219.15" y2="1302.10" style="stroke:#FFFFFF;stroke-width:5.76"/>
	<line x1="375.70" y1="1112.42" x2="4219.15" y2="1112.42" style="stroke:#FFFFFF;stroke-width:5.76"/>
	<line x1="375.70" y1="922.74" x2="4219.15" y2="922.74" style="stroke:#FFFFFF;stroke-width:5.76"/>
	<line x1="375.70" y1="733.06" x2="4219.15" y2="733.06" style="stroke:#FFFFFF;stroke-width:5.76"/>
	<line x1="375.70" y1="543.52" x2="4219.15" y2="543.52" style="stroke:#FFFFFF;stroke-width:5.76"/>
	<line x1="375.70" y1="353.84" x2="4219.15" y2="353.84" style="stroke:#FFFFFF;stroke-width:5.76"/>
	<line x1="375.70" y1="164.16" x2="4219.15" y2="164.16" style="stroke:#FFFFFF;stroke-width:5.76"/>
	<line x1="439.15" y1="2313.67" x2="439.15" y2="100.85" style="stroke:#FFFFFF;stroke-width:5.76"/>
	<line x1="810.81" y1="2313.67" x2="810.81" y2="100.85" style="stroke:#FFFFFF;stroke-width:5.76"/>
	<line x1="1182.46" y1="2313.67" x2="1182.46" y2="100.85" style="stroke:#FFFFFF;stroke-width:5.76"/>
	<line x1="1554.12" y1="2313.67" x2="1554.12" y2="100.85" style="stroke:#FFFFFF;stroke-width:5.76"/>
	<line x1="1925.78" y1="2313.67" x2="1925.78" y2="100.85" style="stroke:#FFFFFF;stroke-width:5.76"/>
	<line x1="2297.43" y1="2313.67" x2="2297.43" y2="100.85" style="stroke:#FFFFFF;stroke-width:5.76"/>
	<line x1="2669.09" y1="2313.67" x2="2669.09" y2="100.85" style="stroke:#FFFFFF;stroke-width:5.76"/>
	<line x1="3040.74" y1="2313.67" x2="3040.74" y2="100.85" style="stroke:#FFFFFF;stroke-width:5.76"/>
	<line x1="3412.40" y1="2313.67" x2="3412.40" y2="100.85" style="stroke:#FFFFFF;stroke-width:5.76"/>
	<line x1="3784.05" y1="2313.67" x2="3784.05" y2="100.85" style="stroke:#FFFFFF;stroke-width:5.76"/>
	<line x1="4155.84" y1="2313.67" x2="4155.84" y2="100.85" style="stroke:#FFFFFF;stroke-width:5.76"/>
	<line x1="624.91" y1="2250.49" x2="810.67" y2="2114.94" stroke-linecap="round" style="stroke:#000000;stroke-width:7.20"/>
	<line x1="810.67" y1="2114.94" x2="996.57" y2="2114.94" stroke-linecap="round" style="stroke:#000000;stroke-width:7.20"/>
	<line x1="996.57" y1="2114.94" x2="1182.33" y2="2114.94" stroke-linecap="round" style="stroke:#000000;stroke-width:7.20"/>
	<line x1="1182.33" y1="2114.94" x2="1368.22" y2="1979.54" stroke-linecap="round" style="stroke:#000000;stroke-width:7.20"/>
	<line x1="1368.22" y1="1979.54" x2="1553.98" y2="1979.54" stroke-linecap="round" style="stroke:#000000;stroke-width:7.20"/>
	<line x1="1553.98" y1="1979.54" x2="1739.88" y2="1979.54" stroke-linecap="round" style="stroke:#000000;stroke-width:7.20"/>
	<line x1="1739.88" y1="1979.54" x2="1925.78" y2="1843.99" stroke-linecap="round" style="stroke:#000000;stroke-width:7.20"/>
	<line x1="1925.78" y1="1843.99" x2="2111.53" y2="1843.99" stroke-linecap="round" style="stroke:#000000;stroke-width:7.20"/>
	<line x1="2111.53" y1="1843.99" x2="2297.43" y2="1708.59" stroke-linecap="round" style="stroke:#000000;stroke-width:7.20"/>
	<line x1="2297.43" y1="1708.59" x2="2483.19" y2="1708.59" stroke-linecap="round" style="stroke:#000000;stroke-width:7.20"/>
	<line x1="2483.19" y1="1708.59" x2="2669.09" y2="1573.04" stroke-linecap="round" style="stroke:#000000;stroke-width:7.20"/>
	<line x1="2669.09" y1="1573.04" x2="2854.84" y2="1573.04" stroke-linecap="round" style="stroke:#000000;stroke-width:7.20"/>
	<line x1="2854.84" y1="1573.04" x2="3040.74" y2="1437.64" stroke-linecap="round" style="stroke:#000000;stroke-width:7.20"/>
	<line x1="3040.74" y1="1437.64" x2="3226.50" y2="1437.64" stroke-linecap="round" style="stroke:#000000;stroke-width:7.20"/>
	<line x1="3226.50" y1="1437.64" x2="3412.40" y2="1302.10" stroke-linecap="round" style="stroke:#000000;stroke-width:7.20"/>
	<line x1="3412.40" y1="1302.10" x2="3598.16" y2="1166.69" stroke-linecap="round" style="stroke:#000000;stroke-width:7.20"/>
	<line x1="3598.16" y1="1166.69" x2="3784.05" y2="1031.28" stroke-linecap="round" style="stroke:#000000;stroke-width:7.20"/>
	<line x1="3784.05" y1="1031.28" x2="3969.81" y2="895.74" stroke-linecap="round" style="stroke:#000000;stroke-width:7.20"/>
	<line x1="624.91" y1="2250.49" x2="810.67" y2="2114.94" stroke-linecap="round" style="stroke:#619CFF;stroke-width:7.20"/>
	<line x1="810.67" y1="2114.94" x2="996.57" y2="1979.54" stroke-linecap="round" style="stroke:#619CFF;stroke-width:7.20"/>
	<line x1="996.57" y1="1979.54" x2="1182.33" y2="1843.99" stroke-linecap="round" style="stroke:#619CFF;stroke-width:7.20"/>
	<line x1="1182.33" y1="1843.99" x2="1368.22" y2="1708.59" stroke-linecap="round" style="stroke:#619CFF;stroke-width:7.20"/>
	<line x1="1368.22" y1="1708.59" x2="1553.98" y2="1666.87" stroke-linecap="round" style="stroke:#619CFF;stroke-width:7.20"/>
	<line x1="1553.98" y1="1666.87" x2="1739.88" y2="1573.04" stroke-linecap="round" style="stroke:#619CFF;stroke-width:7.20"/>
	<line x1="1739.88" y1="1573.04" x2="1925.78" y2="1437.64" stroke-linecap="round" style="stroke:#619CFF;stroke-width:7.20"/>
	<line x1="1925.78" y1="1437.64" x2="2111.53" y2="1437.64" stroke-linecap="round" style="stroke:#619CFF;stroke-width:7.20"/>
	<line x1="2111.53" y1="1437.64" x2="2297.43" y2="1302.10" stroke-linecap="round" style="stroke:#619CFF;stroke-width:7.20"/>
	<line x1="2297.43" y1="1302.10" x2="2483.19" y2="1166.69" stroke-linecap="round" style="stroke:#619CFF;stroke-width:7.20"/>
	<line x1="2483.19" y1="1166.69" x2="2669.09" y2="1155.35" stroke-linecap="round" style="stroke:#619CFF;stroke-width:7.20"/>
	<line x1="2669.09" y1="1155.35" x2="2854.84" y2="1031.28" stroke-linecap="round" style="stroke:#619CFF;stroke-width:7.20"/>
	<line x1="2854.84" y1="1031.28" x2="3040.74" y2="895.74" stroke-linecap="round" style="stroke:#619CFF;stroke-width:7.20"/>
	<line x1="3040.74" y1="895.74" x2="3226.50" y2="791.52" stroke-linecap="round" style="stroke:#619CFF;stroke-width:7.20"/>
	<line x1="3226.50" y1="791.52" x2="3412.40" y2="760.33" stroke-linecap="round" style="stroke:#619CFF;stroke-width:7.20"/>
	<line x1="3412.40" y1="760.33" x2="3598.16" y2="624.79" stroke-linecap="round" style="stroke:#619CFF;stroke-width:7.20"/>
	<line x1="3598.16" y1="624.79" x2="3784.05" y2="489.38" stroke-linecap="round" style="stroke:#619CFF;stroke-width:7.20"/>
	<line x1="3784.05" y1="489.38" x2="3969.81" y2="218.43" stroke-linecap="round" style="stroke:#619CFF;stroke-width:7.20"/>
	<line x1="375.70" y1="2250.35" x2="355.73" y2="2250.35" style="stroke:#606060;stroke-width:5.76"/>
	<line x1="375.70" y1="2155.58" x2="355.73" y2="2155.58" style="stroke:#606060;stroke-width:5.76"/>
	<line x1="375.70" y1="2060.67" x2="355.73" y2="2060.67" style="stroke:#606060;stroke-width:5.76"/>
	<line x1="375.70" y1="1965.90" x2="355.73" y2="1965.90" style="stroke:#606060;stroke-width:5.76"/>
	<line x1="375.70" y1="1870.99" x2="355.73" y2="1870.99" style="stroke:#606060;stroke-width:5.76"/>
	<line x1="375.70" y1="1776.22" x2="355.73" y2="1776.22" style="stroke:#606060;stroke-width:5.76"/>
	<line x1="375.70" y1="1681.45" x2="355.73" y2="1681.45" style="stroke:#606060;stroke-width:5.76"/>
	<line x1="375.70" y1="1586.54" x2="355.73" y2="1586.54" style="stroke:#606060;stroke-width:5.76"/>
	<line x1="375.70" y1="1491.77" x2="355.73" y2="1491.77" style="stroke:#606060;stroke-width:5.76"/>
	<line x1="375.70" y1="1396.87" x2="355.73" y2="1396.87" style="stroke:#606060;stroke-width:5.76"/>
	<line x1="375.70" y1="1302.10" x2="355.73" y2="1302.10" style="stroke:#606060;stroke-width:5.76"/>
	<line x1="375.70" y1="1207.32" x2="355.73" y2="1207.32" style="stroke:#606060;stroke-width:5.76"/>
	<line x1="375.70" y1="1112.42" x2="355.73" y2="1112.42" style="stroke:#606060;stroke-width:5.76"/>
	<line x1="375.70" y1="1017.65" x2="355.73" y2="1017.65" style="stroke:#606060;stroke-width:5.76"/>
	<line x1="375.70" y1="922.74" x2="355.73" y2="922.74" style="stroke:#606060;stroke-width:5.76"/>
	<line x1="375.70" y1="827.97" x2="355.73" y2="827.97" style="stroke:#606060;stroke-width:5.76"/>
	<line x1="375.70" y1="733.06" x2="355.73" y2="733.06" style="stroke:#606060;stroke-width:5.76"/>
	<line x1="375.70" y1="638.29" x2="355.73" y2="638.29" style="stroke:#606060;stroke-width:5.76"/>
	<line x1="375.70" y1="543.52" x2="355.73" y2="543.52" style="stroke:#606060;stroke-width:5.76"/>
	<line x1="375.70" y1="448.61" x2="355.73" y2="448.61" style="stroke:#606060;stroke-width:5.76"/>
	<line x1="375.70" y1="353.84" x2="355.73" y2="353.84" style="stroke:#606060;stroke-width:5.76"/>
	<line x1="375.70" y1="258.93" x2="355.73" y2="258.93" style="stroke:#606060;stroke-width:5.76"/>
	<line x1="375.70" y1="164.16" x2="355.73" y2="164.16" style="stroke:#606060;stroke-width:5.76"/>
	<line x1="375.70" y1="2250.35" x2="335.75" y2="2250.35" style="stroke:#606060;stroke-width:5.76"/>
	<text x="315.76" y="2271.36" style="font-family:'Helvetica';font-size:59.94px;fill:#606060" text-anchor="end">0</text>
	<line x1="375.70" y1="2060.67" x2="335.75" y2="2060.67" style="stroke:#606060;stroke-width:5.76"/>
	<text x="315.76" y="2081.69" style="font-family:'Helvetica';font-size:59.94px;fill:#606060" text-anchor="end">.1</text>
	<line x1="375.70" y1="1870.99" x2="335.75" y2="1870.99" style="stroke:#606060;stroke-width:5.76"/>
	<text x="315.76" y="1892.01" style="font-family:'Helvetica';font-size:59.94px;fill:#606060" text-anchor="end">.2</text>
	<line x1="375.70" y1="1681.45" x2="335.75" y2="1681.45" style="stroke:#606060;stroke-width:5.76"/>
	<text x="315.76" y="1702.46" style="font-family:'Helvetica';font-size:59.94px;fill:#606060" text-anchor="end">.3</text>
	<line x1="375.70" y1="1491.77" x2="335.75" y2="1491.77" style="stroke:#606060;stroke-width:5.76"/>
	<text x="315.76" y="1512.79" style="font-family:'Helvetica';font-size:59.94px;fill:#606060" text-anchor="end">.4</text>
	<line x1="375.70" y1="1302.10" x2="335.75" y2="1302.10" style="stroke:#606060;stroke-width:5.76"/>
	<text x="315.76" y="1323.11" style="font-family:'Helvetica';font-size:59.94px;fill:#606060" text-anchor="end">.5</text>
	<line x1="375.70" y1="1112.42" x2="335.75" y2="1112.42" style="stroke:#606060;stroke-width:5.76"/>
	<text x="315.76" y="1133.43" style="font-family:'Helvetica';font-size:59.94px;fill:#606060" text-anchor="end">.6</text>
	<line x1="375.70" y1="922.74" x2="335.75" y2="922.74" style="stroke:#606060;stroke-width:5.76"/>
	<text x="315.76" y="943.75" style="font-family:'Helvetica';font-size:59.94px;fill:#606060" text-anchor="end">.7</text>
	<line x1="375.70" y1="733.06" x2="335.75" y2="733.06" style="stroke:#606060;stroke-width:5.76"/>
	<text x="315.76" y="754.07" style="font-family:'Helvetica';font-size:59.94px;fill:#606060" text-anchor="end">.8</text>
	<line x1="375.70" y1="543.52" x2="335.75" y2="543.52" style="stroke:#606060;stroke-width:5.76"/>
	<text x="315.76" y="564.53" style="font-family:'Helvetica';font-size:59.94px;fill:#606060" text-anchor="end">.9</text>
	<line x1="375.70" y1="353.84" x2="335.75" y2="353.84" style="stroke:#606060;stroke-width:5.76"/>
	<text x="315.76" y="374.85" style="font-family:'Helvetica';font-size:59.94px;fill:#606060" text-anchor="end">1</text>
	<line x1="375.70" y1="164.16" x2="335.75" y2="164.16" style="stroke:#606060;stroke-width:5.76"/>
	<text x="315.76" y="185.18" style="font-family:'Helvetica';font-size:59.94px;fill:#606060" text-anchor="end">1.1</text>
	<text x="176.70" y="1207.32" style="font-family:'Helvetica';font-size:79.92px;fill:#000000" transform="rotate(-90 176.70,1207.32)" text-anchor="middle">Acquiesence bias</text>
	<line x1="439.15" y1="2313.67" x2="439.15" y2="2333.78" style="stroke:#606060;stroke-width:5.76"/>
	<line x1="624.91" y1="2313.67" x2="624.91" y2="2333.78" style="stroke:#606060;stroke-width:5.76"/>
	<line x1="810.81" y1="2313.67" x2="810.81" y2="2333.78" style="stroke:#606060;stroke-width:5.76"/>
	<line x1="996.57" y1="2313.67" x2="996.57" y2="2333.78" style="stroke:#606060;stroke-width:5.76"/>
	<line x1="1182.46" y1="2313.67" x2="1182.46" y2="2333.78" style="stroke:#606060;stroke-width:5.76"/>
	<line x1="1368.22" y1="2313.67" x2="1368.22" y2="2333.78" style="stroke:#606060;stroke-width:5.76"/>
	<line x1="1554.12" y1="2313.67" x2="1554.12" y2="2333.78" style="stroke:#606060;stroke-width:5.76"/>
	<line x1="1740.02" y1="2313.67" x2="1740.02" y2="2333.78" style="stroke:#606060;stroke-width:5.76"/>
	<line x1="1925.78" y1="2313.67" x2="1925.78" y2="2333.78" style="stroke:#606060;stroke-width:5.76"/>
	<line x1="2111.67" y1="2313.67" x2="2111.67" y2="2333.78" style="stroke:#606060;stroke-width:5.76"/>
	<line x1="2297.43" y1="2313.67" x2="2297.43" y2="2333.78" style="stroke:#606060;stroke-width:5.76"/>
	<line x1="2483.32" y1="2313.67" x2="2483.32" y2="2333.78" style="stroke:#606060;stroke-width:5.76"/>
	<line x1="2669.09" y1="2313.67" x2="2669.09" y2="2333.78" style="stroke:#606060;stroke-width:5.76"/>
	<line x1="2854.98" y1="2313.67" x2="2854.98" y2="2333.78" style="stroke:#606060;stroke-width:5.76"/>
	<line x1="3040.74" y1="2313.67" x2="3040.74" y2="2333.78" style="stroke:#606060;stroke-width:5.76"/>
	<line x1="3226.64" y1="2313.67" x2="3226.64" y2="2333.78" style="stroke:#606060;stroke-width:5.76"/>
	<line x1="3412.40" y1="2313.67" x2="3412.40" y2="2333.78" style="stroke:#606060;stroke-width:5.76"/>
	<line x1="3598.29" y1="2313.67" x2="3598.29" y2="2333.78" style="stroke:#606060;stroke-width:5.76"/>
	<line x1="3784.05" y1="2313.67" x2="3784.05" y2="2333.78" style="stroke:#606060;stroke-width:5.76"/>
	<line x1="3969.95" y1="2313.67" x2="3969.95" y2="2333.78" style="stroke:#606060;stroke-width:5.76"/>
	<line x1="4155.84" y1="2313.67" x2="4155.84" y2="2333.78" style="stroke:#606060;stroke-width:5.76"/>
	<line x1="439.15" y1="2313.67" x2="439.15" y2="2353.76" style="stroke:#606060;stroke-width:5.76"/>
	<text x="439.15" y="2415.63" style="font-family:'Helvetica';font-size:59.94px;fill:#606060" text-anchor="middle">0</text>
	<line x1="810.81" y1="2313.67" x2="810.81" y2="2353.76" style="stroke:#606060;stroke-width:5.76"/>
	<text x="810.81" y="2415.63" style="font-family:'Helvetica';font-size:59.94px;fill:#606060" text-anchor="middle">10</text>
	<line x1="1182.46" y1="2313.67" x2="1182.46" y2="2353.76" style="stroke:#606060;stroke-width:5.76"/>
	<text x="1182.46" y="2415.63" style="font-family:'Helvetica';font-size:59.94px;fill:#606060" text-anchor="middle">20</text>
	<line x1="1554.12" y1="2313.67" x2="1554.12" y2="2353.76" style="stroke:#606060;stroke-width:5.76"/>
	<text x="1554.12" y="2415.63" style="font-family:'Helvetica';font-size:59.94px;fill:#606060" text-anchor="middle">30</text>
	<line x1="1925.78" y1="2313.67" x2="1925.78" y2="2353.76" style="stroke:#606060;stroke-width:5.76"/>
	<text x="1925.78" y="2415.63" style="font-family:'Helvetica';font-size:59.94px;fill:#606060" text-anchor="middle">40</text>
	<line x1="2297.43" y1="2313.67" x2="2297.43" y2="2353.76" style="stroke:#606060;stroke-width:5.76"/>
	<text x="2297.43" y="2415.63" style="font-family:'Helvetica';font-size:59.94px;fill:#606060" text-anchor="middle">50</text>
	<line x1="2669.09" y1="2313.67" x2="2669.09" y2="2353.76" style="stroke:#606060;stroke-width:5.76"/>
	<text x="2669.09" y="2415.63" style="font-family:'Helvetica';font-size:59.94px;fill:#606060" text-anchor="middle">60</text>
	<line x1="3040.74" y1="2313.67" x2="3040.74" y2="2353.76" style="stroke:#606060;stroke-width:5.76"/>
	<text x="3040.74" y="2415.63" style="font-family:'Helvetica';font-size:59.94px;fill:#606060" text-anchor="middle">70</text>
	<line x1="3412.40" y1="2313.67" x2="3412.40" y2="2353.76" style="stroke:#606060;stroke-width:5.76"/>
	<text x="3412.40" y="2415.63" style="font-family:'Helvetica';font-size:59.94px;fill:#606060" text-anchor="middle">80</text>
	<line x1="3784.05" y1="2313.67" x2="3784.05" y2="2353.76" style="stroke:#606060;stroke-width:5.76"/>
	<text x="3784.05" y="2415.63" style="font-family:'Helvetica';font-size:59.94px;fill:#606060" text-anchor="middle">90</text>
	<line x1="4155.84" y1="2313.67" x2="4155.84" y2="2353.76" style="stroke:#606060;stroke-width:5.76"/>
	<text x="4155.84" y="2415.63" style="font-family:'Helvetica';font-size:59.94px;fill:#606060" text-anchor="middle">100</text>
	<text x="2297.43" y="2499.69" style="font-family:'Helvetica';font-size:79.92px;fill:#000000" text-anchor="middle">Percentage of population</text>
	<rect x="1702.35" y="2578.27" width="1190.16" height="166.32" style="fill:#FFFFFF"/>
	<rect x="1705.23" y="2581.15" width="1184.40" height="160.56" style="fill:none;stroke:#FFFFFF;stroke-width:5.76"/>
	<line x1="1745.55" y1="2661.43" x2="1889.60" y2="2661.43" style="stroke:#000000;stroke-width:7.20"/>
	<line x1="2337.39" y1="2661.43" x2="2481.43" y2="2661.43" style="stroke:#619CFF;stroke-width:7.20"/>
	<text x="1949.54" y="2689.44" style="font-family:'Helvetica';font-size:79.92px;fill:#000000">2016-17</text>
	<text x="2541.38" y="2689.44" style="font-family:'Helvetica';font-size:79.92px;fill:#000000">2020-21</text>
</svg>
