<?xml version="1.0" encoding="UTF-8" standalone="no"?>
<!-- This is a Stata 15.1 generated SVG file (http://www.stata.com) -->

<svg version="1.1" width="6.00in" height="4.00in" viewBox="0 0 4320 2880" xmlns="http://www.w3.org/2000/svg" xmlns:xlink="http://www.w3.org/1999/xlink">
	<desc>Stata Graph - Graph</desc>
	<rect x="0" y="0" width="4320" height="2880" style="fill:#FFFFFF;stroke:none"/>
	<rect x="0.00" y="0.00" width="4320.00" height="2880.00" style="fill:#FFFFFF"/>
	<rect x="2.88" y="2.88" width="4314.24" height="2874.24" style="fill:none;stroke:#FFFFFF;stroke-width:5.76"/>
	<rect x="63.31" y="63.32" width="1397.79" height="2753.37" style="fill:#FFFFFF"/>
	<rect x="65.47" y="65.48" width="1393.47" height="2749.05" style="fill:none;stroke:#FFFFFF;stroke-width:4.32"/>
	<rect x="305.77" y="138.92" width="1079.73" height="2429.63" style="fill:#E0E0E0"/>
	<rect x="307.93" y="141.08" width="1075.41" height="2425.31" style="fill:none;stroke:#FFFFFF;stroke-width:4.32"/>
	<line x1="305.77" y1="2568.55" x2="1385.51" y2="2568.55" style="stroke:#FFFFFF;stroke-width:4.32"/>
	<line x1="305.77" y1="1831.84" x2="1385.51" y2="1831.84" style="stroke:#FFFFFF;stroke-width:4.32"/>
	<line x1="305.77" y1="1095.14" x2="1385.51" y2="1095.14" style="stroke:#FFFFFF;stroke-width:4.32"/>
	<line x1="305.77" y1="358.57" x2="1385.51" y2="358.57" style="stroke:#FFFFFF;stroke-width:4.32"/>
	<line x1="353.30" y1="2568.55" x2="353.30" y2="138.92" style="stroke:#FFFFFF;stroke-width:4.32"/>
	<line x1="447.12" y1="2568.55" x2="447.12" y2="138.92" style="stroke:#FFFFFF;stroke-width:4.32"/>
	<line x1="540.95" y1="2568.55" x2="540.95" y2="138.92" style="stroke:#FFFFFF;stroke-width:4.32"/>
	<line x1="634.63" y1="2568.55" x2="634.63" y2="138.92" style="stroke:#FFFFFF;stroke-width:4.32"/>
	<line x1="728.46" y1="2568.55" x2="728.46" y2="138.92" style="stroke:#FFFFFF;stroke-width:4.32"/>
	<line x1="822.15" y1="2568.55" x2="822.15" y2="138.92" style="stroke:#FFFFFF;stroke-width:4.32"/>
	<line x1="915.98" y1="2568.55" x2="915.98" y2="138.92" style="stroke:#FFFFFF;stroke-width:4.32"/>
	<line x1="1009.80" y1="2568.55" x2="1009.80" y2="138.92" style="stroke:#FFFFFF;stroke-width:4.32"/>
	<line x1="1103.49" y1="2568.55" x2="1103.49" y2="138.92" style="stroke:#FFFFFF;stroke-width:4.32"/>
	<line x1="1197.32" y1="2568.55" x2="1197.32" y2="138.92" style="stroke:#FFFFFF;stroke-width:4.32"/>
	<line x1="1291.14" y1="2568.55" x2="1291.14" y2="138.92" style="stroke:#FFFFFF;stroke-width:4.32"/>
	<rect x="400.27" y="2524.40" width="15.53" height="44.15" style="fill:#B8B8B8"/>
	<rect x="402.43" y="2526.56" width="11.21" height="39.83" style="fill:none;stroke:#000000;stroke-width:4.32"/>
	<rect x="415.80" y="2524.40" width="15.66" height="44.15" style="fill:#B8B8B8"/>
	<rect x="417.96" y="2526.56" width="11.34" height="39.83" style="fill:none;stroke:#000000;stroke-width:4.32"/>
	<rect x="431.46" y="2436.25" width="15.66" height="132.30" style="fill:#B8B8B8"/>
	<rect x="433.62" y="2438.41" width="11.34" height="127.98" style="fill:none;stroke:#000000;stroke-width:4.32"/>
	<rect x="447.12" y="2392.10" width="15.66" height="176.45" style="fill:#B8B8B8"/>
	<rect x="449.28" y="2394.26" width="11.34" height="172.13" style="fill:none;stroke:#000000;stroke-width:4.32"/>
	<rect x="462.78" y="2215.65" width="15.53" height="352.90" style="fill:#B8B8B8"/>
	<rect x="464.94" y="2217.81" width="11.21" height="348.58" style="fill:none;stroke:#000000;stroke-width:4.32"/>
	<rect x="478.31" y="2303.95" width="15.66" height="264.60" style="fill:#B8B8B8"/>
	<rect x="480.46" y="2306.11" width="11.34" height="260.28" style="fill:none;stroke:#000000;stroke-width:4.32"/>
	<rect x="493.96" y="2392.10" width="15.66" height="176.45" style="fill:#B8B8B8"/>
	<rect x="496.12" y="2394.26" width="11.34" height="172.13" style="fill:none;stroke:#000000;stroke-width:4.32"/>
	<rect x="509.63" y="2171.51" width="15.66" height="397.04" style="fill:#B8B8B8"/>
	<rect x="511.78" y="2173.67" width="11.34" height="392.72" style="fill:none;stroke:#000000;stroke-width:4.32"/>
	<rect x="525.28" y="2215.65" width="15.66" height="352.90" style="fill:#B8B8B8"/>
	<rect x="527.44" y="2217.81" width="11.34" height="348.58" style="fill:none;stroke:#000000;stroke-width:4.32"/>
	<rect x="540.95" y="2480.39" width="15.52" height="88.16" style="fill:#B8B8B8"/>
	<rect x="543.10" y="2482.55" width="11.21" height="83.84" style="fill:none;stroke:#000000;stroke-width:4.32"/>
	<rect x="556.47" y="1686.31" width="15.66" height="882.24" style="fill:#B8B8B8"/>
	<rect x="558.63" y="1688.47" width="11.34" height="877.92" style="fill:none;stroke:#000000;stroke-width:4.32"/>
	<rect x="572.13" y="2303.95" width="15.66" height="264.60" style="fill:#B8B8B8"/>
	<rect x="574.29" y="2306.11" width="11.34" height="260.28" style="fill:none;stroke:#000000;stroke-width:4.32"/>
	<rect x="587.79" y="2039.21" width="15.66" height="529.34" style="fill:#B8B8B8"/>
	<rect x="589.95" y="2041.37" width="11.34" height="525.02" style="fill:none;stroke:#000000;stroke-width:4.32"/>
	<rect x="603.45" y="1906.90" width="15.52" height="661.65" style="fill:#B8B8B8"/>
	<rect x="605.61" y="1909.06" width="11.21" height="657.33" style="fill:none;stroke:#000000;stroke-width:4.32"/>
	<rect x="618.98" y="2171.51" width="15.66" height="397.04" style="fill:#B8B8B8"/>
	<rect x="621.13" y="2173.67" width="11.34" height="392.72" style="fill:none;stroke:#000000;stroke-width:4.32"/>
	<rect x="634.63" y="2039.21" width="15.66" height="529.34" style="fill:#B8B8B8"/>
	<rect x="636.79" y="2041.37" width="11.34" height="525.02" style="fill:none;stroke:#000000;stroke-width:4.32"/>
	<rect x="650.29" y="1818.61" width="15.66" height="749.94" style="fill:#B8B8B8"/>
	<rect x="652.45" y="1820.77" width="11.34" height="745.62" style="fill:none;stroke:#000000;stroke-width:4.32"/>
	<rect x="665.96" y="1995.06" width="15.52" height="573.49" style="fill:#B8B8B8"/>
	<rect x="668.11" y="1997.22" width="11.21" height="569.17" style="fill:none;stroke:#000000;stroke-width:4.32"/>
	<rect x="681.48" y="2083.35" width="15.66" height="485.20" style="fill:#B8B8B8"/>
	<rect x="683.64" y="2085.51" width="11.34" height="480.88" style="fill:none;stroke:#000000;stroke-width:4.32"/>
	<rect x="697.14" y="1906.90" width="15.66" height="661.65" style="fill:#B8B8B8"/>
	<rect x="699.30" y="1909.06" width="11.34" height="657.33" style="fill:none;stroke:#000000;stroke-width:4.32"/>
	<rect x="712.80" y="1995.06" width="15.66" height="573.49" style="fill:#B8B8B8"/>
	<rect x="714.96" y="1997.22" width="11.34" height="569.17" style="fill:none;stroke:#000000;stroke-width:4.32"/>
	<rect x="728.46" y="1951.05" width="15.66" height="617.50" style="fill:#B8B8B8"/>
	<rect x="730.62" y="1953.21" width="11.34" height="613.18" style="fill:none;stroke:#000000;stroke-width:4.32"/>
	<rect x="744.12" y="1862.76" width="15.52" height="705.79" style="fill:#B8B8B8"/>
	<rect x="746.28" y="1864.92" width="11.21" height="701.47" style="fill:none;stroke:#000000;stroke-width:4.32"/>
	<rect x="759.64" y="1509.86" width="15.66" height="1058.69" style="fill:#B8B8B8"/>
	<rect x="761.80" y="1512.02" width="11.34" height="1054.37" style="fill:none;stroke:#000000;stroke-width:4.32"/>
	<rect x="775.30" y="1862.76" width="15.66" height="705.79" style="fill:#B8B8B8"/>
	<rect x="777.46" y="1864.92" width="11.34" height="701.47" style="fill:none;stroke:#000000;stroke-width:4.32"/>
	<rect x="790.97" y="1730.46" width="15.66" height="838.09" style="fill:#B8B8B8"/>
	<rect x="793.12" y="1732.62" width="11.34" height="833.77" style="fill:none;stroke:#000000;stroke-width:4.32"/>
	<rect x="806.63" y="1289.27" width="15.52" height="1279.28" style="fill:#B8B8B8"/>
	<rect x="808.78" y="1291.43" width="11.21" height="1274.96" style="fill:none;stroke:#000000;stroke-width:4.32"/>
	<rect x="822.15" y="1068.68" width="15.66" height="1499.87" style="fill:#B8B8B8"/>
	<rect x="824.31" y="1070.84" width="11.34" height="1495.55" style="fill:none;stroke:#000000;stroke-width:4.32"/>
	<rect x="837.81" y="1642.17" width="15.66" height="926.38" style="fill:#B8B8B8"/>
	<rect x="839.97" y="1644.33" width="11.34" height="922.06" style="fill:none;stroke:#000000;stroke-width:4.32"/>
	<rect x="853.47" y="980.52" width="15.66" height="1588.03" style="fill:#B8B8B8"/>
	<rect x="855.63" y="982.68" width="11.34" height="1583.71" style="fill:none;stroke:#000000;stroke-width:4.32"/>
	<rect x="869.13" y="715.78" width="15.66" height="1852.77" style="fill:#B8B8B8"/>
	<rect x="871.29" y="717.94" width="11.34" height="1848.45" style="fill:none;stroke:#000000;stroke-width:4.32"/>
	<rect x="884.79" y="186.44" width="15.53" height="2382.11" style="fill:#B8B8B8"/>
	<rect x="886.95" y="188.60" width="11.21" height="2377.79" style="fill:none;stroke:#000000;stroke-width:4.32"/>
	<rect x="900.32" y="627.62" width="15.66" height="1940.93" style="fill:#B8B8B8"/>
	<rect x="902.47" y="629.78" width="11.34" height="1936.61" style="fill:none;stroke:#000000;stroke-width:4.32"/>
	<rect x="915.98" y="362.89" width="15.66" height="2205.66" style="fill:#B8B8B8"/>
	<rect x="918.13" y="365.05" width="11.34" height="2201.34" style="fill:none;stroke:#000000;stroke-width:4.32"/>
	<rect x="931.63" y="804.07" width="15.66" height="1764.48" style="fill:#B8B8B8"/>
	<rect x="933.79" y="806.23" width="11.34" height="1760.16" style="fill:none;stroke:#000000;stroke-width:4.32"/>
	<rect x="947.29" y="848.22" width="15.53" height="1720.33" style="fill:#B8B8B8"/>
	<rect x="949.45" y="850.38" width="11.21" height="1716.01" style="fill:none;stroke:#000000;stroke-width:4.32"/>
	<rect x="962.82" y="1068.68" width="15.66" height="1499.87" style="fill:#B8B8B8"/>
	<rect x="964.98" y="1070.84" width="11.34" height="1495.55" style="fill:none;stroke:#000000;stroke-width:4.32"/>
	<rect x="978.48" y="1642.17" width="15.66" height="926.38" style="fill:#B8B8B8"/>
	<rect x="980.64" y="1644.33" width="11.34" height="922.06" style="fill:none;stroke:#000000;stroke-width:4.32"/>
	<rect x="994.14" y="1509.86" width="15.66" height="1058.69" style="fill:#B8B8B8"/>
	<rect x="996.30" y="1512.02" width="11.34" height="1054.37" style="fill:none;stroke:#000000;stroke-width:4.32"/>
	<rect x="1009.80" y="1818.61" width="15.53" height="749.94" style="fill:#B8B8B8"/>
	<rect x="1011.96" y="1820.77" width="11.21" height="745.62" style="fill:none;stroke:#000000;stroke-width:4.32"/>
	<rect x="1025.33" y="2127.50" width="15.66" height="441.05" style="fill:#B8B8B8"/>
	<rect x="1027.48" y="2129.66" width="11.34" height="436.73" style="fill:none;stroke:#000000;stroke-width:4.32"/>
	<rect x="1040.98" y="2303.95" width="15.66" height="264.60" style="fill:#B8B8B8"/>
	<rect x="1043.14" y="2306.11" width="11.34" height="260.28" style="fill:none;stroke:#000000;stroke-width:4.32"/>
	<rect x="1056.65" y="2480.39" width="15.66" height="88.16" style="fill:#B8B8B8"/>
	<rect x="1058.80" y="2482.55" width="11.34" height="83.84" style="fill:none;stroke:#000000;stroke-width:4.32"/>
	<rect x="1072.31" y="2171.51" width="15.66" height="397.04" style="fill:#B8B8B8"/>
	<rect x="1074.46" y="2173.67" width="11.34" height="392.72" style="fill:none;stroke:#000000;stroke-width:4.32"/>
	<rect x="1087.96" y="2347.96" width="15.53" height="220.59" style="fill:#B8B8B8"/>
	<rect x="1090.12" y="2350.12" width="11.21" height="216.27" style="fill:none;stroke:#000000;stroke-width:4.32"/>
	<rect x="1103.49" y="2303.95" width="15.66" height="264.60" style="fill:#B8B8B8"/>
	<rect x="1105.65" y="2306.11" width="11.34" height="260.28" style="fill:none;stroke:#000000;stroke-width:4.32"/>
	<rect x="1119.15" y="2303.95" width="15.66" height="264.60" style="fill:#B8B8B8"/>
	<rect x="1121.31" y="2306.11" width="11.34" height="260.28" style="fill:none;stroke:#000000;stroke-width:4.32"/>
	<rect x="1134.81" y="2303.95" width="15.66" height="264.60" style="fill:#B8B8B8"/>
	<rect x="1136.97" y="2306.11" width="11.34" height="260.28" style="fill:none;stroke:#000000;stroke-width:4.32"/>
	<rect x="1150.47" y="2347.96" width="15.52" height="220.59" style="fill:#B8B8B8"/>
	<rect x="1152.63" y="2350.12" width="11.21" height="216.27" style="fill:none;stroke:#000000;stroke-width:4.32"/>
	<rect x="1165.99" y="2347.96" width="15.66" height="220.59" style="fill:#B8B8B8"/>
	<rect x="1168.15" y="2350.12" width="11.34" height="216.27" style="fill:none;stroke:#000000;stroke-width:4.32"/>
	<rect x="1181.66" y="2436.25" width="15.66" height="132.30" style="fill:#B8B8B8"/>
	<rect x="1183.81" y="2438.41" width="11.34" height="127.98" style="fill:none;stroke:#000000;stroke-width:4.32"/>
	<rect x="1197.32" y="2480.39" width="15.66" height="88.16" style="fill:#B8B8B8"/>
	<rect x="1199.47" y="2482.55" width="11.34" height="83.84" style="fill:none;stroke:#000000;stroke-width:4.32"/>
	<rect x="1212.97" y="2480.39" width="15.66" height="88.16" style="fill:#B8B8B8"/>
	<rect x="1215.13" y="2482.55" width="11.34" height="83.84" style="fill:none;stroke:#000000;stroke-width:4.32"/>
	<rect x="1244.16" y="2480.39" width="15.66" height="88.16" style="fill:#B8B8B8"/>
	<rect x="1246.32" y="2482.55" width="11.34" height="83.84" style="fill:none;stroke:#000000;stroke-width:4.32"/>
	<rect x="1259.82" y="2480.39" width="15.66" height="88.16" style="fill:#B8B8B8"/>
	<rect x="1261.98" y="2482.55" width="11.34" height="83.84" style="fill:none;stroke:#000000;stroke-width:4.32"/>
	<rect x="1275.48" y="2524.40" width="15.66" height="44.15" style="fill:#B8B8B8"/>
	<rect x="1277.64" y="2526.56" width="11.34" height="39.83" style="fill:none;stroke:#000000;stroke-width:4.32"/>
	<line x1="305.77" y1="2568.55" x2="275.81" y2="2568.55" style="stroke:#606060;stroke-width:4.32"/>
	<text x="260.82" y="2584.32" style="font-family:'Helvetica';font-size:44.95px;fill:#606060" text-anchor="end">0</text>
	<line x1="305.77" y1="1831.84" x2="275.81" y2="1831.84" style="stroke:#606060;stroke-width:4.32"/>
	<text x="260.82" y="1847.61" style="font-family:'Helvetica';font-size:44.95px;fill:#606060" text-anchor="end">2</text>
	<line x1="305.77" y1="1095.14" x2="275.81" y2="1095.14" style="stroke:#606060;stroke-width:4.32"/>
	<text x="260.82" y="1110.91" style="font-family:'Helvetica';font-size:44.95px;fill:#606060" text-anchor="end">4</text>
	<line x1="305.77" y1="358.57" x2="275.81" y2="358.57" style="stroke:#606060;stroke-width:4.32"/>
	<text x="260.82" y="374.33" style="font-family:'Helvetica';font-size:44.95px;fill:#606060" text-anchor="end">6</text>
	<text x="195.93" y="1353.80" style="font-family:'Helvetica';font-size:59.94px;fill:#000000" transform="rotate(-90 195.93,1353.80)" text-anchor="middle">Percent</text>
	<line x1="353.30" y1="2568.55" x2="353.30" y2="2583.54" style="stroke:#606060;stroke-width:4.32"/>
	<line x1="368.95" y1="2568.55" x2="368.95" y2="2583.54" style="stroke:#606060;stroke-width:4.32"/>
	<line x1="384.62" y1="2568.55" x2="384.62" y2="2583.54" style="stroke:#606060;stroke-width:4.32"/>
	<line x1="400.27" y1="2568.55" x2="400.27" y2="2583.54" style="stroke:#606060;stroke-width:4.32"/>
	<line x1="415.80" y1="2568.55" x2="415.80" y2="2583.54" style="stroke:#606060;stroke-width:4.32"/>
	<line x1="431.46" y1="2568.55" x2="431.46" y2="2583.54" style="stroke:#606060;stroke-width:4.32"/>
	<line x1="447.12" y1="2568.55" x2="447.12" y2="2583.54" style="stroke:#606060;stroke-width:4.32"/>
	<line x1="462.78" y1="2568.55" x2="462.78" y2="2583.54" style="stroke:#606060;stroke-width:4.32"/>
	<line x1="478.31" y1="2568.55" x2="478.31" y2="2583.54" style="stroke:#606060;stroke-width:4.32"/>
	<line x1="493.96" y1="2568.55" x2="493.96" y2="2583.54" style="stroke:#606060;stroke-width:4.32"/>
	<line x1="509.63" y1="2568.55" x2="509.63" y2="2583.54" style="stroke:#606060;stroke-width:4.32"/>
	<line x1="525.28" y1="2568.55" x2="525.28" y2="2583.54" style="stroke:#606060;stroke-width:4.32"/>
	<line x1="540.95" y1="2568.55" x2="540.95" y2="2583.54" style="stroke:#606060;stroke-width:4.32"/>
	<line x1="556.47" y1="2568.55" x2="556.47" y2="2583.54" style="stroke:#606060;stroke-width:4.32"/>
	<line x1="572.13" y1="2568.55" x2="572.13" y2="2583.54" style="stroke:#606060;stroke-width:4.32"/>
	<line x1="587.79" y1="2568.55" x2="587.79" y2="2583.54" style="stroke:#606060;stroke-width:4.32"/>
	<line x1="603.45" y1="2568.55" x2="603.45" y2="2583.54" style="stroke:#606060;stroke-width:4.32"/>
	<line x1="618.98" y1="2568.55" x2="618.98" y2="2583.54" style="stroke:#606060;stroke-width:4.32"/>
	<line x1="634.63" y1="2568.55" x2="634.63" y2="2583.54" style="stroke:#606060;stroke-width:4.32"/>
	<line x1="650.29" y1="2568.55" x2="650.29" y2="2583.54" style="stroke:#606060;stroke-width:4.32"/>
	<line x1="665.96" y1="2568.55" x2="665.96" y2="2583.54" style="stroke:#606060;stroke-width:4.32"/>
	<line x1="681.48" y1="2568.55" x2="681.48" y2="2583.54" style="stroke:#606060;stroke-width:4.32"/>
	<line x1="697.14" y1="2568.55" x2="697.14" y2="2583.54" style="stroke:#606060;stroke-width:4.32"/>
	<line x1="712.80" y1="2568.55" x2="712.80" y2="2583.54" style="stroke:#606060;stroke-width:4.32"/>
	<line x1="728.46" y1="2568.55" x2="728.46" y2="2583.54" style="stroke:#606060;stroke-width:4.32"/>
	<line x1="744.12" y1="2568.55" x2="744.12" y2="2583.54" style="stroke:#606060;stroke-width:4.32"/>
	<line x1="759.64" y1="2568.55" x2="759.64" y2="2583.54" style="stroke:#606060;stroke-width:4.32"/>
	<line x1="775.30" y1="2568.55" x2="775.30" y2="2583.54" style="stroke:#606060;stroke-width:4.32"/>
	<line x1="790.97" y1="2568.55" x2="790.97" y2="2583.54" style="stroke:#606060;stroke-width:4.32"/>
	<line x1="806.63" y1="2568.55" x2="806.63" y2="2583.54" style="stroke:#606060;stroke-width:4.32"/>
	<line x1="822.15" y1="2568.55" x2="822.15" y2="2583.54" style="stroke:#606060;stroke-width:4.32"/>
	<line x1="837.81" y1="2568.55" x2="837.81" y2="2583.54" style="stroke:#606060;stroke-width:4.32"/>
	<line x1="853.47" y1="2568.55" x2="853.47" y2="2583.54" style="stroke:#606060;stroke-width:4.32"/>
	<line x1="869.13" y1="2568.55" x2="869.13" y2="2583.54" style="stroke:#606060;stroke-width:4.32"/>
	<line x1="884.79" y1="2568.55" x2="884.79" y2="2583.54" style="stroke:#606060;stroke-width:4.32"/>
	<line x1="900.32" y1="2568.55" x2="900.32" y2="2583.54" style="stroke:#606060;stroke-width:4.32"/>
	<line x1="915.98" y1="2568.55" x2="915.98" y2="2583.54" style="stroke:#606060;stroke-width:4.32"/>
	<line x1="931.63" y1="2568.55" x2="931.63" y2="2583.54" style="stroke:#606060;stroke-width:4.32"/>
	<line x1="947.29" y1="2568.55" x2="947.29" y2="2583.54" style="stroke:#606060;stroke-width:4.32"/>
	<line x1="962.82" y1="2568.55" x2="962.82" y2="2583.54" style="stroke:#606060;stroke-width:4.32"/>
	<line x1="978.48" y1="2568.55" x2="978.48" y2="2583.54" style="stroke:#606060;stroke-width:4.32"/>
	<line x1="994.14" y1="2568.55" x2="994.14" y2="2583.54" style="stroke:#606060;stroke-width:4.32"/>
	<line x1="1009.80" y1="2568.55" x2="1009.80" y2="2583.54" style="stroke:#606060;stroke-width:4.32"/>
	<line x1="1025.33" y1="2568.55" x2="1025.33" y2="2583.54" style="stroke:#606060;stroke-width:4.32"/>
	<line x1="1040.98" y1="2568.55" x2="1040.98" y2="2583.54" style="stroke:#606060;stroke-width:4.32"/>
	<line x1="1056.65" y1="2568.55" x2="1056.65" y2="2583.54" style="stroke:#606060;stroke-width:4.32"/>
	<line x1="1072.31" y1="2568.55" x2="1072.31" y2="2583.54" style="stroke:#606060;stroke-width:4.32"/>
	<line x1="1087.96" y1="2568.55" x2="1087.96" y2="2583.54" style="stroke:#606060;stroke-width:4.32"/>
	<line x1="1103.49" y1="2568.55" x2="1103.49" y2="2583.54" style="stroke:#606060;stroke-width:4.32"/>
	<line x1="1119.15" y1="2568.55" x2="1119.15" y2="2583.54" style="stroke:#606060;stroke-width:4.32"/>
	<line x1="1134.81" y1="2568.55" x2="1134.81" y2="2583.54" style="stroke:#606060;stroke-width:4.32"/>
	<line x1="1150.47" y1="2568.55" x2="1150.47" y2="2583.54" style="stroke:#606060;stroke-width:4.32"/>
	<line x1="1165.99" y1="2568.55" x2="1165.99" y2="2583.54" style="stroke:#606060;stroke-width:4.32"/>
	<line x1="1181.66" y1="2568.55" x2="1181.66" y2="2583.54" style="stroke:#606060;stroke-width:4.32"/>
	<line x1="1197.32" y1="2568.55" x2="1197.32" y2="2583.54" style="stroke:#606060;stroke-width:4.32"/>
	<line x1="1212.97" y1="2568.55" x2="1212.97" y2="2583.54" style="stroke:#606060;stroke-width:4.32"/>
	<line x1="1228.64" y1="2568.55" x2="1228.64" y2="2583.54" style="stroke:#606060;stroke-width:4.32"/>
	<line x1="1244.16" y1="2568.55" x2="1244.16" y2="2583.54" style="stroke:#606060;stroke-width:4.32"/>
	<line x1="1259.82" y1="2568.55" x2="1259.82" y2="2583.54" style="stroke:#606060;stroke-width:4.32"/>
	<line x1="1275.48" y1="2568.55" x2="1275.48" y2="2583.54" style="stroke:#606060;stroke-width:4.32"/>
	<line x1="1291.14" y1="2568.55" x2="1291.14" y2="2583.54" style="stroke:#606060;stroke-width:4.32"/>
	<line x1="1306.67" y1="2568.55" x2="1306.67" y2="2583.54" style="stroke:#606060;stroke-width:4.32"/>
	<line x1="1322.33" y1="2568.55" x2="1322.33" y2="2583.54" style="stroke:#606060;stroke-width:4.32"/>
	<line x1="1337.98" y1="2568.55" x2="1337.98" y2="2583.54" style="stroke:#606060;stroke-width:4.32"/>
	<line x1="353.30" y1="2568.55" x2="353.30" y2="2598.52" style="stroke:#606060;stroke-width:4.32"/>
	<text x="353.30" y="2644.91" style="font-family:'Helvetica';font-size:44.95px;fill:#606060" text-anchor="middle">-36</text>
	<line x1="447.12" y1="2568.55" x2="447.12" y2="2598.52" style="stroke:#606060;stroke-width:4.32"/>
	<text x="447.12" y="2644.91" style="font-family:'Helvetica';font-size:44.95px;fill:#606060" text-anchor="middle">-30</text>
	<line x1="540.95" y1="2568.55" x2="540.95" y2="2598.52" style="stroke:#606060;stroke-width:4.32"/>
	<text x="540.95" y="2644.91" style="font-family:'Helvetica';font-size:44.95px;fill:#606060" text-anchor="middle">-24</text>
	<line x1="634.63" y1="2568.55" x2="634.63" y2="2598.52" style="stroke:#606060;stroke-width:4.32"/>
	<text x="634.63" y="2644.91" style="font-family:'Helvetica';font-size:44.95px;fill:#606060" text-anchor="middle">-18</text>
	<line x1="728.46" y1="2568.55" x2="728.46" y2="2598.52" style="stroke:#606060;stroke-width:4.32"/>
	<text x="728.46" y="2644.91" style="font-family:'Helvetica';font-size:44.95px;fill:#606060" text-anchor="middle">-12</text>
	<line x1="822.15" y1="2568.55" x2="822.15" y2="2598.52" style="stroke:#606060;stroke-width:4.32"/>
	<text x="822.15" y="2644.91" style="font-family:'Helvetica';font-size:44.95px;fill:#606060" text-anchor="middle">-6</text>
	<line x1="915.98" y1="2568.55" x2="915.98" y2="2598.52" style="stroke:#606060;stroke-width:4.32"/>
	<text x="915.98" y="2644.91" style="font-family:'Helvetica';font-size:44.95px;fill:#606060" text-anchor="middle">0</text>
	<line x1="1009.80" y1="2568.55" x2="1009.80" y2="2598.52" style="stroke:#606060;stroke-width:4.32"/>
	<text x="1009.80" y="2644.91" style="font-family:'Helvetica';font-size:44.95px;fill:#606060" text-anchor="middle">6</text>
	<line x1="1103.49" y1="2568.55" x2="1103.49" y2="2598.52" style="stroke:#606060;stroke-width:4.32"/>
	<text x="1103.49" y="2644.91" style="font-family:'Helvetica';font-size:44.95px;fill:#606060" text-anchor="middle">12</text>
	<line x1="1197.32" y1="2568.55" x2="1197.32" y2="2598.52" style="stroke:#606060;stroke-width:4.32"/>
	<text x="1197.32" y="2644.91" style="font-family:'Helvetica';font-size:44.95px;fill:#606060" text-anchor="middle">18</text>
	<line x1="1291.14" y1="2568.55" x2="1291.14" y2="2598.52" style="stroke:#606060;stroke-width:4.32"/>
	<text x="1291.14" y="2644.91" style="font-family:'Helvetica';font-size:44.95px;fill:#606060" text-anchor="middle">24</text>
	<text x="845.64" y="2708.05" style="font-family:'Helvetica';font-size:59.94px;fill:#000000" text-anchor="middle">slope - Raven</text>
	<rect x="1461.11" y="63.32" width="1397.79" height="2753.37" style="fill:#FFFFFF"/>
	<rect x="1463.26" y="65.48" width="1393.47" height="2749.05" style="fill:none;stroke:#FFFFFF;stroke-width:4.32"/>
	<rect x="1729.76" y="138.92" width="1053.54" height="2429.63" style="fill:#E0E0E0"/>
	<rect x="1731.91" y="141.08" width="1049.22" height="2425.31" style="fill:none;stroke:#FFFFFF;stroke-width:4.32"/>
	<line x1="1729.76" y1="2568.55" x2="2783.30" y2="2568.55" style="stroke:#FFFFFF;stroke-width:4.32"/>
	<line x1="1729.76" y1="1774.47" x2="2783.30" y2="1774.47" style="stroke:#FFFFFF;stroke-width:4.32"/>
	<line x1="1729.76" y1="980.52" x2="2783.30" y2="980.52" style="stroke:#FFFFFF;stroke-width:4.32"/>
	<line x1="1729.76" y1="186.44" x2="2783.30" y2="186.44" style="stroke:#FFFFFF;stroke-width:4.32"/>
	<line x1="1857.19" y1="2568.55" x2="1857.19" y2="138.92" style="stroke:#FFFFFF;stroke-width:4.32"/>
	<line x1="1937.12" y1="2568.55" x2="1937.12" y2="138.92" style="stroke:#FFFFFF;stroke-width:4.32"/>
	<line x1="2016.90" y1="2568.55" x2="2016.90" y2="138.92" style="stroke:#FFFFFF;stroke-width:4.32"/>
	<line x1="2096.82" y1="2568.55" x2="2096.82" y2="138.92" style="stroke:#FFFFFF;stroke-width:4.32"/>
	<line x1="2176.61" y1="2568.55" x2="2176.61" y2="138.92" style="stroke:#FFFFFF;stroke-width:4.32"/>
	<line x1="2256.53" y1="2568.55" x2="2256.53" y2="138.92" style="stroke:#FFFFFF;stroke-width:4.32"/>
	<line x1="2336.45" y1="2568.55" x2="2336.45" y2="138.92" style="stroke:#FFFFFF;stroke-width:4.32"/>
	<line x1="2416.23" y1="2568.55" x2="2416.23" y2="138.92" style="stroke:#FFFFFF;stroke-width:4.32"/>
	<line x1="2496.15" y1="2568.55" x2="2496.15" y2="138.92" style="stroke:#FFFFFF;stroke-width:4.32"/>
	<line x1="2575.93" y1="2568.55" x2="2575.93" y2="138.92" style="stroke:#FFFFFF;stroke-width:4.32"/>
	<line x1="2655.86" y1="2568.55" x2="2655.86" y2="138.92" style="stroke:#FFFFFF;stroke-width:4.32"/>
	<line x1="2735.78" y1="2568.55" x2="2735.78" y2="138.92" style="stroke:#FFFFFF;stroke-width:4.32"/>
	<rect x="1857.19" y="2529.26" width="39.96" height="39.29" style="fill:#B8B8B8"/>
	<rect x="1859.35" y="2531.42" width="35.64" height="34.97" style="fill:none;stroke:#000000;stroke-width:4.32"/>
	<rect x="1897.16" y="2509.55" width="39.96" height="59.00" style="fill:#B8B8B8"/>
	<rect x="1899.31" y="2511.71" width="35.64" height="54.68" style="fill:none;stroke:#000000;stroke-width:4.32"/>
	<rect x="1937.12" y="2254.13" width="39.83" height="314.42" style="fill:#B8B8B8"/>
	<rect x="1939.27" y="2256.29" width="35.51" height="310.10" style="fill:none;stroke:#000000;stroke-width:4.32"/>
	<rect x="1976.94" y="2470.27" width="39.96" height="98.28" style="fill:#B8B8B8"/>
	<rect x="1979.10" y="2472.43" width="35.64" height="93.96" style="fill:none;stroke:#000000;stroke-width:4.32"/>
	<rect x="2016.90" y="2254.13" width="39.96" height="314.42" style="fill:#B8B8B8"/>
	<rect x="2019.06" y="2256.29" width="35.64" height="310.10" style="fill:none;stroke:#000000;stroke-width:4.32"/>
	<rect x="2056.86" y="2175.42" width="39.96" height="393.13" style="fill:#B8B8B8"/>
	<rect x="2059.02" y="2177.58" width="35.64" height="388.81" style="fill:none;stroke:#000000;stroke-width:4.32"/>
	<rect x="2096.82" y="2136.14" width="39.96" height="432.41" style="fill:#B8B8B8"/>
	<rect x="2098.98" y="2138.30" width="35.64" height="428.09" style="fill:none;stroke:#000000;stroke-width:4.32"/>
	<rect x="2136.78" y="1939.58" width="39.82" height="628.97" style="fill:#B8B8B8"/>
	<rect x="2138.94" y="1941.74" width="35.51" height="624.65" style="fill:none;stroke:#000000;stroke-width:4.32"/>
	<rect x="2176.61" y="1723.44" width="39.96" height="845.11" style="fill:#B8B8B8"/>
	<rect x="2178.76" y="1725.60" width="35.64" height="840.79" style="fill:none;stroke:#000000;stroke-width:4.32"/>
	<rect x="2216.57" y="1743.15" width="39.96" height="825.40" style="fill:#B8B8B8"/>
	<rect x="2218.72" y="1745.31" width="35.64" height="821.08" style="fill:none;stroke:#000000;stroke-width:4.32"/>
	<rect x="2256.53" y="229.77" width="39.96" height="2338.78" style="fill:#B8B8B8"/>
	<rect x="2258.68" y="231.93" width="35.64" height="2334.46" style="fill:none;stroke:#000000;stroke-width:4.32"/>
	<rect x="2296.49" y="1074.89" width="39.96" height="1493.66" style="fill:#B8B8B8"/>
	<rect x="2298.64" y="1077.05" width="35.64" height="1489.34" style="fill:none;stroke:#000000;stroke-width:4.32"/>
	<rect x="2336.45" y="1664.44" width="39.82" height="904.11" style="fill:#B8B8B8"/>
	<rect x="2338.60" y="1666.60" width="35.51" height="899.79" style="fill:none;stroke:#000000;stroke-width:4.32"/>
	<rect x="2376.27" y="760.33" width="39.96" height="1808.22" style="fill:#B8B8B8"/>
	<rect x="2378.43" y="762.49" width="35.64" height="1803.90" style="fill:none;stroke:#000000;stroke-width:4.32"/>
	<rect x="2416.23" y="1133.75" width="39.96" height="1434.80" style="fill:#B8B8B8"/>
	<rect x="2418.39" y="1135.91" width="35.64" height="1430.48" style="fill:none;stroke:#000000;stroke-width:4.32"/>
	<rect x="2456.19" y="1861.00" width="39.96" height="707.55" style="fill:#B8B8B8"/>
	<rect x="2458.35" y="1863.16" width="35.64" height="703.23" style="fill:none;stroke:#000000;stroke-width:4.32"/>
	<rect x="2496.15" y="1251.74" width="39.96" height="1316.81" style="fill:#B8B8B8"/>
	<rect x="2498.31" y="1253.90" width="35.64" height="1312.49" style="fill:none;stroke:#000000;stroke-width:4.32"/>
	<rect x="2536.11" y="2254.13" width="39.82" height="314.42" style="fill:#B8B8B8"/>
	<rect x="2538.27" y="2256.29" width="35.51" height="310.10" style="fill:none;stroke:#000000;stroke-width:4.32"/>
	<rect x="2575.93" y="2293.42" width="39.96" height="275.13" style="fill:#B8B8B8"/>
	<rect x="2578.09" y="2295.58" width="35.64" height="270.81" style="fill:none;stroke:#000000;stroke-width:4.32"/>
	<rect x="2615.90" y="1821.72" width="39.96" height="746.83" style="fill:#B8B8B8"/>
	<rect x="2618.05" y="1823.88" width="35.64" height="742.51" style="fill:none;stroke:#000000;stroke-width:4.32"/>
	<rect x="2655.86" y="2332.70" width="39.96" height="235.85" style="fill:#B8B8B8"/>
	<rect x="2658.01" y="2334.86" width="35.64" height="231.53" style="fill:none;stroke:#000000;stroke-width:4.32"/>
	<rect x="2695.82" y="2214.84" width="39.96" height="353.71" style="fill:#B8B8B8"/>
	<rect x="2697.97" y="2217.00" width="35.64" height="349.39" style="fill:none;stroke:#000000;stroke-width:4.32"/>
	<line x1="1729.76" y1="2568.55" x2="1699.79" y2="2568.55" style="stroke:#606060;stroke-width:4.32"/>
	<text x="1684.80" y="2584.32" style="font-family:'Helvetica';font-size:44.95px;fill:#606060" text-anchor="end">0</text>
	<line x1="1729.76" y1="1774.47" x2="1699.79" y2="1774.47" style="stroke:#606060;stroke-width:4.32"/>
	<text x="1684.80" y="1790.24" style="font-family:'Helvetica';font-size:44.95px;fill:#606060" text-anchor="end">5</text>
	<line x1="1729.76" y1="980.52" x2="1699.79" y2="980.52" style="stroke:#606060;stroke-width:4.32"/>
	<text x="1684.80" y="996.29" style="font-family:'Helvetica';font-size:44.95px;fill:#606060" text-anchor="end">10</text>
	<line x1="1729.76" y1="186.44" x2="1699.79" y2="186.44" style="stroke:#606060;stroke-width:4.32"/>
	<text x="1684.80" y="202.21" style="font-family:'Helvetica';font-size:44.95px;fill:#606060" text-anchor="end">15</text>
	<text x="1593.58" y="1353.80" style="font-family:'Helvetica';font-size:59.94px;fill:#000000" transform="rotate(-90 1593.58,1353.80)" text-anchor="middle">Percent</text>
	<line x1="1777.28" y1="2568.55" x2="1777.28" y2="2598.52" style="stroke:#606060;stroke-width:4.32"/>
	<text x="1777.28" y="2644.91" style="font-family:'Helvetica';font-size:44.95px;fill:#606060" text-anchor="middle">-12</text>
	<line x1="1857.19" y1="2568.55" x2="1857.19" y2="2598.52" style="stroke:#606060;stroke-width:4.32"/>
	<text x="1857.19" y="2644.91" style="font-family:'Helvetica';font-size:44.95px;fill:#606060" text-anchor="middle">-10</text>
	<line x1="1937.12" y1="2568.55" x2="1937.12" y2="2598.52" style="stroke:#606060;stroke-width:4.32"/>
	<text x="1937.12" y="2644.91" style="font-family:'Helvetica';font-size:44.95px;fill:#606060" text-anchor="middle">-8</text>
	<line x1="2016.90" y1="2568.55" x2="2016.90" y2="2598.52" style="stroke:#606060;stroke-width:4.32"/>
	<text x="2016.90" y="2644.91" style="font-family:'Helvetica';font-size:44.95px;fill:#606060" text-anchor="middle">-6</text>
	<line x1="2096.82" y1="2568.55" x2="2096.82" y2="2598.52" style="stroke:#606060;stroke-width:4.32"/>
	<text x="2096.82" y="2644.91" style="font-family:'Helvetica';font-size:44.95px;fill:#606060" text-anchor="middle">-4</text>
	<line x1="2176.61" y1="2568.55" x2="2176.61" y2="2598.52" style="stroke:#606060;stroke-width:4.32"/>
	<text x="2176.61" y="2644.91" style="font-family:'Helvetica';font-size:44.95px;fill:#606060" text-anchor="middle">-2</text>
	<line x1="2256.53" y1="2568.55" x2="2256.53" y2="2598.52" style="stroke:#606060;stroke-width:4.32"/>
	<text x="2256.53" y="2644.91" style="font-family:'Helvetica';font-size:44.95px;fill:#606060" text-anchor="middle">0</text>
	<line x1="2336.45" y1="2568.55" x2="2336.45" y2="2598.52" style="stroke:#606060;stroke-width:4.32"/>
	<text x="2336.45" y="2644.91" style="font-family:'Helvetica';font-size:44.95px;fill:#606060" text-anchor="middle">2</text>
	<line x1="2416.23" y1="2568.55" x2="2416.23" y2="2598.52" style="stroke:#606060;stroke-width:4.32"/>
	<text x="2416.23" y="2644.91" style="font-family:'Helvetica';font-size:44.95px;fill:#606060" text-anchor="middle">4</text>
	<line x1="2496.15" y1="2568.55" x2="2496.15" y2="2598.52" style="stroke:#606060;stroke-width:4.32"/>
	<text x="2496.15" y="2644.91" style="font-family:'Helvetica';font-size:44.95px;fill:#606060" text-anchor="middle">6</text>
	<line x1="2575.93" y1="2568.55" x2="2575.93" y2="2598.52" style="stroke:#606060;stroke-width:4.32"/>
	<text x="2575.93" y="2644.91" style="font-family:'Helvetica';font-size:44.95px;fill:#606060" text-anchor="middle">8</text>
	<line x1="2655.86" y1="2568.55" x2="2655.86" y2="2598.52" style="stroke:#606060;stroke-width:4.32"/>
	<text x="2655.86" y="2644.91" style="font-family:'Helvetica';font-size:44.95px;fill:#606060" text-anchor="middle">10</text>
	<line x1="2735.78" y1="2568.55" x2="2735.78" y2="2598.52" style="stroke:#606060;stroke-width:4.32"/>
	<text x="2735.78" y="2644.91" style="font-family:'Helvetica';font-size:44.95px;fill:#606060" text-anchor="middle">12</text>
	<text x="2256.53" y="2708.05" style="font-family:'Helvetica';font-size:59.94px;fill:#000000" text-anchor="middle">slope -  Num</text>
	<rect x="2858.90" y="63.32" width="1397.66" height="2753.37" style="fill:#FFFFFF"/>
	<rect x="2861.05" y="65.48" width="1393.34" height="2749.05" style="fill:none;stroke:#FFFFFF;stroke-width:4.32"/>
	<rect x="3127.55" y="138.92" width="1053.40" height="2429.63" style="fill:#E0E0E0"/>
	<rect x="3129.70" y="141.08" width="1049.09" height="2425.31" style="fill:none;stroke:#FFFFFF;stroke-width:4.32"/>
	<line x1="3127.55" y1="2568.55" x2="4180.95" y2="2568.55" style="stroke:#FFFFFF;stroke-width:4.32"/>
	<line x1="3127.55" y1="1973.06" x2="4180.95" y2="1973.06" style="stroke:#FFFFFF;stroke-width:4.32"/>
	<line x1="3127.55" y1="1377.56" x2="4180.95" y2="1377.56" style="stroke:#FFFFFF;stroke-width:4.32"/>
	<line x1="3127.55" y1="782.07" x2="4180.95" y2="782.07" style="stroke:#FFFFFF;stroke-width:4.32"/>
	<line x1="3127.55" y1="186.44" x2="4180.95" y2="186.44" style="stroke:#FFFFFF;stroke-width:4.32"/>
	<line x1="3204.09" y1="2568.55" x2="3204.09" y2="138.92" style="stroke:#FFFFFF;stroke-width:4.32"/>
	<line x1="3320.32" y1="2568.55" x2="3320.32" y2="138.92" style="stroke:#FFFFFF;stroke-width:4.32"/>
	<line x1="3436.43" y1="2568.55" x2="3436.43" y2="138.92" style="stroke:#FFFFFF;stroke-width:4.32"/>
	<line x1="3552.66" y1="2568.55" x2="3552.66" y2="138.92" style="stroke:#FFFFFF;stroke-width:4.32"/>
	<line x1="3668.76" y1="2568.55" x2="3668.76" y2="138.92" style="stroke:#FFFFFF;stroke-width:4.32"/>
	<line x1="3784.99" y1="2568.55" x2="3784.99" y2="138.92" style="stroke:#FFFFFF;stroke-width:4.32"/>
	<line x1="3901.09" y1="2568.55" x2="3901.09" y2="138.92" style="stroke:#FFFFFF;stroke-width:4.32"/>
	<line x1="4017.33" y1="2568.55" x2="4017.33" y2="138.92" style="stroke:#FFFFFF;stroke-width:4.32"/>
	<line x1="4133.43" y1="2568.55" x2="4133.43" y2="138.92" style="stroke:#FFFFFF;stroke-width:4.32"/>
	<rect x="3204.09" y="2385.62" width="58.05" height="182.93" style="fill:#B8B8B8"/>
	<rect x="3206.25" y="2387.78" width="53.73" height="178.61" style="fill:none;stroke:#000000;stroke-width:4.32"/>
	<rect x="3262.14" y="2486.20" width="58.18" height="82.35" style="fill:#B8B8B8"/>
	<rect x="3264.30" y="2488.36" width="53.87" height="78.03" style="fill:none;stroke:#000000;stroke-width:4.32"/>
	<rect x="3320.32" y="2486.20" width="58.05" height="82.35" style="fill:#B8B8B8"/>
	<rect x="3322.48" y="2488.36" width="53.73" height="78.03" style="fill:none;stroke:#000000;stroke-width:4.32"/>
	<rect x="3378.38" y="2513.74" width="58.05" height="54.81" style="fill:#B8B8B8"/>
	<rect x="3380.53" y="2515.90" width="53.73" height="50.49" style="fill:none;stroke:#000000;stroke-width:4.32"/>
	<rect x="3436.43" y="2211.74" width="58.05" height="356.81" style="fill:#B8B8B8"/>
	<rect x="3438.58" y="2213.90" width="53.73" height="352.49" style="fill:none;stroke:#000000;stroke-width:4.32"/>
	<rect x="3494.47" y="2330.68" width="58.18" height="237.87" style="fill:#B8B8B8"/>
	<rect x="3496.63" y="2332.84" width="53.87" height="233.55" style="fill:none;stroke:#000000;stroke-width:4.32"/>
	<rect x="3552.66" y="2321.63" width="58.05" height="246.92" style="fill:#B8B8B8"/>
	<rect x="3554.82" y="2323.79" width="53.73" height="242.60" style="fill:none;stroke:#000000;stroke-width:4.32"/>
	<rect x="3610.71" y="2294.09" width="58.05" height="274.46" style="fill:#B8B8B8"/>
	<rect x="3612.87" y="2296.25" width="53.73" height="270.14" style="fill:none;stroke:#000000;stroke-width:4.32"/>
	<rect x="3668.76" y="254.21" width="58.05" height="2314.34" style="fill:#B8B8B8"/>
	<rect x="3670.92" y="256.37" width="53.73" height="2310.02" style="fill:none;stroke:#000000;stroke-width:4.32"/>
	<rect x="3726.81" y="2129.52" width="58.18" height="439.03" style="fill:#B8B8B8"/>
	<rect x="3728.97" y="2131.68" width="53.87" height="434.71" style="fill:none;stroke:#000000;stroke-width:4.32"/>
	<rect x="3784.99" y="2193.51" width="58.05" height="375.04" style="fill:#B8B8B8"/>
	<rect x="3787.15" y="2195.67" width="53.73" height="370.72" style="fill:none;stroke:#000000;stroke-width:4.32"/>
	<rect x="3843.05" y="2330.68" width="58.05" height="237.87" style="fill:#B8B8B8"/>
	<rect x="3845.20" y="2332.84" width="53.73" height="233.55" style="fill:none;stroke:#000000;stroke-width:4.32"/>
	<rect x="3901.09" y="1946.46" width="58.05" height="622.09" style="fill:#B8B8B8"/>
	<rect x="3903.25" y="1948.62" width="53.73" height="617.77" style="fill:none;stroke:#000000;stroke-width:4.32"/>
	<rect x="3959.15" y="2403.85" width="58.18" height="164.70" style="fill:#B8B8B8"/>
	<rect x="3961.30" y="2406.01" width="53.87" height="160.38" style="fill:none;stroke:#000000;stroke-width:4.32"/>
	<rect x="4017.33" y="2477.02" width="58.05" height="91.53" style="fill:#B8B8B8"/>
	<rect x="4019.49" y="2479.18" width="53.73" height="87.21" style="fill:none;stroke:#000000;stroke-width:4.32"/>
	<rect x="4075.38" y="2376.44" width="58.05" height="192.11" style="fill:#B8B8B8"/>
	<rect x="4077.54" y="2378.60" width="53.73" height="187.79" style="fill:none;stroke:#000000;stroke-width:4.32"/>
	<line x1="3127.55" y1="2568.55" x2="3097.57" y2="2568.55" style="stroke:#606060;stroke-width:4.32"/>
	<text x="3082.59" y="2584.32" style="font-family:'Helvetica';font-size:44.95px;fill:#606060" text-anchor="end">0</text>
	<line x1="3127.55" y1="1973.06" x2="3097.57" y2="1973.06" style="stroke:#606060;stroke-width:4.32"/>
	<text x="3082.59" y="1988.82" style="font-family:'Helvetica';font-size:44.95px;fill:#606060" text-anchor="end">10</text>
	<line x1="3127.55" y1="1377.56" x2="3097.57" y2="1377.56" style="stroke:#606060;stroke-width:4.32"/>
	<text x="3082.59" y="1393.33" style="font-family:'Helvetica';font-size:44.95px;fill:#606060" text-anchor="end">20</text>
	<line x1="3127.55" y1="782.07" x2="3097.57" y2="782.07" style="stroke:#606060;stroke-width:4.32"/>
	<text x="3082.59" y="797.84" style="font-family:'Helvetica';font-size:44.95px;fill:#606060" text-anchor="end">30</text>
	<line x1="3127.55" y1="186.44" x2="3097.57" y2="186.44" style="stroke:#606060;stroke-width:4.32"/>
	<text x="3082.59" y="202.21" style="font-family:'Helvetica';font-size:44.95px;fill:#606060" text-anchor="end">40</text>
	<text x="2991.37" y="1353.80" style="font-family:'Helvetica';font-size:59.94px;fill:#000000" transform="rotate(-90 2991.37,1353.80)" text-anchor="middle">Percent</text>
	<line x1="3204.09" y1="2568.55" x2="3204.09" y2="2583.54" style="stroke:#606060;stroke-width:4.32"/>
	<line x1="3227.31" y1="2568.55" x2="3227.31" y2="2583.54" style="stroke:#606060;stroke-width:4.32"/>
	<line x1="3250.53" y1="2568.55" x2="3250.53" y2="2583.54" style="stroke:#606060;stroke-width:4.32"/>
	<line x1="3273.75" y1="2568.55" x2="3273.75" y2="2583.54" style="stroke:#606060;stroke-width:4.32"/>
	<line x1="3296.97" y1="2568.55" x2="3296.97" y2="2583.54" style="stroke:#606060;stroke-width:4.32"/>
	<line x1="3320.32" y1="2568.55" x2="3320.32" y2="2583.54" style="stroke:#606060;stroke-width:4.32"/>
	<line x1="3343.55" y1="2568.55" x2="3343.55" y2="2583.54" style="stroke:#606060;stroke-width:4.32"/>
	<line x1="3366.76" y1="2568.55" x2="3366.76" y2="2583.54" style="stroke:#606060;stroke-width:4.32"/>
	<line x1="3389.99" y1="2568.55" x2="3389.99" y2="2583.54" style="stroke:#606060;stroke-width:4.32"/>
	<line x1="3413.20" y1="2568.55" x2="3413.20" y2="2583.54" style="stroke:#606060;stroke-width:4.32"/>
	<line x1="3436.43" y1="2568.55" x2="3436.43" y2="2583.54" style="stroke:#606060;stroke-width:4.32"/>
	<line x1="3459.65" y1="2568.55" x2="3459.65" y2="2583.54" style="stroke:#606060;stroke-width:4.32"/>
	<line x1="3482.86" y1="2568.55" x2="3482.86" y2="2583.54" style="stroke:#606060;stroke-width:4.32"/>
	<line x1="3506.09" y1="2568.55" x2="3506.09" y2="2583.54" style="stroke:#606060;stroke-width:4.32"/>
	<line x1="3529.30" y1="2568.55" x2="3529.30" y2="2583.54" style="stroke:#606060;stroke-width:4.32"/>
	<line x1="3552.66" y1="2568.55" x2="3552.66" y2="2583.54" style="stroke:#606060;stroke-width:4.32"/>
	<line x1="3575.88" y1="2568.55" x2="3575.88" y2="2583.54" style="stroke:#606060;stroke-width:4.32"/>
	<line x1="3599.10" y1="2568.55" x2="3599.10" y2="2583.54" style="stroke:#606060;stroke-width:4.32"/>
	<line x1="3622.32" y1="2568.55" x2="3622.32" y2="2583.54" style="stroke:#606060;stroke-width:4.32"/>
	<line x1="3645.54" y1="2568.55" x2="3645.54" y2="2583.54" style="stroke:#606060;stroke-width:4.32"/>
	<line x1="3668.76" y1="2568.55" x2="3668.76" y2="2583.54" style="stroke:#606060;stroke-width:4.32"/>
	<line x1="3691.98" y1="2568.55" x2="3691.98" y2="2583.54" style="stroke:#606060;stroke-width:4.32"/>
	<line x1="3715.20" y1="2568.55" x2="3715.20" y2="2583.54" style="stroke:#606060;stroke-width:4.32"/>
	<line x1="3738.42" y1="2568.55" x2="3738.42" y2="2583.54" style="stroke:#606060;stroke-width:4.32"/>
	<line x1="3761.78" y1="2568.55" x2="3761.78" y2="2583.54" style="stroke:#606060;stroke-width:4.32"/>
	<line x1="3784.99" y1="2568.55" x2="3784.99" y2="2583.54" style="stroke:#606060;stroke-width:4.32"/>
	<line x1="3808.22" y1="2568.55" x2="3808.22" y2="2583.54" style="stroke:#606060;stroke-width:4.32"/>
	<line x1="3831.43" y1="2568.55" x2="3831.43" y2="2583.54" style="stroke:#606060;stroke-width:4.32"/>
	<line x1="3854.66" y1="2568.55" x2="3854.66" y2="2583.54" style="stroke:#606060;stroke-width:4.32"/>
	<line x1="3877.88" y1="2568.55" x2="3877.88" y2="2583.54" style="stroke:#606060;stroke-width:4.32"/>
	<line x1="3901.09" y1="2568.55" x2="3901.09" y2="2583.54" style="stroke:#606060;stroke-width:4.32"/>
	<line x1="3924.32" y1="2568.55" x2="3924.32" y2="2583.54" style="stroke:#606060;stroke-width:4.32"/>
	<line x1="3947.53" y1="2568.55" x2="3947.53" y2="2583.54" style="stroke:#606060;stroke-width:4.32"/>
	<line x1="3970.76" y1="2568.55" x2="3970.76" y2="2583.54" style="stroke:#606060;stroke-width:4.32"/>
	<line x1="3994.11" y1="2568.55" x2="3994.11" y2="2583.54" style="stroke:#606060;stroke-width:4.32"/>
	<line x1="4017.33" y1="2568.55" x2="4017.33" y2="2583.54" style="stroke:#606060;stroke-width:4.32"/>
	<line x1="4040.55" y1="2568.55" x2="4040.55" y2="2583.54" style="stroke:#606060;stroke-width:4.32"/>
	<line x1="4063.77" y1="2568.55" x2="4063.77" y2="2583.54" style="stroke:#606060;stroke-width:4.32"/>
	<line x1="4086.99" y1="2568.55" x2="4086.99" y2="2583.54" style="stroke:#606060;stroke-width:4.32"/>
	<line x1="4110.21" y1="2568.55" x2="4110.21" y2="2583.54" style="stroke:#606060;stroke-width:4.32"/>
	<line x1="4133.43" y1="2568.55" x2="4133.43" y2="2583.54" style="stroke:#606060;stroke-width:4.32"/>
	<line x1="3204.09" y1="2568.55" x2="3204.09" y2="2598.52" style="stroke:#606060;stroke-width:4.32"/>
	<text x="3204.09" y="2644.91" style="font-family:'Helvetica';font-size:44.95px;fill:#606060" text-anchor="middle">-4</text>
	<line x1="3320.32" y1="2568.55" x2="3320.32" y2="2598.52" style="stroke:#606060;stroke-width:4.32"/>
	<text x="3320.32" y="2644.91" style="font-family:'Helvetica';font-size:44.95px;fill:#606060" text-anchor="middle">-3</text>
	<line x1="3436.43" y1="2568.55" x2="3436.43" y2="2598.52" style="stroke:#606060;stroke-width:4.32"/>
	<text x="3436.43" y="2644.91" style="font-family:'Helvetica';font-size:44.95px;fill:#606060" text-anchor="middle">-2</text>
	<line x1="3552.66" y1="2568.55" x2="3552.66" y2="2598.52" style="stroke:#606060;stroke-width:4.32"/>
	<text x="3552.66" y="2644.91" style="font-family:'Helvetica';font-size:44.95px;fill:#606060" text-anchor="middle">-1</text>
	<line x1="3668.76" y1="2568.55" x2="3668.76" y2="2598.52" style="stroke:#606060;stroke-width:4.32"/>
	<text x="3668.76" y="2644.91" style="font-family:'Helvetica';font-size:44.95px;fill:#606060" text-anchor="middle">0</text>
	<line x1="3784.99" y1="2568.55" x2="3784.99" y2="2598.52" style="stroke:#606060;stroke-width:4.32"/>
	<text x="3784.99" y="2644.91" style="font-family:'Helvetica';font-size:44.95px;fill:#606060" text-anchor="middle">1</text>
	<line x1="3901.09" y1="2568.55" x2="3901.09" y2="2598.52" style="stroke:#606060;stroke-width:4.32"/>
	<text x="3901.09" y="2644.91" style="font-family:'Helvetica';font-size:44.95px;fill:#606060" text-anchor="middle">2</text>
	<line x1="4017.33" y1="2568.55" x2="4017.33" y2="2598.52" style="stroke:#606060;stroke-width:4.32"/>
	<text x="4017.33" y="2644.91" style="font-family:'Helvetica';font-size:44.95px;fill:#606060" text-anchor="middle">3</text>
	<line x1="4133.43" y1="2568.55" x2="4133.43" y2="2598.52" style="stroke:#606060;stroke-width:4.32"/>
	<text x="4133.43" y="2644.91" style="font-family:'Helvetica';font-size:44.95px;fill:#606060" text-anchor="middle">4</text>
	<text x="3654.32" y="2708.05" style="font-family:'Helvetica';font-size:59.94px;fill:#000000" text-anchor="middle">slope -  Lit</text>
</svg>
