<?xml version="1.0" encoding="UTF-8" standalone="no"?>
<!-- This is a Stata 15.1 generated SVG file (http://www.stata.com) -->

<svg version="1.1" width="6.00in" height="4.00in" viewBox="0 0 4320 2880" xmlns="http://www.w3.org/2000/svg" xmlns:xlink="http://www.w3.org/1999/xlink">
	<desc>Stata Graph - combage</desc>
	<rect x="0" y="0" width="4320" height="2880" style="fill:#FFFFFF;stroke:none"/>
	<rect x="0.00" y="0.00" width="4320.00" height="2880.00" style="fill:#FFFFFF"/>
	<rect x="2.88" y="2.88" width="4314.24" height="2874.24" style="fill:none;stroke:#FFFFFF;stroke-width:5.76"/>
	<rect x="63.31" y="63.32" width="2096.68" height="821.08" style="fill:#FFFFFF"/>
	<rect x="65.23" y="65.24" width="2092.85" height="817.24" style="fill:none;stroke:#FFFFFF;stroke-width:3.84"/>
	<rect x="302.26" y="206.96" width="1790.51" height="404.33" style="fill:#E0E0E0"/>
	<rect x="304.18" y="208.88" width="1786.67" height="400.49" style="fill:none;stroke:#FFFFFF;stroke-width:3.84"/>
	<line x1="302.26" y1="611.29" x2="2092.77" y2="611.29" style="stroke:#FFFFFF;stroke-width:3.84"/>
	<line x1="302.26" y1="502.61" x2="2092.77" y2="502.61" style="stroke:#FFFFFF;stroke-width:3.84"/>
	<line x1="302.26" y1="394.07" x2="2092.77" y2="394.07" style="stroke:#FFFFFF;stroke-width:3.84"/>
	<line x1="302.26" y1="285.39" x2="2092.77" y2="285.39" style="stroke:#FFFFFF;stroke-width:3.84"/>
	<rect x="383.40" y="586.99" width="69.66" height="24.30" style="fill:#808080"/>
	<rect x="385.32" y="588.91" width="65.82" height="20.46" style="fill:none;stroke:#000000;stroke-width:3.84"/>
	<rect x="453.06" y="609.67" width="69.66" height="1.62" style="fill:#B0CEFF"/>
	<rect x="454.98" y="611.59" width="65.82" height="-2.22" style="fill:none;stroke:#619CFF;stroke-width:3.84"/>
	<rect x="569.43" y="508.15" width="69.66" height="103.14" style="fill:#808080"/>
	<rect x="571.35" y="510.07" width="65.82" height="99.30" style="fill:none;stroke:#000000;stroke-width:3.84"/>
	<rect x="639.09" y="574.70" width="69.79" height="36.59" style="fill:#B0CEFF"/>
	<rect x="641.01" y="576.62" width="65.96" height="32.75" style="fill:none;stroke:#619CFF;stroke-width:3.84"/>
	<rect x="755.60" y="471.70" width="69.66" height="139.59" style="fill:#808080"/>
	<rect x="757.51" y="473.62" width="65.82" height="135.75" style="fill:none;stroke:#000000;stroke-width:3.84"/>
	<rect x="825.26" y="511.66" width="69.66" height="99.63" style="fill:#B0CEFF"/>
	<rect x="827.17" y="513.58" width="65.82" height="95.79" style="fill:none;stroke:#619CFF;stroke-width:3.84"/>
	<rect x="941.63" y="538.52" width="69.79" height="72.77" style="fill:#808080"/>
	<rect x="943.54" y="540.44" width="65.96" height="68.93" style="fill:none;stroke:#000000;stroke-width:3.84"/>
	<rect x="1011.42" y="551.48" width="69.66" height="59.81" style="fill:#B0CEFF"/>
	<rect x="1013.34" y="553.40" width="65.82" height="55.97" style="fill:none;stroke:#619CFF;stroke-width:3.84"/>
	<rect x="1127.79" y="362.48" width="69.66" height="248.81" style="fill:#808080"/>
	<rect x="1129.71" y="364.40" width="65.82" height="244.97" style="fill:none;stroke:#000000;stroke-width:3.84"/>
	<rect x="1197.45" y="438.62" width="69.79" height="172.67" style="fill:#B0CEFF"/>
	<rect x="1199.37" y="440.54" width="65.96" height="168.83" style="fill:none;stroke:#619CFF;stroke-width:3.84"/>
	<rect x="1313.95" y="556.61" width="69.66" height="54.68" style="fill:#808080"/>
	<rect x="1315.87" y="558.53" width="65.82" height="50.84" style="fill:none;stroke:#000000;stroke-width:3.84"/>
	<rect x="1383.62" y="531.64" width="69.66" height="79.65" style="fill:#B0CEFF"/>
	<rect x="1385.53" y="533.56" width="65.82" height="75.81" style="fill:none;stroke:#619CFF;stroke-width:3.84"/>
	<rect x="1499.98" y="374.63" width="69.66" height="236.66" style="fill:#808080"/>
	<rect x="1501.90" y="376.55" width="65.82" height="232.82" style="fill:none;stroke:#000000;stroke-width:3.84"/>
	<rect x="1569.65" y="387.05" width="69.80" height="224.24" style="fill:#B0CEFF"/>
	<rect x="1571.56" y="388.97" width="65.96" height="220.40" style="fill:none;stroke:#619CFF;stroke-width:3.84"/>
	<rect x="1686.15" y="411.08" width="69.66" height="200.21" style="fill:#808080"/>
	<rect x="1688.07" y="413.00" width="65.82" height="196.37" style="fill:none;stroke:#000000;stroke-width:3.84"/>
	<rect x="1755.81" y="274.05" width="69.66" height="337.24" style="fill:#B0CEFF"/>
	<rect x="1757.73" y="275.97" width="65.82" height="333.40" style="fill:none;stroke:#619CFF;stroke-width:3.84"/>
	<rect x="1872.18" y="605.21" width="69.79" height="6.08" style="fill:#808080"/>
	<rect x="1874.10" y="607.13" width="65.96" height="2.24" style="fill:none;stroke:#000000;stroke-width:3.84"/>
	<rect x="1941.97" y="536.50" width="69.66" height="74.79" style="fill:#B0CEFF"/>
	<rect x="1943.89" y="538.42" width="65.82" height="70.95" style="fill:none;stroke:#619CFF;stroke-width:3.84"/>
	<text x="418.23" y="576.80" style="font-family:'Helvetica';font-size:26.73px;fill:#606060" text-anchor="middle">2.2</text>
	<text x="487.89" y="599.35" style="font-family:'Helvetica';font-size:26.73px;fill:#606060" text-anchor="middle">0.2</text>
	<text x="604.26" y="497.96" style="font-family:'Helvetica';font-size:26.73px;fill:#606060" text-anchor="middle">9.5</text>
	<text x="674.05" y="564.52" style="font-family:'Helvetica';font-size:26.73px;fill:#606060" text-anchor="middle">3.4</text>
	<text x="790.42" y="461.51" style="font-family:'Helvetica';font-size:26.73px;fill:#606060" text-anchor="middle">12.8</text>
	<text x="860.09" y="501.34" style="font-family:'Helvetica';font-size:26.73px;fill:#606060" text-anchor="middle">9.2</text>
	<text x="976.59" y="528.20" style="font-family:'Helvetica';font-size:26.73px;fill:#606060" text-anchor="middle">6.7</text>
	<text x="1046.25" y="541.30" style="font-family:'Helvetica';font-size:26.73px;fill:#606060" text-anchor="middle">5.5</text>
	<text x="1162.62" y="352.29" style="font-family:'Helvetica';font-size:26.73px;fill:#606060" text-anchor="middle">22.9</text>
	<text x="1232.28" y="428.30" style="font-family:'Helvetica';font-size:26.73px;fill:#606060" text-anchor="middle">15.9</text>
	<text x="1348.79" y="546.43" style="font-family:'Helvetica';font-size:26.73px;fill:#606060" text-anchor="middle">5.0</text>
	<text x="1418.44" y="521.32" style="font-family:'Helvetica';font-size:26.73px;fill:#606060" text-anchor="middle">7.3</text>
	<text x="1534.82" y="364.44" style="font-family:'Helvetica';font-size:26.73px;fill:#606060" text-anchor="middle">21.8</text>
	<text x="1604.61" y="376.87" style="font-family:'Helvetica';font-size:26.73px;fill:#606060" text-anchor="middle">20.6</text>
	<text x="1720.98" y="400.76" style="font-family:'Helvetica';font-size:26.73px;fill:#606060" text-anchor="middle">18.4</text>
	<text x="1790.64" y="263.87" style="font-family:'Helvetica';font-size:26.73px;fill:#606060" text-anchor="middle">31.0</text>
	<text x="1907.01" y="595.03" style="font-family:'Helvetica';font-size:26.73px;fill:#606060" text-anchor="middle">0.6</text>
	<text x="1976.81" y="526.31" style="font-family:'Helvetica';font-size:26.73px;fill:#606060" text-anchor="middle">6.9</text>
	<line x1="302.26" y1="611.29" x2="275.54" y2="611.29" style="stroke:#606060;stroke-width:3.84"/>
	<text x="262.17" y="625.31" style="font-family:'Helvetica';font-size:39.96px;fill:#606060" text-anchor="end">0</text>
	<line x1="302.26" y1="502.61" x2="275.54" y2="502.61" style="stroke:#606060;stroke-width:3.84"/>
	<text x="262.17" y="516.63" style="font-family:'Helvetica';font-size:39.96px;fill:#606060" text-anchor="end">10</text>
	<line x1="302.26" y1="394.07" x2="275.54" y2="394.07" style="stroke:#606060;stroke-width:3.84"/>
	<text x="262.17" y="408.09" style="font-family:'Helvetica';font-size:39.96px;fill:#606060" text-anchor="end">20</text>
	<line x1="302.26" y1="285.39" x2="275.54" y2="285.39" style="stroke:#606060;stroke-width:3.84"/>
	<text x="262.17" y="299.41" style="font-family:'Helvetica';font-size:39.96px;fill:#606060" text-anchor="end">30</text>
	<line x1="302.26" y1="611.29" x2="302.26" y2="285.39" style="stroke:#000000;stroke-width:3.84"/>
	<text x="181.17" y="409.06" style="font-family:'Helvetica';font-size:53.33px;fill:#000000" transform="rotate(-90 181.17,409.06)" text-anchor="middle">Percent</text>
	<text x="462.97" y="647.93" style="font-family:'Helvetica';font-size:39.96px;fill:#606060" transform="rotate(-45 462.97,647.93)" text-anchor="end">[-1;-0.5]</text>
	<text x="649.00" y="647.93" style="font-family:'Helvetica';font-size:39.96px;fill:#606060" transform="rotate(-45 649.00,647.93)" text-anchor="end">]-0.5;-0.2]</text>
	<text x="835.17" y="647.93" style="font-family:'Helvetica';font-size:39.96px;fill:#606060" transform="rotate(-45 835.17,647.93)" text-anchor="end">]-0.2;-0.1]</text>
	<text x="1021.33" y="647.93" style="font-family:'Helvetica';font-size:39.96px;fill:#606060" transform="rotate(-45 1021.33,647.93)" text-anchor="end">]-0.1;-0.05]</text>
	<text x="1207.36" y="647.93" style="font-family:'Helvetica';font-size:39.96px;fill:#606060" transform="rotate(-45 1207.36,647.93)" text-anchor="end">]-0.05;0.05[</text>
	<text x="1393.53" y="647.93" style="font-family:'Helvetica';font-size:39.96px;fill:#606060" transform="rotate(-45 1393.53,647.93)" text-anchor="end">[0.05;0.1[</text>
	<text x="1579.56" y="647.93" style="font-family:'Helvetica';font-size:39.96px;fill:#606060" transform="rotate(-45 1579.56,647.93)" text-anchor="end">[0.1;0.2[</text>
	<text x="1765.72" y="647.93" style="font-family:'Helvetica';font-size:39.96px;fill:#606060" transform="rotate(-45 1765.72,647.93)" text-anchor="end">[0.2;0.5[</text>
	<text x="1951.89" y="647.93" style="font-family:'Helvetica';font-size:39.96px;fill:#606060" transform="rotate(-45 1951.89,647.93)" text-anchor="end">[0.5;1]</text>
	<text x="1197.45" y="179.28" style="font-family:'Helvetica';font-size:53.33px;fill:#000000" text-anchor="middle">OP</text>
	<rect x="2160.00" y="63.32" width="2096.55" height="821.08" style="fill:#FFFFFF"/>
	<rect x="2161.92" y="65.24" width="2092.71" height="817.24" style="fill:none;stroke:#FFFFFF;stroke-width:3.84"/>
	<rect x="2398.82" y="206.96" width="1790.50" height="404.33" style="fill:#E0E0E0"/>
	<rect x="2400.73" y="208.88" width="1786.67" height="400.49" style="fill:none;stroke:#FFFFFF;stroke-width:3.84"/>
	<line x1="2398.82" y1="611.29" x2="4189.32" y2="611.29" style="stroke:#FFFFFF;stroke-width:3.84"/>
	<line x1="2398.82" y1="543.92" x2="4189.32" y2="543.92" style="stroke:#FFFFFF;stroke-width:3.84"/>
	<line x1="2398.82" y1="476.42" x2="4189.32" y2="476.42" style="stroke:#FFFFFF;stroke-width:3.84"/>
	<line x1="2398.82" y1="409.06" x2="4189.32" y2="409.06" style="stroke:#FFFFFF;stroke-width:3.84"/>
	<line x1="2398.82" y1="341.56" x2="4189.32" y2="341.56" style="stroke:#FFFFFF;stroke-width:3.84"/>
	<line x1="2398.82" y1="274.05" x2="4189.32" y2="274.05" style="stroke:#FFFFFF;stroke-width:3.84"/>
	<rect x="2479.95" y="603.73" width="69.66" height="7.56" style="fill:#808080"/>
	<rect x="2481.87" y="605.65" width="65.82" height="3.72" style="fill:none;stroke:#000000;stroke-width:3.84"/>
	<rect x="2549.61" y="603.05" width="69.80" height="8.24" style="fill:#B0CEFF"/>
	<rect x="2551.53" y="604.97" width="65.96" height="4.40" style="fill:none;stroke:#619CFF;stroke-width:3.84"/>
	<rect x="2666.11" y="309.96" width="69.66" height="301.32" style="fill:#808080"/>
	<rect x="2668.03" y="311.88" width="65.82" height="297.48" style="fill:none;stroke:#000000;stroke-width:3.84"/>
	<rect x="2735.78" y="275.13" width="69.66" height="336.16" style="fill:#B0CEFF"/>
	<rect x="2737.69" y="277.05" width="65.82" height="332.32" style="fill:none;stroke:#619CFF;stroke-width:3.84"/>
	<rect x="2852.15" y="362.62" width="69.80" height="248.67" style="fill:#808080"/>
	<rect x="2854.06" y="364.54" width="65.96" height="244.83" style="fill:none;stroke:#000000;stroke-width:3.84"/>
	<rect x="2921.94" y="402.98" width="69.66" height="208.31" style="fill:#B0CEFF"/>
	<rect x="2923.86" y="404.90" width="65.82" height="204.47" style="fill:none;stroke:#619CFF;stroke-width:3.84"/>
	<rect x="3038.31" y="543.52" width="69.66" height="67.77" style="fill:#808080"/>
	<rect x="3040.23" y="545.44" width="65.82" height="63.93" style="fill:none;stroke:#000000;stroke-width:3.84"/>
	<rect x="3107.97" y="522.59" width="69.66" height="88.70" style="fill:#B0CEFF"/>
	<rect x="3109.89" y="524.51" width="65.82" height="84.86" style="fill:none;stroke:#619CFF;stroke-width:3.84"/>
	<rect x="3224.34" y="324.95" width="69.80" height="286.34" style="fill:#808080"/>
	<rect x="3226.26" y="326.87" width="65.96" height="282.50" style="fill:none;stroke:#000000;stroke-width:3.84"/>
	<rect x="3294.14" y="372.07" width="69.66" height="239.22" style="fill:#B0CEFF"/>
	<rect x="3296.05" y="373.99" width="65.82" height="235.38" style="fill:none;stroke:#619CFF;stroke-width:3.84"/>
	<rect x="3410.51" y="543.52" width="69.66" height="67.77" style="fill:#808080"/>
	<rect x="3412.42" y="545.44" width="65.82" height="63.93" style="fill:none;stroke:#000000;stroke-width:3.84"/>
	<rect x="3480.17" y="520.57" width="69.80" height="90.72" style="fill:#B0CEFF"/>
	<rect x="3482.08" y="522.49" width="65.96" height="86.88" style="fill:none;stroke:#619CFF;stroke-width:3.84"/>
	<rect x="3596.67" y="422.96" width="69.66" height="188.33" style="fill:#808080"/>
	<rect x="3598.59" y="424.88" width="65.82" height="184.49" style="fill:none;stroke:#000000;stroke-width:3.84"/>
	<rect x="3666.33" y="400.96" width="69.66" height="210.33" style="fill:#B0CEFF"/>
	<rect x="3668.25" y="402.88" width="65.82" height="206.49" style="fill:none;stroke:#619CFF;stroke-width:3.84"/>
	<rect x="3782.70" y="430.52" width="69.66" height="180.77" style="fill:#808080"/>
	<rect x="3784.62" y="432.44" width="65.82" height="176.93" style="fill:none;stroke:#000000;stroke-width:3.84"/>
	<rect x="3852.36" y="446.32" width="69.80" height="164.97" style="fill:#B0CEFF"/>
	<rect x="3854.28" y="448.24" width="65.96" height="161.13" style="fill:none;stroke:#619CFF;stroke-width:3.84"/>
	<rect x="4038.53" y="609.26" width="69.66" height="2.03" style="fill:#B0CEFF"/>
	<rect x="4040.44" y="611.18" width="65.82" height="-1.81" style="fill:none;stroke:#619CFF;stroke-width:3.84"/>
	<text x="2514.78" y="593.54" style="font-family:'Helvetica';font-size:26.73px;fill:#606060" text-anchor="middle">0.6</text>
	<text x="2584.44" y="592.87" style="font-family:'Helvetica';font-size:26.73px;fill:#606060" text-anchor="middle">0.6</text>
	<text x="2700.95" y="299.64" style="font-family:'Helvetica';font-size:26.73px;fill:#606060" text-anchor="middle">22.3</text>
	<text x="2770.61" y="264.95" style="font-family:'Helvetica';font-size:26.73px;fill:#606060" text-anchor="middle">24.9</text>
	<text x="2886.97" y="352.43" style="font-family:'Helvetica';font-size:26.73px;fill:#606060" text-anchor="middle">18.4</text>
	<text x="2956.77" y="392.80" style="font-family:'Helvetica';font-size:26.73px;fill:#606060" text-anchor="middle">15.4</text>
	<text x="3073.14" y="533.20" style="font-family:'Helvetica';font-size:26.73px;fill:#606060" text-anchor="middle">5.0</text>
	<text x="3142.80" y="512.41" style="font-family:'Helvetica';font-size:26.73px;fill:#606060" text-anchor="middle">6.6</text>
	<text x="3259.30" y="314.76" style="font-family:'Helvetica';font-size:26.73px;fill:#606060" text-anchor="middle">21.2</text>
	<text x="3328.97" y="361.88" style="font-family:'Helvetica';font-size:26.73px;fill:#606060" text-anchor="middle">17.7</text>
	<text x="3445.34" y="533.20" style="font-family:'Helvetica';font-size:26.73px;fill:#606060" text-anchor="middle">5.0</text>
	<text x="3514.99" y="510.38" style="font-family:'Helvetica';font-size:26.73px;fill:#606060" text-anchor="middle">6.7</text>
	<text x="3631.50" y="412.64" style="font-family:'Helvetica';font-size:26.73px;fill:#606060" text-anchor="middle">14.0</text>
	<text x="3701.16" y="390.77" style="font-family:'Helvetica';font-size:26.73px;fill:#606060" text-anchor="middle">15.6</text>
	<text x="3817.53" y="420.20" style="font-family:'Helvetica';font-size:26.73px;fill:#606060" text-anchor="middle">13.4</text>
	<text x="3887.32" y="436.13" style="font-family:'Helvetica';font-size:26.73px;fill:#606060" text-anchor="middle">12.2</text>
	<text x="4073.36" y="598.94" style="font-family:'Helvetica';font-size:26.73px;fill:#606060" text-anchor="middle">0.2</text>
	<line x1="2398.82" y1="611.29" x2="2372.09" y2="611.29" style="stroke:#606060;stroke-width:3.84"/>
	<text x="2358.86" y="625.31" style="font-family:'Helvetica';font-size:39.96px;fill:#606060" text-anchor="end">0</text>
	<line x1="2398.82" y1="543.92" x2="2372.09" y2="543.92" style="stroke:#606060;stroke-width:3.84"/>
	<text x="2358.86" y="557.94" style="font-family:'Helvetica';font-size:39.96px;fill:#606060" text-anchor="end">5</text>
	<line x1="2398.82" y1="476.42" x2="2372.09" y2="476.42" style="stroke:#606060;stroke-width:3.84"/>
	<text x="2358.86" y="490.44" style="font-family:'Helvetica';font-size:39.96px;fill:#606060" text-anchor="end">10</text>
	<line x1="2398.82" y1="409.06" x2="2372.09" y2="409.06" style="stroke:#606060;stroke-width:3.84"/>
	<text x="2358.86" y="423.08" style="font-family:'Helvetica';font-size:39.96px;fill:#606060" text-anchor="end">15</text>
	<line x1="2398.82" y1="341.56" x2="2372.09" y2="341.56" style="stroke:#606060;stroke-width:3.84"/>
	<text x="2358.86" y="355.58" style="font-family:'Helvetica';font-size:39.96px;fill:#606060" text-anchor="end">20</text>
	<line x1="2398.82" y1="274.05" x2="2372.09" y2="274.05" style="stroke:#606060;stroke-width:3.84"/>
	<text x="2358.86" y="288.07" style="font-family:'Helvetica';font-size:39.96px;fill:#606060" text-anchor="end">25</text>
	<line x1="2398.82" y1="611.29" x2="2398.82" y2="274.05" style="stroke:#000000;stroke-width:3.84"/>
	<text x="2277.72" y="409.06" style="font-family:'Helvetica';font-size:53.33px;fill:#000000" transform="rotate(-90 2277.72,409.06)" text-anchor="middle">Percent</text>
	<text x="2559.52" y="647.93" style="font-family:'Helvetica';font-size:39.96px;fill:#606060" transform="rotate(-45 2559.52,647.93)" text-anchor="end">[-1;-0.5]</text>
	<text x="2745.69" y="647.93" style="font-family:'Helvetica';font-size:39.96px;fill:#606060" transform="rotate(-45 2745.69,647.93)" text-anchor="end">]-0.5;-0.2]</text>
	<text x="2931.85" y="647.93" style="font-family:'Helvetica';font-size:39.96px;fill:#606060" transform="rotate(-45 2931.85,647.93)" text-anchor="end">]-0.2;-0.1]</text>
	<text x="3117.88" y="647.93" style="font-family:'Helvetica';font-size:39.96px;fill:#606060" transform="rotate(-45 3117.88,647.93)" text-anchor="end">]-0.1;-0.05]</text>
	<text x="3304.05" y="647.93" style="font-family:'Helvetica';font-size:39.96px;fill:#606060" transform="rotate(-45 3304.05,647.93)" text-anchor="end">]-0.05;0.05[</text>
	<text x="3490.08" y="647.93" style="font-family:'Helvetica';font-size:39.96px;fill:#606060" transform="rotate(-45 3490.08,647.93)" text-anchor="end">[0.05;0.1[</text>
	<text x="3676.24" y="647.93" style="font-family:'Helvetica';font-size:39.96px;fill:#606060" transform="rotate(-45 3676.24,647.93)" text-anchor="end">[0.1;0.2[</text>
	<text x="3862.27" y="647.93" style="font-family:'Helvetica';font-size:39.96px;fill:#606060" transform="rotate(-45 3862.27,647.93)" text-anchor="end">[0.2;0.5[</text>
	<text x="4048.44" y="647.93" style="font-family:'Helvetica';font-size:39.96px;fill:#606060" transform="rotate(-45 4048.44,647.93)" text-anchor="end">[0.5;1]</text>
	<text x="3294.14" y="179.28" style="font-family:'Helvetica';font-size:53.33px;fill:#000000" text-anchor="middle">CO</text>
	<rect x="63.31" y="884.40" width="2096.68" height="821.08" style="fill:#FFFFFF"/>
	<rect x="65.23" y="886.32" width="2092.85" height="817.24" style="fill:none;stroke:#FFFFFF;stroke-width:3.84"/>
	<rect x="302.26" y="1028.04" width="1790.51" height="404.33" style="fill:#E0E0E0"/>
	<rect x="304.18" y="1029.96" width="1786.67" height="400.49" style="fill:none;stroke:#FFFFFF;stroke-width:3.84"/>
	<line x1="302.26" y1="1432.37" x2="2092.77" y2="1432.37" style="stroke:#FFFFFF;stroke-width:3.84"/>
	<line x1="302.26" y1="1353.67" x2="2092.77" y2="1353.67" style="stroke:#FFFFFF;stroke-width:3.84"/>
	<line x1="302.26" y1="1274.82" x2="2092.77" y2="1274.82" style="stroke:#FFFFFF;stroke-width:3.84"/>
	<line x1="302.26" y1="1196.12" x2="2092.77" y2="1196.12" style="stroke:#FFFFFF;stroke-width:3.84"/>
	<line x1="302.26" y1="1117.28" x2="2092.77" y2="1117.28" style="stroke:#FFFFFF;stroke-width:3.84"/>
	<rect x="453.06" y="1429.94" width="69.66" height="2.43" style="fill:#B0CEFF"/>
	<rect x="454.98" y="1431.86" width="65.82" height="-1.41" style="fill:none;stroke:#619CFF;stroke-width:3.84"/>
	<rect x="569.43" y="1177.22" width="69.66" height="255.15" style="fill:#808080"/>
	<rect x="571.35" y="1179.14" width="65.82" height="251.31" style="fill:none;stroke:#000000;stroke-width:3.84"/>
	<rect x="639.09" y="1201.11" width="69.79" height="231.26" style="fill:#B0CEFF"/>
	<rect x="641.01" y="1203.03" width="65.96" height="227.42" style="fill:none;stroke:#619CFF;stroke-width:3.84"/>
	<rect x="755.60" y="1194.77" width="69.66" height="237.60" style="fill:#808080"/>
	<rect x="757.51" y="1196.69" width="65.82" height="233.76" style="fill:none;stroke:#000000;stroke-width:3.84"/>
	<rect x="825.26" y="1184.24" width="69.66" height="248.13" style="fill:#B0CEFF"/>
	<rect x="827.17" y="1186.16" width="65.82" height="244.29" style="fill:none;stroke:#619CFF;stroke-width:3.84"/>
	<rect x="941.63" y="1291.57" width="69.79" height="140.81" style="fill:#808080"/>
	<rect x="943.54" y="1293.49" width="65.96" height="136.97" style="fill:none;stroke:#000000;stroke-width:3.84"/>
	<rect x="1011.42" y="1331.26" width="69.66" height="101.12" style="fill:#B0CEFF"/>
	<rect x="1013.34" y="1333.18" width="65.82" height="97.28" style="fill:none;stroke:#619CFF;stroke-width:3.84"/>
	<rect x="1127.79" y="1177.22" width="69.66" height="255.15" style="fill:#808080"/>
	<rect x="1129.71" y="1179.14" width="65.82" height="251.31" style="fill:none;stroke:#000000;stroke-width:3.84"/>
	<rect x="1197.45" y="1095.14" width="69.79" height="337.24" style="fill:#B0CEFF"/>
	<rect x="1199.37" y="1097.06" width="65.96" height="333.40" style="fill:none;stroke:#619CFF;stroke-width:3.84"/>
	<rect x="1313.95" y="1326.80" width="69.66" height="105.57" style="fill:#808080"/>
	<rect x="1315.87" y="1328.72" width="65.82" height="101.73" style="fill:none;stroke:#000000;stroke-width:3.84"/>
	<rect x="1383.62" y="1362.58" width="69.66" height="69.80" style="fill:#B0CEFF"/>
	<rect x="1385.53" y="1364.50" width="65.82" height="65.96" style="fill:none;stroke:#619CFF;stroke-width:3.84"/>
	<rect x="1499.98" y="1150.76" width="69.66" height="281.61" style="fill:#808080"/>
	<rect x="1501.90" y="1152.68" width="65.82" height="277.77" style="fill:none;stroke:#000000;stroke-width:3.84"/>
	<rect x="1569.65" y="1150.62" width="69.80" height="281.75" style="fill:#B0CEFF"/>
	<rect x="1571.56" y="1152.54" width="65.96" height="277.91" style="fill:none;stroke:#619CFF;stroke-width:3.84"/>
	<rect x="1686.15" y="1141.98" width="69.66" height="290.39" style="fill:#808080"/>
	<rect x="1688.07" y="1143.90" width="65.82" height="286.55" style="fill:none;stroke:#000000;stroke-width:3.84"/>
	<rect x="1755.81" y="1143.33" width="69.66" height="289.04" style="fill:#B0CEFF"/>
	<rect x="1757.73" y="1145.25" width="65.82" height="285.20" style="fill:none;stroke:#619CFF;stroke-width:3.84"/>
	<rect x="1872.18" y="1423.60" width="69.79" height="8.78" style="fill:#808080"/>
	<rect x="1874.10" y="1425.52" width="65.96" height="4.94" style="fill:none;stroke:#000000;stroke-width:3.84"/>
	<rect x="1941.97" y="1417.93" width="69.66" height="14.45" style="fill:#B0CEFF"/>
	<rect x="1943.89" y="1419.85" width="65.82" height="10.61" style="fill:none;stroke:#619CFF;stroke-width:3.84"/>
	<text x="487.89" y="1419.76" style="font-family:'Helvetica';font-size:26.73px;fill:#606060" text-anchor="middle">0.2</text>
	<text x="604.26" y="1166.90" style="font-family:'Helvetica';font-size:26.73px;fill:#606060" text-anchor="middle">16.2</text>
	<text x="674.05" y="1190.93" style="font-family:'Helvetica';font-size:26.73px;fill:#606060" text-anchor="middle">14.7</text>
	<text x="790.42" y="1184.58" style="font-family:'Helvetica';font-size:26.73px;fill:#606060" text-anchor="middle">15.1</text>
	<text x="860.09" y="1174.05" style="font-family:'Helvetica';font-size:26.73px;fill:#606060" text-anchor="middle">15.7</text>
	<text x="976.59" y="1281.38" style="font-family:'Helvetica';font-size:26.73px;fill:#606060" text-anchor="middle">8.9</text>
	<text x="1046.25" y="1320.93" style="font-family:'Helvetica';font-size:26.73px;fill:#606060" text-anchor="middle">6.4</text>
	<text x="1162.62" y="1166.90" style="font-family:'Helvetica';font-size:26.73px;fill:#606060" text-anchor="middle">16.2</text>
	<text x="1232.28" y="1084.95" style="font-family:'Helvetica';font-size:26.73px;fill:#606060" text-anchor="middle">21.4</text>
	<text x="1348.79" y="1316.48" style="font-family:'Helvetica';font-size:26.73px;fill:#606060" text-anchor="middle">6.7</text>
	<text x="1418.44" y="1352.26" style="font-family:'Helvetica';font-size:26.73px;fill:#606060" text-anchor="middle">4.4</text>
	<text x="1534.82" y="1140.57" style="font-family:'Helvetica';font-size:26.73px;fill:#606060" text-anchor="middle">17.9</text>
	<text x="1604.61" y="1140.30" style="font-family:'Helvetica';font-size:26.73px;fill:#606060" text-anchor="middle">17.9</text>
	<text x="1720.98" y="1131.80" style="font-family:'Helvetica';font-size:26.73px;fill:#606060" text-anchor="middle">18.4</text>
	<text x="1790.64" y="1133.15" style="font-family:'Helvetica';font-size:26.73px;fill:#606060" text-anchor="middle">18.3</text>
	<text x="1907.01" y="1413.28" style="font-family:'Helvetica';font-size:26.73px;fill:#606060" text-anchor="middle">0.6</text>
	<text x="1976.81" y="1407.74" style="font-family:'Helvetica';font-size:26.73px;fill:#606060" text-anchor="middle">0.9</text>
	<line x1="302.26" y1="1432.37" x2="275.54" y2="1432.37" style="stroke:#606060;stroke-width:3.84"/>
	<text x="262.17" y="1446.39" style="font-family:'Helvetica';font-size:39.96px;fill:#606060" text-anchor="end">0</text>
	<line x1="302.26" y1="1353.67" x2="275.54" y2="1353.67" style="stroke:#606060;stroke-width:3.84"/>
	<text x="262.17" y="1367.69" style="font-family:'Helvetica';font-size:39.96px;fill:#606060" text-anchor="end">5</text>
	<line x1="302.26" y1="1274.82" x2="275.54" y2="1274.82" style="stroke:#606060;stroke-width:3.84"/>
	<text x="262.17" y="1288.84" style="font-family:'Helvetica';font-size:39.96px;fill:#606060" text-anchor="end">10</text>
	<line x1="302.26" y1="1196.12" x2="275.54" y2="1196.12" style="stroke:#606060;stroke-width:3.84"/>
	<text x="262.17" y="1210.14" style="font-family:'Helvetica';font-size:39.96px;fill:#606060" text-anchor="end">15</text>
	<line x1="302.26" y1="1117.28" x2="275.54" y2="1117.28" style="stroke:#606060;stroke-width:3.84"/>
	<text x="262.17" y="1131.30" style="font-family:'Helvetica';font-size:39.96px;fill:#606060" text-anchor="end">20</text>
	<line x1="302.26" y1="1432.37" x2="302.26" y2="1117.28" style="stroke:#000000;stroke-width:3.84"/>
	<text x="181.17" y="1230.14" style="font-family:'Helvetica';font-size:53.33px;fill:#000000" transform="rotate(-90 181.17,1230.14)" text-anchor="middle">Percent</text>
	<text x="462.97" y="1468.88" style="font-family:'Helvetica';font-size:39.96px;fill:#606060" transform="rotate(-45 462.97,1468.88)" text-anchor="end">[-1;-0.5]</text>
	<text x="649.00" y="1468.88" style="font-family:'Helvetica';font-size:39.96px;fill:#606060" transform="rotate(-45 649.00,1468.88)" text-anchor="end">]-0.5;-0.2]</text>
	<text x="835.17" y="1468.88" style="font-family:'Helvetica';font-size:39.96px;fill:#606060" transform="rotate(-45 835.17,1468.88)" text-anchor="end">]-0.2;-0.1]</text>
	<text x="1021.33" y="1468.88" style="font-family:'Helvetica';font-size:39.96px;fill:#606060" transform="rotate(-45 1021.33,1468.88)" text-anchor="end">]-0.1;-0.05]</text>
	<text x="1207.36" y="1468.88" style="font-family:'Helvetica';font-size:39.96px;fill:#606060" transform="rotate(-45 1207.36,1468.88)" text-anchor="end">]-0.05;0.05[</text>
	<text x="1393.53" y="1468.88" style="font-family:'Helvetica';font-size:39.96px;fill:#606060" transform="rotate(-45 1393.53,1468.88)" text-anchor="end">[0.05;0.1[</text>
	<text x="1579.56" y="1468.88" style="font-family:'Helvetica';font-size:39.96px;fill:#606060" transform="rotate(-45 1579.56,1468.88)" text-anchor="end">[0.1;0.2[</text>
	<text x="1765.72" y="1468.88" style="font-family:'Helvetica';font-size:39.96px;fill:#606060" transform="rotate(-45 1765.72,1468.88)" text-anchor="end">[0.2;0.5[</text>
	<text x="1951.89" y="1468.88" style="font-family:'Helvetica';font-size:39.96px;fill:#606060" transform="rotate(-45 1951.89,1468.88)" text-anchor="end">[0.5;1]</text>
	<text x="1197.45" y="1000.37" style="font-family:'Helvetica';font-size:53.33px;fill:#000000" text-anchor="middle">EX</text>
	<rect x="2160.00" y="884.40" width="2096.55" height="821.08" style="fill:#FFFFFF"/>
	<rect x="2161.92" y="886.32" width="2092.71" height="817.24" style="fill:none;stroke:#FFFFFF;stroke-width:3.84"/>
	<rect x="2398.82" y="1028.04" width="1790.50" height="404.33" style="fill:#E0E0E0"/>
	<rect x="2400.73" y="1029.96" width="1786.67" height="400.49" style="fill:none;stroke:#FFFFFF;stroke-width:3.84"/>
	<line x1="2398.82" y1="1432.37" x2="4189.32" y2="1432.37" style="stroke:#FFFFFF;stroke-width:3.84"/>
	<line x1="2398.82" y1="1320.59" x2="4189.32" y2="1320.59" style="stroke:#FFFFFF;stroke-width:3.84"/>
	<line x1="2398.82" y1="1208.81" x2="4189.32" y2="1208.81" style="stroke:#FFFFFF;stroke-width:3.84"/>
	<line x1="2398.82" y1="1097.03" x2="4189.32" y2="1097.03" style="stroke:#FFFFFF;stroke-width:3.84"/>
	<rect x="2481.70" y="1426.16" width="78.57" height="6.21" style="fill:#808080"/>
	<rect x="2483.62" y="1428.08" width="74.73" height="2.37" style="fill:none;stroke:#000000;stroke-width:3.84"/>
	<rect x="2560.28" y="1430.62" width="78.43" height="1.76" style="fill:#B0CEFF"/>
	<rect x="2562.19" y="1432.54" width="74.60" height="-2.08" style="fill:none;stroke:#619CFF;stroke-width:3.84"/>
	<rect x="2691.36" y="1338.68" width="78.57" height="93.69" style="fill:#808080"/>
	<rect x="2693.28" y="1340.60" width="74.73" height="89.85" style="fill:none;stroke:#000000;stroke-width:3.84"/>
	<rect x="2769.93" y="1292.24" width="78.57" height="140.13" style="fill:#B0CEFF"/>
	<rect x="2771.85" y="1294.16" width="74.73" height="136.29" style="fill:none;stroke:#619CFF;stroke-width:3.84"/>
	<rect x="2901.01" y="1244.99" width="78.57" height="187.38" style="fill:#808080"/>
	<rect x="2902.93" y="1246.91" width="74.73" height="183.54" style="fill:none;stroke:#000000;stroke-width:3.84"/>
	<rect x="2979.59" y="1242.69" width="78.57" height="189.68" style="fill:#B0CEFF"/>
	<rect x="2981.50" y="1244.61" width="74.73" height="185.84" style="fill:none;stroke:#619CFF;stroke-width:3.84"/>
	<rect x="3110.67" y="1357.45" width="78.57" height="74.93" style="fill:#808080"/>
	<rect x="3112.59" y="1359.37" width="74.73" height="71.09" style="fill:none;stroke:#000000;stroke-width:3.84"/>
	<rect x="3189.24" y="1355.42" width="78.57" height="76.95" style="fill:#B0CEFF"/>
	<rect x="3191.16" y="1357.34" width="74.73" height="73.11" style="fill:none;stroke:#619CFF;stroke-width:3.84"/>
	<rect x="3320.46" y="1095.14" width="78.43" height="337.24" style="fill:#808080"/>
	<rect x="3322.38" y="1097.06" width="74.60" height="333.40" style="fill:none;stroke:#000000;stroke-width:3.84"/>
	<rect x="3398.90" y="1179.38" width="78.57" height="252.99" style="fill:#B0CEFF"/>
	<rect x="3400.81" y="1181.30" width="74.73" height="249.15" style="fill:none;stroke:#619CFF;stroke-width:3.84"/>
	<rect x="3530.11" y="1313.71" width="78.44" height="118.67" style="fill:#808080"/>
	<rect x="3532.03" y="1315.63" width="74.60" height="114.83" style="fill:none;stroke:#000000;stroke-width:3.84"/>
	<rect x="3608.55" y="1343.54" width="78.57" height="88.83" style="fill:#B0CEFF"/>
	<rect x="3610.47" y="1345.46" width="74.73" height="84.99" style="fill:none;stroke:#619CFF;stroke-width:3.84"/>
	<rect x="3739.77" y="1276.31" width="78.43" height="156.06" style="fill:#808080"/>
	<rect x="3741.69" y="1278.23" width="74.60" height="152.22" style="fill:none;stroke:#000000;stroke-width:3.84"/>
	<rect x="3818.20" y="1227.30" width="78.57" height="205.07" style="fill:#B0CEFF"/>
	<rect x="3820.12" y="1229.22" width="74.73" height="201.23" style="fill:none;stroke:#619CFF;stroke-width:3.84"/>
	<rect x="3949.43" y="1288.73" width="78.57" height="143.64" style="fill:#808080"/>
	<rect x="3951.34" y="1290.65" width="74.73" height="139.80" style="fill:none;stroke:#000000;stroke-width:3.84"/>
	<rect x="4027.99" y="1269.96" width="78.44" height="162.41" style="fill:#B0CEFF"/>
	<rect x="4029.91" y="1271.88" width="74.60" height="158.57" style="fill:none;stroke:#619CFF;stroke-width:3.84"/>
	<text x="2520.99" y="1415.84" style="font-family:'Helvetica';font-size:26.73px;fill:#606060" text-anchor="middle">0.6</text>
	<text x="2599.56" y="1420.43" style="font-family:'Helvetica';font-size:26.73px;fill:#606060" text-anchor="middle">0.2</text>
	<text x="2730.65" y="1328.50" style="font-family:'Helvetica';font-size:26.73px;fill:#606060" text-anchor="middle">8.4</text>
	<text x="2809.22" y="1282.05" style="font-family:'Helvetica';font-size:26.73px;fill:#606060" text-anchor="middle">12.5</text>
	<text x="2940.30" y="1234.80" style="font-family:'Helvetica';font-size:26.73px;fill:#606060" text-anchor="middle">16.8</text>
	<text x="3018.87" y="1232.37" style="font-family:'Helvetica';font-size:26.73px;fill:#606060" text-anchor="middle">17.0</text>
	<text x="3149.95" y="1347.26" style="font-family:'Helvetica';font-size:26.73px;fill:#606060" text-anchor="middle">6.7</text>
	<text x="3228.53" y="1345.24" style="font-family:'Helvetica';font-size:26.73px;fill:#606060" text-anchor="middle">6.9</text>
	<text x="3359.61" y="1084.95" style="font-family:'Helvetica';font-size:26.73px;fill:#606060" text-anchor="middle">30.2</text>
	<text x="3438.18" y="1169.19" style="font-family:'Helvetica';font-size:26.73px;fill:#606060" text-anchor="middle">22.6</text>
	<text x="3569.40" y="1303.52" style="font-family:'Helvetica';font-size:26.73px;fill:#606060" text-anchor="middle">10.6</text>
	<text x="3647.84" y="1333.22" style="font-family:'Helvetica';font-size:26.73px;fill:#606060" text-anchor="middle">8.0</text>
	<text x="3779.05" y="1265.99" style="font-family:'Helvetica';font-size:26.73px;fill:#606060" text-anchor="middle">14.0</text>
	<text x="3857.49" y="1216.98" style="font-family:'Helvetica';font-size:26.73px;fill:#606060" text-anchor="middle">18.3</text>
	<text x="3988.71" y="1278.54" style="font-family:'Helvetica';font-size:26.73px;fill:#606060" text-anchor="middle">12.8</text>
	<text x="4067.15" y="1259.78" style="font-family:'Helvetica';font-size:26.73px;fill:#606060" text-anchor="middle">14.5</text>
	<line x1="2398.82" y1="1432.37" x2="2372.09" y2="1432.37" style="stroke:#606060;stroke-width:3.84"/>
	<text x="2358.86" y="1446.39" style="font-family:'Helvetica';font-size:39.96px;fill:#606060" text-anchor="end">0</text>
	<line x1="2398.82" y1="1320.59" x2="2372.09" y2="1320.59" style="stroke:#606060;stroke-width:3.84"/>
	<text x="2358.86" y="1334.61" style="font-family:'Helvetica';font-size:39.96px;fill:#606060" text-anchor="end">10</text>
	<line x1="2398.82" y1="1208.81" x2="2372.09" y2="1208.81" style="stroke:#606060;stroke-width:3.84"/>
	<text x="2358.86" y="1222.83" style="font-family:'Helvetica';font-size:39.96px;fill:#606060" text-anchor="end">20</text>
	<line x1="2398.82" y1="1097.03" x2="2372.09" y2="1097.03" style="stroke:#606060;stroke-width:3.84"/>
	<text x="2358.86" y="1111.05" style="font-family:'Helvetica';font-size:39.96px;fill:#606060" text-anchor="end">30</text>
	<line x1="2398.82" y1="1432.37" x2="2398.82" y2="1097.03" style="stroke:#000000;stroke-width:3.84"/>
	<text x="2277.72" y="1230.14" style="font-family:'Helvetica';font-size:53.33px;fill:#000000" transform="rotate(-90 2277.72,1230.14)" text-anchor="middle">Percent</text>
	<text x="2570.19" y="1468.88" style="font-family:'Helvetica';font-size:39.96px;fill:#606060" transform="rotate(-45 2570.19,1468.88)" text-anchor="end">[-1;-0.5]</text>
	<text x="2779.84" y="1468.88" style="font-family:'Helvetica';font-size:39.96px;fill:#606060" transform="rotate(-45 2779.84,1468.88)" text-anchor="end">]-0.5;-0.2]</text>
	<text x="2989.50" y="1468.88" style="font-family:'Helvetica';font-size:39.96px;fill:#606060" transform="rotate(-45 2989.50,1468.88)" text-anchor="end">]-0.2;-0.1]</text>
	<text x="3199.15" y="1468.88" style="font-family:'Helvetica';font-size:39.96px;fill:#606060" transform="rotate(-45 3199.15,1468.88)" text-anchor="end">]-0.1;-0.05]</text>
	<text x="3408.81" y="1468.88" style="font-family:'Helvetica';font-size:39.96px;fill:#606060" transform="rotate(-45 3408.81,1468.88)" text-anchor="end">]-0.05;0.05[</text>
	<text x="3618.46" y="1468.88" style="font-family:'Helvetica';font-size:39.96px;fill:#606060" transform="rotate(-45 3618.46,1468.88)" text-anchor="end">[0.05;0.1[</text>
	<text x="3828.12" y="1468.88" style="font-family:'Helvetica';font-size:39.96px;fill:#606060" transform="rotate(-45 3828.12,1468.88)" text-anchor="end">[0.1;0.2[</text>
	<text x="4037.91" y="1468.88" style="font-family:'Helvetica';font-size:39.96px;fill:#606060" transform="rotate(-45 4037.91,1468.88)" text-anchor="end">[0.2;0.5[</text>
	<text x="3294.14" y="1000.37" style="font-family:'Helvetica';font-size:53.33px;fill:#000000" text-anchor="middle">AG</text>
	<rect x="63.31" y="1705.48" width="2096.68" height="821.08" style="fill:#FFFFFF"/>
	<rect x="65.23" y="1707.40" width="2092.85" height="817.24" style="fill:none;stroke:#FFFFFF;stroke-width:3.84"/>
	<rect x="302.26" y="1848.99" width="1790.51" height="404.47" style="fill:#E0E0E0"/>
	<rect x="304.18" y="1850.91" width="1786.67" height="400.63" style="fill:none;stroke:#FFFFFF;stroke-width:3.84"/>
	<line x1="302.26" y1="2253.46" x2="2092.77" y2="2253.46" style="stroke:#FFFFFF;stroke-width:3.84"/>
	<line x1="302.26" y1="2188.52" x2="2092.77" y2="2188.52" style="stroke:#FFFFFF;stroke-width:3.84"/>
	<line x1="302.26" y1="2123.72" x2="2092.77" y2="2123.72" style="stroke:#FFFFFF;stroke-width:3.84"/>
	<line x1="302.26" y1="2058.92" x2="2092.77" y2="2058.92" style="stroke:#FFFFFF;stroke-width:3.84"/>
	<line x1="302.26" y1="1993.98" x2="2092.77" y2="1993.98" style="stroke:#FFFFFF;stroke-width:3.84"/>
	<line x1="302.26" y1="1929.18" x2="2092.77" y2="1929.18" style="stroke:#FFFFFF;stroke-width:3.84"/>
	<rect x="453.06" y="2251.43" width="69.66" height="2.03" style="fill:#B0CEFF"/>
	<rect x="454.98" y="2253.35" width="65.82" height="-1.81" style="fill:none;stroke:#619CFF;stroke-width:3.84"/>
	<rect x="569.43" y="1927.29" width="69.66" height="326.17" style="fill:#808080"/>
	<rect x="571.35" y="1929.21" width="65.82" height="322.33" style="fill:none;stroke:#000000;stroke-width:3.84"/>
	<rect x="639.09" y="1969.82" width="69.79" height="283.64" style="fill:#B0CEFF"/>
	<rect x="641.01" y="1971.74" width="65.96" height="279.80" style="fill:none;stroke:#619CFF;stroke-width:3.84"/>
	<rect x="755.60" y="1934.58" width="69.66" height="318.87" style="fill:#808080"/>
	<rect x="757.51" y="1936.50" width="65.82" height="315.04" style="fill:none;stroke:#000000;stroke-width:3.84"/>
	<rect x="825.26" y="1916.22" width="69.66" height="337.24" style="fill:#B0CEFF"/>
	<rect x="827.17" y="1918.14" width="65.82" height="333.40" style="fill:none;stroke:#619CFF;stroke-width:3.84"/>
	<rect x="941.63" y="2144.78" width="69.79" height="108.68" style="fill:#808080"/>
	<rect x="943.54" y="2146.70" width="65.96" height="104.84" style="fill:none;stroke:#000000;stroke-width:3.84"/>
	<rect x="1011.42" y="2142.35" width="69.66" height="111.11" style="fill:#B0CEFF"/>
	<rect x="1013.34" y="2144.27" width="65.82" height="107.27" style="fill:none;stroke:#619CFF;stroke-width:3.84"/>
	<rect x="1127.79" y="1963.61" width="69.66" height="289.85" style="fill:#808080"/>
	<rect x="1129.71" y="1965.53" width="65.82" height="286.01" style="fill:none;stroke:#000000;stroke-width:3.84"/>
	<rect x="1197.45" y="1963.88" width="69.79" height="289.58" style="fill:#B0CEFF"/>
	<rect x="1199.37" y="1965.80" width="65.96" height="285.74" style="fill:none;stroke:#619CFF;stroke-width:3.84"/>
	<rect x="1313.95" y="2195.40" width="69.66" height="58.05" style="fill:#808080"/>
	<rect x="1315.87" y="2197.32" width="65.82" height="54.21" style="fill:none;stroke:#000000;stroke-width:3.84"/>
	<rect x="1383.62" y="2166.11" width="69.66" height="87.35" style="fill:#B0CEFF"/>
	<rect x="1385.53" y="2168.03" width="65.82" height="83.51" style="fill:none;stroke:#619CFF;stroke-width:3.84"/>
	<rect x="1499.98" y="2144.78" width="69.66" height="108.68" style="fill:#808080"/>
	<rect x="1501.90" y="2146.70" width="65.82" height="104.84" style="fill:none;stroke:#000000;stroke-width:3.84"/>
	<rect x="1569.65" y="2108.60" width="69.80" height="144.86" style="fill:#B0CEFF"/>
	<rect x="1571.56" y="2110.52" width="65.96" height="141.02" style="fill:none;stroke:#619CFF;stroke-width:3.84"/>
	<rect x="1686.15" y="2173.67" width="69.66" height="79.79" style="fill:#808080"/>
	<rect x="1688.07" y="2175.59" width="65.82" height="75.95" style="fill:none;stroke:#000000;stroke-width:3.84"/>
	<rect x="1755.81" y="2211.74" width="69.66" height="41.72" style="fill:#B0CEFF"/>
	<rect x="1757.73" y="2213.66" width="65.82" height="37.88" style="fill:none;stroke:#619CFF;stroke-width:3.84"/>
	<rect x="1872.18" y="2246.17" width="69.79" height="7.29" style="fill:#808080"/>
	<rect x="1874.10" y="2248.09" width="65.96" height="3.45" style="fill:none;stroke:#000000;stroke-width:3.84"/>
	<text x="487.89" y="2241.24" style="font-family:'Helvetica';font-size:26.73px;fill:#606060" text-anchor="middle">0.2</text>
	<text x="604.26" y="1917.10" style="font-family:'Helvetica';font-size:26.73px;fill:#606060" text-anchor="middle">25.1</text>
	<text x="674.05" y="1959.63" style="font-family:'Helvetica';font-size:26.73px;fill:#606060" text-anchor="middle">21.9</text>
	<text x="790.42" y="1924.39" style="font-family:'Helvetica';font-size:26.73px;fill:#606060" text-anchor="middle">24.6</text>
	<text x="860.09" y="1906.03" style="font-family:'Helvetica';font-size:26.73px;fill:#606060" text-anchor="middle">26.0</text>
	<text x="976.59" y="2134.46" style="font-family:'Helvetica';font-size:26.73px;fill:#606060" text-anchor="middle">8.4</text>
	<text x="1046.25" y="2132.16" style="font-family:'Helvetica';font-size:26.73px;fill:#606060" text-anchor="middle">8.6</text>
	<text x="1162.62" y="1953.28" style="font-family:'Helvetica';font-size:26.73px;fill:#606060" text-anchor="middle">22.3</text>
	<text x="1232.28" y="1953.55" style="font-family:'Helvetica';font-size:26.73px;fill:#606060" text-anchor="middle">22.3</text>
	<text x="1348.79" y="2185.22" style="font-family:'Helvetica';font-size:26.73px;fill:#606060" text-anchor="middle">4.5</text>
	<text x="1418.44" y="2155.92" style="font-family:'Helvetica';font-size:26.73px;fill:#606060" text-anchor="middle">6.7</text>
	<text x="1534.82" y="2134.46" style="font-family:'Helvetica';font-size:26.73px;fill:#606060" text-anchor="middle">8.4</text>
	<text x="1604.61" y="2098.41" style="font-family:'Helvetica';font-size:26.73px;fill:#606060" text-anchor="middle">11.2</text>
	<text x="1720.98" y="2163.48" style="font-family:'Helvetica';font-size:26.73px;fill:#606060" text-anchor="middle">6.1</text>
	<text x="1790.64" y="2201.55" style="font-family:'Helvetica';font-size:26.73px;fill:#606060" text-anchor="middle">3.2</text>
	<text x="1907.01" y="2235.98" style="font-family:'Helvetica';font-size:26.73px;fill:#606060" text-anchor="middle">0.6</text>
	<line x1="302.26" y1="2253.46" x2="275.54" y2="2253.46" style="stroke:#606060;stroke-width:3.84"/>
	<text x="262.17" y="2267.48" style="font-family:'Helvetica';font-size:39.96px;fill:#606060" text-anchor="end">0</text>
	<line x1="302.26" y1="2188.52" x2="275.54" y2="2188.52" style="stroke:#606060;stroke-width:3.84"/>
	<text x="262.17" y="2202.54" style="font-family:'Helvetica';font-size:39.96px;fill:#606060" text-anchor="end">5</text>
	<line x1="302.26" y1="2123.72" x2="275.54" y2="2123.72" style="stroke:#606060;stroke-width:3.84"/>
	<text x="262.17" y="2137.74" style="font-family:'Helvetica';font-size:39.96px;fill:#606060" text-anchor="end">10</text>
	<line x1="302.26" y1="2058.92" x2="275.54" y2="2058.92" style="stroke:#606060;stroke-width:3.84"/>
	<text x="262.17" y="2072.94" style="font-family:'Helvetica';font-size:39.96px;fill:#606060" text-anchor="end">15</text>
	<line x1="302.26" y1="1993.98" x2="275.54" y2="1993.98" style="stroke:#606060;stroke-width:3.84"/>
	<text x="262.17" y="2008.00" style="font-family:'Helvetica';font-size:39.96px;fill:#606060" text-anchor="end">20</text>
	<line x1="302.26" y1="1929.18" x2="275.54" y2="1929.18" style="stroke:#606060;stroke-width:3.84"/>
	<text x="262.17" y="1943.20" style="font-family:'Helvetica';font-size:39.96px;fill:#606060" text-anchor="end">25</text>
	<line x1="302.26" y1="2253.46" x2="302.26" y2="1929.18" style="stroke:#000000;stroke-width:3.84"/>
	<text x="181.17" y="2051.22" style="font-family:'Helvetica';font-size:53.33px;fill:#000000" transform="rotate(-90 181.17,2051.22)" text-anchor="middle">Percent</text>
	<text x="462.97" y="2289.96" style="font-family:'Helvetica';font-size:39.96px;fill:#606060" transform="rotate(-45 462.97,2289.96)" text-anchor="end">[-1;-0.5]</text>
	<text x="649.00" y="2289.96" style="font-family:'Helvetica';font-size:39.96px;fill:#606060" transform="rotate(-45 649.00,2289.96)" text-anchor="end">]-0.5;-0.2]</text>
	<text x="835.17" y="2289.96" style="font-family:'Helvetica';font-size:39.96px;fill:#606060" transform="rotate(-45 835.17,2289.96)" text-anchor="end">]-0.2;-0.1]</text>
	<text x="1021.33" y="2289.96" style="font-family:'Helvetica';font-size:39.96px;fill:#606060" transform="rotate(-45 1021.33,2289.96)" text-anchor="end">]-0.1;-0.05]</text>
	<text x="1207.36" y="2289.96" style="font-family:'Helvetica';font-size:39.96px;fill:#606060" transform="rotate(-45 1207.36,2289.96)" text-anchor="end">]-0.05;0.05[</text>
	<text x="1393.53" y="2289.96" style="font-family:'Helvetica';font-size:39.96px;fill:#606060" transform="rotate(-45 1393.53,2289.96)" text-anchor="end">[0.05;0.1[</text>
	<text x="1579.56" y="2289.96" style="font-family:'Helvetica';font-size:39.96px;fill:#606060" transform="rotate(-45 1579.56,2289.96)" text-anchor="end">[0.1;0.2[</text>
	<text x="1765.72" y="2289.96" style="font-family:'Helvetica';font-size:39.96px;fill:#606060" transform="rotate(-45 1765.72,2289.96)" text-anchor="end">[0.2;0.5[</text>
	<text x="1951.89" y="2289.96" style="font-family:'Helvetica';font-size:39.96px;fill:#606060" transform="rotate(-45 1951.89,2289.96)" text-anchor="end">[0.5;1]</text>
	<text x="1197.45" y="1821.45" style="font-family:'Helvetica';font-size:53.33px;fill:#000000" text-anchor="middle">ES</text>
	<text x="80.59" y="2787.35" style="font-family:'Helvetica';font-size:39.96px;fill:#000000">Raw traits (non-corrected from acquiesence bias).</text>
	<rect x="1438.83" y="2561.13" width="1442.34" height="146.34" style="fill:#FFFFFF"/>
	<rect x="1441.71" y="2564.00" width="1436.58" height="140.58" style="fill:none;stroke:#FFFFFF;stroke-width:5.76"/>
	<rect x="1482.03" y="2604.33" width="143.91" height="59.94" style="fill:#808080"/>
	<rect x="1484.91" y="2607.21" width="138.15" height="54.18" style="fill:none;stroke:#000000;stroke-width:5.76"/>
	<rect x="2199.96" y="2604.33" width="144.05" height="59.94" style="fill:#B0CEFF"/>
	<rect x="2202.84" y="2607.21" width="138.29" height="54.18" style="fill:none;stroke:#619CFF;stroke-width:5.76"/>
	<text x="1686.02" y="2655.31" style="font-family:'Helvetica';font-size:59.94px;fill:#000000">];30] in 2016-17</text>
	<text x="2403.95" y="2655.31" style="font-family:'Helvetica';font-size:59.94px;fill:#000000">]30;[ in 2016-17</text>
</svg>
