<?xml version="1.0" encoding="UTF-8" standalone="no"?>
<!-- This is a Stata 15.1 generated SVG file (http://www.stata.com) -->

<svg version="1.1" width="6.00in" height="4.00in" viewBox="0 0 4320 2880" xmlns="http://www.w3.org/2000/svg" xmlns:xlink="http://www.w3.org/1999/xlink">
	<desc>Stata Graph - combage</desc>
	<rect x="0" y="0" width="4320" height="2880" style="fill:#FFFFFF;stroke:none"/>
	<rect x="0.00" y="0.00" width="4320.00" height="2880.00" style="fill:#FFFFFF"/>
	<rect x="2.88" y="2.88" width="4314.24" height="2874.24" style="fill:none;stroke:#FFFFFF;stroke-width:5.76"/>
	<rect x="63.31" y="63.32" width="2096.68" height="821.08" style="fill:#FFFFFF"/>
	<rect x="65.23" y="65.24" width="2092.85" height="817.24" style="fill:none;stroke:#FFFFFF;stroke-width:3.84"/>
	<rect x="302.26" y="206.96" width="1790.51" height="404.33" style="fill:#E0E0E0"/>
	<rect x="304.18" y="208.88" width="1786.67" height="400.49" style="fill:none;stroke:#FFFFFF;stroke-width:3.84"/>
	<line x1="302.26" y1="611.29" x2="2092.77" y2="611.29" style="stroke:#FFFFFF;stroke-width:3.84"/>
	<line x1="302.26" y1="498.97" x2="2092.77" y2="498.97" style="stroke:#FFFFFF;stroke-width:3.84"/>
	<line x1="302.26" y1="386.51" x2="2092.77" y2="386.51" style="stroke:#FFFFFF;stroke-width:3.84"/>
	<line x1="302.26" y1="274.05" x2="2092.77" y2="274.05" style="stroke:#FFFFFF;stroke-width:3.84"/>
	<rect x="383.40" y="604.00" width="69.66" height="7.29" style="fill:#808080"/>
	<rect x="385.32" y="605.92" width="65.82" height="3.45" style="fill:none;stroke:#000000;stroke-width:3.84"/>
	<rect x="453.06" y="605.21" width="69.66" height="6.08" style="fill:#B0CEFF"/>
	<rect x="454.98" y="607.13" width="65.82" height="2.24" style="fill:none;stroke:#619CFF;stroke-width:3.84"/>
	<rect x="569.43" y="567.55" width="69.66" height="43.74" style="fill:#808080"/>
	<rect x="571.35" y="569.47" width="65.82" height="39.90" style="fill:none;stroke:#000000;stroke-width:3.84"/>
	<rect x="639.09" y="547.70" width="69.79" height="63.59" style="fill:#B0CEFF"/>
	<rect x="641.01" y="549.62" width="65.96" height="59.75" style="fill:none;stroke:#619CFF;stroke-width:3.84"/>
	<rect x="755.60" y="492.08" width="69.66" height="119.21" style="fill:#808080"/>
	<rect x="757.51" y="494.00" width="65.82" height="115.37" style="fill:none;stroke:#000000;stroke-width:3.84"/>
	<rect x="825.26" y="508.28" width="69.66" height="103.01" style="fill:#B0CEFF"/>
	<rect x="827.17" y="510.20" width="65.82" height="99.17" style="fill:none;stroke:#619CFF;stroke-width:3.84"/>
	<rect x="941.63" y="533.39" width="69.79" height="77.90" style="fill:#808080"/>
	<rect x="943.54" y="535.31" width="65.96" height="74.06" style="fill:none;stroke:#000000;stroke-width:3.84"/>
	<rect x="1011.42" y="562.82" width="69.66" height="48.47" style="fill:#B0CEFF"/>
	<rect x="1013.34" y="564.74" width="65.82" height="44.63" style="fill:none;stroke:#619CFF;stroke-width:3.84"/>
	<rect x="1127.79" y="419.05" width="69.66" height="192.24" style="fill:#808080"/>
	<rect x="1129.71" y="420.97" width="65.82" height="188.40" style="fill:none;stroke:#000000;stroke-width:3.84"/>
	<rect x="1197.45" y="411.35" width="69.79" height="199.94" style="fill:#B0CEFF"/>
	<rect x="1199.37" y="413.27" width="65.96" height="196.10" style="fill:none;stroke:#619CFF;stroke-width:3.84"/>
	<rect x="1313.95" y="545.68" width="69.66" height="65.61" style="fill:#808080"/>
	<rect x="1315.87" y="547.60" width="65.82" height="61.77" style="fill:none;stroke:#000000;stroke-width:3.84"/>
	<rect x="1383.62" y="520.43" width="69.66" height="90.86" style="fill:#B0CEFF"/>
	<rect x="1385.53" y="522.35" width="65.82" height="87.02" style="fill:none;stroke:#619CFF;stroke-width:3.84"/>
	<rect x="1499.98" y="358.30" width="69.66" height="252.99" style="fill:#808080"/>
	<rect x="1501.90" y="360.22" width="65.82" height="249.15" style="fill:none;stroke:#000000;stroke-width:3.84"/>
	<rect x="1569.65" y="399.20" width="69.80" height="212.09" style="fill:#B0CEFF"/>
	<rect x="1571.56" y="401.12" width="65.96" height="208.25" style="fill:none;stroke:#619CFF;stroke-width:3.84"/>
	<rect x="1686.15" y="299.84" width="69.66" height="311.45" style="fill:#808080"/>
	<rect x="1688.07" y="301.76" width="65.82" height="307.61" style="fill:none;stroke:#000000;stroke-width:3.84"/>
	<rect x="1755.81" y="284.18" width="69.66" height="327.11" style="fill:#B0CEFF"/>
	<rect x="1757.73" y="286.10" width="65.82" height="323.27" style="fill:none;stroke:#619CFF;stroke-width:3.84"/>
	<rect x="1872.18" y="557.83" width="69.79" height="53.46" style="fill:#808080"/>
	<rect x="1874.10" y="559.75" width="65.96" height="49.62" style="fill:none;stroke:#000000;stroke-width:3.84"/>
	<rect x="1941.97" y="538.66" width="69.66" height="72.63" style="fill:#B0CEFF"/>
	<rect x="1943.89" y="540.58" width="65.82" height="68.79" style="fill:none;stroke:#619CFF;stroke-width:3.84"/>
	<text x="418.23" y="593.81" style="font-family:'Helvetica';font-size:26.73px;fill:#606060" text-anchor="middle">0.6</text>
	<text x="487.89" y="595.03" style="font-family:'Helvetica';font-size:26.73px;fill:#606060" text-anchor="middle">0.5</text>
	<text x="604.26" y="557.23" style="font-family:'Helvetica';font-size:26.73px;fill:#606060" text-anchor="middle">3.9</text>
	<text x="674.05" y="537.38" style="font-family:'Helvetica';font-size:26.73px;fill:#606060" text-anchor="middle">5.7</text>
	<text x="790.42" y="481.90" style="font-family:'Helvetica';font-size:26.73px;fill:#606060" text-anchor="middle">10.6</text>
	<text x="860.09" y="498.10" style="font-family:'Helvetica';font-size:26.73px;fill:#606060" text-anchor="middle">9.2</text>
	<text x="976.59" y="523.21" style="font-family:'Helvetica';font-size:26.73px;fill:#606060" text-anchor="middle">6.9</text>
	<text x="1046.25" y="552.64" style="font-family:'Helvetica';font-size:26.73px;fill:#606060" text-anchor="middle">4.3</text>
	<text x="1162.62" y="408.86" style="font-family:'Helvetica';font-size:26.73px;fill:#606060" text-anchor="middle">17.1</text>
	<text x="1232.28" y="401.17" style="font-family:'Helvetica';font-size:26.73px;fill:#606060" text-anchor="middle">17.8</text>
	<text x="1348.79" y="535.36" style="font-family:'Helvetica';font-size:26.73px;fill:#606060" text-anchor="middle">5.8</text>
	<text x="1418.44" y="510.11" style="font-family:'Helvetica';font-size:26.73px;fill:#606060" text-anchor="middle">8.1</text>
	<text x="1534.82" y="348.11" style="font-family:'Helvetica';font-size:26.73px;fill:#606060" text-anchor="middle">22.5</text>
	<text x="1604.61" y="389.02" style="font-family:'Helvetica';font-size:26.73px;fill:#606060" text-anchor="middle">18.9</text>
	<text x="1720.98" y="289.65" style="font-family:'Helvetica';font-size:26.73px;fill:#606060" text-anchor="middle">27.7</text>
	<text x="1790.64" y="273.86" style="font-family:'Helvetica';font-size:26.73px;fill:#606060" text-anchor="middle">29.1</text>
	<text x="1907.01" y="547.51" style="font-family:'Helvetica';font-size:26.73px;fill:#606060" text-anchor="middle">4.8</text>
	<text x="1976.81" y="528.34" style="font-family:'Helvetica';font-size:26.73px;fill:#606060" text-anchor="middle">6.5</text>
	<line x1="302.26" y1="611.29" x2="275.54" y2="611.29" style="stroke:#606060;stroke-width:3.84"/>
	<text x="262.17" y="625.31" style="font-family:'Helvetica';font-size:39.96px;fill:#606060" text-anchor="end">0</text>
	<line x1="302.26" y1="498.97" x2="275.54" y2="498.97" style="stroke:#606060;stroke-width:3.84"/>
	<text x="262.17" y="512.99" style="font-family:'Helvetica';font-size:39.96px;fill:#606060" text-anchor="end">10</text>
	<line x1="302.26" y1="386.51" x2="275.54" y2="386.51" style="stroke:#606060;stroke-width:3.84"/>
	<text x="262.17" y="400.53" style="font-family:'Helvetica';font-size:39.96px;fill:#606060" text-anchor="end">20</text>
	<line x1="302.26" y1="274.05" x2="275.54" y2="274.05" style="stroke:#606060;stroke-width:3.84"/>
	<text x="262.17" y="288.07" style="font-family:'Helvetica';font-size:39.96px;fill:#606060" text-anchor="end">30</text>
	<line x1="302.26" y1="611.29" x2="302.26" y2="274.05" style="stroke:#000000;stroke-width:3.84"/>
	<text x="181.17" y="409.06" style="font-family:'Helvetica';font-size:53.33px;fill:#000000" transform="rotate(-90 181.17,409.06)" text-anchor="middle">Percent</text>
	<text x="462.97" y="647.93" style="font-family:'Helvetica';font-size:39.96px;fill:#606060" transform="rotate(-45 462.97,647.93)" text-anchor="end">[-1;-0.5]</text>
	<text x="649.00" y="647.93" style="font-family:'Helvetica';font-size:39.96px;fill:#606060" transform="rotate(-45 649.00,647.93)" text-anchor="end">]-0.5;-0.2]</text>
	<text x="835.17" y="647.93" style="font-family:'Helvetica';font-size:39.96px;fill:#606060" transform="rotate(-45 835.17,647.93)" text-anchor="end">]-0.2;-0.1]</text>
	<text x="1021.33" y="647.93" style="font-family:'Helvetica';font-size:39.96px;fill:#606060" transform="rotate(-45 1021.33,647.93)" text-anchor="end">]-0.1;-0.05]</text>
	<text x="1207.36" y="647.93" style="font-family:'Helvetica';font-size:39.96px;fill:#606060" transform="rotate(-45 1207.36,647.93)" text-anchor="end">]-0.05;0.05[</text>
	<text x="1393.53" y="647.93" style="font-family:'Helvetica';font-size:39.96px;fill:#606060" transform="rotate(-45 1393.53,647.93)" text-anchor="end">[0.05;0.1[</text>
	<text x="1579.56" y="647.93" style="font-family:'Helvetica';font-size:39.96px;fill:#606060" transform="rotate(-45 1579.56,647.93)" text-anchor="end">[0.1;0.2[</text>
	<text x="1765.72" y="647.93" style="font-family:'Helvetica';font-size:39.96px;fill:#606060" transform="rotate(-45 1765.72,647.93)" text-anchor="end">[0.2;0.5[</text>
	<text x="1951.89" y="647.93" style="font-family:'Helvetica';font-size:39.96px;fill:#606060" transform="rotate(-45 1951.89,647.93)" text-anchor="end">[0.5;1]</text>
	<text x="1197.45" y="179.28" style="font-family:'Helvetica';font-size:53.33px;fill:#000000" text-anchor="middle">OP</text>
	<rect x="2160.00" y="63.32" width="2096.55" height="821.08" style="fill:#FFFFFF"/>
	<rect x="2161.92" y="65.24" width="2092.71" height="817.24" style="fill:none;stroke:#FFFFFF;stroke-width:3.84"/>
	<rect x="2398.82" y="206.96" width="1790.50" height="404.33" style="fill:#E0E0E0"/>
	<rect x="2400.73" y="208.88" width="1786.67" height="400.49" style="fill:none;stroke:#FFFFFF;stroke-width:3.84"/>
	<line x1="2398.82" y1="611.29" x2="4189.32" y2="611.29" style="stroke:#FFFFFF;stroke-width:3.84"/>
	<line x1="2398.82" y1="498.97" x2="4189.32" y2="498.97" style="stroke:#FFFFFF;stroke-width:3.84"/>
	<line x1="2398.82" y1="386.51" x2="4189.32" y2="386.51" style="stroke:#FFFFFF;stroke-width:3.84"/>
	<line x1="2398.82" y1="274.05" x2="4189.32" y2="274.05" style="stroke:#FFFFFF;stroke-width:3.84"/>
	<rect x="2479.95" y="601.57" width="69.66" height="9.72" style="fill:#808080"/>
	<rect x="2481.87" y="603.49" width="65.82" height="5.88" style="fill:none;stroke:#000000;stroke-width:3.84"/>
	<rect x="2549.61" y="608.32" width="69.80" height="2.97" style="fill:#B0CEFF"/>
	<rect x="2551.53" y="610.24" width="65.96" height="-0.87" style="fill:none;stroke:#619CFF;stroke-width:3.84"/>
	<rect x="2666.11" y="302.40" width="69.66" height="308.88" style="fill:#808080"/>
	<rect x="2668.03" y="304.32" width="65.82" height="305.04" style="fill:none;stroke:#000000;stroke-width:3.84"/>
	<rect x="2735.78" y="381.11" width="69.66" height="230.18" style="fill:#B0CEFF"/>
	<rect x="2737.69" y="383.03" width="65.82" height="226.34" style="fill:none;stroke:#619CFF;stroke-width:3.84"/>
	<rect x="2852.15" y="409.33" width="69.80" height="201.96" style="fill:#808080"/>
	<rect x="2854.06" y="411.25" width="65.96" height="198.12" style="fill:none;stroke:#000000;stroke-width:3.84"/>
	<rect x="2921.94" y="456.85" width="69.66" height="154.44" style="fill:#B0CEFF"/>
	<rect x="2923.86" y="458.77" width="65.82" height="150.60" style="fill:none;stroke:#619CFF;stroke-width:3.84"/>
	<rect x="3038.31" y="538.25" width="69.66" height="73.04" style="fill:#808080"/>
	<rect x="3040.23" y="540.17" width="65.82" height="69.20" style="fill:none;stroke:#000000;stroke-width:3.84"/>
	<rect x="3107.97" y="544.60" width="69.66" height="66.69" style="fill:#B0CEFF"/>
	<rect x="3109.89" y="546.52" width="65.82" height="62.85" style="fill:none;stroke:#619CFF;stroke-width:3.84"/>
	<rect x="3224.34" y="399.61" width="69.80" height="211.68" style="fill:#808080"/>
	<rect x="3226.26" y="401.53" width="65.96" height="207.84" style="fill:none;stroke:#000000;stroke-width:3.84"/>
	<rect x="3294.14" y="408.38" width="69.66" height="202.91" style="fill:#B0CEFF"/>
	<rect x="3296.05" y="410.30" width="65.82" height="199.07" style="fill:none;stroke:#619CFF;stroke-width:3.84"/>
	<rect x="3410.51" y="543.25" width="69.66" height="68.04" style="fill:#808080"/>
	<rect x="3412.42" y="545.17" width="65.82" height="64.20" style="fill:none;stroke:#000000;stroke-width:3.84"/>
	<rect x="3480.17" y="535.55" width="69.80" height="75.74" style="fill:#B0CEFF"/>
	<rect x="3482.08" y="537.47" width="65.96" height="71.90" style="fill:none;stroke:#619CFF;stroke-width:3.84"/>
	<rect x="3596.67" y="472.64" width="69.66" height="138.65" style="fill:#808080"/>
	<rect x="3598.59" y="474.56" width="65.82" height="134.81" style="fill:none;stroke:#000000;stroke-width:3.84"/>
	<rect x="3666.33" y="399.20" width="69.66" height="212.09" style="fill:#B0CEFF"/>
	<rect x="3668.25" y="401.12" width="65.82" height="208.25" style="fill:none;stroke:#619CFF;stroke-width:3.84"/>
	<rect x="3782.70" y="499.37" width="69.66" height="111.92" style="fill:#808080"/>
	<rect x="3784.62" y="501.29" width="65.82" height="108.08" style="fill:none;stroke:#000000;stroke-width:3.84"/>
	<rect x="3852.36" y="435.65" width="69.80" height="175.64" style="fill:#B0CEFF"/>
	<rect x="3854.28" y="437.57" width="65.96" height="171.80" style="fill:none;stroke:#619CFF;stroke-width:3.84"/>
	<rect x="4038.53" y="608.32" width="69.66" height="2.97" style="fill:#B0CEFF"/>
	<rect x="4040.44" y="610.24" width="65.82" height="-0.87" style="fill:none;stroke:#619CFF;stroke-width:3.84"/>
	<text x="2514.78" y="591.38" style="font-family:'Helvetica';font-size:26.73px;fill:#606060" text-anchor="middle">0.9</text>
	<text x="2584.44" y="598.00" style="font-family:'Helvetica';font-size:26.73px;fill:#606060" text-anchor="middle">0.3</text>
	<text x="2700.95" y="292.08" style="font-family:'Helvetica';font-size:26.73px;fill:#606060" text-anchor="middle">27.5</text>
	<text x="2770.61" y="370.79" style="font-family:'Helvetica';font-size:26.73px;fill:#606060" text-anchor="middle">20.5</text>
	<text x="2886.97" y="399.14" style="font-family:'Helvetica';font-size:26.73px;fill:#606060" text-anchor="middle">18.0</text>
	<text x="2956.77" y="446.53" style="font-family:'Helvetica';font-size:26.73px;fill:#606060" text-anchor="middle">13.7</text>
	<text x="3073.14" y="528.07" style="font-family:'Helvetica';font-size:26.73px;fill:#606060" text-anchor="middle">6.5</text>
	<text x="3142.80" y="534.41" style="font-family:'Helvetica';font-size:26.73px;fill:#606060" text-anchor="middle">5.9</text>
	<text x="3259.30" y="389.42" style="font-family:'Helvetica';font-size:26.73px;fill:#606060" text-anchor="middle">18.8</text>
	<text x="3328.97" y="398.06" style="font-family:'Helvetica';font-size:26.73px;fill:#606060" text-anchor="middle">18.1</text>
	<text x="3445.34" y="532.93" style="font-family:'Helvetica';font-size:26.73px;fill:#606060" text-anchor="middle">6.1</text>
	<text x="3514.99" y="525.37" style="font-family:'Helvetica';font-size:26.73px;fill:#606060" text-anchor="middle">6.7</text>
	<text x="3631.50" y="462.46" style="font-family:'Helvetica';font-size:26.73px;fill:#606060" text-anchor="middle">12.3</text>
	<text x="3701.16" y="389.02" style="font-family:'Helvetica';font-size:26.73px;fill:#606060" text-anchor="middle">18.9</text>
	<text x="3817.53" y="489.19" style="font-family:'Helvetica';font-size:26.73px;fill:#606060" text-anchor="middle">10.0</text>
	<text x="3887.32" y="425.33" style="font-family:'Helvetica';font-size:26.73px;fill:#606060" text-anchor="middle">15.6</text>
	<text x="4073.36" y="598.00" style="font-family:'Helvetica';font-size:26.73px;fill:#606060" text-anchor="middle">0.3</text>
	<line x1="2398.82" y1="611.29" x2="2372.09" y2="611.29" style="stroke:#606060;stroke-width:3.84"/>
	<text x="2358.86" y="625.31" style="font-family:'Helvetica';font-size:39.96px;fill:#606060" text-anchor="end">0</text>
	<line x1="2398.82" y1="498.97" x2="2372.09" y2="498.97" style="stroke:#606060;stroke-width:3.84"/>
	<text x="2358.86" y="512.99" style="font-family:'Helvetica';font-size:39.96px;fill:#606060" text-anchor="end">10</text>
	<line x1="2398.82" y1="386.51" x2="2372.09" y2="386.51" style="stroke:#606060;stroke-width:3.84"/>
	<text x="2358.86" y="400.53" style="font-family:'Helvetica';font-size:39.96px;fill:#606060" text-anchor="end">20</text>
	<line x1="2398.82" y1="274.05" x2="2372.09" y2="274.05" style="stroke:#606060;stroke-width:3.84"/>
	<text x="2358.86" y="288.07" style="font-family:'Helvetica';font-size:39.96px;fill:#606060" text-anchor="end">30</text>
	<line x1="2398.82" y1="611.29" x2="2398.82" y2="274.05" style="stroke:#000000;stroke-width:3.84"/>
	<text x="2277.72" y="409.06" style="font-family:'Helvetica';font-size:53.33px;fill:#000000" transform="rotate(-90 2277.72,409.06)" text-anchor="middle">Percent</text>
	<text x="2559.52" y="647.93" style="font-family:'Helvetica';font-size:39.96px;fill:#606060" transform="rotate(-45 2559.52,647.93)" text-anchor="end">[-1;-0.5]</text>
	<text x="2745.69" y="647.93" style="font-family:'Helvetica';font-size:39.96px;fill:#606060" transform="rotate(-45 2745.69,647.93)" text-anchor="end">]-0.5;-0.2]</text>
	<text x="2931.85" y="647.93" style="font-family:'Helvetica';font-size:39.96px;fill:#606060" transform="rotate(-45 2931.85,647.93)" text-anchor="end">]-0.2;-0.1]</text>
	<text x="3117.88" y="647.93" style="font-family:'Helvetica';font-size:39.96px;fill:#606060" transform="rotate(-45 3117.88,647.93)" text-anchor="end">]-0.1;-0.05]</text>
	<text x="3304.05" y="647.93" style="font-family:'Helvetica';font-size:39.96px;fill:#606060" transform="rotate(-45 3304.05,647.93)" text-anchor="end">]-0.05;0.05[</text>
	<text x="3490.08" y="647.93" style="font-family:'Helvetica';font-size:39.96px;fill:#606060" transform="rotate(-45 3490.08,647.93)" text-anchor="end">[0.05;0.1[</text>
	<text x="3676.24" y="647.93" style="font-family:'Helvetica';font-size:39.96px;fill:#606060" transform="rotate(-45 3676.24,647.93)" text-anchor="end">[0.1;0.2[</text>
	<text x="3862.27" y="647.93" style="font-family:'Helvetica';font-size:39.96px;fill:#606060" transform="rotate(-45 3862.27,647.93)" text-anchor="end">[0.2;0.5[</text>
	<text x="4048.44" y="647.93" style="font-family:'Helvetica';font-size:39.96px;fill:#606060" transform="rotate(-45 4048.44,647.93)" text-anchor="end">[0.5;1]</text>
	<text x="3294.14" y="179.28" style="font-family:'Helvetica';font-size:53.33px;fill:#000000" text-anchor="middle">CO</text>
	<rect x="63.31" y="884.40" width="2096.68" height="821.08" style="fill:#FFFFFF"/>
	<rect x="65.23" y="886.32" width="2092.85" height="817.24" style="fill:none;stroke:#FFFFFF;stroke-width:3.84"/>
	<rect x="302.26" y="1028.04" width="1790.51" height="404.33" style="fill:#E0E0E0"/>
	<rect x="304.18" y="1029.96" width="1786.67" height="400.49" style="fill:none;stroke:#FFFFFF;stroke-width:3.84"/>
	<line x1="302.26" y1="1432.37" x2="2092.77" y2="1432.37" style="stroke:#FFFFFF;stroke-width:3.84"/>
	<line x1="302.26" y1="1356.10" x2="2092.77" y2="1356.10" style="stroke:#FFFFFF;stroke-width:3.84"/>
	<line x1="302.26" y1="1279.82" x2="2092.77" y2="1279.82" style="stroke:#FFFFFF;stroke-width:3.84"/>
	<line x1="302.26" y1="1203.54" x2="2092.77" y2="1203.54" style="stroke:#FFFFFF;stroke-width:3.84"/>
	<line x1="302.26" y1="1127.27" x2="2092.77" y2="1127.27" style="stroke:#FFFFFF;stroke-width:3.84"/>
	<rect x="453.06" y="1428.19" width="69.66" height="4.19" style="fill:#B0CEFF"/>
	<rect x="454.98" y="1430.11" width="65.82" height="0.35" style="fill:none;stroke:#619CFF;stroke-width:3.84"/>
	<rect x="569.43" y="1154.94" width="69.66" height="277.43" style="fill:#808080"/>
	<rect x="571.35" y="1156.86" width="65.82" height="273.59" style="fill:none;stroke:#000000;stroke-width:3.84"/>
	<rect x="639.09" y="1263.75" width="69.79" height="168.62" style="fill:#B0CEFF"/>
	<rect x="641.01" y="1265.67" width="65.96" height="164.78" style="fill:none;stroke:#619CFF;stroke-width:3.84"/>
	<rect x="755.60" y="1181.40" width="69.66" height="250.97" style="fill:#808080"/>
	<rect x="757.51" y="1183.32" width="65.82" height="247.13" style="fill:none;stroke:#000000;stroke-width:3.84"/>
	<rect x="825.26" y="1210.29" width="69.66" height="222.08" style="fill:#B0CEFF"/>
	<rect x="827.17" y="1212.21" width="65.82" height="218.24" style="fill:none;stroke:#619CFF;stroke-width:3.84"/>
	<rect x="941.63" y="1326.67" width="69.79" height="105.71" style="fill:#808080"/>
	<rect x="943.54" y="1328.59" width="65.96" height="101.87" style="fill:none;stroke:#000000;stroke-width:3.84"/>
	<rect x="1011.42" y="1325.45" width="69.66" height="106.92" style="fill:#B0CEFF"/>
	<rect x="1013.34" y="1327.37" width="65.82" height="103.08" style="fill:none;stroke:#619CFF;stroke-width:3.84"/>
	<rect x="1127.79" y="1108.77" width="69.66" height="323.60" style="fill:#808080"/>
	<rect x="1129.71" y="1110.69" width="65.82" height="319.76" style="fill:none;stroke:#000000;stroke-width:3.84"/>
	<rect x="1197.45" y="1140.36" width="69.79" height="292.01" style="fill:#B0CEFF"/>
	<rect x="1199.37" y="1142.28" width="65.96" height="288.17" style="fill:none;stroke:#619CFF;stroke-width:3.84"/>
	<rect x="1313.95" y="1359.74" width="69.66" height="72.63" style="fill:#808080"/>
	<rect x="1315.87" y="1361.66" width="65.82" height="68.79" style="fill:none;stroke:#000000;stroke-width:3.84"/>
	<rect x="1383.62" y="1354.21" width="69.66" height="78.17" style="fill:#B0CEFF"/>
	<rect x="1385.53" y="1356.13" width="65.82" height="74.33" style="fill:none;stroke:#619CFF;stroke-width:3.84"/>
	<rect x="1499.98" y="1181.40" width="69.66" height="250.97" style="fill:#808080"/>
	<rect x="1501.90" y="1183.32" width="65.82" height="247.13" style="fill:none;stroke:#000000;stroke-width:3.84"/>
	<rect x="1569.65" y="1132.13" width="69.80" height="300.24" style="fill:#B0CEFF"/>
	<rect x="1571.56" y="1134.05" width="65.96" height="296.40" style="fill:none;stroke:#619CFF;stroke-width:3.84"/>
	<rect x="1686.15" y="1197.87" width="69.66" height="234.50" style="fill:#808080"/>
	<rect x="1688.07" y="1199.79" width="65.82" height="230.66" style="fill:none;stroke:#000000;stroke-width:3.84"/>
	<rect x="1755.81" y="1095.14" width="69.66" height="337.24" style="fill:#B0CEFF"/>
	<rect x="1757.73" y="1097.06" width="65.82" height="333.40" style="fill:none;stroke:#619CFF;stroke-width:3.84"/>
	<rect x="1872.18" y="1422.52" width="69.79" height="9.86" style="fill:#808080"/>
	<rect x="1874.10" y="1424.44" width="65.96" height="6.02" style="fill:none;stroke:#000000;stroke-width:3.84"/>
	<rect x="1941.97" y="1415.90" width="69.66" height="16.47" style="fill:#B0CEFF"/>
	<rect x="1943.89" y="1417.82" width="65.82" height="12.63" style="fill:none;stroke:#619CFF;stroke-width:3.84"/>
	<text x="487.89" y="1418.00" style="font-family:'Helvetica';font-size:26.73px;fill:#606060" text-anchor="middle">0.3</text>
	<text x="604.26" y="1144.76" style="font-family:'Helvetica';font-size:26.73px;fill:#606060" text-anchor="middle">18.2</text>
	<text x="674.05" y="1253.57" style="font-family:'Helvetica';font-size:26.73px;fill:#606060" text-anchor="middle">11.1</text>
	<text x="790.42" y="1171.22" style="font-family:'Helvetica';font-size:26.73px;fill:#606060" text-anchor="middle">16.5</text>
	<text x="860.09" y="1200.11" style="font-family:'Helvetica';font-size:26.73px;fill:#606060" text-anchor="middle">14.6</text>
	<text x="976.59" y="1316.48" style="font-family:'Helvetica';font-size:26.73px;fill:#606060" text-anchor="middle">6.9</text>
	<text x="1046.25" y="1315.26" style="font-family:'Helvetica';font-size:26.73px;fill:#606060" text-anchor="middle">7.0</text>
	<text x="1162.62" y="1098.59" style="font-family:'Helvetica';font-size:26.73px;fill:#606060" text-anchor="middle">21.2</text>
	<text x="1232.28" y="1130.18" style="font-family:'Helvetica';font-size:26.73px;fill:#606060" text-anchor="middle">19.1</text>
	<text x="1348.79" y="1349.42" style="font-family:'Helvetica';font-size:26.73px;fill:#606060" text-anchor="middle">4.8</text>
	<text x="1418.44" y="1344.02" style="font-family:'Helvetica';font-size:26.73px;fill:#606060" text-anchor="middle">5.1</text>
	<text x="1534.82" y="1171.22" style="font-family:'Helvetica';font-size:26.73px;fill:#606060" text-anchor="middle">16.5</text>
	<text x="1604.61" y="1121.94" style="font-family:'Helvetica';font-size:26.73px;fill:#606060" text-anchor="middle">19.7</text>
	<text x="1720.98" y="1187.69" style="font-family:'Helvetica';font-size:26.73px;fill:#606060" text-anchor="middle">15.4</text>
	<text x="1790.64" y="1084.95" style="font-family:'Helvetica';font-size:26.73px;fill:#606060" text-anchor="middle">22.1</text>
	<text x="1907.01" y="1412.20" style="font-family:'Helvetica';font-size:26.73px;fill:#606060" text-anchor="middle">0.6</text>
	<text x="1976.81" y="1405.72" style="font-family:'Helvetica';font-size:26.73px;fill:#606060" text-anchor="middle">1.1</text>
	<line x1="302.26" y1="1432.37" x2="275.54" y2="1432.37" style="stroke:#606060;stroke-width:3.84"/>
	<text x="262.17" y="1446.39" style="font-family:'Helvetica';font-size:39.96px;fill:#606060" text-anchor="end">0</text>
	<line x1="302.26" y1="1356.10" x2="275.54" y2="1356.10" style="stroke:#606060;stroke-width:3.84"/>
	<text x="262.17" y="1370.12" style="font-family:'Helvetica';font-size:39.96px;fill:#606060" text-anchor="end">5</text>
	<line x1="302.26" y1="1279.82" x2="275.54" y2="1279.82" style="stroke:#606060;stroke-width:3.84"/>
	<text x="262.17" y="1293.84" style="font-family:'Helvetica';font-size:39.96px;fill:#606060" text-anchor="end">10</text>
	<line x1="302.26" y1="1203.54" x2="275.54" y2="1203.54" style="stroke:#606060;stroke-width:3.84"/>
	<text x="262.17" y="1217.56" style="font-family:'Helvetica';font-size:39.96px;fill:#606060" text-anchor="end">15</text>
	<line x1="302.26" y1="1127.27" x2="275.54" y2="1127.27" style="stroke:#606060;stroke-width:3.84"/>
	<text x="262.17" y="1141.29" style="font-family:'Helvetica';font-size:39.96px;fill:#606060" text-anchor="end">20</text>
	<line x1="302.26" y1="1432.37" x2="302.26" y2="1127.27" style="stroke:#000000;stroke-width:3.84"/>
	<text x="181.17" y="1230.14" style="font-family:'Helvetica';font-size:53.33px;fill:#000000" transform="rotate(-90 181.17,1230.14)" text-anchor="middle">Percent</text>
	<text x="462.97" y="1468.88" style="font-family:'Helvetica';font-size:39.96px;fill:#606060" transform="rotate(-45 462.97,1468.88)" text-anchor="end">[-1;-0.5]</text>
	<text x="649.00" y="1468.88" style="font-family:'Helvetica';font-size:39.96px;fill:#606060" transform="rotate(-45 649.00,1468.88)" text-anchor="end">]-0.5;-0.2]</text>
	<text x="835.17" y="1468.88" style="font-family:'Helvetica';font-size:39.96px;fill:#606060" transform="rotate(-45 835.17,1468.88)" text-anchor="end">]-0.2;-0.1]</text>
	<text x="1021.33" y="1468.88" style="font-family:'Helvetica';font-size:39.96px;fill:#606060" transform="rotate(-45 1021.33,1468.88)" text-anchor="end">]-0.1;-0.05]</text>
	<text x="1207.36" y="1468.88" style="font-family:'Helvetica';font-size:39.96px;fill:#606060" transform="rotate(-45 1207.36,1468.88)" text-anchor="end">]-0.05;0.05[</text>
	<text x="1393.53" y="1468.88" style="font-family:'Helvetica';font-size:39.96px;fill:#606060" transform="rotate(-45 1393.53,1468.88)" text-anchor="end">[0.05;0.1[</text>
	<text x="1579.56" y="1468.88" style="font-family:'Helvetica';font-size:39.96px;fill:#606060" transform="rotate(-45 1579.56,1468.88)" text-anchor="end">[0.1;0.2[</text>
	<text x="1765.72" y="1468.88" style="font-family:'Helvetica';font-size:39.96px;fill:#606060" transform="rotate(-45 1765.72,1468.88)" text-anchor="end">[0.2;0.5[</text>
	<text x="1951.89" y="1468.88" style="font-family:'Helvetica';font-size:39.96px;fill:#606060" transform="rotate(-45 1951.89,1468.88)" text-anchor="end">[0.5;1]</text>
	<text x="1197.45" y="1000.37" style="font-family:'Helvetica';font-size:53.33px;fill:#000000" text-anchor="middle">EX</text>
	<rect x="2160.00" y="884.40" width="2096.55" height="821.08" style="fill:#FFFFFF"/>
	<rect x="2161.92" y="886.32" width="2092.71" height="817.24" style="fill:none;stroke:#FFFFFF;stroke-width:3.84"/>
	<rect x="2398.82" y="1028.04" width="1790.50" height="404.33" style="fill:#E0E0E0"/>
	<rect x="2400.73" y="1029.96" width="1786.67" height="400.49" style="fill:none;stroke:#FFFFFF;stroke-width:3.84"/>
	<line x1="2398.82" y1="1432.37" x2="4189.32" y2="1432.37" style="stroke:#FFFFFF;stroke-width:3.84"/>
	<line x1="2398.82" y1="1367.17" x2="4189.32" y2="1367.17" style="stroke:#FFFFFF;stroke-width:3.84"/>
	<line x1="2398.82" y1="1302.10" x2="4189.32" y2="1302.10" style="stroke:#FFFFFF;stroke-width:3.84"/>
	<line x1="2398.82" y1="1236.89" x2="4189.32" y2="1236.89" style="stroke:#FFFFFF;stroke-width:3.84"/>
	<line x1="2398.82" y1="1171.82" x2="4189.32" y2="1171.82" style="stroke:#FFFFFF;stroke-width:3.84"/>
	<line x1="2398.82" y1="1106.61" x2="4189.32" y2="1106.61" style="stroke:#FFFFFF;stroke-width:3.84"/>
	<rect x="2481.70" y="1426.70" width="78.57" height="5.67" style="fill:#808080"/>
	<rect x="2483.62" y="1428.62" width="74.73" height="1.83" style="fill:none;stroke:#000000;stroke-width:3.84"/>
	<rect x="2691.36" y="1274.42" width="78.57" height="157.95" style="fill:#808080"/>
	<rect x="2693.28" y="1276.34" width="74.73" height="154.11" style="fill:none;stroke:#000000;stroke-width:3.84"/>
	<rect x="2769.93" y="1288.33" width="78.57" height="144.05" style="fill:#B0CEFF"/>
	<rect x="2771.85" y="1290.25" width="74.73" height="140.21" style="fill:none;stroke:#619CFF;stroke-width:3.84"/>
	<rect x="2901.01" y="1203.95" width="78.57" height="228.42" style="fill:#808080"/>
	<rect x="2902.93" y="1205.87" width="74.73" height="224.58" style="fill:none;stroke:#000000;stroke-width:3.84"/>
	<rect x="2979.59" y="1221.63" width="78.57" height="210.74" style="fill:#B0CEFF"/>
	<rect x="2981.50" y="1223.55" width="74.73" height="206.90" style="fill:none;stroke:#619CFF;stroke-width:3.84"/>
	<rect x="3110.67" y="1350.56" width="78.57" height="81.81" style="fill:#808080"/>
	<rect x="3112.59" y="1352.48" width="74.73" height="77.97" style="fill:none;stroke:#000000;stroke-width:3.84"/>
	<rect x="3189.24" y="1333.96" width="78.57" height="98.42" style="fill:#B0CEFF"/>
	<rect x="3191.16" y="1335.88" width="74.73" height="94.58" style="fill:none;stroke:#619CFF;stroke-width:3.84"/>
	<rect x="3320.46" y="1133.34" width="78.43" height="299.03" style="fill:#808080"/>
	<rect x="3322.38" y="1135.26" width="74.60" height="295.19" style="fill:none;stroke:#000000;stroke-width:3.84"/>
	<rect x="3398.90" y="1095.14" width="78.57" height="337.24" style="fill:#B0CEFF"/>
	<rect x="3400.81" y="1097.06" width="74.73" height="333.40" style="fill:none;stroke:#619CFF;stroke-width:3.84"/>
	<rect x="3530.11" y="1325.18" width="78.44" height="107.19" style="fill:#808080"/>
	<rect x="3532.03" y="1327.10" width="74.60" height="103.35" style="fill:none;stroke:#000000;stroke-width:3.84"/>
	<rect x="3608.55" y="1316.41" width="78.57" height="115.97" style="fill:#B0CEFF"/>
	<rect x="3610.47" y="1318.33" width="74.73" height="112.13" style="fill:none;stroke:#619CFF;stroke-width:3.84"/>
	<rect x="3739.77" y="1217.99" width="78.43" height="214.38" style="fill:#808080"/>
	<rect x="3741.69" y="1219.91" width="74.60" height="210.54" style="fill:none;stroke:#000000;stroke-width:3.84"/>
	<rect x="3818.20" y="1190.04" width="78.57" height="242.33" style="fill:#B0CEFF"/>
	<rect x="3820.12" y="1191.96" width="74.73" height="238.49" style="fill:none;stroke:#619CFF;stroke-width:3.84"/>
	<rect x="3949.43" y="1223.66" width="78.57" height="208.71" style="fill:#808080"/>
	<rect x="3951.34" y="1225.58" width="74.73" height="204.87" style="fill:none;stroke:#000000;stroke-width:3.84"/>
	<rect x="4027.99" y="1277.79" width="78.44" height="154.58" style="fill:#B0CEFF"/>
	<rect x="4029.91" y="1279.71" width="74.60" height="150.74" style="fill:none;stroke:#619CFF;stroke-width:3.84"/>
	<text x="2520.99" y="1416.52" style="font-family:'Helvetica';font-size:26.73px;fill:#606060" text-anchor="middle">0.4</text>
	<text x="2730.65" y="1264.23" style="font-family:'Helvetica';font-size:26.73px;fill:#606060" text-anchor="middle">12.1</text>
	<text x="2809.22" y="1278.14" style="font-family:'Helvetica';font-size:26.73px;fill:#606060" text-anchor="middle">11.1</text>
	<text x="2940.30" y="1193.63" style="font-family:'Helvetica';font-size:26.73px;fill:#606060" text-anchor="middle">17.5</text>
	<text x="3018.87" y="1211.45" style="font-family:'Helvetica';font-size:26.73px;fill:#606060" text-anchor="middle">16.2</text>
	<text x="3149.95" y="1340.38" style="font-family:'Helvetica';font-size:26.73px;fill:#606060" text-anchor="middle">6.3</text>
	<text x="3228.53" y="1323.77" style="font-family:'Helvetica';font-size:26.73px;fill:#606060" text-anchor="middle">7.5</text>
	<text x="3359.61" y="1123.16" style="font-family:'Helvetica';font-size:26.73px;fill:#606060" text-anchor="middle">22.9</text>
	<text x="3438.18" y="1084.95" style="font-family:'Helvetica';font-size:26.73px;fill:#606060" text-anchor="middle">25.9</text>
	<text x="3569.40" y="1314.99" style="font-family:'Helvetica';font-size:26.73px;fill:#606060" text-anchor="middle">8.2</text>
	<text x="3647.84" y="1306.22" style="font-family:'Helvetica';font-size:26.73px;fill:#606060" text-anchor="middle">8.9</text>
	<text x="3779.05" y="1207.80" style="font-family:'Helvetica';font-size:26.73px;fill:#606060" text-anchor="middle">16.5</text>
	<text x="3857.49" y="1179.72" style="font-family:'Helvetica';font-size:26.73px;fill:#606060" text-anchor="middle">18.6</text>
	<text x="3988.71" y="1213.47" style="font-family:'Helvetica';font-size:26.73px;fill:#606060" text-anchor="middle">16.0</text>
	<text x="4067.15" y="1267.61" style="font-family:'Helvetica';font-size:26.73px;fill:#606060" text-anchor="middle">11.9</text>
	<line x1="2398.82" y1="1432.37" x2="2372.09" y2="1432.37" style="stroke:#606060;stroke-width:3.84"/>
	<text x="2358.86" y="1446.39" style="font-family:'Helvetica';font-size:39.96px;fill:#606060" text-anchor="end">0</text>
	<line x1="2398.82" y1="1367.17" x2="2372.09" y2="1367.17" style="stroke:#606060;stroke-width:3.84"/>
	<text x="2358.86" y="1381.19" style="font-family:'Helvetica';font-size:39.96px;fill:#606060" text-anchor="end">5</text>
	<line x1="2398.82" y1="1302.10" x2="2372.09" y2="1302.10" style="stroke:#606060;stroke-width:3.84"/>
	<text x="2358.86" y="1316.12" style="font-family:'Helvetica';font-size:39.96px;fill:#606060" text-anchor="end">10</text>
	<line x1="2398.82" y1="1236.89" x2="2372.09" y2="1236.89" style="stroke:#606060;stroke-width:3.84"/>
	<text x="2358.86" y="1250.91" style="font-family:'Helvetica';font-size:39.96px;fill:#606060" text-anchor="end">15</text>
	<line x1="2398.82" y1="1171.82" x2="2372.09" y2="1171.82" style="stroke:#606060;stroke-width:3.84"/>
	<text x="2358.86" y="1185.84" style="font-family:'Helvetica';font-size:39.96px;fill:#606060" text-anchor="end">20</text>
	<line x1="2398.82" y1="1106.61" x2="2372.09" y2="1106.61" style="stroke:#606060;stroke-width:3.84"/>
	<text x="2358.86" y="1120.63" style="font-family:'Helvetica';font-size:39.96px;fill:#606060" text-anchor="end">25</text>
	<line x1="2398.82" y1="1432.37" x2="2398.82" y2="1106.61" style="stroke:#000000;stroke-width:3.84"/>
	<text x="2277.72" y="1230.14" style="font-family:'Helvetica';font-size:53.33px;fill:#000000" transform="rotate(-90 2277.72,1230.14)" text-anchor="middle">Percent</text>
	<text x="2570.19" y="1468.88" style="font-family:'Helvetica';font-size:39.96px;fill:#606060" transform="rotate(-45 2570.19,1468.88)" text-anchor="end">[-1;-0.5]</text>
	<text x="2779.84" y="1468.88" style="font-family:'Helvetica';font-size:39.96px;fill:#606060" transform="rotate(-45 2779.84,1468.88)" text-anchor="end">]-0.5;-0.2]</text>
	<text x="2989.50" y="1468.88" style="font-family:'Helvetica';font-size:39.96px;fill:#606060" transform="rotate(-45 2989.50,1468.88)" text-anchor="end">]-0.2;-0.1]</text>
	<text x="3199.15" y="1468.88" style="font-family:'Helvetica';font-size:39.96px;fill:#606060" transform="rotate(-45 3199.15,1468.88)" text-anchor="end">]-0.1;-0.05]</text>
	<text x="3408.81" y="1468.88" style="font-family:'Helvetica';font-size:39.96px;fill:#606060" transform="rotate(-45 3408.81,1468.88)" text-anchor="end">]-0.05;0.05[</text>
	<text x="3618.46" y="1468.88" style="font-family:'Helvetica';font-size:39.96px;fill:#606060" transform="rotate(-45 3618.46,1468.88)" text-anchor="end">[0.05;0.1[</text>
	<text x="3828.12" y="1468.88" style="font-family:'Helvetica';font-size:39.96px;fill:#606060" transform="rotate(-45 3828.12,1468.88)" text-anchor="end">[0.1;0.2[</text>
	<text x="4037.91" y="1468.88" style="font-family:'Helvetica';font-size:39.96px;fill:#606060" transform="rotate(-45 4037.91,1468.88)" text-anchor="end">[0.2;0.5[</text>
	<text x="3294.14" y="1000.37" style="font-family:'Helvetica';font-size:53.33px;fill:#000000" text-anchor="middle">AG</text>
	<rect x="63.31" y="1705.48" width="2096.68" height="821.08" style="fill:#FFFFFF"/>
	<rect x="65.23" y="1707.40" width="2092.85" height="817.24" style="fill:none;stroke:#FFFFFF;stroke-width:3.84"/>
	<rect x="302.26" y="1848.99" width="1790.51" height="404.47" style="fill:#E0E0E0"/>
	<rect x="304.18" y="1850.91" width="1786.67" height="400.63" style="fill:none;stroke:#FFFFFF;stroke-width:3.84"/>
	<line x1="302.26" y1="2253.46" x2="2092.77" y2="2253.46" style="stroke:#FFFFFF;stroke-width:3.84"/>
	<line x1="302.26" y1="2187.98" x2="2092.77" y2="2187.98" style="stroke:#FFFFFF;stroke-width:3.84"/>
	<line x1="302.26" y1="2122.50" x2="2092.77" y2="2122.50" style="stroke:#FFFFFF;stroke-width:3.84"/>
	<line x1="302.26" y1="2057.03" x2="2092.77" y2="2057.03" style="stroke:#FFFFFF;stroke-width:3.84"/>
	<line x1="302.26" y1="1991.69" x2="2092.77" y2="1991.69" style="stroke:#FFFFFF;stroke-width:3.84"/>
	<line x1="302.26" y1="1926.21" x2="2092.77" y2="1926.21" style="stroke:#FFFFFF;stroke-width:3.84"/>
	<rect x="383.40" y="2250.62" width="69.66" height="2.84" style="fill:#808080"/>
	<rect x="385.32" y="2252.54" width="65.82" height="-1.00" style="fill:none;stroke:#000000;stroke-width:3.84"/>
	<rect x="569.43" y="1916.22" width="69.66" height="337.24" style="fill:#808080"/>
	<rect x="571.35" y="1918.14" width="65.82" height="333.40" style="fill:none;stroke:#000000;stroke-width:3.84"/>
	<rect x="639.09" y="2009.91" width="69.79" height="243.54" style="fill:#B0CEFF"/>
	<rect x="641.01" y="2011.83" width="65.96" height="239.70" style="fill:none;stroke:#619CFF;stroke-width:3.84"/>
	<rect x="755.60" y="1916.22" width="69.66" height="337.24" style="fill:#808080"/>
	<rect x="757.51" y="1918.14" width="65.82" height="333.40" style="fill:none;stroke:#000000;stroke-width:3.84"/>
	<rect x="825.26" y="1918.24" width="69.66" height="335.21" style="fill:#B0CEFF"/>
	<rect x="827.17" y="1920.16" width="65.82" height="331.37" style="fill:none;stroke:#619CFF;stroke-width:3.84"/>
	<rect x="941.63" y="2131.55" width="69.79" height="121.91" style="fill:#808080"/>
	<rect x="943.54" y="2133.47" width="65.96" height="118.07" style="fill:none;stroke:#000000;stroke-width:3.84"/>
	<rect x="1011.42" y="2154.63" width="69.66" height="98.82" style="fill:#B0CEFF"/>
	<rect x="1013.34" y="2156.55" width="65.82" height="94.98" style="fill:none;stroke:#619CFF;stroke-width:3.84"/>
	<rect x="1127.79" y="1964.42" width="69.66" height="289.04" style="fill:#808080"/>
	<rect x="1129.71" y="1966.34" width="65.82" height="285.20" style="fill:none;stroke:#000000;stroke-width:3.84"/>
	<rect x="1197.45" y="1956.99" width="69.79" height="296.46" style="fill:#B0CEFF"/>
	<rect x="1199.37" y="1958.91" width="65.96" height="292.62" style="fill:none;stroke:#619CFF;stroke-width:3.84"/>
	<rect x="1313.95" y="2182.58" width="69.66" height="70.88" style="fill:#808080"/>
	<rect x="1315.87" y="2184.50" width="65.82" height="67.04" style="fill:none;stroke:#000000;stroke-width:3.84"/>
	<rect x="1383.62" y="2158.14" width="69.66" height="95.31" style="fill:#B0CEFF"/>
	<rect x="1385.53" y="2160.06" width="65.82" height="91.47" style="fill:none;stroke:#619CFF;stroke-width:3.84"/>
	<rect x="1499.98" y="2154.23" width="69.66" height="99.23" style="fill:#808080"/>
	<rect x="1501.90" y="2156.15" width="65.82" height="95.39" style="fill:none;stroke:#000000;stroke-width:3.84"/>
	<rect x="1569.65" y="2066.48" width="69.80" height="186.98" style="fill:#B0CEFF"/>
	<rect x="1571.56" y="2068.40" width="65.96" height="183.14" style="fill:none;stroke:#619CFF;stroke-width:3.84"/>
	<rect x="1686.15" y="2205.26" width="69.66" height="48.20" style="fill:#808080"/>
	<rect x="1688.07" y="2207.18" width="65.82" height="44.36" style="fill:none;stroke:#000000;stroke-width:3.84"/>
	<rect x="1755.81" y="2200.53" width="69.66" height="52.92" style="fill:#B0CEFF"/>
	<rect x="1757.73" y="2202.45" width="65.82" height="49.08" style="fill:none;stroke:#619CFF;stroke-width:3.84"/>
	<rect x="1872.18" y="2250.62" width="69.79" height="2.84" style="fill:#808080"/>
	<rect x="1874.10" y="2252.54" width="65.96" height="-1.00" style="fill:none;stroke:#000000;stroke-width:3.84"/>
	<text x="418.23" y="2240.30" style="font-family:'Helvetica';font-size:26.73px;fill:#606060" text-anchor="middle">0.2</text>
	<text x="604.26" y="1906.03" style="font-family:'Helvetica';font-size:26.73px;fill:#606060" text-anchor="middle">25.8</text>
	<text x="674.05" y="1999.73" style="font-family:'Helvetica';font-size:26.73px;fill:#606060" text-anchor="middle">18.6</text>
	<text x="790.42" y="1906.03" style="font-family:'Helvetica';font-size:26.73px;fill:#606060" text-anchor="middle">25.8</text>
	<text x="860.09" y="1908.06" style="font-family:'Helvetica';font-size:26.73px;fill:#606060" text-anchor="middle">25.6</text>
	<text x="976.59" y="2121.36" style="font-family:'Helvetica';font-size:26.73px;fill:#606060" text-anchor="middle">9.3</text>
	<text x="1046.25" y="2144.45" style="font-family:'Helvetica';font-size:26.73px;fill:#606060" text-anchor="middle">7.5</text>
	<text x="1162.62" y="1954.23" style="font-family:'Helvetica';font-size:26.73px;fill:#606060" text-anchor="middle">22.1</text>
	<text x="1232.28" y="1946.80" style="font-family:'Helvetica';font-size:26.73px;fill:#606060" text-anchor="middle">22.6</text>
	<text x="1348.79" y="2172.39" style="font-family:'Helvetica';font-size:26.73px;fill:#606060" text-anchor="middle">5.4</text>
	<text x="1418.44" y="2147.96" style="font-family:'Helvetica';font-size:26.73px;fill:#606060" text-anchor="middle">7.3</text>
	<text x="1534.82" y="2144.04" style="font-family:'Helvetica';font-size:26.73px;fill:#606060" text-anchor="middle">7.6</text>
	<text x="1604.61" y="2056.16" style="font-family:'Helvetica';font-size:26.73px;fill:#606060" text-anchor="middle">14.3</text>
	<text x="1720.98" y="2195.07" style="font-family:'Helvetica';font-size:26.73px;fill:#606060" text-anchor="middle">3.7</text>
	<text x="1790.64" y="2190.21" style="font-family:'Helvetica';font-size:26.73px;fill:#606060" text-anchor="middle">4.0</text>
	<text x="1907.01" y="2240.30" style="font-family:'Helvetica';font-size:26.73px;fill:#606060" text-anchor="middle">0.2</text>
	<line x1="302.26" y1="2253.46" x2="275.54" y2="2253.46" style="stroke:#606060;stroke-width:3.84"/>
	<text x="262.17" y="2267.48" style="font-family:'Helvetica';font-size:39.96px;fill:#606060" text-anchor="end">0</text>
	<line x1="302.26" y1="2187.98" x2="275.54" y2="2187.98" style="stroke:#606060;stroke-width:3.84"/>
	<text x="262.17" y="2202.00" style="font-family:'Helvetica';font-size:39.96px;fill:#606060" text-anchor="end">5</text>
	<line x1="302.26" y1="2122.50" x2="275.54" y2="2122.50" style="stroke:#606060;stroke-width:3.84"/>
	<text x="262.17" y="2136.52" style="font-family:'Helvetica';font-size:39.96px;fill:#606060" text-anchor="end">10</text>
	<line x1="302.26" y1="2057.03" x2="275.54" y2="2057.03" style="stroke:#606060;stroke-width:3.84"/>
	<text x="262.17" y="2071.05" style="font-family:'Helvetica';font-size:39.96px;fill:#606060" text-anchor="end">15</text>
	<line x1="302.26" y1="1991.69" x2="275.54" y2="1991.69" style="stroke:#606060;stroke-width:3.84"/>
	<text x="262.17" y="2005.71" style="font-family:'Helvetica';font-size:39.96px;fill:#606060" text-anchor="end">20</text>
	<line x1="302.26" y1="1926.21" x2="275.54" y2="1926.21" style="stroke:#606060;stroke-width:3.84"/>
	<text x="262.17" y="1940.23" style="font-family:'Helvetica';font-size:39.96px;fill:#606060" text-anchor="end">25</text>
	<line x1="302.26" y1="2253.46" x2="302.26" y2="1926.21" style="stroke:#000000;stroke-width:3.84"/>
	<text x="181.17" y="2051.22" style="font-family:'Helvetica';font-size:53.33px;fill:#000000" transform="rotate(-90 181.17,2051.22)" text-anchor="middle">Percent</text>
	<text x="462.97" y="2289.96" style="font-family:'Helvetica';font-size:39.96px;fill:#606060" transform="rotate(-45 462.97,2289.96)" text-anchor="end">[-1;-0.5]</text>
	<text x="649.00" y="2289.96" style="font-family:'Helvetica';font-size:39.96px;fill:#606060" transform="rotate(-45 649.00,2289.96)" text-anchor="end">]-0.5;-0.2]</text>
	<text x="835.17" y="2289.96" style="font-family:'Helvetica';font-size:39.96px;fill:#606060" transform="rotate(-45 835.17,2289.96)" text-anchor="end">]-0.2;-0.1]</text>
	<text x="1021.33" y="2289.96" style="font-family:'Helvetica';font-size:39.96px;fill:#606060" transform="rotate(-45 1021.33,2289.96)" text-anchor="end">]-0.1;-0.05]</text>
	<text x="1207.36" y="2289.96" style="font-family:'Helvetica';font-size:39.96px;fill:#606060" transform="rotate(-45 1207.36,2289.96)" text-anchor="end">]-0.05;0.05[</text>
	<text x="1393.53" y="2289.96" style="font-family:'Helvetica';font-size:39.96px;fill:#606060" transform="rotate(-45 1393.53,2289.96)" text-anchor="end">[0.05;0.1[</text>
	<text x="1579.56" y="2289.96" style="font-family:'Helvetica';font-size:39.96px;fill:#606060" transform="rotate(-45 1579.56,2289.96)" text-anchor="end">[0.1;0.2[</text>
	<text x="1765.72" y="2289.96" style="font-family:'Helvetica';font-size:39.96px;fill:#606060" transform="rotate(-45 1765.72,2289.96)" text-anchor="end">[0.2;0.5[</text>
	<text x="1951.89" y="2289.96" style="font-family:'Helvetica';font-size:39.96px;fill:#606060" transform="rotate(-45 1951.89,2289.96)" text-anchor="end">[0.5;1]</text>
	<text x="1197.45" y="1821.45" style="font-family:'Helvetica';font-size:53.33px;fill:#000000" text-anchor="middle">ES</text>
	<text x="80.59" y="2787.35" style="font-family:'Helvetica';font-size:39.96px;fill:#000000">Raw traits (non-corrected from acquiesence bias).</text>
	<rect x="1701.27" y="2561.13" width="917.32" height="146.34" style="fill:#FFFFFF"/>
	<rect x="1704.15" y="2564.00" width="911.57" height="140.58" style="fill:none;stroke:#FFFFFF;stroke-width:5.76"/>
	<rect x="1744.47" y="2604.33" width="144.05" height="59.94" style="fill:#808080"/>
	<rect x="1747.35" y="2607.21" width="138.29" height="54.18" style="fill:none;stroke:#000000;stroke-width:5.76"/>
	<rect x="2161.49" y="2604.33" width="143.91" height="59.94" style="fill:#B0CEFF"/>
	<rect x="2164.36" y="2607.21" width="138.15" height="54.18" style="fill:none;stroke:#619CFF;stroke-width:5.76"/>
	<text x="1948.45" y="2655.31" style="font-family:'Helvetica';font-size:59.94px;fill:#000000">Male</text>
	<text x="2365.47" y="2655.31" style="font-family:'Helvetica';font-size:59.94px;fill:#000000">Female</text>
</svg>
