<?xml version="1.0" encoding="UTF-8" standalone="no"?>
<!-- This is a Stata 15.1 generated SVG file (http://www.stata.com) -->

<svg version="1.1" width="6.00in" height="4.00in" viewBox="0 0 4320 2880" xmlns="http://www.w3.org/2000/svg" xmlns:xlink="http://www.w3.org/1999/xlink">
	<desc>Stata Graph - combage</desc>
	<rect x="0" y="0" width="4320" height="2880" style="fill:#FFFFFF;stroke:none"/>
	<rect x="0.00" y="0.00" width="4320.00" height="2880.00" style="fill:#FFFFFF"/>
	<rect x="2.88" y="2.88" width="4314.24" height="2874.24" style="fill:none;stroke:#FFFFFF;stroke-width:5.76"/>
	<rect x="63.31" y="63.32" width="2096.68" height="821.08" style="fill:#FFFFFF"/>
	<rect x="65.23" y="65.24" width="2092.85" height="817.24" style="fill:none;stroke:#FFFFFF;stroke-width:3.84"/>
	<rect x="302.26" y="206.96" width="1790.51" height="404.33" style="fill:#E0E0E0"/>
	<rect x="304.18" y="208.88" width="1786.67" height="400.49" style="fill:none;stroke:#FFFFFF;stroke-width:3.84"/>
	<line x1="302.26" y1="611.29" x2="2092.77" y2="611.29" style="stroke:#FFFFFF;stroke-width:3.84"/>
	<line x1="302.26" y1="543.92" x2="2092.77" y2="543.92" style="stroke:#FFFFFF;stroke-width:3.84"/>
	<line x1="302.26" y1="476.42" x2="2092.77" y2="476.42" style="stroke:#FFFFFF;stroke-width:3.84"/>
	<line x1="302.26" y1="409.06" x2="2092.77" y2="409.06" style="stroke:#FFFFFF;stroke-width:3.84"/>
	<line x1="302.26" y1="341.56" x2="2092.77" y2="341.56" style="stroke:#FFFFFF;stroke-width:3.84"/>
	<line x1="302.26" y1="274.05" x2="2092.77" y2="274.05" style="stroke:#FFFFFF;stroke-width:3.84"/>
	<rect x="453.06" y="607.64" width="69.66" height="3.65" style="fill:#B0CEFF"/>
	<rect x="454.98" y="609.56" width="65.82" height="-0.19" style="fill:none;stroke:#619CFF;stroke-width:3.84"/>
	<rect x="569.43" y="465.35" width="69.66" height="145.94" style="fill:#808080"/>
	<rect x="571.35" y="467.27" width="65.82" height="142.10" style="fill:none;stroke:#000000;stroke-width:3.84"/>
	<rect x="639.09" y="487.76" width="69.79" height="123.53" style="fill:#B0CEFF"/>
	<rect x="641.01" y="489.68" width="65.96" height="119.69" style="fill:none;stroke:#619CFF;stroke-width:3.84"/>
	<rect x="755.60" y="404.06" width="69.66" height="207.23" style="fill:#808080"/>
	<rect x="757.51" y="405.98" width="65.82" height="203.39" style="fill:none;stroke:#000000;stroke-width:3.84"/>
	<rect x="825.26" y="418.64" width="69.66" height="192.65" style="fill:#B0CEFF"/>
	<rect x="827.17" y="420.56" width="65.82" height="188.81" style="fill:none;stroke:#619CFF;stroke-width:3.84"/>
	<rect x="941.63" y="450.77" width="69.79" height="160.52" style="fill:#808080"/>
	<rect x="943.54" y="452.69" width="65.96" height="156.68" style="fill:none;stroke:#000000;stroke-width:3.84"/>
	<rect x="1011.42" y="462.25" width="69.66" height="149.04" style="fill:#B0CEFF"/>
	<rect x="1013.34" y="464.17" width="65.82" height="145.20" style="fill:none;stroke:#619CFF;stroke-width:3.84"/>
	<rect x="1127.79" y="304.83" width="69.66" height="306.45" style="fill:#808080"/>
	<rect x="1129.71" y="306.75" width="65.82" height="302.61" style="fill:none;stroke:#000000;stroke-width:3.84"/>
	<rect x="1197.45" y="287.69" width="69.79" height="323.60" style="fill:#B0CEFF"/>
	<rect x="1199.37" y="289.61" width="65.96" height="319.76" style="fill:none;stroke:#619CFF;stroke-width:3.84"/>
	<rect x="1313.95" y="488.71" width="69.66" height="122.58" style="fill:#808080"/>
	<rect x="1315.87" y="490.63" width="65.82" height="118.74" style="fill:none;stroke:#000000;stroke-width:3.84"/>
	<rect x="1383.62" y="484.12" width="69.66" height="127.17" style="fill:#B0CEFF"/>
	<rect x="1385.53" y="486.04" width="65.82" height="123.33" style="fill:none;stroke:#619CFF;stroke-width:3.84"/>
	<rect x="1499.98" y="395.29" width="69.66" height="216.00" style="fill:#808080"/>
	<rect x="1501.90" y="397.21" width="65.82" height="212.16" style="fill:none;stroke:#000000;stroke-width:3.84"/>
	<rect x="1569.65" y="385.97" width="69.80" height="225.32" style="fill:#B0CEFF"/>
	<rect x="1571.56" y="387.89" width="65.96" height="221.48" style="fill:none;stroke:#619CFF;stroke-width:3.84"/>
	<rect x="1686.15" y="433.22" width="69.66" height="178.07" style="fill:#808080"/>
	<rect x="1688.07" y="435.14" width="65.82" height="174.23" style="fill:none;stroke:#000000;stroke-width:3.84"/>
	<rect x="1755.81" y="422.29" width="69.66" height="189.00" style="fill:#B0CEFF"/>
	<rect x="1757.73" y="424.21" width="65.82" height="185.16" style="fill:none;stroke:#619CFF;stroke-width:3.84"/>
	<rect x="1872.18" y="599.68" width="69.79" height="11.61" style="fill:#808080"/>
	<rect x="1874.10" y="601.60" width="65.96" height="7.77" style="fill:none;stroke:#000000;stroke-width:3.84"/>
	<rect x="1941.97" y="596.71" width="69.66" height="14.58" style="fill:#B0CEFF"/>
	<rect x="1943.89" y="598.63" width="65.82" height="10.74" style="fill:none;stroke:#619CFF;stroke-width:3.84"/>
	<text x="487.89" y="597.46" style="font-family:'Helvetica';font-size:26.73px;fill:#606060" text-anchor="middle">0.3</text>
	<text x="604.26" y="455.03" style="font-family:'Helvetica';font-size:26.73px;fill:#606060" text-anchor="middle">10.8</text>
	<text x="674.05" y="477.44" style="font-family:'Helvetica';font-size:26.73px;fill:#606060" text-anchor="middle">9.2</text>
	<text x="790.42" y="393.74" style="font-family:'Helvetica';font-size:26.73px;fill:#606060" text-anchor="middle">15.4</text>
	<text x="860.09" y="408.32" style="font-family:'Helvetica';font-size:26.73px;fill:#606060" text-anchor="middle">14.3</text>
	<text x="976.59" y="440.45" style="font-family:'Helvetica';font-size:26.73px;fill:#606060" text-anchor="middle">11.9</text>
	<text x="1046.25" y="452.06" style="font-family:'Helvetica';font-size:26.73px;fill:#606060" text-anchor="middle">11.1</text>
	<text x="1162.62" y="294.51" style="font-family:'Helvetica';font-size:26.73px;fill:#606060" text-anchor="middle">22.7</text>
	<text x="1232.28" y="277.50" style="font-family:'Helvetica';font-size:26.73px;fill:#606060" text-anchor="middle">24.0</text>
	<text x="1348.79" y="478.39" style="font-family:'Helvetica';font-size:26.73px;fill:#606060" text-anchor="middle">9.1</text>
	<text x="1418.44" y="473.80" style="font-family:'Helvetica';font-size:26.73px;fill:#606060" text-anchor="middle">9.4</text>
	<text x="1534.82" y="385.10" style="font-family:'Helvetica';font-size:26.73px;fill:#606060" text-anchor="middle">16.0</text>
	<text x="1604.61" y="375.65" style="font-family:'Helvetica';font-size:26.73px;fill:#606060" text-anchor="middle">16.7</text>
	<text x="1720.98" y="423.04" style="font-family:'Helvetica';font-size:26.73px;fill:#606060" text-anchor="middle">13.2</text>
	<text x="1790.64" y="411.97" style="font-family:'Helvetica';font-size:26.73px;fill:#606060" text-anchor="middle">14.0</text>
	<text x="1907.01" y="589.36" style="font-family:'Helvetica';font-size:26.73px;fill:#606060" text-anchor="middle">0.9</text>
	<text x="1976.81" y="586.52" style="font-family:'Helvetica';font-size:26.73px;fill:#606060" text-anchor="middle">1.1</text>
	<line x1="302.26" y1="611.29" x2="275.54" y2="611.29" style="stroke:#606060;stroke-width:3.84"/>
	<text x="262.17" y="625.31" style="font-family:'Helvetica';font-size:39.96px;fill:#606060" text-anchor="end">0</text>
	<line x1="302.26" y1="543.92" x2="275.54" y2="543.92" style="stroke:#606060;stroke-width:3.84"/>
	<text x="262.17" y="557.94" style="font-family:'Helvetica';font-size:39.96px;fill:#606060" text-anchor="end">5</text>
	<line x1="302.26" y1="476.42" x2="275.54" y2="476.42" style="stroke:#606060;stroke-width:3.84"/>
	<text x="262.17" y="490.44" style="font-family:'Helvetica';font-size:39.96px;fill:#606060" text-anchor="end">10</text>
	<line x1="302.26" y1="409.06" x2="275.54" y2="409.06" style="stroke:#606060;stroke-width:3.84"/>
	<text x="262.17" y="423.08" style="font-family:'Helvetica';font-size:39.96px;fill:#606060" text-anchor="end">15</text>
	<line x1="302.26" y1="341.56" x2="275.54" y2="341.56" style="stroke:#606060;stroke-width:3.84"/>
	<text x="262.17" y="355.58" style="font-family:'Helvetica';font-size:39.96px;fill:#606060" text-anchor="end">20</text>
	<line x1="302.26" y1="274.05" x2="275.54" y2="274.05" style="stroke:#606060;stroke-width:3.84"/>
	<text x="262.17" y="288.07" style="font-family:'Helvetica';font-size:39.96px;fill:#606060" text-anchor="end">25</text>
	<line x1="302.26" y1="611.29" x2="302.26" y2="274.05" style="stroke:#000000;stroke-width:3.84"/>
	<text x="181.17" y="409.06" style="font-family:'Helvetica';font-size:53.33px;fill:#000000" transform="rotate(-90 181.17,409.06)" text-anchor="middle">Percent</text>
	<text x="462.97" y="647.93" style="font-family:'Helvetica';font-size:39.96px;fill:#606060" transform="rotate(-45 462.97,647.93)" text-anchor="end">[-1;-0.5]</text>
	<text x="649.00" y="647.93" style="font-family:'Helvetica';font-size:39.96px;fill:#606060" transform="rotate(-45 649.00,647.93)" text-anchor="end">]-0.5;-0.2]</text>
	<text x="835.17" y="647.93" style="font-family:'Helvetica';font-size:39.96px;fill:#606060" transform="rotate(-45 835.17,647.93)" text-anchor="end">]-0.2;-0.1]</text>
	<text x="1021.33" y="647.93" style="font-family:'Helvetica';font-size:39.96px;fill:#606060" transform="rotate(-45 1021.33,647.93)" text-anchor="end">]-0.1;-0.05]</text>
	<text x="1207.36" y="647.93" style="font-family:'Helvetica';font-size:39.96px;fill:#606060" transform="rotate(-45 1207.36,647.93)" text-anchor="end">]-0.05;0.05[</text>
	<text x="1393.53" y="647.93" style="font-family:'Helvetica';font-size:39.96px;fill:#606060" transform="rotate(-45 1393.53,647.93)" text-anchor="end">[0.05;0.1[</text>
	<text x="1579.56" y="647.93" style="font-family:'Helvetica';font-size:39.96px;fill:#606060" transform="rotate(-45 1579.56,647.93)" text-anchor="end">[0.1;0.2[</text>
	<text x="1765.72" y="647.93" style="font-family:'Helvetica';font-size:39.96px;fill:#606060" transform="rotate(-45 1765.72,647.93)" text-anchor="end">[0.2;0.5[</text>
	<text x="1951.89" y="647.93" style="font-family:'Helvetica';font-size:39.96px;fill:#606060" transform="rotate(-45 1951.89,647.93)" text-anchor="end">[0.5;1]</text>
	<text x="1197.45" y="179.28" style="font-family:'Helvetica';font-size:53.33px;fill:#000000" text-anchor="middle">OP</text>
	<rect x="2160.00" y="63.32" width="2096.55" height="821.08" style="fill:#FFFFFF"/>
	<rect x="2161.92" y="65.24" width="2092.71" height="817.24" style="fill:none;stroke:#FFFFFF;stroke-width:3.84"/>
	<rect x="2398.82" y="206.96" width="1790.50" height="404.33" style="fill:#E0E0E0"/>
	<rect x="2400.73" y="208.88" width="1786.67" height="400.49" style="fill:none;stroke:#FFFFFF;stroke-width:3.84"/>
	<line x1="2398.82" y1="611.29" x2="4189.32" y2="611.29" style="stroke:#FFFFFF;stroke-width:3.84"/>
	<line x1="2398.82" y1="528.94" x2="4189.32" y2="528.94" style="stroke:#FFFFFF;stroke-width:3.84"/>
	<line x1="2398.82" y1="446.45" x2="4189.32" y2="446.45" style="stroke:#FFFFFF;stroke-width:3.84"/>
	<line x1="2398.82" y1="363.97" x2="4189.32" y2="363.97" style="stroke:#FFFFFF;stroke-width:3.84"/>
	<line x1="2398.82" y1="281.61" x2="4189.32" y2="281.61" style="stroke:#FFFFFF;stroke-width:3.84"/>
	<rect x="2479.95" y="573.89" width="69.66" height="37.40" style="fill:#808080"/>
	<rect x="2481.87" y="575.81" width="65.82" height="33.56" style="fill:none;stroke:#000000;stroke-width:3.84"/>
	<rect x="2549.61" y="595.76" width="69.80" height="15.53" style="fill:#B0CEFF"/>
	<rect x="2551.53" y="597.68" width="65.96" height="11.69" style="fill:none;stroke:#619CFF;stroke-width:3.84"/>
	<rect x="2666.11" y="274.05" width="69.66" height="337.24" style="fill:#808080"/>
	<rect x="2668.03" y="275.97" width="65.82" height="333.40" style="fill:none;stroke:#000000;stroke-width:3.84"/>
	<rect x="2735.78" y="340.21" width="69.66" height="271.08" style="fill:#B0CEFF"/>
	<rect x="2737.69" y="342.13" width="65.82" height="267.24" style="fill:none;stroke:#619CFF;stroke-width:3.84"/>
	<rect x="2852.15" y="470.35" width="69.80" height="140.94" style="fill:#808080"/>
	<rect x="2854.06" y="472.27" width="65.96" height="137.10" style="fill:none;stroke:#000000;stroke-width:3.84"/>
	<rect x="2921.94" y="464.68" width="69.66" height="146.61" style="fill:#B0CEFF"/>
	<rect x="2923.86" y="466.60" width="65.82" height="142.77" style="fill:none;stroke:#619CFF;stroke-width:3.84"/>
	<rect x="3038.31" y="554.18" width="69.66" height="57.11" style="fill:#808080"/>
	<rect x="3040.23" y="556.10" width="65.82" height="53.27" style="fill:none;stroke:#000000;stroke-width:3.84"/>
	<rect x="3107.97" y="526.91" width="69.66" height="84.38" style="fill:#B0CEFF"/>
	<rect x="3109.89" y="528.83" width="65.82" height="80.54" style="fill:none;stroke:#619CFF;stroke-width:3.84"/>
	<rect x="3224.34" y="502.48" width="69.80" height="108.81" style="fill:#808080"/>
	<rect x="3226.26" y="504.40" width="65.96" height="104.97" style="fill:none;stroke:#000000;stroke-width:3.84"/>
	<rect x="3294.14" y="498.02" width="69.66" height="113.27" style="fill:#B0CEFF"/>
	<rect x="3296.05" y="499.94" width="65.82" height="109.43" style="fill:none;stroke:#619CFF;stroke-width:3.84"/>
	<rect x="3410.51" y="557.83" width="69.66" height="53.46" style="fill:#808080"/>
	<rect x="3412.42" y="559.75" width="65.82" height="49.62" style="fill:none;stroke:#000000;stroke-width:3.84"/>
	<rect x="3480.17" y="560.26" width="69.80" height="51.03" style="fill:#B0CEFF"/>
	<rect x="3482.08" y="562.18" width="65.96" height="47.19" style="fill:none;stroke:#619CFF;stroke-width:3.84"/>
	<rect x="3596.67" y="559.58" width="69.66" height="51.71" style="fill:#808080"/>
	<rect x="3598.59" y="561.50" width="65.82" height="47.87" style="fill:none;stroke:#000000;stroke-width:3.84"/>
	<rect x="3666.33" y="529.07" width="69.66" height="82.22" style="fill:#B0CEFF"/>
	<rect x="3668.25" y="530.99" width="65.82" height="78.38" style="fill:none;stroke:#619CFF;stroke-width:3.84"/>
	<rect x="3782.70" y="573.89" width="69.66" height="37.40" style="fill:#808080"/>
	<rect x="3784.62" y="575.81" width="65.82" height="33.56" style="fill:none;stroke:#000000;stroke-width:3.84"/>
	<rect x="3852.36" y="553.51" width="69.80" height="57.78" style="fill:#B0CEFF"/>
	<rect x="3854.28" y="555.43" width="65.96" height="53.94" style="fill:none;stroke:#619CFF;stroke-width:3.84"/>
	<rect x="4038.53" y="609.13" width="69.66" height="2.16" style="fill:#B0CEFF"/>
	<rect x="4040.44" y="611.05" width="65.82" height="-1.68" style="fill:none;stroke:#619CFF;stroke-width:3.84"/>
	<text x="2514.78" y="563.57" style="font-family:'Helvetica';font-size:26.73px;fill:#606060" text-anchor="middle">4.5</text>
	<text x="2584.44" y="585.58" style="font-family:'Helvetica';font-size:26.73px;fill:#606060" text-anchor="middle">1.9</text>
	<text x="2700.95" y="263.87" style="font-family:'Helvetica';font-size:26.73px;fill:#606060" text-anchor="middle">40.9</text>
	<text x="2770.61" y="330.02" style="font-family:'Helvetica';font-size:26.73px;fill:#606060" text-anchor="middle">32.9</text>
	<text x="2886.97" y="460.16" style="font-family:'Helvetica';font-size:26.73px;fill:#606060" text-anchor="middle">17.1</text>
	<text x="2956.77" y="454.49" style="font-family:'Helvetica';font-size:26.73px;fill:#606060" text-anchor="middle">17.8</text>
	<text x="3073.14" y="544.00" style="font-family:'Helvetica';font-size:26.73px;fill:#606060" text-anchor="middle">6.9</text>
	<text x="3142.80" y="516.59" style="font-family:'Helvetica';font-size:26.73px;fill:#606060" text-anchor="middle">10.2</text>
	<text x="3259.30" y="492.29" style="font-family:'Helvetica';font-size:26.73px;fill:#606060" text-anchor="middle">13.2</text>
	<text x="3328.97" y="487.70" style="font-family:'Helvetica';font-size:26.73px;fill:#606060" text-anchor="middle">13.7</text>
	<text x="3445.34" y="547.51" style="font-family:'Helvetica';font-size:26.73px;fill:#606060" text-anchor="middle">6.5</text>
	<text x="3514.99" y="549.94" style="font-family:'Helvetica';font-size:26.73px;fill:#606060" text-anchor="middle">6.2</text>
	<text x="3631.50" y="549.26" style="font-family:'Helvetica';font-size:26.73px;fill:#606060" text-anchor="middle">6.3</text>
	<text x="3701.16" y="518.89" style="font-family:'Helvetica';font-size:26.73px;fill:#606060" text-anchor="middle">10.0</text>
	<text x="3817.53" y="563.57" style="font-family:'Helvetica';font-size:26.73px;fill:#606060" text-anchor="middle">4.5</text>
	<text x="3887.32" y="543.32" style="font-family:'Helvetica';font-size:26.73px;fill:#606060" text-anchor="middle">7.0</text>
	<text x="4073.36" y="598.81" style="font-family:'Helvetica';font-size:26.73px;fill:#606060" text-anchor="middle">0.3</text>
	<line x1="2398.82" y1="611.29" x2="2372.09" y2="611.29" style="stroke:#606060;stroke-width:3.84"/>
	<text x="2358.86" y="625.31" style="font-family:'Helvetica';font-size:39.96px;fill:#606060" text-anchor="end">0</text>
	<line x1="2398.82" y1="528.94" x2="2372.09" y2="528.94" style="stroke:#606060;stroke-width:3.84"/>
	<text x="2358.86" y="542.96" style="font-family:'Helvetica';font-size:39.96px;fill:#606060" text-anchor="end">10</text>
	<line x1="2398.82" y1="446.45" x2="2372.09" y2="446.45" style="stroke:#606060;stroke-width:3.84"/>
	<text x="2358.86" y="460.47" style="font-family:'Helvetica';font-size:39.96px;fill:#606060" text-anchor="end">20</text>
	<line x1="2398.82" y1="363.97" x2="2372.09" y2="363.97" style="stroke:#606060;stroke-width:3.84"/>
	<text x="2358.86" y="377.99" style="font-family:'Helvetica';font-size:39.96px;fill:#606060" text-anchor="end">30</text>
	<line x1="2398.82" y1="281.61" x2="2372.09" y2="281.61" style="stroke:#606060;stroke-width:3.84"/>
	<text x="2358.86" y="295.63" style="font-family:'Helvetica';font-size:39.96px;fill:#606060" text-anchor="end">40</text>
	<line x1="2398.82" y1="611.29" x2="2398.82" y2="281.61" style="stroke:#000000;stroke-width:3.84"/>
	<text x="2277.72" y="409.06" style="font-family:'Helvetica';font-size:53.33px;fill:#000000" transform="rotate(-90 2277.72,409.06)" text-anchor="middle">Percent</text>
	<text x="2559.52" y="647.93" style="font-family:'Helvetica';font-size:39.96px;fill:#606060" transform="rotate(-45 2559.52,647.93)" text-anchor="end">[-1;-0.5]</text>
	<text x="2745.69" y="647.93" style="font-family:'Helvetica';font-size:39.96px;fill:#606060" transform="rotate(-45 2745.69,647.93)" text-anchor="end">]-0.5;-0.2]</text>
	<text x="2931.85" y="647.93" style="font-family:'Helvetica';font-size:39.96px;fill:#606060" transform="rotate(-45 2931.85,647.93)" text-anchor="end">]-0.2;-0.1]</text>
	<text x="3117.88" y="647.93" style="font-family:'Helvetica';font-size:39.96px;fill:#606060" transform="rotate(-45 3117.88,647.93)" text-anchor="end">]-0.1;-0.05]</text>
	<text x="3304.05" y="647.93" style="font-family:'Helvetica';font-size:39.96px;fill:#606060" transform="rotate(-45 3304.05,647.93)" text-anchor="end">]-0.05;0.05[</text>
	<text x="3490.08" y="647.93" style="font-family:'Helvetica';font-size:39.96px;fill:#606060" transform="rotate(-45 3490.08,647.93)" text-anchor="end">[0.05;0.1[</text>
	<text x="3676.24" y="647.93" style="font-family:'Helvetica';font-size:39.96px;fill:#606060" transform="rotate(-45 3676.24,647.93)" text-anchor="end">[0.1;0.2[</text>
	<text x="3862.27" y="647.93" style="font-family:'Helvetica';font-size:39.96px;fill:#606060" transform="rotate(-45 3862.27,647.93)" text-anchor="end">[0.2;0.5[</text>
	<text x="4048.44" y="647.93" style="font-family:'Helvetica';font-size:39.96px;fill:#606060" transform="rotate(-45 4048.44,647.93)" text-anchor="end">[0.5;1]</text>
	<text x="3294.14" y="179.28" style="font-family:'Helvetica';font-size:53.33px;fill:#000000" text-anchor="middle">CO</text>
	<rect x="63.31" y="884.40" width="2096.68" height="821.08" style="fill:#FFFFFF"/>
	<rect x="65.23" y="886.32" width="2092.85" height="817.24" style="fill:none;stroke:#FFFFFF;stroke-width:3.84"/>
	<rect x="302.26" y="1028.04" width="1790.51" height="404.33" style="fill:#E0E0E0"/>
	<rect x="304.18" y="1029.96" width="1786.67" height="400.49" style="fill:none;stroke:#FFFFFF;stroke-width:3.84"/>
	<line x1="302.26" y1="1432.37" x2="2092.77" y2="1432.37" style="stroke:#FFFFFF;stroke-width:3.84"/>
	<line x1="302.26" y1="1319.92" x2="2092.77" y2="1319.92" style="stroke:#FFFFFF;stroke-width:3.84"/>
	<line x1="302.26" y1="1207.59" x2="2092.77" y2="1207.59" style="stroke:#FFFFFF;stroke-width:3.84"/>
	<line x1="302.26" y1="1095.14" x2="2092.77" y2="1095.14" style="stroke:#FFFFFF;stroke-width:3.84"/>
	<rect x="383.40" y="1422.65" width="69.66" height="9.72" style="fill:#808080"/>
	<rect x="385.32" y="1424.57" width="65.82" height="5.88" style="fill:none;stroke:#000000;stroke-width:3.84"/>
	<rect x="453.06" y="1429.40" width="69.66" height="2.97" style="fill:#B0CEFF"/>
	<rect x="454.98" y="1431.32" width="65.82" height="-0.87" style="fill:none;stroke:#619CFF;stroke-width:3.84"/>
	<rect x="569.43" y="1145.36" width="69.66" height="287.01" style="fill:#808080"/>
	<rect x="571.35" y="1147.28" width="65.82" height="283.17" style="fill:none;stroke:#000000;stroke-width:3.84"/>
	<rect x="639.09" y="1253.63" width="69.79" height="178.74" style="fill:#B0CEFF"/>
	<rect x="641.01" y="1255.55" width="65.96" height="174.90" style="fill:none;stroke:#619CFF;stroke-width:3.84"/>
	<rect x="755.60" y="1128.21" width="69.66" height="304.16" style="fill:#808080"/>
	<rect x="757.51" y="1130.13" width="65.82" height="300.32" style="fill:none;stroke:#000000;stroke-width:3.84"/>
	<rect x="825.26" y="1168.85" width="69.66" height="263.52" style="fill:#B0CEFF"/>
	<rect x="827.17" y="1170.77" width="65.82" height="259.68" style="fill:none;stroke:#619CFF;stroke-width:3.84"/>
	<rect x="941.63" y="1305.88" width="69.79" height="126.50" style="fill:#808080"/>
	<rect x="943.54" y="1307.80" width="65.96" height="122.66" style="fill:none;stroke:#000000;stroke-width:3.84"/>
	<rect x="1011.42" y="1241.48" width="69.66" height="190.89" style="fill:#B0CEFF"/>
	<rect x="1013.34" y="1243.40" width="65.82" height="187.05" style="fill:none;stroke:#619CFF;stroke-width:3.84"/>
	<rect x="1127.79" y="1247.42" width="69.66" height="184.95" style="fill:#808080"/>
	<rect x="1129.71" y="1249.34" width="65.82" height="181.11" style="fill:none;stroke:#000000;stroke-width:3.84"/>
	<rect x="1197.45" y="1211.24" width="69.79" height="221.13" style="fill:#B0CEFF"/>
	<rect x="1199.37" y="1213.16" width="65.96" height="217.29" style="fill:none;stroke:#619CFF;stroke-width:3.84"/>
	<rect x="1313.95" y="1354.48" width="69.66" height="77.90" style="fill:#808080"/>
	<rect x="1315.87" y="1356.40" width="65.82" height="74.06" style="fill:none;stroke:#000000;stroke-width:3.84"/>
	<rect x="1383.62" y="1341.52" width="69.66" height="90.86" style="fill:#B0CEFF"/>
	<rect x="1385.53" y="1343.44" width="65.82" height="87.02" style="fill:none;stroke:#619CFF;stroke-width:3.84"/>
	<rect x="1499.98" y="1325.32" width="69.66" height="107.06" style="fill:#808080"/>
	<rect x="1501.90" y="1327.24" width="65.82" height="103.22" style="fill:none;stroke:#000000;stroke-width:3.84"/>
	<rect x="1569.65" y="1326.40" width="69.80" height="105.98" style="fill:#B0CEFF"/>
	<rect x="1571.56" y="1328.32" width="65.96" height="102.14" style="fill:none;stroke:#619CFF;stroke-width:3.84"/>
	<rect x="1686.15" y="1408.07" width="69.66" height="24.30" style="fill:#808080"/>
	<rect x="1688.07" y="1409.99" width="65.82" height="20.46" style="fill:none;stroke:#000000;stroke-width:3.84"/>
	<rect x="1755.81" y="1362.71" width="69.66" height="69.66" style="fill:#B0CEFF"/>
	<rect x="1757.73" y="1364.63" width="65.82" height="65.82" style="fill:none;stroke:#619CFF;stroke-width:3.84"/>
	<rect x="1872.18" y="1429.94" width="69.79" height="2.43" style="fill:#808080"/>
	<rect x="1874.10" y="1431.86" width="65.96" height="-1.41" style="fill:none;stroke:#000000;stroke-width:3.84"/>
	<text x="418.23" y="1412.47" style="font-family:'Helvetica';font-size:26.73px;fill:#606060" text-anchor="middle">0.9</text>
	<text x="487.89" y="1419.08" style="font-family:'Helvetica';font-size:26.73px;fill:#606060" text-anchor="middle">0.3</text>
	<text x="604.26" y="1135.04" style="font-family:'Helvetica';font-size:26.73px;fill:#606060" text-anchor="middle">25.5</text>
	<text x="674.05" y="1243.44" style="font-family:'Helvetica';font-size:26.73px;fill:#606060" text-anchor="middle">15.9</text>
	<text x="790.42" y="1118.03" style="font-family:'Helvetica';font-size:26.73px;fill:#606060" text-anchor="middle">27.1</text>
	<text x="860.09" y="1158.53" style="font-family:'Helvetica';font-size:26.73px;fill:#606060" text-anchor="middle">23.5</text>
	<text x="976.59" y="1295.69" style="font-family:'Helvetica';font-size:26.73px;fill:#606060" text-anchor="middle">11.3</text>
	<text x="1046.25" y="1231.29" style="font-family:'Helvetica';font-size:26.73px;fill:#606060" text-anchor="middle">17.0</text>
	<text x="1162.62" y="1237.23" style="font-family:'Helvetica';font-size:26.73px;fill:#606060" text-anchor="middle">16.5</text>
	<text x="1232.28" y="1200.92" style="font-family:'Helvetica';font-size:26.73px;fill:#606060" text-anchor="middle">19.7</text>
	<text x="1348.79" y="1344.29" style="font-family:'Helvetica';font-size:26.73px;fill:#606060" text-anchor="middle">6.9</text>
	<text x="1418.44" y="1331.20" style="font-family:'Helvetica';font-size:26.73px;fill:#606060" text-anchor="middle">8.1</text>
	<text x="1534.82" y="1315.13" style="font-family:'Helvetica';font-size:26.73px;fill:#606060" text-anchor="middle">9.5</text>
	<text x="1604.61" y="1316.07" style="font-family:'Helvetica';font-size:26.73px;fill:#606060" text-anchor="middle">9.4</text>
	<text x="1720.98" y="1397.75" style="font-family:'Helvetica';font-size:26.73px;fill:#606060" text-anchor="middle">2.2</text>
	<text x="1790.64" y="1352.39" style="font-family:'Helvetica';font-size:26.73px;fill:#606060" text-anchor="middle">6.2</text>
	<text x="1907.01" y="1419.76" style="font-family:'Helvetica';font-size:26.73px;fill:#606060" text-anchor="middle">0.2</text>
	<line x1="302.26" y1="1432.37" x2="275.54" y2="1432.37" style="stroke:#606060;stroke-width:3.84"/>
	<text x="262.17" y="1446.39" style="font-family:'Helvetica';font-size:39.96px;fill:#606060" text-anchor="end">0</text>
	<line x1="302.26" y1="1319.92" x2="275.54" y2="1319.92" style="stroke:#606060;stroke-width:3.84"/>
	<text x="262.17" y="1333.94" style="font-family:'Helvetica';font-size:39.96px;fill:#606060" text-anchor="end">10</text>
	<line x1="302.26" y1="1207.59" x2="275.54" y2="1207.59" style="stroke:#606060;stroke-width:3.84"/>
	<text x="262.17" y="1221.61" style="font-family:'Helvetica';font-size:39.96px;fill:#606060" text-anchor="end">20</text>
	<line x1="302.26" y1="1095.14" x2="275.54" y2="1095.14" style="stroke:#606060;stroke-width:3.84"/>
	<text x="262.17" y="1109.16" style="font-family:'Helvetica';font-size:39.96px;fill:#606060" text-anchor="end">30</text>
	<line x1="302.26" y1="1432.37" x2="302.26" y2="1095.14" style="stroke:#000000;stroke-width:3.84"/>
	<text x="181.17" y="1230.14" style="font-family:'Helvetica';font-size:53.33px;fill:#000000" transform="rotate(-90 181.17,1230.14)" text-anchor="middle">Percent</text>
	<text x="462.97" y="1468.88" style="font-family:'Helvetica';font-size:39.96px;fill:#606060" transform="rotate(-45 462.97,1468.88)" text-anchor="end">[-1;-0.5]</text>
	<text x="649.00" y="1468.88" style="font-family:'Helvetica';font-size:39.96px;fill:#606060" transform="rotate(-45 649.00,1468.88)" text-anchor="end">]-0.5;-0.2]</text>
	<text x="835.17" y="1468.88" style="font-family:'Helvetica';font-size:39.96px;fill:#606060" transform="rotate(-45 835.17,1468.88)" text-anchor="end">]-0.2;-0.1]</text>
	<text x="1021.33" y="1468.88" style="font-family:'Helvetica';font-size:39.96px;fill:#606060" transform="rotate(-45 1021.33,1468.88)" text-anchor="end">]-0.1;-0.05]</text>
	<text x="1207.36" y="1468.88" style="font-family:'Helvetica';font-size:39.96px;fill:#606060" transform="rotate(-45 1207.36,1468.88)" text-anchor="end">]-0.05;0.05[</text>
	<text x="1393.53" y="1468.88" style="font-family:'Helvetica';font-size:39.96px;fill:#606060" transform="rotate(-45 1393.53,1468.88)" text-anchor="end">[0.05;0.1[</text>
	<text x="1579.56" y="1468.88" style="font-family:'Helvetica';font-size:39.96px;fill:#606060" transform="rotate(-45 1579.56,1468.88)" text-anchor="end">[0.1;0.2[</text>
	<text x="1765.72" y="1468.88" style="font-family:'Helvetica';font-size:39.96px;fill:#606060" transform="rotate(-45 1765.72,1468.88)" text-anchor="end">[0.2;0.5[</text>
	<text x="1951.89" y="1468.88" style="font-family:'Helvetica';font-size:39.96px;fill:#606060" transform="rotate(-45 1951.89,1468.88)" text-anchor="end">[0.5;1]</text>
	<text x="1197.45" y="1000.37" style="font-family:'Helvetica';font-size:53.33px;fill:#000000" text-anchor="middle">EX</text>
	<rect x="2160.00" y="884.40" width="2096.55" height="821.08" style="fill:#FFFFFF"/>
	<rect x="2161.92" y="886.32" width="2092.71" height="817.24" style="fill:none;stroke:#FFFFFF;stroke-width:3.84"/>
	<rect x="2398.82" y="1028.04" width="1790.50" height="404.33" style="fill:#E0E0E0"/>
	<rect x="2400.73" y="1029.96" width="1786.67" height="400.49" style="fill:none;stroke:#FFFFFF;stroke-width:3.84"/>
	<line x1="2398.82" y1="1432.37" x2="4189.32" y2="1432.37" style="stroke:#FFFFFF;stroke-width:3.84"/>
	<line x1="2398.82" y1="1321.67" x2="4189.32" y2="1321.67" style="stroke:#FFFFFF;stroke-width:3.84"/>
	<line x1="2398.82" y1="1210.97" x2="4189.32" y2="1210.97" style="stroke:#FFFFFF;stroke-width:3.84"/>
	<line x1="2398.82" y1="1100.27" x2="4189.32" y2="1100.27" style="stroke:#FFFFFF;stroke-width:3.84"/>
	<rect x="2481.70" y="1429.94" width="78.57" height="2.43" style="fill:#808080"/>
	<rect x="2483.62" y="1431.86" width="74.73" height="-1.41" style="fill:none;stroke:#000000;stroke-width:3.84"/>
	<rect x="2560.28" y="1426.43" width="78.43" height="5.94" style="fill:#B0CEFF"/>
	<rect x="2562.19" y="1428.35" width="74.60" height="2.10" style="fill:none;stroke:#619CFF;stroke-width:3.84"/>
	<rect x="2691.36" y="1211.91" width="78.57" height="220.46" style="fill:#808080"/>
	<rect x="2693.28" y="1213.83" width="74.73" height="216.62" style="fill:none;stroke:#000000;stroke-width:3.84"/>
	<rect x="2769.93" y="1223.52" width="78.57" height="208.85" style="fill:#B0CEFF"/>
	<rect x="2771.85" y="1225.44" width="74.73" height="205.01" style="fill:none;stroke:#619CFF;stroke-width:3.84"/>
	<rect x="2901.01" y="1116.06" width="78.57" height="316.31" style="fill:#808080"/>
	<rect x="2902.93" y="1117.98" width="74.73" height="312.47" style="fill:none;stroke:#000000;stroke-width:3.84"/>
	<rect x="2979.59" y="1095.14" width="78.57" height="337.24" style="fill:#B0CEFF"/>
	<rect x="2981.50" y="1097.06" width="74.73" height="333.40" style="fill:none;stroke:#619CFF;stroke-width:3.84"/>
	<rect x="3110.67" y="1271.85" width="78.57" height="160.52" style="fill:#808080"/>
	<rect x="3112.59" y="1273.77" width="74.73" height="156.68" style="fill:none;stroke:#000000;stroke-width:3.84"/>
	<rect x="3189.24" y="1271.18" width="78.57" height="161.19" style="fill:#B0CEFF"/>
	<rect x="3191.16" y="1273.10" width="74.73" height="157.35" style="fill:none;stroke:#619CFF;stroke-width:3.84"/>
	<rect x="3320.46" y="1192.74" width="78.43" height="239.63" style="fill:#808080"/>
	<rect x="3322.38" y="1194.66" width="74.60" height="235.79" style="fill:none;stroke:#000000;stroke-width:3.84"/>
	<rect x="3398.90" y="1202.60" width="78.57" height="229.77" style="fill:#B0CEFF"/>
	<rect x="3400.81" y="1204.52" width="74.73" height="225.93" style="fill:none;stroke:#619CFF;stroke-width:3.84"/>
	<rect x="3530.11" y="1377.29" width="78.44" height="55.08" style="fill:#808080"/>
	<rect x="3532.03" y="1379.21" width="74.60" height="51.24" style="fill:none;stroke:#000000;stroke-width:3.84"/>
	<rect x="3608.55" y="1357.72" width="78.57" height="74.66" style="fill:#B0CEFF"/>
	<rect x="3610.47" y="1359.64" width="74.73" height="70.82" style="fill:none;stroke:#619CFF;stroke-width:3.84"/>
	<rect x="3739.77" y="1350.83" width="78.43" height="81.54" style="fill:#808080"/>
	<rect x="3741.69" y="1352.75" width="74.60" height="77.70" style="fill:none;stroke:#000000;stroke-width:3.84"/>
	<rect x="3818.20" y="1366.76" width="78.57" height="65.61" style="fill:#B0CEFF"/>
	<rect x="3820.12" y="1368.68" width="74.73" height="61.77" style="fill:none;stroke:#619CFF;stroke-width:3.84"/>
	<rect x="3949.43" y="1401.19" width="78.57" height="31.19" style="fill:#808080"/>
	<rect x="3951.34" y="1403.11" width="74.73" height="27.35" style="fill:none;stroke:#000000;stroke-width:3.84"/>
	<rect x="4027.99" y="1408.48" width="78.44" height="23.90" style="fill:#B0CEFF"/>
	<rect x="4029.91" y="1410.40" width="74.60" height="20.06" style="fill:none;stroke:#619CFF;stroke-width:3.84"/>
	<text x="2520.99" y="1419.76" style="font-family:'Helvetica';font-size:26.73px;fill:#606060" text-anchor="middle">0.2</text>
	<text x="2599.56" y="1416.11" style="font-family:'Helvetica';font-size:26.73px;fill:#606060" text-anchor="middle">0.5</text>
	<text x="2730.65" y="1201.73" style="font-family:'Helvetica';font-size:26.73px;fill:#606060" text-anchor="middle">19.9</text>
	<text x="2809.22" y="1213.20" style="font-family:'Helvetica';font-size:26.73px;fill:#606060" text-anchor="middle">18.9</text>
	<text x="2940.30" y="1105.88" style="font-family:'Helvetica';font-size:26.73px;fill:#606060" text-anchor="middle">28.6</text>
	<text x="3018.87" y="1084.95" style="font-family:'Helvetica';font-size:26.73px;fill:#606060" text-anchor="middle">30.5</text>
	<text x="3149.95" y="1261.53" style="font-family:'Helvetica';font-size:26.73px;fill:#606060" text-anchor="middle">14.5</text>
	<text x="3228.53" y="1260.99" style="font-family:'Helvetica';font-size:26.73px;fill:#606060" text-anchor="middle">14.6</text>
	<text x="3359.61" y="1182.56" style="font-family:'Helvetica';font-size:26.73px;fill:#606060" text-anchor="middle">21.6</text>
	<text x="3438.18" y="1192.41" style="font-family:'Helvetica';font-size:26.73px;fill:#606060" text-anchor="middle">20.8</text>
	<text x="3569.40" y="1366.97" style="font-family:'Helvetica';font-size:26.73px;fill:#606060" text-anchor="middle">5.0</text>
	<text x="3647.84" y="1347.53" style="font-family:'Helvetica';font-size:26.73px;fill:#606060" text-anchor="middle">6.7</text>
	<text x="3779.05" y="1340.65" style="font-family:'Helvetica';font-size:26.73px;fill:#606060" text-anchor="middle">7.4</text>
	<text x="3857.49" y="1356.44" style="font-family:'Helvetica';font-size:26.73px;fill:#606060" text-anchor="middle">5.9</text>
	<text x="3988.71" y="1391.00" style="font-family:'Helvetica';font-size:26.73px;fill:#606060" text-anchor="middle">2.8</text>
	<text x="4067.15" y="1398.29" style="font-family:'Helvetica';font-size:26.73px;fill:#606060" text-anchor="middle">2.2</text>
	<line x1="2398.82" y1="1432.37" x2="2372.09" y2="1432.37" style="stroke:#606060;stroke-width:3.84"/>
	<text x="2358.86" y="1446.39" style="font-family:'Helvetica';font-size:39.96px;fill:#606060" text-anchor="end">0</text>
	<line x1="2398.82" y1="1321.67" x2="2372.09" y2="1321.67" style="stroke:#606060;stroke-width:3.84"/>
	<text x="2358.86" y="1335.69" style="font-family:'Helvetica';font-size:39.96px;fill:#606060" text-anchor="end">10</text>
	<line x1="2398.82" y1="1210.97" x2="2372.09" y2="1210.97" style="stroke:#606060;stroke-width:3.84"/>
	<text x="2358.86" y="1224.99" style="font-family:'Helvetica';font-size:39.96px;fill:#606060" text-anchor="end">20</text>
	<line x1="2398.82" y1="1100.27" x2="2372.09" y2="1100.27" style="stroke:#606060;stroke-width:3.84"/>
	<text x="2358.86" y="1114.29" style="font-family:'Helvetica';font-size:39.96px;fill:#606060" text-anchor="end">30</text>
	<line x1="2398.82" y1="1432.37" x2="2398.82" y2="1100.27" style="stroke:#000000;stroke-width:3.84"/>
	<text x="2277.72" y="1230.14" style="font-family:'Helvetica';font-size:53.33px;fill:#000000" transform="rotate(-90 2277.72,1230.14)" text-anchor="middle">Percent</text>
	<text x="2570.19" y="1468.88" style="font-family:'Helvetica';font-size:39.96px;fill:#606060" transform="rotate(-45 2570.19,1468.88)" text-anchor="end">[-1;-0.5]</text>
	<text x="2779.84" y="1468.88" style="font-family:'Helvetica';font-size:39.96px;fill:#606060" transform="rotate(-45 2779.84,1468.88)" text-anchor="end">]-0.5;-0.2]</text>
	<text x="2989.50" y="1468.88" style="font-family:'Helvetica';font-size:39.96px;fill:#606060" transform="rotate(-45 2989.50,1468.88)" text-anchor="end">]-0.2;-0.1]</text>
	<text x="3199.15" y="1468.88" style="font-family:'Helvetica';font-size:39.96px;fill:#606060" transform="rotate(-45 3199.15,1468.88)" text-anchor="end">]-0.1;-0.05]</text>
	<text x="3408.81" y="1468.88" style="font-family:'Helvetica';font-size:39.96px;fill:#606060" transform="rotate(-45 3408.81,1468.88)" text-anchor="end">]-0.05;0.05[</text>
	<text x="3618.46" y="1468.88" style="font-family:'Helvetica';font-size:39.96px;fill:#606060" transform="rotate(-45 3618.46,1468.88)" text-anchor="end">[0.05;0.1[</text>
	<text x="3828.12" y="1468.88" style="font-family:'Helvetica';font-size:39.96px;fill:#606060" transform="rotate(-45 3828.12,1468.88)" text-anchor="end">[0.1;0.2[</text>
	<text x="4037.91" y="1468.88" style="font-family:'Helvetica';font-size:39.96px;fill:#606060" transform="rotate(-45 4037.91,1468.88)" text-anchor="end">[0.2;0.5[</text>
	<text x="3294.14" y="1000.37" style="font-family:'Helvetica';font-size:53.33px;fill:#000000" text-anchor="middle">AG</text>
	<rect x="63.31" y="1705.48" width="2096.68" height="821.08" style="fill:#FFFFFF"/>
	<rect x="65.23" y="1707.40" width="2092.85" height="817.24" style="fill:none;stroke:#FFFFFF;stroke-width:3.84"/>
	<rect x="302.26" y="1848.99" width="1790.51" height="404.47" style="fill:#E0E0E0"/>
	<rect x="304.18" y="1850.91" width="1786.67" height="400.63" style="fill:none;stroke:#FFFFFF;stroke-width:3.84"/>
	<line x1="302.26" y1="2253.46" x2="2092.77" y2="2253.46" style="stroke:#FFFFFF;stroke-width:3.84"/>
	<line x1="302.26" y1="2169.08" x2="2092.77" y2="2169.08" style="stroke:#FFFFFF;stroke-width:3.84"/>
	<line x1="302.26" y1="2084.84" x2="2092.77" y2="2084.84" style="stroke:#FFFFFF;stroke-width:3.84"/>
	<line x1="302.26" y1="2000.60" x2="2092.77" y2="2000.60" style="stroke:#FFFFFF;stroke-width:3.84"/>
	<line x1="302.26" y1="1916.22" x2="2092.77" y2="1916.22" style="stroke:#FFFFFF;stroke-width:3.84"/>
	<rect x="383.40" y="2162.19" width="69.66" height="91.26" style="fill:#808080"/>
	<rect x="385.32" y="2164.11" width="65.82" height="87.42" style="fill:none;stroke:#000000;stroke-width:3.84"/>
	<rect x="453.06" y="2187.57" width="69.66" height="65.88" style="fill:#B0CEFF"/>
	<rect x="454.98" y="2189.49" width="65.82" height="62.04" style="fill:none;stroke:#619CFF;stroke-width:3.84"/>
	<rect x="569.43" y="1925.00" width="69.66" height="328.46" style="fill:#808080"/>
	<rect x="571.35" y="1926.92" width="65.82" height="324.62" style="fill:none;stroke:#000000;stroke-width:3.84"/>
	<rect x="639.09" y="1935.39" width="69.79" height="318.06" style="fill:#B0CEFF"/>
	<rect x="641.01" y="1937.31" width="65.96" height="314.23" style="fill:none;stroke:#619CFF;stroke-width:3.84"/>
	<rect x="755.60" y="2111.16" width="69.66" height="142.29" style="fill:#808080"/>
	<rect x="757.51" y="2113.08" width="65.82" height="138.45" style="fill:none;stroke:#000000;stroke-width:3.84"/>
	<rect x="825.26" y="2110.35" width="69.66" height="143.10" style="fill:#B0CEFF"/>
	<rect x="827.17" y="2112.27" width="65.82" height="139.26" style="fill:none;stroke:#619CFF;stroke-width:3.84"/>
	<rect x="941.63" y="2205.93" width="69.79" height="47.52" style="fill:#808080"/>
	<rect x="943.54" y="2207.85" width="65.96" height="43.68" style="fill:none;stroke:#000000;stroke-width:3.84"/>
	<rect x="1011.42" y="2201.21" width="69.66" height="52.25" style="fill:#B0CEFF"/>
	<rect x="1013.34" y="2203.13" width="65.82" height="48.41" style="fill:none;stroke:#619CFF;stroke-width:3.84"/>
	<rect x="1127.79" y="2153.15" width="69.66" height="100.31" style="fill:#808080"/>
	<rect x="1129.71" y="2155.07" width="65.82" height="96.47" style="fill:none;stroke:#000000;stroke-width:3.84"/>
	<rect x="1197.45" y="2167.05" width="69.79" height="86.40" style="fill:#B0CEFF"/>
	<rect x="1199.37" y="2168.97" width="65.96" height="82.56" style="fill:none;stroke:#619CFF;stroke-width:3.84"/>
	<rect x="1313.95" y="2218.76" width="69.66" height="34.70" style="fill:#808080"/>
	<rect x="1315.87" y="2220.68" width="65.82" height="30.86" style="fill:none;stroke:#000000;stroke-width:3.84"/>
	<rect x="1383.62" y="2201.21" width="69.66" height="52.25" style="fill:#B0CEFF"/>
	<rect x="1385.53" y="2203.13" width="65.82" height="48.41" style="fill:none;stroke:#619CFF;stroke-width:3.84"/>
	<rect x="1499.98" y="2205.93" width="69.66" height="47.52" style="fill:#808080"/>
	<rect x="1501.90" y="2207.85" width="65.82" height="43.68" style="fill:none;stroke:#000000;stroke-width:3.84"/>
	<rect x="1569.65" y="2203.50" width="69.80" height="49.95" style="fill:#B0CEFF"/>
	<rect x="1571.56" y="2205.42" width="65.96" height="46.11" style="fill:none;stroke:#619CFF;stroke-width:3.84"/>
	<rect x="1686.15" y="2205.93" width="69.66" height="47.52" style="fill:#808080"/>
	<rect x="1688.07" y="2207.85" width="65.82" height="43.68" style="fill:none;stroke:#000000;stroke-width:3.84"/>
	<rect x="1755.81" y="2180.69" width="69.66" height="72.77" style="fill:#B0CEFF"/>
	<rect x="1757.73" y="2182.61" width="65.82" height="68.93" style="fill:none;stroke:#619CFF;stroke-width:3.84"/>
	<rect x="1872.18" y="2249.81" width="69.79" height="3.65" style="fill:#808080"/>
	<rect x="1874.10" y="2251.73" width="65.96" height="-0.19" style="fill:none;stroke:#000000;stroke-width:3.84"/>
	<rect x="1941.97" y="2251.16" width="69.66" height="2.30" style="fill:#B0CEFF"/>
	<rect x="1943.89" y="2253.08" width="65.82" height="-1.54" style="fill:none;stroke:#619CFF;stroke-width:3.84"/>
	<text x="418.23" y="2152.01" style="font-family:'Helvetica';font-size:26.73px;fill:#606060" text-anchor="middle">10.8</text>
	<text x="487.89" y="2177.25" style="font-family:'Helvetica';font-size:26.73px;fill:#606060" text-anchor="middle">7.8</text>
	<text x="604.26" y="1914.81" style="font-family:'Helvetica';font-size:26.73px;fill:#606060" text-anchor="middle">39.0</text>
	<text x="674.05" y="1925.07" style="font-family:'Helvetica';font-size:26.73px;fill:#606060" text-anchor="middle">37.7</text>
	<text x="790.42" y="2100.84" style="font-family:'Helvetica';font-size:26.73px;fill:#606060" text-anchor="middle">16.9</text>
	<text x="860.09" y="2100.03" style="font-family:'Helvetica';font-size:26.73px;fill:#606060" text-anchor="middle">17.0</text>
	<text x="976.59" y="2195.75" style="font-family:'Helvetica';font-size:26.73px;fill:#606060" text-anchor="middle">5.6</text>
	<text x="1046.25" y="2190.89" style="font-family:'Helvetica';font-size:26.73px;fill:#606060" text-anchor="middle">6.2</text>
	<text x="1162.62" y="2142.83" style="font-family:'Helvetica';font-size:26.73px;fill:#606060" text-anchor="middle">11.9</text>
	<text x="1232.28" y="2156.87" style="font-family:'Helvetica';font-size:26.73px;fill:#606060" text-anchor="middle">10.2</text>
	<text x="1348.79" y="2208.57" style="font-family:'Helvetica';font-size:26.73px;fill:#606060" text-anchor="middle">4.1</text>
	<text x="1418.44" y="2190.89" style="font-family:'Helvetica';font-size:26.73px;fill:#606060" text-anchor="middle">6.2</text>
	<text x="1534.82" y="2195.75" style="font-family:'Helvetica';font-size:26.73px;fill:#606060" text-anchor="middle">5.6</text>
	<text x="1604.61" y="2193.18" style="font-family:'Helvetica';font-size:26.73px;fill:#606060" text-anchor="middle">5.9</text>
	<text x="1720.98" y="2195.75" style="font-family:'Helvetica';font-size:26.73px;fill:#606060" text-anchor="middle">5.6</text>
	<text x="1790.64" y="2170.50" style="font-family:'Helvetica';font-size:26.73px;fill:#606060" text-anchor="middle">8.6</text>
	<text x="1907.01" y="2239.49" style="font-family:'Helvetica';font-size:26.73px;fill:#606060" text-anchor="middle">0.4</text>
	<text x="1976.81" y="2240.97" style="font-family:'Helvetica';font-size:26.73px;fill:#606060" text-anchor="middle">0.3</text>
	<line x1="302.26" y1="2253.46" x2="275.54" y2="2253.46" style="stroke:#606060;stroke-width:3.84"/>
	<text x="262.17" y="2267.48" style="font-family:'Helvetica';font-size:39.96px;fill:#606060" text-anchor="end">0</text>
	<line x1="302.26" y1="2169.08" x2="275.54" y2="2169.08" style="stroke:#606060;stroke-width:3.84"/>
	<text x="262.17" y="2183.10" style="font-family:'Helvetica';font-size:39.96px;fill:#606060" text-anchor="end">10</text>
	<line x1="302.26" y1="2084.84" x2="275.54" y2="2084.84" style="stroke:#606060;stroke-width:3.84"/>
	<text x="262.17" y="2098.86" style="font-family:'Helvetica';font-size:39.96px;fill:#606060" text-anchor="end">20</text>
	<line x1="302.26" y1="2000.60" x2="275.54" y2="2000.60" style="stroke:#606060;stroke-width:3.84"/>
	<text x="262.17" y="2014.62" style="font-family:'Helvetica';font-size:39.96px;fill:#606060" text-anchor="end">30</text>
	<line x1="302.26" y1="1916.22" x2="275.54" y2="1916.22" style="stroke:#606060;stroke-width:3.84"/>
	<text x="262.17" y="1930.24" style="font-family:'Helvetica';font-size:39.96px;fill:#606060" text-anchor="end">40</text>
	<line x1="302.26" y1="2253.46" x2="302.26" y2="1916.22" style="stroke:#000000;stroke-width:3.84"/>
	<text x="181.17" y="2051.22" style="font-family:'Helvetica';font-size:53.33px;fill:#000000" transform="rotate(-90 181.17,2051.22)" text-anchor="middle">Percent</text>
	<text x="462.97" y="2289.96" style="font-family:'Helvetica';font-size:39.96px;fill:#606060" transform="rotate(-45 462.97,2289.96)" text-anchor="end">[-1;-0.5]</text>
	<text x="649.00" y="2289.96" style="font-family:'Helvetica';font-size:39.96px;fill:#606060" transform="rotate(-45 649.00,2289.96)" text-anchor="end">]-0.5;-0.2]</text>
	<text x="835.17" y="2289.96" style="font-family:'Helvetica';font-size:39.96px;fill:#606060" transform="rotate(-45 835.17,2289.96)" text-anchor="end">]-0.2;-0.1]</text>
	<text x="1021.33" y="2289.96" style="font-family:'Helvetica';font-size:39.96px;fill:#606060" transform="rotate(-45 1021.33,2289.96)" text-anchor="end">]-0.1;-0.05]</text>
	<text x="1207.36" y="2289.96" style="font-family:'Helvetica';font-size:39.96px;fill:#606060" transform="rotate(-45 1207.36,2289.96)" text-anchor="end">]-0.05;0.05[</text>
	<text x="1393.53" y="2289.96" style="font-family:'Helvetica';font-size:39.96px;fill:#606060" transform="rotate(-45 1393.53,2289.96)" text-anchor="end">[0.05;0.1[</text>
	<text x="1579.56" y="2289.96" style="font-family:'Helvetica';font-size:39.96px;fill:#606060" transform="rotate(-45 1579.56,2289.96)" text-anchor="end">[0.1;0.2[</text>
	<text x="1765.72" y="2289.96" style="font-family:'Helvetica';font-size:39.96px;fill:#606060" transform="rotate(-45 1765.72,2289.96)" text-anchor="end">[0.2;0.5[</text>
	<text x="1951.89" y="2289.96" style="font-family:'Helvetica';font-size:39.96px;fill:#606060" transform="rotate(-45 1951.89,2289.96)" text-anchor="end">[0.5;1]</text>
	<text x="1197.45" y="1821.45" style="font-family:'Helvetica';font-size:53.33px;fill:#000000" text-anchor="middle">ES</text>
	<text x="80.59" y="2787.35" style="font-family:'Helvetica';font-size:39.96px;fill:#000000">Traits corrected from acquiesence bias.</text>
	<rect x="1701.27" y="2561.13" width="917.32" height="146.34" style="fill:#FFFFFF"/>
	<rect x="1704.15" y="2564.00" width="911.57" height="140.58" style="fill:none;stroke:#FFFFFF;stroke-width:5.76"/>
	<rect x="1744.47" y="2604.33" width="144.05" height="59.94" style="fill:#808080"/>
	<rect x="1747.35" y="2607.21" width="138.29" height="54.18" style="fill:none;stroke:#000000;stroke-width:5.76"/>
	<rect x="2161.49" y="2604.33" width="143.91" height="59.94" style="fill:#B0CEFF"/>
	<rect x="2164.36" y="2607.21" width="138.15" height="54.18" style="fill:none;stroke:#619CFF;stroke-width:5.76"/>
	<text x="1948.45" y="2655.31" style="font-family:'Helvetica';font-size:59.94px;fill:#000000">Male</text>
	<text x="2365.47" y="2655.31" style="font-family:'Helvetica';font-size:59.94px;fill:#000000">Female</text>
</svg>
