<?xml version="1.0" encoding="UTF-8" standalone="no"?>
<!-- This is a Stata 15.1 generated SVG file (http://www.stata.com) -->

<svg version="1.1" width="6.00in" height="4.00in" viewBox="0 0 4320 2880" xmlns="http://www.w3.org/2000/svg" xmlns:xlink="http://www.w3.org/1999/xlink">
	<desc>Stata Graph - combage</desc>
	<rect x="0" y="0" width="4320" height="2880" style="fill:#FFFFFF;stroke:none"/>
	<rect x="0.00" y="0.00" width="4320.00" height="2880.00" style="fill:#FFFFFF"/>
	<rect x="2.88" y="2.88" width="4314.24" height="2874.24" style="fill:none;stroke:#FFFFFF;stroke-width:5.76"/>
	<rect x="63.31" y="63.32" width="1397.79" height="2537.77" style="fill:#FFFFFF"/>
	<rect x="65.47" y="65.48" width="1393.47" height="2533.45" style="fill:none;stroke:#FFFFFF;stroke-width:4.32"/>
	<rect x="332.10" y="224.91" width="1053.41" height="2068.91" style="fill:#E0E0E0"/>
	<rect x="334.26" y="227.07" width="1049.09" height="2064.59" style="fill:none;stroke:#FFFFFF;stroke-width:4.32"/>
	<line x1="332.10" y1="2293.82" x2="1385.51" y2="2293.82" style="stroke:#FFFFFF;stroke-width:4.32"/>
	<line x1="332.10" y1="1795.53" x2="1385.51" y2="1795.53" style="stroke:#FFFFFF;stroke-width:4.32"/>
	<line x1="332.10" y1="1297.10" x2="1385.51" y2="1297.10" style="stroke:#FFFFFF;stroke-width:4.32"/>
	<line x1="332.10" y1="798.81" x2="1385.51" y2="798.81" style="stroke:#FFFFFF;stroke-width:4.32"/>
	<line x1="332.10" y1="300.51" x2="1385.51" y2="300.51" style="stroke:#FFFFFF;stroke-width:4.32"/>
	<rect x="417.42" y="651.25" width="49.00" height="1642.57" style="fill:#808080"/>
	<rect x="419.58" y="653.41" width="44.69" height="1638.25" style="fill:none;stroke:#000000;stroke-width:4.32"/>
	<rect x="466.43" y="1519.04" width="49.00" height="774.78" style="fill:#B0CEFF"/>
	<rect x="468.58" y="1521.20" width="44.69" height="770.46" style="fill:none;stroke:#619CFF;stroke-width:4.32"/>
	<rect x="548.24" y="1625.70" width="49.00" height="668.13" style="fill:#808080"/>
	<rect x="550.39" y="1627.86" width="44.69" height="663.81" style="fill:none;stroke:#000000;stroke-width:4.32"/>
	<rect x="597.24" y="1587.35" width="49.00" height="706.47" style="fill:#B0CEFF"/>
	<rect x="599.40" y="1589.51" width="44.69" height="702.15" style="fill:none;stroke:#619CFF;stroke-width:4.32"/>
	<rect x="679.05" y="1653.51" width="49.00" height="640.32" style="fill:#808080"/>
	<rect x="681.21" y="1655.67" width="44.69" height="636.00" style="fill:none;stroke:#000000;stroke-width:4.32"/>
	<rect x="728.05" y="1556.98" width="48.87" height="736.84" style="fill:#B0CEFF"/>
	<rect x="730.21" y="1559.14" width="44.55" height="732.52" style="fill:none;stroke:#619CFF;stroke-width:4.32"/>
	<rect x="809.73" y="1152.38" width="49.00" height="1141.44" style="fill:#808080"/>
	<rect x="811.89" y="1154.54" width="44.69" height="1137.12" style="fill:none;stroke:#000000;stroke-width:4.32"/>
	<rect x="858.74" y="303.48" width="49.00" height="1990.34" style="fill:#B0CEFF"/>
	<rect x="860.89" y="305.64" width="44.69" height="1986.02" style="fill:none;stroke:#619CFF;stroke-width:4.32"/>
	<rect x="940.54" y="2071.07" width="49.00" height="222.75" style="fill:#808080"/>
	<rect x="942.70" y="2073.23" width="44.69" height="218.43" style="fill:none;stroke:#000000;stroke-width:4.32"/>
	<rect x="989.55" y="1807.68" width="49.01" height="486.14" style="fill:#B0CEFF"/>
	<rect x="991.71" y="1809.84" width="44.69" height="481.82" style="fill:none;stroke:#619CFF;stroke-width:4.32"/>
	<rect x="1071.36" y="1820.50" width="49.01" height="473.32" style="fill:#808080"/>
	<rect x="1073.52" y="1822.66" width="44.69" height="469.00" style="fill:none;stroke:#000000;stroke-width:4.32"/>
	<rect x="1120.37" y="2119.13" width="49.00" height="174.69" style="fill:#B0CEFF"/>
	<rect x="1122.52" y="2121.29" width="44.69" height="170.37" style="fill:none;stroke:#619CFF;stroke-width:4.32"/>
	<rect x="1202.18" y="2099.01" width="49.01" height="194.81" style="fill:#808080"/>
	<rect x="1204.33" y="2101.17" width="44.69" height="190.49" style="fill:none;stroke:#000000;stroke-width:4.32"/>
	<rect x="1251.18" y="2179.88" width="48.87" height="113.94" style="fill:#B0CEFF"/>
	<rect x="1253.34" y="2182.04" width="44.55" height="109.62" style="fill:none;stroke:#619CFF;stroke-width:4.32"/>
	<text x="441.99" y="609.80" style="font-family:'Helvetica';font-size:29.97px;fill:#606060" text-anchor="middle">33.0</text>
	<text x="490.86" y="1477.46" style="font-family:'Helvetica';font-size:29.97px;fill:#606060" text-anchor="middle">15.5</text>
	<text x="572.67" y="1584.24" style="font-family:'Helvetica';font-size:29.97px;fill:#606060" text-anchor="middle">13.4</text>
	<text x="621.67" y="1545.90" style="font-family:'Helvetica';font-size:29.97px;fill:#606060" text-anchor="middle">14.2</text>
	<text x="703.49" y="1612.05" style="font-family:'Helvetica';font-size:29.97px;fill:#606060" text-anchor="middle">12.8</text>
	<text x="752.49" y="1515.53" style="font-family:'Helvetica';font-size:29.97px;fill:#606060" text-anchor="middle">14.8</text>
	<text x="834.30" y="1110.93" style="font-family:'Helvetica';font-size:29.97px;fill:#606060" text-anchor="middle">22.9</text>
	<text x="883.30" y="262.03" style="font-family:'Helvetica';font-size:29.97px;fill:#606060" text-anchor="middle">39.9</text>
	<text x="965.12" y="2029.61" style="font-family:'Helvetica';font-size:29.97px;fill:#606060" text-anchor="middle">4.5</text>
	<text x="1013.99" y="1766.23" style="font-family:'Helvetica';font-size:29.97px;fill:#606060" text-anchor="middle">9.8</text>
	<text x="1095.80" y="1779.05" style="font-family:'Helvetica';font-size:29.97px;fill:#606060" text-anchor="middle">9.5</text>
	<text x="1144.80" y="2077.68" style="font-family:'Helvetica';font-size:29.97px;fill:#606060" text-anchor="middle">3.5</text>
	<text x="1226.61" y="2057.43" style="font-family:'Helvetica';font-size:29.97px;fill:#606060" text-anchor="middle">3.9</text>
	<text x="1275.62" y="2138.43" style="font-family:'Helvetica';font-size:29.97px;fill:#606060" text-anchor="middle">2.3</text>
	<line x1="332.10" y1="2293.82" x2="302.00" y2="2293.82" style="stroke:#606060;stroke-width:4.32"/>
	<text x="287.01" y="2309.59" style="font-family:'Helvetica';font-size:44.95px;fill:#606060" text-anchor="end">0</text>
	<line x1="332.10" y1="1795.53" x2="302.00" y2="1795.53" style="stroke:#606060;stroke-width:4.32"/>
	<text x="287.01" y="1811.30" style="font-family:'Helvetica';font-size:44.95px;fill:#606060" text-anchor="end">10</text>
	<line x1="332.10" y1="1297.10" x2="302.00" y2="1297.10" style="stroke:#606060;stroke-width:4.32"/>
	<text x="287.01" y="1312.87" style="font-family:'Helvetica';font-size:44.95px;fill:#606060" text-anchor="end">20</text>
	<line x1="332.10" y1="798.81" x2="302.00" y2="798.81" style="stroke:#606060;stroke-width:4.32"/>
	<text x="287.01" y="814.58" style="font-family:'Helvetica';font-size:44.95px;fill:#606060" text-anchor="end">30</text>
	<line x1="332.10" y1="300.51" x2="302.00" y2="300.51" style="stroke:#606060;stroke-width:4.32"/>
	<text x="287.01" y="316.28" style="font-family:'Helvetica';font-size:44.95px;fill:#606060" text-anchor="end">40</text>
	<line x1="332.10" y1="2293.82" x2="332.10" y2="300.51" style="stroke:#000000;stroke-width:4.32"/>
	<text x="195.93" y="1259.30" style="font-family:'Helvetica';font-size:59.94px;fill:#000000" transform="rotate(-90 195.93,1259.30)" text-anchor="middle">Percent</text>
	<text x="477.57" y="2334.94" style="font-family:'Helvetica';font-size:44.95px;fill:#606060" transform="rotate(-45 477.57,2334.94)" text-anchor="end">]-0.5;-0.2]</text>
	<text x="608.39" y="2334.94" style="font-family:'Helvetica';font-size:44.95px;fill:#606060" transform="rotate(-45 608.39,2334.94)" text-anchor="end">]-0.2;-0.1]</text>
	<text x="739.20" y="2334.94" style="font-family:'Helvetica';font-size:44.95px;fill:#606060" transform="rotate(-45 739.20,2334.94)" text-anchor="end">]-0.1;-0.05]</text>
	<text x="869.88" y="2334.94" style="font-family:'Helvetica';font-size:44.95px;fill:#606060" transform="rotate(-45 869.88,2334.94)" text-anchor="end">]-0.05;0.05[</text>
	<text x="1000.70" y="2334.94" style="font-family:'Helvetica';font-size:44.95px;fill:#606060" transform="rotate(-45 1000.70,2334.94)" text-anchor="end">[0.05;0.1[</text>
	<text x="1131.51" y="2334.94" style="font-family:'Helvetica';font-size:44.95px;fill:#606060" transform="rotate(-45 1131.51,2334.94)" text-anchor="end">[0.1;0.2[</text>
	<text x="1262.33" y="2334.94" style="font-family:'Helvetica';font-size:44.95px;fill:#606060" transform="rotate(-45 1262.33,2334.94)" text-anchor="end">[0.2;0.5[</text>
	<text x="858.74" y="193.90" style="font-family:'Helvetica';font-size:59.94px;fill:#000000" text-anchor="middle">Raven</text>
	<rect x="1461.11" y="63.32" width="1397.79" height="2537.77" style="fill:#FFFFFF"/>
	<rect x="1463.26" y="65.48" width="1393.47" height="2533.45" style="fill:none;stroke:#FFFFFF;stroke-width:4.32"/>
	<rect x="1729.76" y="224.91" width="1053.54" height="2068.91" style="fill:#E0E0E0"/>
	<rect x="1731.91" y="227.07" width="1049.22" height="2064.59" style="fill:none;stroke:#FFFFFF;stroke-width:4.32"/>
	<line x1="1729.76" y1="2293.82" x2="2783.30" y2="2293.82" style="stroke:#FFFFFF;stroke-width:4.32"/>
	<line x1="1729.76" y1="1629.34" x2="2783.30" y2="1629.34" style="stroke:#FFFFFF;stroke-width:4.32"/>
	<line x1="1729.76" y1="964.86" x2="2783.30" y2="964.86" style="stroke:#FFFFFF;stroke-width:4.32"/>
	<line x1="1729.76" y1="300.51" x2="2783.30" y2="300.51" style="stroke:#FFFFFF;stroke-width:4.32"/>
	<rect x="1813.05" y="2032.59" width="37.93" height="261.23" style="fill:#808080"/>
	<rect x="1815.21" y="2034.75" width="33.62" height="256.91" style="fill:none;stroke:#000000;stroke-width:4.32"/>
	<rect x="1850.98" y="1924.73" width="37.94" height="369.10" style="fill:#B0CEFF"/>
	<rect x="1853.14" y="1926.89" width="33.62" height="364.78" style="fill:none;stroke:#619CFF;stroke-width:4.32"/>
	<rect x="1914.43" y="1621.92" width="37.93" height="671.91" style="fill:#808080"/>
	<rect x="1916.59" y="1624.08" width="33.62" height="667.59" style="fill:none;stroke:#000000;stroke-width:4.32"/>
	<rect x="1952.37" y="1703.19" width="37.94" height="590.63" style="fill:#B0CEFF"/>
	<rect x="1954.53" y="1705.35" width="33.62" height="586.31" style="fill:none;stroke:#619CFF;stroke-width:4.32"/>
	<rect x="2015.82" y="2032.59" width="37.94" height="261.23" style="fill:#808080"/>
	<rect x="2017.98" y="2034.75" width="33.62" height="256.91" style="fill:none;stroke:#000000;stroke-width:4.32"/>
	<rect x="2053.76" y="1914.19" width="37.93" height="379.63" style="fill:#B0CEFF"/>
	<rect x="2055.91" y="1916.35" width="33.62" height="375.31" style="fill:none;stroke:#619CFF;stroke-width:4.32"/>
	<rect x="2117.20" y="2032.59" width="37.93" height="261.23" style="fill:#808080"/>
	<rect x="2119.36" y="2034.75" width="33.62" height="256.91" style="fill:none;stroke:#000000;stroke-width:4.32"/>
	<rect x="2155.14" y="1924.73" width="37.93" height="369.10" style="fill:#B0CEFF"/>
	<rect x="2157.30" y="1926.89" width="33.62" height="364.78" style="fill:none;stroke:#619CFF;stroke-width:4.32"/>
	<rect x="2218.59" y="464.68" width="37.93" height="1829.14" style="fill:#808080"/>
	<rect x="2220.75" y="466.84" width="33.62" height="1824.82" style="fill:none;stroke:#000000;stroke-width:4.32"/>
	<rect x="2256.53" y="1555.49" width="37.93" height="738.33" style="fill:#B0CEFF"/>
	<rect x="2258.68" y="1557.65" width="33.62" height="734.01" style="fill:none;stroke:#619CFF;stroke-width:4.32"/>
	<rect x="2319.97" y="1659.31" width="37.93" height="634.51" style="fill:#808080"/>
	<rect x="2322.13" y="1661.47" width="33.62" height="630.19" style="fill:none;stroke:#000000;stroke-width:4.32"/>
	<rect x="2357.91" y="1671.60" width="37.93" height="622.22" style="fill:#B0CEFF"/>
	<rect x="2360.07" y="1673.76" width="33.62" height="617.90" style="fill:none;stroke:#619CFF;stroke-width:4.32"/>
	<rect x="2421.36" y="2032.59" width="37.93" height="261.23" style="fill:#808080"/>
	<rect x="2423.52" y="2034.75" width="33.62" height="256.91" style="fill:none;stroke:#000000;stroke-width:4.32"/>
	<rect x="2459.30" y="1882.47" width="37.93" height="411.35" style="fill:#B0CEFF"/>
	<rect x="2461.45" y="1884.63" width="33.62" height="407.03" style="fill:none;stroke:#619CFF;stroke-width:4.32"/>
	<rect x="2522.74" y="875.35" width="37.93" height="1418.47" style="fill:#808080"/>
	<rect x="2524.90" y="877.51" width="33.62" height="1414.15" style="fill:none;stroke:#000000;stroke-width:4.32"/>
	<rect x="2560.68" y="574.70" width="37.93" height="1719.12" style="fill:#B0CEFF"/>
	<rect x="2562.84" y="576.86" width="33.62" height="1714.80" style="fill:none;stroke:#619CFF;stroke-width:4.32"/>
	<rect x="2624.13" y="1248.63" width="37.93" height="1045.19" style="fill:#808080"/>
	<rect x="2626.29" y="1250.79" width="33.62" height="1040.87" style="fill:none;stroke:#000000;stroke-width:4.32"/>
	<rect x="2662.07" y="848.89" width="37.93" height="1444.93" style="fill:#B0CEFF"/>
	<rect x="2664.22" y="851.05" width="33.62" height="1440.61" style="fill:none;stroke:#619CFF;stroke-width:4.32"/>
	<text x="1831.95" y="1991.00" style="font-family:'Helvetica';font-size:29.97px;fill:#606060" text-anchor="middle">3.9</text>
	<text x="1869.89" y="1883.27" style="font-family:'Helvetica';font-size:29.97px;fill:#606060" text-anchor="middle">5.6</text>
	<text x="1933.34" y="1580.46" style="font-family:'Helvetica';font-size:29.97px;fill:#606060" text-anchor="middle">10.1</text>
	<text x="1971.27" y="1661.73" style="font-family:'Helvetica';font-size:29.97px;fill:#606060" text-anchor="middle">8.9</text>
	<text x="2034.72" y="1991.00" style="font-family:'Helvetica';font-size:29.97px;fill:#606060" text-anchor="middle">3.9</text>
	<text x="2072.79" y="1872.74" style="font-family:'Helvetica';font-size:29.97px;fill:#606060" text-anchor="middle">5.7</text>
	<text x="2136.11" y="1991.00" style="font-family:'Helvetica';font-size:29.97px;fill:#606060" text-anchor="middle">3.9</text>
	<text x="2174.18" y="1883.27" style="font-family:'Helvetica';font-size:29.97px;fill:#606060" text-anchor="middle">5.6</text>
	<text x="2237.49" y="423.22" style="font-family:'Helvetica';font-size:29.97px;fill:#606060" text-anchor="middle">27.5</text>
	<text x="2275.56" y="1514.04" style="font-family:'Helvetica';font-size:29.97px;fill:#606060" text-anchor="middle">11.1</text>
	<text x="2338.88" y="1617.72" style="font-family:'Helvetica';font-size:29.97px;fill:#606060" text-anchor="middle">9.6</text>
	<text x="2376.95" y="1630.14" style="font-family:'Helvetica';font-size:29.97px;fill:#606060" text-anchor="middle">9.4</text>
	<text x="2440.26" y="1991.00" style="font-family:'Helvetica';font-size:29.97px;fill:#606060" text-anchor="middle">3.9</text>
	<text x="2478.33" y="1841.02" style="font-family:'Helvetica';font-size:29.97px;fill:#606060" text-anchor="middle">6.2</text>
	<text x="2541.65" y="833.90" style="font-family:'Helvetica';font-size:29.97px;fill:#606060" text-anchor="middle">21.3</text>
	<text x="2579.72" y="533.25" style="font-family:'Helvetica';font-size:29.97px;fill:#606060" text-anchor="middle">25.9</text>
	<text x="2643.03" y="1207.18" style="font-family:'Helvetica';font-size:29.97px;fill:#606060" text-anchor="middle">15.7</text>
	<text x="2681.10" y="807.44" style="font-family:'Helvetica';font-size:29.97px;fill:#606060" text-anchor="middle">21.7</text>
	<line x1="1729.76" y1="2293.82" x2="1699.79" y2="2293.82" style="stroke:#606060;stroke-width:4.32"/>
	<text x="1684.80" y="2309.59" style="font-family:'Helvetica';font-size:44.95px;fill:#606060" text-anchor="end">0</text>
	<line x1="1729.76" y1="1629.34" x2="1699.79" y2="1629.34" style="stroke:#606060;stroke-width:4.32"/>
	<text x="1684.80" y="1645.11" style="font-family:'Helvetica';font-size:44.95px;fill:#606060" text-anchor="end">10</text>
	<line x1="1729.76" y1="964.86" x2="1699.79" y2="964.86" style="stroke:#606060;stroke-width:4.32"/>
	<text x="1684.80" y="980.63" style="font-family:'Helvetica';font-size:44.95px;fill:#606060" text-anchor="end">20</text>
	<line x1="1729.76" y1="300.51" x2="1699.79" y2="300.51" style="stroke:#606060;stroke-width:4.32"/>
	<text x="1684.80" y="316.28" style="font-family:'Helvetica';font-size:44.95px;fill:#606060" text-anchor="end">30</text>
	<line x1="1729.76" y1="2293.82" x2="1729.76" y2="300.51" style="stroke:#000000;stroke-width:4.32"/>
	<text x="1593.58" y="1259.30" style="font-family:'Helvetica';font-size:59.94px;fill:#000000" transform="rotate(-90 1593.58,1259.30)" text-anchor="middle">Percent</text>
	<text x="1862.13" y="2334.94" style="font-family:'Helvetica';font-size:44.95px;fill:#606060" transform="rotate(-45 1862.13,2334.94)" text-anchor="end">[-1;-0.5]</text>
	<text x="1963.52" y="2334.94" style="font-family:'Helvetica';font-size:44.95px;fill:#606060" transform="rotate(-45 1963.52,2334.94)" text-anchor="end">]-0.5;-0.2]</text>
	<text x="2064.90" y="2334.94" style="font-family:'Helvetica';font-size:44.95px;fill:#606060" transform="rotate(-45 2064.90,2334.94)" text-anchor="end">]-0.2;-0.1]</text>
	<text x="2166.29" y="2334.94" style="font-family:'Helvetica';font-size:44.95px;fill:#606060" transform="rotate(-45 2166.29,2334.94)" text-anchor="end">]-0.1;-0.05]</text>
	<text x="2267.67" y="2334.94" style="font-family:'Helvetica';font-size:44.95px;fill:#606060" transform="rotate(-45 2267.67,2334.94)" text-anchor="end">]-0.05;0.05[</text>
	<text x="2369.06" y="2334.94" style="font-family:'Helvetica';font-size:44.95px;fill:#606060" transform="rotate(-45 2369.06,2334.94)" text-anchor="end">[0.05;0.1[</text>
	<text x="2470.44" y="2334.94" style="font-family:'Helvetica';font-size:44.95px;fill:#606060" transform="rotate(-45 2470.44,2334.94)" text-anchor="end">[0.1;0.2[</text>
	<text x="2571.83" y="2334.94" style="font-family:'Helvetica';font-size:44.95px;fill:#606060" transform="rotate(-45 2571.83,2334.94)" text-anchor="end">[0.2;0.5[</text>
	<text x="2673.21" y="2334.94" style="font-family:'Helvetica';font-size:44.95px;fill:#606060" transform="rotate(-45 2673.21,2334.94)" text-anchor="end">[0.5;1]</text>
	<text x="2256.53" y="193.90" style="font-family:'Helvetica';font-size:59.94px;fill:#000000" text-anchor="middle">Numeracy</text>
	<rect x="2858.90" y="63.32" width="1397.66" height="2537.77" style="fill:#FFFFFF"/>
	<rect x="2861.05" y="65.48" width="1393.34" height="2533.45" style="fill:none;stroke:#FFFFFF;stroke-width:4.32"/>
	<rect x="3127.55" y="224.91" width="1053.40" height="2068.91" style="fill:#E0E0E0"/>
	<rect x="3129.70" y="227.07" width="1049.09" height="2064.59" style="fill:none;stroke:#FFFFFF;stroke-width:4.32"/>
	<line x1="3127.55" y1="2293.82" x2="4180.95" y2="2293.82" style="stroke:#FFFFFF;stroke-width:4.32"/>
	<line x1="3127.55" y1="1629.34" x2="4180.95" y2="1629.34" style="stroke:#FFFFFF;stroke-width:4.32"/>
	<line x1="3127.55" y1="964.86" x2="4180.95" y2="964.86" style="stroke:#FFFFFF;stroke-width:4.32"/>
	<line x1="3127.55" y1="300.51" x2="4180.95" y2="300.51" style="stroke:#FFFFFF;stroke-width:4.32"/>
	<rect x="3210.70" y="2175.96" width="37.93" height="117.86" style="fill:#808080"/>
	<rect x="3212.86" y="2178.12" width="33.62" height="113.54" style="fill:none;stroke:#000000;stroke-width:4.32"/>
	<rect x="3248.64" y="2197.29" width="38.07" height="96.53" style="fill:#B0CEFF"/>
	<rect x="3250.80" y="2199.45" width="33.75" height="92.21" style="fill:none;stroke:#619CFF;stroke-width:4.32"/>
	<rect x="3312.09" y="1900.69" width="37.93" height="393.13" style="fill:#808080"/>
	<rect x="3314.25" y="1902.85" width="33.62" height="388.81" style="fill:none;stroke:#000000;stroke-width:4.32"/>
	<rect x="3350.03" y="1997.49" width="38.07" height="296.33" style="fill:#B0CEFF"/>
	<rect x="3352.18" y="1999.65" width="33.75" height="292.01" style="fill:none;stroke:#619CFF;stroke-width:4.32"/>
	<rect x="3413.47" y="2038.26" width="37.93" height="255.56" style="fill:#808080"/>
	<rect x="3415.63" y="2040.42" width="33.62" height="251.24" style="fill:none;stroke:#000000;stroke-width:4.32"/>
	<rect x="3451.41" y="2018.15" width="38.07" height="275.67" style="fill:#B0CEFF"/>
	<rect x="3453.57" y="2020.31" width="33.75" height="271.35" style="fill:none;stroke:#619CFF;stroke-width:4.32"/>
	<rect x="3514.86" y="2077.55" width="38.07" height="216.27" style="fill:#808080"/>
	<rect x="3517.02" y="2079.71" width="33.75" height="211.95" style="fill:none;stroke:#000000;stroke-width:4.32"/>
	<rect x="3552.93" y="2162.87" width="37.93" height="130.95" style="fill:#B0CEFF"/>
	<rect x="3555.09" y="2165.03" width="33.62" height="126.63" style="fill:none;stroke:#619CFF;stroke-width:4.32"/>
	<rect x="3616.24" y="426.34" width="38.07" height="1867.48" style="fill:#808080"/>
	<rect x="3618.40" y="428.50" width="33.75" height="1863.16" style="fill:none;stroke:#000000;stroke-width:4.32"/>
	<rect x="3654.32" y="1204.76" width="37.93" height="1089.06" style="fill:#B0CEFF"/>
	<rect x="3656.47" y="1206.92" width="33.62" height="1084.74" style="fill:none;stroke:#619CFF;stroke-width:4.32"/>
	<rect x="3717.63" y="2195.54" width="38.07" height="98.28" style="fill:#808080"/>
	<rect x="3719.79" y="2197.70" width="33.75" height="93.96" style="fill:none;stroke:#000000;stroke-width:4.32"/>
	<rect x="3755.70" y="1997.49" width="37.94" height="296.33" style="fill:#B0CEFF"/>
	<rect x="3757.86" y="1999.65" width="33.62" height="292.01" style="fill:none;stroke:#619CFF;stroke-width:4.32"/>
	<rect x="3819.01" y="2195.54" width="38.07" height="98.28" style="fill:#808080"/>
	<rect x="3821.17" y="2197.70" width="33.75" height="93.96" style="fill:none;stroke:#000000;stroke-width:4.32"/>
	<rect x="3857.09" y="1866.54" width="37.93" height="427.28" style="fill:#B0CEFF"/>
	<rect x="3859.24" y="1868.70" width="33.62" height="422.96" style="fill:none;stroke:#619CFF;stroke-width:4.32"/>
	<rect x="3920.40" y="2057.97" width="38.07" height="235.85" style="fill:#808080"/>
	<rect x="3922.56" y="2060.13" width="33.75" height="231.53" style="fill:none;stroke:#000000;stroke-width:4.32"/>
	<rect x="3958.47" y="1666.60" width="37.94" height="627.22" style="fill:#B0CEFF"/>
	<rect x="3960.63" y="1668.76" width="33.62" height="622.90" style="fill:none;stroke:#619CFF;stroke-width:4.32"/>
	<rect x="4021.78" y="2254.54" width="38.07" height="39.29" style="fill:#808080"/>
	<rect x="4023.94" y="2256.70" width="33.75" height="34.97" style="fill:none;stroke:#000000;stroke-width:4.32"/>
	<rect x="4059.86" y="2211.20" width="37.93" height="82.62" style="fill:#B0CEFF"/>
	<rect x="4062.01" y="2213.36" width="33.62" height="78.30" style="fill:none;stroke:#619CFF;stroke-width:4.32"/>
	<text x="3229.74" y="2134.38" style="font-family:'Helvetica';font-size:29.97px;fill:#606060" text-anchor="middle">3.6</text>
	<text x="3267.68" y="2155.84" style="font-family:'Helvetica';font-size:29.97px;fill:#606060" text-anchor="middle">2.9</text>
	<text x="3331.13" y="1859.24" style="font-family:'Helvetica';font-size:29.97px;fill:#606060" text-anchor="middle">11.8</text>
	<text x="3369.06" y="1956.04" style="font-family:'Helvetica';font-size:29.97px;fill:#606060" text-anchor="middle">8.9</text>
	<text x="3432.51" y="1996.81" style="font-family:'Helvetica';font-size:29.97px;fill:#606060" text-anchor="middle">7.7</text>
	<text x="3470.45" y="1976.69" style="font-family:'Helvetica';font-size:29.97px;fill:#606060" text-anchor="middle">8.3</text>
	<text x="3533.90" y="2036.10" style="font-family:'Helvetica';font-size:29.97px;fill:#606060" text-anchor="middle">6.5</text>
	<text x="3571.83" y="2121.42" style="font-family:'Helvetica';font-size:29.97px;fill:#606060" text-anchor="middle">3.9</text>
	<text x="3635.28" y="384.75" style="font-family:'Helvetica';font-size:29.97px;fill:#606060" text-anchor="middle">56.2</text>
	<text x="3673.22" y="1163.31" style="font-family:'Helvetica';font-size:29.97px;fill:#606060" text-anchor="middle">32.8</text>
	<text x="3736.67" y="2154.09" style="font-family:'Helvetica';font-size:29.97px;fill:#606060" text-anchor="middle">3.0</text>
	<text x="3774.60" y="1956.04" style="font-family:'Helvetica';font-size:29.97px;fill:#606060" text-anchor="middle">8.9</text>
	<text x="3838.05" y="2154.09" style="font-family:'Helvetica';font-size:29.97px;fill:#606060" text-anchor="middle">3.0</text>
	<text x="3875.99" y="1825.09" style="font-family:'Helvetica';font-size:29.97px;fill:#606060" text-anchor="middle">12.9</text>
	<text x="3939.43" y="2016.52" style="font-family:'Helvetica';font-size:29.97px;fill:#606060" text-anchor="middle">7.1</text>
	<text x="3977.37" y="1625.15" style="font-family:'Helvetica';font-size:29.97px;fill:#606060" text-anchor="middle">18.9</text>
	<text x="4040.82" y="2213.08" style="font-family:'Helvetica';font-size:29.97px;fill:#606060" text-anchor="middle">1.2</text>
	<text x="4078.76" y="2169.61" style="font-family:'Helvetica';font-size:29.97px;fill:#606060" text-anchor="middle">2.5</text>
	<line x1="3127.55" y1="2293.82" x2="3097.57" y2="2293.82" style="stroke:#606060;stroke-width:4.32"/>
	<text x="3082.59" y="2309.59" style="font-family:'Helvetica';font-size:44.95px;fill:#606060" text-anchor="end">0</text>
	<line x1="3127.55" y1="1629.34" x2="3097.57" y2="1629.34" style="stroke:#606060;stroke-width:4.32"/>
	<text x="3082.59" y="1645.11" style="font-family:'Helvetica';font-size:44.95px;fill:#606060" text-anchor="end">20</text>
	<line x1="3127.55" y1="964.86" x2="3097.57" y2="964.86" style="stroke:#606060;stroke-width:4.32"/>
	<text x="3082.59" y="980.63" style="font-family:'Helvetica';font-size:44.95px;fill:#606060" text-anchor="end">40</text>
	<line x1="3127.55" y1="300.51" x2="3097.57" y2="300.51" style="stroke:#606060;stroke-width:4.32"/>
	<text x="3082.59" y="316.28" style="font-family:'Helvetica';font-size:44.95px;fill:#606060" text-anchor="end">60</text>
	<line x1="3127.55" y1="2293.82" x2="3127.55" y2="300.51" style="stroke:#000000;stroke-width:4.32"/>
	<text x="2991.37" y="1259.30" style="font-family:'Helvetica';font-size:59.94px;fill:#000000" transform="rotate(-90 2991.37,1259.30)" text-anchor="middle">Percent</text>
	<text x="3259.79" y="2334.94" style="font-family:'Helvetica';font-size:44.95px;fill:#606060" transform="rotate(-45 3259.79,2334.94)" text-anchor="end">[-1;-0.5]</text>
	<text x="3361.17" y="2334.94" style="font-family:'Helvetica';font-size:44.95px;fill:#606060" transform="rotate(-45 3361.17,2334.94)" text-anchor="end">]-0.5;-0.2]</text>
	<text x="3462.56" y="2334.94" style="font-family:'Helvetica';font-size:44.95px;fill:#606060" transform="rotate(-45 3462.56,2334.94)" text-anchor="end">]-0.2;-0.1]</text>
	<text x="3564.08" y="2334.94" style="font-family:'Helvetica';font-size:44.95px;fill:#606060" transform="rotate(-45 3564.08,2334.94)" text-anchor="end">]-0.1;-0.05]</text>
	<text x="3665.46" y="2334.94" style="font-family:'Helvetica';font-size:44.95px;fill:#606060" transform="rotate(-45 3665.46,2334.94)" text-anchor="end">]-0.05;0.05[</text>
	<text x="3766.85" y="2334.94" style="font-family:'Helvetica';font-size:44.95px;fill:#606060" transform="rotate(-45 3766.85,2334.94)" text-anchor="end">[0.05;0.1[</text>
	<text x="3868.23" y="2334.94" style="font-family:'Helvetica';font-size:44.95px;fill:#606060" transform="rotate(-45 3868.23,2334.94)" text-anchor="end">[0.1;0.2[</text>
	<text x="3969.62" y="2334.94" style="font-family:'Helvetica';font-size:44.95px;fill:#606060" transform="rotate(-45 3969.62,2334.94)" text-anchor="end">[0.2;0.5[</text>
	<text x="4071.00" y="2334.94" style="font-family:'Helvetica';font-size:44.95px;fill:#606060" transform="rotate(-45 4071.00,2334.94)" text-anchor="end">[0.5;1]</text>
	<text x="3654.32" y="193.90" style="font-family:'Helvetica';font-size:59.94px;fill:#000000" text-anchor="middle">Literacy</text>
	<rect x="1438.83" y="2635.65" width="1442.34" height="146.48" style="fill:#FFFFFF"/>
	<rect x="1441.71" y="2638.53" width="1436.58" height="140.72" style="fill:none;stroke:#FFFFFF;stroke-width:5.76"/>
	<rect x="1482.03" y="2678.85" width="143.91" height="60.08" style="fill:#808080"/>
	<rect x="1484.91" y="2681.73" width="138.15" height="54.32" style="fill:none;stroke:#000000;stroke-width:5.76"/>
	<rect x="2199.96" y="2678.85" width="144.05" height="60.08" style="fill:#B0CEFF"/>
	<rect x="2202.84" y="2681.73" width="138.29" height="54.32" style="fill:none;stroke:#619CFF;stroke-width:5.76"/>
	<text x="1686.02" y="2729.83" style="font-family:'Helvetica';font-size:59.94px;fill:#000000">];30] in 2016-17</text>
	<text x="2403.95" y="2729.83" style="font-family:'Helvetica';font-size:59.94px;fill:#000000">]30;[ in 2016-17</text>
</svg>
