<?xml version="1.0" encoding="UTF-8" standalone="no"?>
<!-- This is a Stata 15.1 generated SVG file (http://www.stata.com) -->

<svg version="1.1" width="6.00in" height="4.00in" viewBox="0 0 4320 2880" xmlns="http://www.w3.org/2000/svg" xmlns:xlink="http://www.w3.org/1999/xlink">
	<desc>Stata Graph - combage</desc>
	<rect x="0" y="0" width="4320" height="2880" style="fill:#FFFFFF;stroke:none"/>
	<rect x="0.00" y="0.00" width="4320.00" height="2880.00" style="fill:#FFFFFF"/>
	<rect x="2.88" y="2.88" width="4314.24" height="2874.24" style="fill:none;stroke:#FFFFFF;stroke-width:5.76"/>
	<rect x="63.31" y="63.32" width="1397.79" height="2537.77" style="fill:#FFFFFF"/>
	<rect x="65.47" y="65.48" width="1393.47" height="2533.45" style="fill:none;stroke:#FFFFFF;stroke-width:4.32"/>
	<rect x="332.10" y="224.91" width="1053.41" height="2068.91" style="fill:#E0E0E0"/>
	<rect x="334.26" y="227.07" width="1049.09" height="2064.59" style="fill:none;stroke:#FFFFFF;stroke-width:4.32"/>
	<line x1="332.10" y1="2293.82" x2="1385.51" y2="2293.82" style="stroke:#FFFFFF;stroke-width:4.32"/>
	<line x1="332.10" y1="1795.53" x2="1385.51" y2="1795.53" style="stroke:#FFFFFF;stroke-width:4.32"/>
	<line x1="332.10" y1="1297.10" x2="1385.51" y2="1297.10" style="stroke:#FFFFFF;stroke-width:4.32"/>
	<line x1="332.10" y1="798.81" x2="1385.51" y2="798.81" style="stroke:#FFFFFF;stroke-width:4.32"/>
	<line x1="332.10" y1="300.51" x2="1385.51" y2="300.51" style="stroke:#FFFFFF;stroke-width:4.32"/>
	<rect x="414.72" y="1486.10" width="35.50" height="807.72" style="fill:#808080"/>
	<rect x="416.88" y="1488.26" width="31.19" height="803.40" style="fill:none;stroke:#000000;stroke-width:4.32"/>
	<rect x="450.23" y="1279.95" width="35.50" height="1013.87" style="fill:#B0CEFF"/>
	<rect x="452.38" y="1282.11" width="31.19" height="1009.55" style="fill:none;stroke:#619CFF;stroke-width:4.32"/>
	<rect x="485.73" y="828.10" width="35.50" height="1465.72" style="fill:#80E0D7"/>
	<rect x="487.89" y="830.26" width="31.19" height="1461.40" style="fill:none;stroke:#00C0AF;stroke-width:4.32"/>
	<rect x="545.00" y="1523.36" width="35.50" height="770.46" style="fill:#808080"/>
	<rect x="547.15" y="1525.52" width="31.19" height="766.14" style="fill:none;stroke:#000000;stroke-width:4.32"/>
	<rect x="580.50" y="1622.73" width="35.50" height="671.10" style="fill:#B0CEFF"/>
	<rect x="582.66" y="1624.89" width="31.19" height="666.78" style="fill:none;stroke:#619CFF;stroke-width:4.32"/>
	<rect x="616.01" y="1824.82" width="35.50" height="469.00" style="fill:#80E0D7"/>
	<rect x="618.16" y="1826.98" width="31.19" height="464.68" style="fill:none;stroke:#00C0AF;stroke-width:4.32"/>
	<rect x="675.27" y="1535.78" width="35.50" height="758.04" style="fill:#808080"/>
	<rect x="677.43" y="1537.94" width="31.19" height="753.72" style="fill:none;stroke:#000000;stroke-width:4.32"/>
	<rect x="710.77" y="1651.35" width="35.50" height="642.48" style="fill:#B0CEFF"/>
	<rect x="712.93" y="1653.51" width="31.19" height="638.16" style="fill:none;stroke:#619CFF;stroke-width:4.32"/>
	<rect x="746.28" y="1473.01" width="35.50" height="820.81" style="fill:#80E0D7"/>
	<rect x="748.44" y="1475.17" width="31.19" height="816.49" style="fill:none;stroke:#00C0AF;stroke-width:4.32"/>
	<rect x="805.54" y="454.55" width="35.50" height="1839.27" style="fill:#808080"/>
	<rect x="807.70" y="456.71" width="31.19" height="1834.95" style="fill:none;stroke:#000000;stroke-width:4.32"/>
	<rect x="841.05" y="466.16" width="35.50" height="1827.66" style="fill:#B0CEFF"/>
	<rect x="843.21" y="468.32" width="31.19" height="1823.34" style="fill:none;stroke:#619CFF;stroke-width:4.32"/>
	<rect x="876.55" y="710.92" width="35.50" height="1582.90" style="fill:#80E0D7"/>
	<rect x="878.71" y="713.08" width="31.19" height="1578.58" style="fill:none;stroke:#00C0AF;stroke-width:4.32"/>
	<rect x="935.82" y="1908.66" width="35.50" height="385.16" style="fill:#808080"/>
	<rect x="937.98" y="1910.82" width="31.19" height="380.84" style="fill:none;stroke:#000000;stroke-width:4.32"/>
	<rect x="971.33" y="1794.04" width="35.50" height="499.78" style="fill:#B0CEFF"/>
	<rect x="973.48" y="1796.20" width="31.19" height="495.46" style="fill:none;stroke:#619CFF;stroke-width:4.32"/>
	<rect x="1006.83" y="1942.14" width="35.50" height="351.68" style="fill:#80E0D7"/>
	<rect x="1008.99" y="1944.30" width="31.19" height="347.36" style="fill:none;stroke:#00C0AF;stroke-width:4.32"/>
	<rect x="1066.10" y="2057.70" width="35.50" height="236.12" style="fill:#808080"/>
	<rect x="1068.25" y="2059.86" width="31.19" height="231.80" style="fill:none;stroke:#000000;stroke-width:4.32"/>
	<rect x="1101.60" y="2036.78" width="35.51" height="257.04" style="fill:#B0CEFF"/>
	<rect x="1103.76" y="2038.94" width="31.19" height="252.72" style="fill:none;stroke:#619CFF;stroke-width:4.32"/>
	<rect x="1137.11" y="2117.91" width="35.37" height="175.91" style="fill:#80E0D7"/>
	<rect x="1139.26" y="2120.07" width="31.05" height="171.59" style="fill:none;stroke:#00C0AF;stroke-width:4.32"/>
	<rect x="1196.37" y="2107.38" width="35.51" height="186.44" style="fill:#808080"/>
	<rect x="1198.53" y="2109.54" width="31.19" height="182.12" style="fill:none;stroke:#000000;stroke-width:4.32"/>
	<rect x="1231.88" y="2222.40" width="35.37" height="71.42" style="fill:#B0CEFF"/>
	<rect x="1234.03" y="2224.56" width="31.05" height="67.10" style="fill:none;stroke:#619CFF;stroke-width:4.32"/>
	<rect x="1267.24" y="2176.64" width="35.51" height="117.18" style="fill:#80E0D7"/>
	<rect x="1269.40" y="2178.80" width="31.19" height="112.86" style="fill:none;stroke:#00C0AF;stroke-width:4.32"/>
	<text x="432.54" y="1444.52" style="font-family:'Helvetica';font-size:29.97px;fill:#606060" text-anchor="middle">16.2</text>
	<text x="468.05" y="1238.50" style="font-family:'Helvetica';font-size:29.97px;fill:#606060" text-anchor="middle">20.3</text>
	<text x="503.55" y="786.65" style="font-family:'Helvetica';font-size:29.97px;fill:#606060" text-anchor="middle">29.4</text>
	<text x="562.82" y="1481.91" style="font-family:'Helvetica';font-size:29.97px;fill:#606060" text-anchor="middle">15.5</text>
	<text x="598.32" y="1581.27" style="font-family:'Helvetica';font-size:29.97px;fill:#606060" text-anchor="middle">13.5</text>
	<text x="633.69" y="1783.37" style="font-family:'Helvetica';font-size:29.97px;fill:#606060" text-anchor="middle">9.4</text>
	<text x="693.09" y="1494.33" style="font-family:'Helvetica';font-size:29.97px;fill:#606060" text-anchor="middle">15.2</text>
	<text x="728.46" y="1609.76" style="font-family:'Helvetica';font-size:29.97px;fill:#606060" text-anchor="middle">12.9</text>
	<text x="763.97" y="1431.56" style="font-family:'Helvetica';font-size:29.97px;fill:#606060" text-anchor="middle">16.5</text>
	<text x="823.23" y="413.10" style="font-family:'Helvetica';font-size:29.97px;fill:#606060" text-anchor="middle">36.9</text>
	<text x="858.74" y="424.57" style="font-family:'Helvetica';font-size:29.97px;fill:#606060" text-anchor="middle">36.7</text>
	<text x="894.24" y="669.33" style="font-family:'Helvetica';font-size:29.97px;fill:#606060" text-anchor="middle">31.8</text>
	<text x="953.51" y="1867.07" style="font-family:'Helvetica';font-size:29.97px;fill:#606060" text-anchor="middle">7.7</text>
	<text x="989.01" y="1752.59" style="font-family:'Helvetica';font-size:29.97px;fill:#606060" text-anchor="middle">10.0</text>
	<text x="1024.52" y="1900.55" style="font-family:'Helvetica';font-size:29.97px;fill:#606060" text-anchor="middle">7.1</text>
	<text x="1083.78" y="2016.25" style="font-family:'Helvetica';font-size:29.97px;fill:#606060" text-anchor="middle">4.7</text>
	<text x="1119.29" y="1995.32" style="font-family:'Helvetica';font-size:29.97px;fill:#606060" text-anchor="middle">5.2</text>
	<text x="1154.79" y="2076.46" style="font-family:'Helvetica';font-size:29.97px;fill:#606060" text-anchor="middle">3.5</text>
	<text x="1214.06" y="2065.93" style="font-family:'Helvetica';font-size:29.97px;fill:#606060" text-anchor="middle">3.7</text>
	<text x="1249.56" y="2180.95" style="font-family:'Helvetica';font-size:29.97px;fill:#606060" text-anchor="middle">1.4</text>
	<text x="1285.07" y="2135.05" style="font-family:'Helvetica';font-size:29.97px;fill:#606060" text-anchor="middle">2.4</text>
	<line x1="332.10" y1="2293.82" x2="302.00" y2="2293.82" style="stroke:#606060;stroke-width:4.32"/>
	<text x="287.01" y="2309.59" style="font-family:'Helvetica';font-size:44.95px;fill:#606060" text-anchor="end">0</text>
	<line x1="332.10" y1="1795.53" x2="302.00" y2="1795.53" style="stroke:#606060;stroke-width:4.32"/>
	<text x="287.01" y="1811.30" style="font-family:'Helvetica';font-size:44.95px;fill:#606060" text-anchor="end">10</text>
	<line x1="332.10" y1="1297.10" x2="302.00" y2="1297.10" style="stroke:#606060;stroke-width:4.32"/>
	<text x="287.01" y="1312.87" style="font-family:'Helvetica';font-size:44.95px;fill:#606060" text-anchor="end">20</text>
	<line x1="332.10" y1="798.81" x2="302.00" y2="798.81" style="stroke:#606060;stroke-width:4.32"/>
	<text x="287.01" y="814.58" style="font-family:'Helvetica';font-size:44.95px;fill:#606060" text-anchor="end">30</text>
	<line x1="332.10" y1="300.51" x2="302.00" y2="300.51" style="stroke:#606060;stroke-width:4.32"/>
	<text x="287.01" y="316.28" style="font-family:'Helvetica';font-size:44.95px;fill:#606060" text-anchor="end">40</text>
	<line x1="332.10" y1="2293.82" x2="332.10" y2="300.51" style="stroke:#000000;stroke-width:4.32"/>
	<text x="195.93" y="1259.30" style="font-family:'Helvetica';font-size:59.94px;fill:#000000" transform="rotate(-90 195.93,1259.30)" text-anchor="middle">Percent</text>
	<text x="479.19" y="2334.94" style="font-family:'Helvetica';font-size:44.95px;fill:#606060" transform="rotate(-45 479.19,2334.94)" text-anchor="end">]-0.5;-0.2]</text>
	<text x="609.47" y="2334.94" style="font-family:'Helvetica';font-size:44.95px;fill:#606060" transform="rotate(-45 609.47,2334.94)" text-anchor="end">]-0.2;-0.1]</text>
	<text x="739.61" y="2334.94" style="font-family:'Helvetica';font-size:44.95px;fill:#606060" transform="rotate(-45 739.61,2334.94)" text-anchor="end">]-0.1;-0.05]</text>
	<text x="869.88" y="2334.94" style="font-family:'Helvetica';font-size:44.95px;fill:#606060" transform="rotate(-45 869.88,2334.94)" text-anchor="end">]-0.05;0.05[</text>
	<text x="1000.16" y="2334.94" style="font-family:'Helvetica';font-size:44.95px;fill:#606060" transform="rotate(-45 1000.16,2334.94)" text-anchor="end">[0.05;0.1[</text>
	<text x="1130.43" y="2334.94" style="font-family:'Helvetica';font-size:44.95px;fill:#606060" transform="rotate(-45 1130.43,2334.94)" text-anchor="end">[0.1;0.2[</text>
	<text x="1260.71" y="2334.94" style="font-family:'Helvetica';font-size:44.95px;fill:#606060" transform="rotate(-45 1260.71,2334.94)" text-anchor="end">[0.2;0.5[</text>
	<text x="858.74" y="193.90" style="font-family:'Helvetica';font-size:59.94px;fill:#000000" text-anchor="middle">Raven</text>
	<rect x="1461.11" y="63.32" width="1397.79" height="2537.77" style="fill:#FFFFFF"/>
	<rect x="1463.26" y="65.48" width="1393.47" height="2533.45" style="fill:none;stroke:#FFFFFF;stroke-width:4.32"/>
	<rect x="1729.76" y="224.91" width="1053.54" height="2068.91" style="fill:#E0E0E0"/>
	<rect x="1731.91" y="227.07" width="1049.22" height="2064.59" style="fill:none;stroke:#FFFFFF;stroke-width:4.32"/>
	<line x1="1729.76" y1="2293.82" x2="2783.30" y2="2293.82" style="stroke:#FFFFFF;stroke-width:4.32"/>
	<line x1="1729.76" y1="1629.34" x2="2783.30" y2="1629.34" style="stroke:#FFFFFF;stroke-width:4.32"/>
	<line x1="1729.76" y1="964.86" x2="2783.30" y2="964.86" style="stroke:#FFFFFF;stroke-width:4.32"/>
	<line x1="1729.76" y1="300.51" x2="2783.30" y2="300.51" style="stroke:#FFFFFF;stroke-width:4.32"/>
	<rect x="1810.89" y="1980.75" width="27.54" height="313.07" style="fill:#808080"/>
	<rect x="1813.05" y="1982.91" width="23.22" height="308.75" style="fill:none;stroke:#000000;stroke-width:4.32"/>
	<rect x="1838.43" y="1884.63" width="27.54" height="409.19" style="fill:#B0CEFF"/>
	<rect x="1840.59" y="1886.79" width="23.22" height="404.87" style="fill:none;stroke:#619CFF;stroke-width:4.32"/>
	<rect x="1865.97" y="2059.32" width="27.54" height="234.50" style="fill:#80E0D7"/>
	<rect x="1868.13" y="2061.48" width="23.22" height="230.18" style="fill:none;stroke:#00C0AF;stroke-width:4.32"/>
	<rect x="1912.01" y="1702.51" width="27.54" height="591.31" style="fill:#808080"/>
	<rect x="1914.16" y="1704.67" width="23.22" height="586.99" style="fill:none;stroke:#000000;stroke-width:4.32"/>
	<rect x="1939.55" y="1728.70" width="27.54" height="565.12" style="fill:#B0CEFF"/>
	<rect x="1941.70" y="1730.86" width="23.22" height="560.80" style="fill:none;stroke:#619CFF;stroke-width:4.32"/>
	<rect x="1967.09" y="1433.99" width="27.54" height="859.83" style="fill:#80E0D7"/>
	<rect x="1969.24" y="1436.15" width="23.22" height="855.51" style="fill:none;stroke:#00C0AF;stroke-width:4.32"/>
	<rect x="2013.12" y="1998.17" width="27.54" height="295.65" style="fill:#808080"/>
	<rect x="2015.28" y="2000.33" width="23.22" height="291.33" style="fill:none;stroke:#000000;stroke-width:4.32"/>
	<rect x="2040.66" y="1904.07" width="27.54" height="389.75" style="fill:#B0CEFF"/>
	<rect x="2042.82" y="1906.23" width="23.22" height="385.43" style="fill:none;stroke:#619CFF;stroke-width:4.32"/>
	<rect x="2068.20" y="1824.82" width="27.54" height="469.00" style="fill:#80E0D7"/>
	<rect x="2070.36" y="1826.98" width="23.22" height="464.68" style="fill:none;stroke:#00C0AF;stroke-width:4.32"/>
	<rect x="2114.10" y="1911.22" width="27.54" height="382.60" style="fill:#808080"/>
	<rect x="2116.26" y="1913.38" width="23.22" height="378.28" style="fill:none;stroke:#000000;stroke-width:4.32"/>
	<rect x="2141.64" y="1962.66" width="27.54" height="331.16" style="fill:#B0CEFF"/>
	<rect x="2143.80" y="1964.82" width="23.22" height="326.84" style="fill:none;stroke:#619CFF;stroke-width:4.32"/>
	<rect x="2169.18" y="2059.32" width="27.54" height="234.50" style="fill:#80E0D7"/>
	<rect x="2171.34" y="2061.48" width="23.22" height="230.18" style="fill:none;stroke:#00C0AF;stroke-width:4.32"/>
	<rect x="2215.22" y="1198.01" width="27.54" height="1095.81" style="fill:#808080"/>
	<rect x="2217.37" y="1200.17" width="23.22" height="1091.49" style="fill:none;stroke:#000000;stroke-width:4.32"/>
	<rect x="2242.76" y="1494.88" width="27.54" height="798.94" style="fill:#B0CEFF"/>
	<rect x="2244.91" y="1497.04" width="23.22" height="794.62" style="fill:none;stroke:#619CFF;stroke-width:4.32"/>
	<rect x="2270.30" y="1121.33" width="27.54" height="1172.49" style="fill:#80E0D7"/>
	<rect x="2272.45" y="1123.49" width="23.22" height="1168.17" style="fill:none;stroke:#00C0AF;stroke-width:4.32"/>
	<rect x="2316.33" y="1702.51" width="27.54" height="591.31" style="fill:#808080"/>
	<rect x="2318.49" y="1704.67" width="23.22" height="586.99" style="fill:none;stroke:#000000;stroke-width:4.32"/>
	<rect x="2343.87" y="1572.91" width="27.54" height="720.91" style="fill:#B0CEFF"/>
	<rect x="2346.03" y="1575.07" width="23.22" height="716.59" style="fill:none;stroke:#619CFF;stroke-width:4.32"/>
	<rect x="2371.41" y="1902.99" width="27.54" height="390.83" style="fill:#80E0D7"/>
	<rect x="2373.57" y="1905.15" width="23.22" height="386.51" style="fill:none;stroke:#00C0AF;stroke-width:4.32"/>
	<rect x="2417.31" y="1824.15" width="27.54" height="469.67" style="fill:#808080"/>
	<rect x="2419.47" y="1826.31" width="23.22" height="465.35" style="fill:none;stroke:#000000;stroke-width:4.32"/>
	<rect x="2444.85" y="1962.66" width="27.54" height="331.16" style="fill:#B0CEFF"/>
	<rect x="2447.01" y="1964.82" width="23.22" height="326.84" style="fill:none;stroke:#619CFF;stroke-width:4.32"/>
	<rect x="2472.39" y="2137.49" width="27.54" height="156.33" style="fill:#80E0D7"/>
	<rect x="2474.55" y="2139.65" width="23.22" height="152.01" style="fill:none;stroke:#00C0AF;stroke-width:4.32"/>
	<rect x="2518.43" y="867.52" width="27.54" height="1426.30" style="fill:#808080"/>
	<rect x="2520.58" y="869.68" width="23.22" height="1421.98" style="fill:none;stroke:#000000;stroke-width:4.32"/>
	<rect x="2545.97" y="403.79" width="27.54" height="1890.03" style="fill:#B0CEFF"/>
	<rect x="2548.12" y="405.95" width="23.22" height="1885.71" style="fill:none;stroke:#619CFF;stroke-width:4.32"/>
	<rect x="2573.51" y="574.03" width="27.54" height="1719.79" style="fill:#80E0D7"/>
	<rect x="2575.66" y="576.19" width="23.22" height="1715.47" style="fill:none;stroke:#00C0AF;stroke-width:4.32"/>
	<rect x="2619.54" y="815.28" width="27.54" height="1478.54" style="fill:#808080"/>
	<rect x="2621.70" y="817.44" width="23.22" height="1474.22" style="fill:none;stroke:#000000;stroke-width:4.32"/>
	<rect x="2647.08" y="1085.69" width="27.54" height="1208.13" style="fill:#B0CEFF"/>
	<rect x="2649.24" y="1087.85" width="23.22" height="1203.81" style="fill:none;stroke:#619CFF;stroke-width:4.32"/>
	<rect x="2674.62" y="886.69" width="27.54" height="1407.13" style="fill:#80E0D7"/>
	<rect x="2676.78" y="888.85" width="23.22" height="1402.81" style="fill:none;stroke:#00C0AF;stroke-width:4.32"/>
	<text x="1824.66" y="1939.30" style="font-family:'Helvetica';font-size:29.97px;fill:#606060" text-anchor="middle">4.7</text>
	<text x="1852.20" y="1843.18" style="font-family:'Helvetica';font-size:29.97px;fill:#606060" text-anchor="middle">6.2</text>
	<text x="1879.74" y="2017.87" style="font-family:'Helvetica';font-size:29.97px;fill:#606060" text-anchor="middle">3.5</text>
	<text x="1925.78" y="1660.92" style="font-family:'Helvetica';font-size:29.97px;fill:#606060" text-anchor="middle">8.9</text>
	<text x="1953.32" y="1687.25" style="font-family:'Helvetica';font-size:29.97px;fill:#606060" text-anchor="middle">8.5</text>
	<text x="1980.86" y="1392.54" style="font-family:'Helvetica';font-size:29.97px;fill:#606060" text-anchor="middle">12.9</text>
	<text x="2026.89" y="1956.71" style="font-family:'Helvetica';font-size:29.97px;fill:#606060" text-anchor="middle">4.5</text>
	<text x="2054.43" y="1862.62" style="font-family:'Helvetica';font-size:29.97px;fill:#606060" text-anchor="middle">5.9</text>
	<text x="2081.97" y="1783.37" style="font-family:'Helvetica';font-size:29.97px;fill:#606060" text-anchor="middle">7.1</text>
	<text x="2127.87" y="1869.64" style="font-family:'Helvetica';font-size:29.97px;fill:#606060" text-anchor="middle">5.8</text>
	<text x="2155.41" y="1921.07" style="font-family:'Helvetica';font-size:29.97px;fill:#606060" text-anchor="middle">5.0</text>
	<text x="2182.95" y="2017.87" style="font-family:'Helvetica';font-size:29.97px;fill:#606060" text-anchor="middle">3.5</text>
	<text x="2228.99" y="1156.56" style="font-family:'Helvetica';font-size:29.97px;fill:#606060" text-anchor="middle">16.5</text>
	<text x="2256.53" y="1453.43" style="font-family:'Helvetica';font-size:29.97px;fill:#606060" text-anchor="middle">12.0</text>
	<text x="2284.07" y="1079.74" style="font-family:'Helvetica';font-size:29.97px;fill:#606060" text-anchor="middle">17.6</text>
	<text x="2330.10" y="1660.92" style="font-family:'Helvetica';font-size:29.97px;fill:#606060" text-anchor="middle">8.9</text>
	<text x="2357.64" y="1531.46" style="font-family:'Helvetica';font-size:29.97px;fill:#606060" text-anchor="middle">10.9</text>
	<text x="2385.18" y="1861.54" style="font-family:'Helvetica';font-size:29.97px;fill:#606060" text-anchor="middle">5.9</text>
	<text x="2431.08" y="1782.70" style="font-family:'Helvetica';font-size:29.97px;fill:#606060" text-anchor="middle">7.1</text>
	<text x="2458.62" y="1921.07" style="font-family:'Helvetica';font-size:29.97px;fill:#606060" text-anchor="middle">5.0</text>
	<text x="2486.16" y="2096.04" style="font-family:'Helvetica';font-size:29.97px;fill:#606060" text-anchor="middle">2.4</text>
	<text x="2532.20" y="826.07" style="font-family:'Helvetica';font-size:29.97px;fill:#606060" text-anchor="middle">21.5</text>
	<text x="2559.74" y="362.20" style="font-family:'Helvetica';font-size:29.97px;fill:#606060" text-anchor="middle">28.4</text>
	<text x="2587.28" y="532.58" style="font-family:'Helvetica';font-size:29.97px;fill:#606060" text-anchor="middle">25.9</text>
	<text x="2633.31" y="773.83" style="font-family:'Helvetica';font-size:29.97px;fill:#606060" text-anchor="middle">22.3</text>
	<text x="2660.85" y="1044.23" style="font-family:'Helvetica';font-size:29.97px;fill:#606060" text-anchor="middle">18.2</text>
	<text x="2688.39" y="845.24" style="font-family:'Helvetica';font-size:29.97px;fill:#606060" text-anchor="middle">21.2</text>
	<line x1="1729.76" y1="2293.82" x2="1699.79" y2="2293.82" style="stroke:#606060;stroke-width:4.32"/>
	<text x="1684.80" y="2309.59" style="font-family:'Helvetica';font-size:44.95px;fill:#606060" text-anchor="end">0</text>
	<line x1="1729.76" y1="1629.34" x2="1699.79" y2="1629.34" style="stroke:#606060;stroke-width:4.32"/>
	<text x="1684.80" y="1645.11" style="font-family:'Helvetica';font-size:44.95px;fill:#606060" text-anchor="end">10</text>
	<line x1="1729.76" y1="964.86" x2="1699.79" y2="964.86" style="stroke:#606060;stroke-width:4.32"/>
	<text x="1684.80" y="980.63" style="font-family:'Helvetica';font-size:44.95px;fill:#606060" text-anchor="end">20</text>
	<line x1="1729.76" y1="300.51" x2="1699.79" y2="300.51" style="stroke:#606060;stroke-width:4.32"/>
	<text x="1684.80" y="316.28" style="font-family:'Helvetica';font-size:44.95px;fill:#606060" text-anchor="end">30</text>
	<line x1="1729.76" y1="2293.82" x2="1729.76" y2="300.51" style="stroke:#000000;stroke-width:4.32"/>
	<text x="1593.58" y="1259.30" style="font-family:'Helvetica';font-size:59.94px;fill:#000000" transform="rotate(-90 1593.58,1259.30)" text-anchor="middle">Percent</text>
	<text x="1863.35" y="2334.94" style="font-family:'Helvetica';font-size:44.95px;fill:#606060" transform="rotate(-45 1863.35,2334.94)" text-anchor="end">[-1;-0.5]</text>
	<text x="1964.46" y="2334.94" style="font-family:'Helvetica';font-size:44.95px;fill:#606060" transform="rotate(-45 1964.46,2334.94)" text-anchor="end">]-0.5;-0.2]</text>
	<text x="2065.58" y="2334.94" style="font-family:'Helvetica';font-size:44.95px;fill:#606060" transform="rotate(-45 2065.58,2334.94)" text-anchor="end">]-0.2;-0.1]</text>
	<text x="2166.56" y="2334.94" style="font-family:'Helvetica';font-size:44.95px;fill:#606060" transform="rotate(-45 2166.56,2334.94)" text-anchor="end">]-0.1;-0.05]</text>
	<text x="2267.67" y="2334.94" style="font-family:'Helvetica';font-size:44.95px;fill:#606060" transform="rotate(-45 2267.67,2334.94)" text-anchor="end">]-0.05;0.05[</text>
	<text x="2368.79" y="2334.94" style="font-family:'Helvetica';font-size:44.95px;fill:#606060" transform="rotate(-45 2368.79,2334.94)" text-anchor="end">[0.05;0.1[</text>
	<text x="2469.77" y="2334.94" style="font-family:'Helvetica';font-size:44.95px;fill:#606060" transform="rotate(-45 2469.77,2334.94)" text-anchor="end">[0.1;0.2[</text>
	<text x="2570.88" y="2334.94" style="font-family:'Helvetica';font-size:44.95px;fill:#606060" transform="rotate(-45 2570.88,2334.94)" text-anchor="end">[0.2;0.5[</text>
	<text x="2672.00" y="2334.94" style="font-family:'Helvetica';font-size:44.95px;fill:#606060" transform="rotate(-45 2672.00,2334.94)" text-anchor="end">[0.5;1]</text>
	<text x="2256.53" y="193.90" style="font-family:'Helvetica';font-size:59.94px;fill:#000000" text-anchor="middle">Numeracy</text>
	<rect x="2858.90" y="63.32" width="1397.66" height="2537.77" style="fill:#FFFFFF"/>
	<rect x="2861.05" y="65.48" width="1393.34" height="2533.45" style="fill:none;stroke:#FFFFFF;stroke-width:4.32"/>
	<rect x="3127.55" y="224.91" width="1053.40" height="2068.91" style="fill:#E0E0E0"/>
	<rect x="3129.70" y="227.07" width="1049.09" height="2064.59" style="fill:none;stroke:#FFFFFF;stroke-width:4.32"/>
	<line x1="3127.55" y1="2293.82" x2="4180.95" y2="2293.82" style="stroke:#FFFFFF;stroke-width:4.32"/>
	<line x1="3127.55" y1="1841.56" x2="4180.95" y2="1841.56" style="stroke:#FFFFFF;stroke-width:4.32"/>
	<line x1="3127.55" y1="1389.17" x2="4180.95" y2="1389.17" style="stroke:#FFFFFF;stroke-width:4.32"/>
	<line x1="3127.55" y1="936.78" x2="4180.95" y2="936.78" style="stroke:#FFFFFF;stroke-width:4.32"/>
	<line x1="3127.55" y1="484.52" x2="4180.95" y2="484.52" style="stroke:#FFFFFF;stroke-width:4.32"/>
	<rect x="3208.68" y="2217.14" width="27.54" height="76.68" style="fill:#808080"/>
	<rect x="3210.84" y="2219.30" width="23.22" height="72.36" style="fill:none;stroke:#000000;stroke-width:4.32"/>
	<rect x="3236.22" y="2098.61" width="27.54" height="195.21" style="fill:#B0CEFF"/>
	<rect x="3238.38" y="2100.77" width="23.22" height="190.89" style="fill:none;stroke:#619CFF;stroke-width:4.32"/>
	<rect x="3263.76" y="2119.94" width="27.54" height="173.88" style="fill:#80E0D7"/>
	<rect x="3265.92" y="2122.10" width="23.22" height="169.56" style="fill:none;stroke:#00C0AF;stroke-width:4.32"/>
	<rect x="3309.66" y="1941.20" width="27.54" height="352.63" style="fill:#808080"/>
	<rect x="3311.82" y="1943.36" width="23.22" height="348.31" style="fill:none;stroke:#000000;stroke-width:4.32"/>
	<rect x="3337.20" y="1854.52" width="27.54" height="439.30" style="fill:#B0CEFF"/>
	<rect x="3339.36" y="1856.68" width="23.22" height="434.98" style="fill:none;stroke:#619CFF;stroke-width:4.32"/>
	<rect x="3364.74" y="1539.97" width="27.54" height="753.85" style="fill:#80E0D7"/>
	<rect x="3366.90" y="1542.13" width="23.22" height="749.53" style="fill:none;stroke:#00C0AF;stroke-width:4.32"/>
	<rect x="3410.78" y="1941.20" width="27.54" height="352.63" style="fill:#808080"/>
	<rect x="3412.93" y="1943.36" width="23.22" height="348.31" style="fill:none;stroke:#000000;stroke-width:4.32"/>
	<rect x="3438.32" y="1935.93" width="27.54" height="357.89" style="fill:#B0CEFF"/>
	<rect x="3440.47" y="1938.09" width="23.22" height="353.57" style="fill:none;stroke:#619CFF;stroke-width:4.32"/>
	<rect x="3465.86" y="1829.95" width="27.54" height="463.87" style="fill:#80E0D7"/>
	<rect x="3468.01" y="1832.11" width="23.22" height="459.55" style="fill:none;stroke:#00C0AF;stroke-width:4.32"/>
	<rect x="3511.89" y="2048.52" width="27.54" height="245.30" style="fill:#808080"/>
	<rect x="3514.05" y="2050.68" width="23.22" height="240.98" style="fill:none;stroke:#000000;stroke-width:4.32"/>
	<rect x="3539.43" y="2114.81" width="27.54" height="179.01" style="fill:#B0CEFF"/>
	<rect x="3541.59" y="2116.97" width="23.22" height="174.69" style="fill:none;stroke:#619CFF;stroke-width:4.32"/>
	<rect x="3566.97" y="2119.94" width="27.54" height="173.88" style="fill:#80E0D7"/>
	<rect x="3569.13" y="2122.10" width="23.22" height="169.56" style="fill:none;stroke:#00C0AF;stroke-width:4.32"/>
	<rect x="3613.01" y="300.51" width="27.54" height="1993.31" style="fill:#808080"/>
	<rect x="3615.16" y="302.67" width="23.22" height="1988.99" style="fill:none;stroke:#000000;stroke-width:4.32"/>
	<rect x="3640.55" y="666.78" width="27.54" height="1627.05" style="fill:#B0CEFF"/>
	<rect x="3642.70" y="668.94" width="23.22" height="1622.73" style="fill:none;stroke:#619CFF;stroke-width:4.32"/>
	<rect x="3668.09" y="960.00" width="27.54" height="1333.82" style="fill:#80E0D7"/>
	<rect x="3670.24" y="962.16" width="23.22" height="1329.50" style="fill:none;stroke:#00C0AF;stroke-width:4.32"/>
	<rect x="3713.99" y="1895.16" width="27.54" height="398.66" style="fill:#808080"/>
	<rect x="3716.14" y="1897.32" width="23.22" height="394.34" style="fill:none;stroke:#000000;stroke-width:4.32"/>
	<rect x="3741.53" y="1968.47" width="27.54" height="325.36" style="fill:#B0CEFF"/>
	<rect x="3743.68" y="1970.63" width="23.22" height="321.04" style="fill:none;stroke:#619CFF;stroke-width:4.32"/>
	<rect x="3769.07" y="2177.85" width="27.54" height="115.97" style="fill:#80E0D7"/>
	<rect x="3771.22" y="2180.01" width="23.22" height="111.65" style="fill:none;stroke:#00C0AF;stroke-width:4.32"/>
	<rect x="3815.10" y="1925.81" width="27.54" height="368.02" style="fill:#808080"/>
	<rect x="3817.26" y="1927.97" width="23.22" height="363.70" style="fill:none;stroke:#000000;stroke-width:4.32"/>
	<rect x="3842.64" y="1773.12" width="27.54" height="520.70" style="fill:#B0CEFF"/>
	<rect x="3844.80" y="1775.28" width="23.22" height="516.38" style="fill:none;stroke:#619CFF;stroke-width:4.32"/>
	<rect x="3870.18" y="1655.94" width="27.54" height="637.88" style="fill:#80E0D7"/>
	<rect x="3872.34" y="1658.10" width="23.22" height="633.57" style="fill:none;stroke:#00C0AF;stroke-width:4.32"/>
	<rect x="3916.22" y="1665.12" width="27.54" height="628.70" style="fill:#808080"/>
	<rect x="3918.37" y="1667.28" width="23.22" height="624.38" style="fill:none;stroke:#000000;stroke-width:4.32"/>
	<rect x="3943.76" y="1512.83" width="27.54" height="780.99" style="fill:#B0CEFF"/>
	<rect x="3945.91" y="1514.99" width="23.22" height="776.67" style="fill:none;stroke:#619CFF;stroke-width:4.32"/>
	<rect x="3971.30" y="1481.92" width="27.54" height="811.90" style="fill:#80E0D7"/>
	<rect x="3973.45" y="1484.08" width="23.22" height="807.58" style="fill:none;stroke:#00C0AF;stroke-width:4.32"/>
	<rect x="4017.20" y="2186.49" width="27.54" height="107.33" style="fill:#808080"/>
	<rect x="4019.35" y="2188.65" width="23.22" height="103.01" style="fill:none;stroke:#000000;stroke-width:4.32"/>
	<rect x="4044.74" y="2196.21" width="27.54" height="97.61" style="fill:#B0CEFF"/>
	<rect x="4046.89" y="2198.37" width="23.22" height="93.29" style="fill:none;stroke:#619CFF;stroke-width:4.32"/>
	<rect x="4072.28" y="2235.90" width="27.54" height="57.92" style="fill:#80E0D7"/>
	<rect x="4074.43" y="2238.06" width="23.22" height="53.60" style="fill:none;stroke:#00C0AF;stroke-width:4.32"/>
	<text x="3222.45" y="2175.69" style="font-family:'Helvetica';font-size:29.97px;fill:#606060" text-anchor="middle">1.7</text>
	<text x="3249.99" y="2057.16" style="font-family:'Helvetica';font-size:29.97px;fill:#606060" text-anchor="middle">4.3</text>
	<text x="3277.53" y="2078.35" style="font-family:'Helvetica';font-size:29.97px;fill:#606060" text-anchor="middle">3.8</text>
	<text x="3323.43" y="1899.74" style="font-family:'Helvetica';font-size:29.97px;fill:#606060" text-anchor="middle">7.8</text>
	<text x="3350.97" y="1813.07" style="font-family:'Helvetica';font-size:29.97px;fill:#606060" text-anchor="middle">9.7</text>
	<text x="3378.51" y="1498.52" style="font-family:'Helvetica';font-size:29.97px;fill:#606060" text-anchor="middle">16.7</text>
	<text x="3424.55" y="1899.74" style="font-family:'Helvetica';font-size:29.97px;fill:#606060" text-anchor="middle">7.8</text>
	<text x="3452.09" y="1894.34" style="font-family:'Helvetica';font-size:29.97px;fill:#606060" text-anchor="middle">7.9</text>
	<text x="3479.63" y="1788.37" style="font-family:'Helvetica';font-size:29.97px;fill:#606060" text-anchor="middle">10.3</text>
	<text x="3525.66" y="2007.07" style="font-family:'Helvetica';font-size:29.97px;fill:#606060" text-anchor="middle">5.4</text>
	<text x="3553.20" y="2073.36" style="font-family:'Helvetica';font-size:29.97px;fill:#606060" text-anchor="middle">4.0</text>
	<text x="3580.74" y="2078.35" style="font-family:'Helvetica';font-size:29.97px;fill:#606060" text-anchor="middle">3.8</text>
	<text x="3626.78" y="258.93" style="font-family:'Helvetica';font-size:29.97px;fill:#606060" text-anchor="middle">44.1</text>
	<text x="3654.32" y="625.19" style="font-family:'Helvetica';font-size:29.97px;fill:#606060" text-anchor="middle">36.0</text>
	<text x="3681.86" y="918.55" style="font-family:'Helvetica';font-size:29.97px;fill:#606060" text-anchor="middle">29.5</text>
	<text x="3727.76" y="1853.71" style="font-family:'Helvetica';font-size:29.97px;fill:#606060" text-anchor="middle">8.8</text>
	<text x="3755.30" y="1927.01" style="font-family:'Helvetica';font-size:29.97px;fill:#606060" text-anchor="middle">7.2</text>
	<text x="3782.84" y="2136.40" style="font-family:'Helvetica';font-size:29.97px;fill:#606060" text-anchor="middle">2.6</text>
	<text x="3828.87" y="1884.35" style="font-family:'Helvetica';font-size:29.97px;fill:#606060" text-anchor="middle">8.1</text>
	<text x="3856.41" y="1731.67" style="font-family:'Helvetica';font-size:29.97px;fill:#606060" text-anchor="middle">11.5</text>
	<text x="3883.95" y="1614.48" style="font-family:'Helvetica';font-size:29.97px;fill:#606060" text-anchor="middle">14.1</text>
	<text x="3929.99" y="1623.66" style="font-family:'Helvetica';font-size:29.97px;fill:#606060" text-anchor="middle">13.9</text>
	<text x="3957.53" y="1471.38" style="font-family:'Helvetica';font-size:29.97px;fill:#606060" text-anchor="middle">17.3</text>
	<text x="3985.07" y="1440.47" style="font-family:'Helvetica';font-size:29.97px;fill:#606060" text-anchor="middle">17.9</text>
	<text x="4030.97" y="2145.04" style="font-family:'Helvetica';font-size:29.97px;fill:#606060" text-anchor="middle">2.4</text>
	<text x="4058.51" y="2154.76" style="font-family:'Helvetica';font-size:29.97px;fill:#606060" text-anchor="middle">2.2</text>
	<text x="4086.05" y="2194.32" style="font-family:'Helvetica';font-size:29.97px;fill:#606060" text-anchor="middle">1.3</text>
	<line x1="3127.55" y1="2293.82" x2="3097.57" y2="2293.82" style="stroke:#606060;stroke-width:4.32"/>
	<text x="3082.59" y="2309.59" style="font-family:'Helvetica';font-size:44.95px;fill:#606060" text-anchor="end">0</text>
	<line x1="3127.55" y1="1841.56" x2="3097.57" y2="1841.56" style="stroke:#606060;stroke-width:4.32"/>
	<text x="3082.59" y="1857.33" style="font-family:'Helvetica';font-size:44.95px;fill:#606060" text-anchor="end">10</text>
	<line x1="3127.55" y1="1389.17" x2="3097.57" y2="1389.17" style="stroke:#606060;stroke-width:4.32"/>
	<text x="3082.59" y="1404.94" style="font-family:'Helvetica';font-size:44.95px;fill:#606060" text-anchor="end">20</text>
	<line x1="3127.55" y1="936.78" x2="3097.57" y2="936.78" style="stroke:#606060;stroke-width:4.32"/>
	<text x="3082.59" y="952.55" style="font-family:'Helvetica';font-size:44.95px;fill:#606060" text-anchor="end">30</text>
	<line x1="3127.55" y1="484.52" x2="3097.57" y2="484.52" style="stroke:#606060;stroke-width:4.32"/>
	<text x="3082.59" y="500.29" style="font-family:'Helvetica';font-size:44.95px;fill:#606060" text-anchor="end">40</text>
	<line x1="3127.55" y1="2293.82" x2="3127.55" y2="484.52" style="stroke:#000000;stroke-width:4.32"/>
	<text x="2991.37" y="1259.30" style="font-family:'Helvetica';font-size:59.94px;fill:#000000" transform="rotate(-90 2991.37,1259.30)" text-anchor="middle">Percent</text>
	<text x="3261.14" y="2334.94" style="font-family:'Helvetica';font-size:44.95px;fill:#606060" transform="rotate(-45 3261.14,2334.94)" text-anchor="end">[-1;-0.5]</text>
	<text x="3362.12" y="2334.94" style="font-family:'Helvetica';font-size:44.95px;fill:#606060" transform="rotate(-45 3362.12,2334.94)" text-anchor="end">]-0.5;-0.2]</text>
	<text x="3463.23" y="2334.94" style="font-family:'Helvetica';font-size:44.95px;fill:#606060" transform="rotate(-45 3463.23,2334.94)" text-anchor="end">]-0.2;-0.1]</text>
	<text x="3564.35" y="2334.94" style="font-family:'Helvetica';font-size:44.95px;fill:#606060" transform="rotate(-45 3564.35,2334.94)" text-anchor="end">]-0.1;-0.05]</text>
	<text x="3665.46" y="2334.94" style="font-family:'Helvetica';font-size:44.95px;fill:#606060" transform="rotate(-45 3665.46,2334.94)" text-anchor="end">]-0.05;0.05[</text>
	<text x="3766.44" y="2334.94" style="font-family:'Helvetica';font-size:44.95px;fill:#606060" transform="rotate(-45 3766.44,2334.94)" text-anchor="end">[0.05;0.1[</text>
	<text x="3867.56" y="2334.94" style="font-family:'Helvetica';font-size:44.95px;fill:#606060" transform="rotate(-45 3867.56,2334.94)" text-anchor="end">[0.1;0.2[</text>
	<text x="3968.67" y="2334.94" style="font-family:'Helvetica';font-size:44.95px;fill:#606060" transform="rotate(-45 3968.67,2334.94)" text-anchor="end">[0.2;0.5[</text>
	<text x="4069.65" y="2334.94" style="font-family:'Helvetica';font-size:44.95px;fill:#606060" transform="rotate(-45 4069.65,2334.94)" text-anchor="end">[0.5;1]</text>
	<text x="3654.32" y="193.90" style="font-family:'Helvetica';font-size:59.94px;fill:#000000" text-anchor="middle">Literacy</text>
	<rect x="1477.98" y="2635.65" width="1364.04" height="146.48" style="fill:#FFFFFF"/>
	<rect x="1480.86" y="2638.53" width="1358.28" height="140.72" style="fill:none;stroke:#FFFFFF;stroke-width:5.76"/>
	<rect x="1521.18" y="2678.85" width="143.91" height="60.08" style="fill:#808080"/>
	<rect x="1524.06" y="2681.73" width="138.15" height="54.32" style="fill:none;stroke:#000000;stroke-width:5.76"/>
	<rect x="1959.12" y="2678.85" width="143.91" height="60.08" style="fill:#B0CEFF"/>
	<rect x="1962.00" y="2681.73" width="138.15" height="54.32" style="fill:none;stroke:#619CFF;stroke-width:5.76"/>
	<rect x="2423.25" y="2678.85" width="144.05" height="60.08" style="fill:#80E0D7"/>
	<rect x="2426.13" y="2681.73" width="138.29" height="54.32" style="fill:none;stroke:#00C0AF;stroke-width:5.76"/>
	<text x="1725.17" y="2729.83" style="font-family:'Helvetica';font-size:59.94px;fill:#000000">Dalits</text>
	<text x="2163.11" y="2729.83" style="font-family:'Helvetica';font-size:59.94px;fill:#000000">Middle</text>
	<text x="2627.37" y="2729.83" style="font-family:'Helvetica';font-size:59.94px;fill:#000000">Upper</text>
</svg>
