<?xml version="1.0" encoding="UTF-8" standalone="no"?>
<!-- This is a Stata 15.1 generated SVG file (http://www.stata.com) -->

<svg version="1.1" width="6.00in" height="4.00in" viewBox="0 0 4320 2880" xmlns="http://www.w3.org/2000/svg" xmlns:xlink="http://www.w3.org/1999/xlink">
	<desc>Stata Graph - combage</desc>
	<rect x="0" y="0" width="4320" height="2880" style="fill:#FFFFFF;stroke:none"/>
	<rect x="0.00" y="0.00" width="4320.00" height="2880.00" style="fill:#FFFFFF"/>
	<rect x="2.88" y="2.88" width="4314.24" height="2874.24" style="fill:none;stroke:#FFFFFF;stroke-width:5.76"/>
	<rect x="63.31" y="63.32" width="2096.68" height="821.08" style="fill:#FFFFFF"/>
	<rect x="65.23" y="65.24" width="2092.85" height="817.24" style="fill:none;stroke:#FFFFFF;stroke-width:3.84"/>
	<rect x="302.26" y="206.96" width="1790.51" height="404.33" style="fill:#E0E0E0"/>
	<rect x="304.18" y="208.88" width="1786.67" height="400.49" style="fill:none;stroke:#FFFFFF;stroke-width:3.84"/>
	<line x1="302.26" y1="611.29" x2="2092.77" y2="611.29" style="stroke:#FFFFFF;stroke-width:3.84"/>
	<line x1="302.26" y1="543.92" x2="2092.77" y2="543.92" style="stroke:#FFFFFF;stroke-width:3.84"/>
	<line x1="302.26" y1="476.42" x2="2092.77" y2="476.42" style="stroke:#FFFFFF;stroke-width:3.84"/>
	<line x1="302.26" y1="409.06" x2="2092.77" y2="409.06" style="stroke:#FFFFFF;stroke-width:3.84"/>
	<line x1="302.26" y1="341.56" x2="2092.77" y2="341.56" style="stroke:#FFFFFF;stroke-width:3.84"/>
	<line x1="302.26" y1="274.05" x2="2092.77" y2="274.05" style="stroke:#FFFFFF;stroke-width:3.84"/>
	<rect x="453.06" y="609.26" width="69.66" height="2.03" style="fill:#B0CEFF"/>
	<rect x="454.98" y="611.18" width="65.82" height="-1.81" style="fill:none;stroke:#619CFF;stroke-width:3.84"/>
	<rect x="569.43" y="340.07" width="69.66" height="271.22" style="fill:#808080"/>
	<rect x="571.35" y="341.99" width="65.82" height="267.38" style="fill:none;stroke:#000000;stroke-width:3.84"/>
	<rect x="639.09" y="512.33" width="69.79" height="98.96" style="fill:#B0CEFF"/>
	<rect x="641.01" y="514.25" width="65.96" height="95.12" style="fill:none;stroke:#619CFF;stroke-width:3.84"/>
	<rect x="755.60" y="340.07" width="69.66" height="271.22" style="fill:#808080"/>
	<rect x="757.51" y="341.99" width="65.82" height="267.38" style="fill:none;stroke:#000000;stroke-width:3.84"/>
	<rect x="825.26" y="429.85" width="69.66" height="181.44" style="fill:#B0CEFF"/>
	<rect x="827.17" y="431.77" width="65.82" height="177.60" style="fill:none;stroke:#619CFF;stroke-width:3.84"/>
	<rect x="941.63" y="422.96" width="69.79" height="188.33" style="fill:#808080"/>
	<rect x="943.54" y="424.88" width="65.96" height="184.49" style="fill:none;stroke:#000000;stroke-width:3.84"/>
	<rect x="1011.42" y="464.81" width="69.66" height="146.48" style="fill:#B0CEFF"/>
	<rect x="1013.34" y="466.73" width="65.82" height="142.64" style="fill:none;stroke:#619CFF;stroke-width:3.84"/>
	<rect x="1127.79" y="294.84" width="69.66" height="316.44" style="fill:#808080"/>
	<rect x="1129.71" y="296.76" width="65.82" height="312.61" style="fill:none;stroke:#000000;stroke-width:3.84"/>
	<rect x="1197.45" y="297.81" width="69.79" height="313.47" style="fill:#B0CEFF"/>
	<rect x="1199.37" y="299.73" width="65.96" height="309.63" style="fill:none;stroke:#619CFF;stroke-width:3.84"/>
	<rect x="1313.95" y="558.50" width="69.66" height="52.79" style="fill:#808080"/>
	<rect x="1315.87" y="560.42" width="65.82" height="48.95" style="fill:none;stroke:#000000;stroke-width:3.84"/>
	<rect x="1383.62" y="466.97" width="69.66" height="144.32" style="fill:#B0CEFF"/>
	<rect x="1385.53" y="468.89" width="65.82" height="140.48" style="fill:none;stroke:#619CFF;stroke-width:3.84"/>
	<rect x="1499.98" y="445.51" width="69.66" height="165.78" style="fill:#808080"/>
	<rect x="1501.90" y="447.43" width="65.82" height="161.94" style="fill:none;stroke:#000000;stroke-width:3.84"/>
	<rect x="1569.65" y="376.25" width="69.80" height="235.04" style="fill:#B0CEFF"/>
	<rect x="1571.56" y="378.17" width="65.96" height="231.20" style="fill:none;stroke:#619CFF;stroke-width:3.84"/>
	<rect x="1686.15" y="528.40" width="69.66" height="82.89" style="fill:#808080"/>
	<rect x="1688.07" y="530.32" width="65.82" height="79.05" style="fill:none;stroke:#000000;stroke-width:3.84"/>
	<rect x="1755.81" y="400.96" width="69.66" height="210.33" style="fill:#B0CEFF"/>
	<rect x="1757.73" y="402.88" width="65.82" height="206.49" style="fill:none;stroke:#619CFF;stroke-width:3.84"/>
	<rect x="1941.97" y="594.82" width="69.66" height="16.47" style="fill:#B0CEFF"/>
	<rect x="1943.89" y="596.74" width="65.82" height="12.63" style="fill:none;stroke:#619CFF;stroke-width:3.84"/>
	<text x="487.89" y="598.94" style="font-family:'Helvetica';font-size:26.73px;fill:#606060" text-anchor="middle">0.2</text>
	<text x="604.26" y="329.75" style="font-family:'Helvetica';font-size:26.73px;fill:#606060" text-anchor="middle">20.1</text>
	<text x="674.05" y="502.01" style="font-family:'Helvetica';font-size:26.73px;fill:#606060" text-anchor="middle">7.3</text>
	<text x="790.42" y="329.75" style="font-family:'Helvetica';font-size:26.73px;fill:#606060" text-anchor="middle">20.1</text>
	<text x="860.09" y="419.53" style="font-family:'Helvetica';font-size:26.73px;fill:#606060" text-anchor="middle">13.5</text>
	<text x="976.59" y="412.64" style="font-family:'Helvetica';font-size:26.73px;fill:#606060" text-anchor="middle">14.0</text>
	<text x="1046.25" y="454.63" style="font-family:'Helvetica';font-size:26.73px;fill:#606060" text-anchor="middle">10.9</text>
	<text x="1162.62" y="284.66" style="font-family:'Helvetica';font-size:26.73px;fill:#606060" text-anchor="middle">23.5</text>
	<text x="1232.28" y="287.63" style="font-family:'Helvetica';font-size:26.73px;fill:#606060" text-anchor="middle">23.2</text>
	<text x="1348.79" y="548.32" style="font-family:'Helvetica';font-size:26.73px;fill:#606060" text-anchor="middle">3.9</text>
	<text x="1418.44" y="456.65" style="font-family:'Helvetica';font-size:26.73px;fill:#606060" text-anchor="middle">10.7</text>
	<text x="1534.82" y="435.32" style="font-family:'Helvetica';font-size:26.73px;fill:#606060" text-anchor="middle">12.3</text>
	<text x="1604.61" y="365.93" style="font-family:'Helvetica';font-size:26.73px;fill:#606060" text-anchor="middle">17.4</text>
	<text x="1720.98" y="518.21" style="font-family:'Helvetica';font-size:26.73px;fill:#606060" text-anchor="middle">6.1</text>
	<text x="1790.64" y="390.77" style="font-family:'Helvetica';font-size:26.73px;fill:#606060" text-anchor="middle">15.6</text>
	<text x="1976.81" y="584.50" style="font-family:'Helvetica';font-size:26.73px;fill:#606060" text-anchor="middle">1.2</text>
	<line x1="302.26" y1="611.29" x2="275.54" y2="611.29" style="stroke:#606060;stroke-width:3.84"/>
	<text x="262.17" y="625.31" style="font-family:'Helvetica';font-size:39.96px;fill:#606060" text-anchor="end">0</text>
	<line x1="302.26" y1="543.92" x2="275.54" y2="543.92" style="stroke:#606060;stroke-width:3.84"/>
	<text x="262.17" y="557.94" style="font-family:'Helvetica';font-size:39.96px;fill:#606060" text-anchor="end">5</text>
	<line x1="302.26" y1="476.42" x2="275.54" y2="476.42" style="stroke:#606060;stroke-width:3.84"/>
	<text x="262.17" y="490.44" style="font-family:'Helvetica';font-size:39.96px;fill:#606060" text-anchor="end">10</text>
	<line x1="302.26" y1="409.06" x2="275.54" y2="409.06" style="stroke:#606060;stroke-width:3.84"/>
	<text x="262.17" y="423.08" style="font-family:'Helvetica';font-size:39.96px;fill:#606060" text-anchor="end">15</text>
	<line x1="302.26" y1="341.56" x2="275.54" y2="341.56" style="stroke:#606060;stroke-width:3.84"/>
	<text x="262.17" y="355.58" style="font-family:'Helvetica';font-size:39.96px;fill:#606060" text-anchor="end">20</text>
	<line x1="302.26" y1="274.05" x2="275.54" y2="274.05" style="stroke:#606060;stroke-width:3.84"/>
	<text x="262.17" y="288.07" style="font-family:'Helvetica';font-size:39.96px;fill:#606060" text-anchor="end">25</text>
	<line x1="302.26" y1="611.29" x2="302.26" y2="274.05" style="stroke:#000000;stroke-width:3.84"/>
	<text x="181.17" y="409.06" style="font-family:'Helvetica';font-size:53.33px;fill:#000000" transform="rotate(-90 181.17,409.06)" text-anchor="middle">Percent</text>
	<text x="462.97" y="647.93" style="font-family:'Helvetica';font-size:39.96px;fill:#606060" transform="rotate(-45 462.97,647.93)" text-anchor="end">[-1;-0.5]</text>
	<text x="649.00" y="647.93" style="font-family:'Helvetica';font-size:39.96px;fill:#606060" transform="rotate(-45 649.00,647.93)" text-anchor="end">]-0.5;-0.2]</text>
	<text x="835.17" y="647.93" style="font-family:'Helvetica';font-size:39.96px;fill:#606060" transform="rotate(-45 835.17,647.93)" text-anchor="end">]-0.2;-0.1]</text>
	<text x="1021.33" y="647.93" style="font-family:'Helvetica';font-size:39.96px;fill:#606060" transform="rotate(-45 1021.33,647.93)" text-anchor="end">]-0.1;-0.05]</text>
	<text x="1207.36" y="647.93" style="font-family:'Helvetica';font-size:39.96px;fill:#606060" transform="rotate(-45 1207.36,647.93)" text-anchor="end">]-0.05;0.05[</text>
	<text x="1393.53" y="647.93" style="font-family:'Helvetica';font-size:39.96px;fill:#606060" transform="rotate(-45 1393.53,647.93)" text-anchor="end">[0.05;0.1[</text>
	<text x="1579.56" y="647.93" style="font-family:'Helvetica';font-size:39.96px;fill:#606060" transform="rotate(-45 1579.56,647.93)" text-anchor="end">[0.1;0.2[</text>
	<text x="1765.72" y="647.93" style="font-family:'Helvetica';font-size:39.96px;fill:#606060" transform="rotate(-45 1765.72,647.93)" text-anchor="end">[0.2;0.5[</text>
	<text x="1951.89" y="647.93" style="font-family:'Helvetica';font-size:39.96px;fill:#606060" transform="rotate(-45 1951.89,647.93)" text-anchor="end">[0.5;1]</text>
	<text x="1197.45" y="179.28" style="font-family:'Helvetica';font-size:53.33px;fill:#000000" text-anchor="middle">OP</text>
	<rect x="2160.00" y="63.32" width="2096.55" height="821.08" style="fill:#FFFFFF"/>
	<rect x="2161.92" y="65.24" width="2092.71" height="817.24" style="fill:none;stroke:#FFFFFF;stroke-width:3.84"/>
	<rect x="2398.82" y="206.96" width="1790.50" height="404.33" style="fill:#E0E0E0"/>
	<rect x="2400.73" y="208.88" width="1786.67" height="400.49" style="fill:none;stroke:#FFFFFF;stroke-width:3.84"/>
	<line x1="2398.82" y1="611.29" x2="4189.32" y2="611.29" style="stroke:#FFFFFF;stroke-width:3.84"/>
	<line x1="2398.82" y1="527.05" x2="4189.32" y2="527.05" style="stroke:#FFFFFF;stroke-width:3.84"/>
	<line x1="2398.82" y1="442.67" x2="4189.32" y2="442.67" style="stroke:#FFFFFF;stroke-width:3.84"/>
	<line x1="2398.82" y1="358.43" x2="4189.32" y2="358.43" style="stroke:#FFFFFF;stroke-width:3.84"/>
	<line x1="2398.82" y1="274.05" x2="4189.32" y2="274.05" style="stroke:#FFFFFF;stroke-width:3.84"/>
	<rect x="2479.95" y="578.35" width="69.66" height="32.94" style="fill:#808080"/>
	<rect x="2481.87" y="580.27" width="65.82" height="29.10" style="fill:none;stroke:#000000;stroke-width:3.84"/>
	<rect x="2549.61" y="584.29" width="69.80" height="27.00" style="fill:#B0CEFF"/>
	<rect x="2551.53" y="586.21" width="65.96" height="23.16" style="fill:none;stroke:#619CFF;stroke-width:3.84"/>
	<rect x="2666.11" y="314.55" width="69.66" height="296.73" style="fill:#808080"/>
	<rect x="2668.03" y="316.47" width="65.82" height="292.89" style="fill:none;stroke:#000000;stroke-width:3.84"/>
	<rect x="2735.78" y="291.60" width="69.66" height="319.68" style="fill:#B0CEFF"/>
	<rect x="2737.69" y="293.52" width="65.82" height="315.85" style="fill:none;stroke:#619CFF;stroke-width:3.84"/>
	<rect x="2852.15" y="441.73" width="69.80" height="169.56" style="fill:#808080"/>
	<rect x="2854.06" y="443.65" width="65.96" height="165.72" style="fill:none;stroke:#000000;stroke-width:3.84"/>
	<rect x="2921.94" y="470.75" width="69.66" height="140.54" style="fill:#B0CEFF"/>
	<rect x="2923.86" y="472.67" width="65.82" height="136.70" style="fill:none;stroke:#619CFF;stroke-width:3.84"/>
	<rect x="3038.31" y="550.13" width="69.66" height="61.16" style="fill:#808080"/>
	<rect x="3040.23" y="552.05" width="65.82" height="57.32" style="fill:none;stroke:#000000;stroke-width:3.84"/>
	<rect x="3107.97" y="537.85" width="69.66" height="73.44" style="fill:#B0CEFF"/>
	<rect x="3109.89" y="539.77" width="65.82" height="69.60" style="fill:none;stroke:#619CFF;stroke-width:3.84"/>
	<rect x="3224.34" y="512.47" width="69.80" height="98.82" style="fill:#808080"/>
	<rect x="3226.26" y="514.39" width="65.96" height="94.98" style="fill:none;stroke:#000000;stroke-width:3.84"/>
	<rect x="3294.14" y="493.97" width="69.66" height="117.32" style="fill:#B0CEFF"/>
	<rect x="3296.05" y="495.89" width="65.82" height="113.48" style="fill:none;stroke:#619CFF;stroke-width:3.84"/>
	<rect x="3410.51" y="554.72" width="69.66" height="56.57" style="fill:#808080"/>
	<rect x="3412.42" y="556.64" width="65.82" height="52.73" style="fill:none;stroke:#000000;stroke-width:3.84"/>
	<rect x="3480.17" y="558.50" width="69.80" height="52.79" style="fill:#B0CEFF"/>
	<rect x="3482.08" y="560.42" width="65.96" height="48.95" style="fill:none;stroke:#619CFF;stroke-width:3.84"/>
	<rect x="3596.67" y="554.72" width="69.66" height="56.57" style="fill:#808080"/>
	<rect x="3598.59" y="556.64" width="65.82" height="52.73" style="fill:none;stroke:#000000;stroke-width:3.84"/>
	<rect x="3666.33" y="541.76" width="69.66" height="69.53" style="fill:#B0CEFF"/>
	<rect x="3668.25" y="543.68" width="65.82" height="65.69" style="fill:none;stroke:#619CFF;stroke-width:3.84"/>
	<rect x="3782.70" y="540.68" width="69.66" height="70.61" style="fill:#808080"/>
	<rect x="3784.62" y="542.60" width="65.82" height="66.77" style="fill:none;stroke:#000000;stroke-width:3.84"/>
	<rect x="3852.36" y="570.11" width="69.80" height="41.18" style="fill:#B0CEFF"/>
	<rect x="3854.28" y="572.03" width="65.96" height="37.34" style="fill:none;stroke:#619CFF;stroke-width:3.84"/>
	<rect x="4038.53" y="610.07" width="69.66" height="1.22" style="fill:#B0CEFF"/>
	<rect x="4040.44" y="611.99" width="65.82" height="-2.62" style="fill:none;stroke:#619CFF;stroke-width:3.84"/>
	<text x="2514.78" y="568.16" style="font-family:'Helvetica';font-size:26.73px;fill:#606060" text-anchor="middle">3.9</text>
	<text x="2584.44" y="573.97" style="font-family:'Helvetica';font-size:26.73px;fill:#606060" text-anchor="middle">3.2</text>
	<text x="2700.95" y="304.37" style="font-family:'Helvetica';font-size:26.73px;fill:#606060" text-anchor="middle">35.2</text>
	<text x="2770.61" y="281.42" style="font-family:'Helvetica';font-size:26.73px;fill:#606060" text-anchor="middle">37.9</text>
	<text x="2886.97" y="431.54" style="font-family:'Helvetica';font-size:26.73px;fill:#606060" text-anchor="middle">20.1</text>
	<text x="2956.77" y="460.57" style="font-family:'Helvetica';font-size:26.73px;fill:#606060" text-anchor="middle">16.7</text>
	<text x="3073.14" y="539.81" style="font-family:'Helvetica';font-size:26.73px;fill:#606060" text-anchor="middle">7.3</text>
	<text x="3142.80" y="527.53" style="font-family:'Helvetica';font-size:26.73px;fill:#606060" text-anchor="middle">8.7</text>
	<text x="3259.30" y="502.15" style="font-family:'Helvetica';font-size:26.73px;fill:#606060" text-anchor="middle">11.7</text>
	<text x="3328.97" y="483.79" style="font-family:'Helvetica';font-size:26.73px;fill:#606060" text-anchor="middle">13.9</text>
	<text x="3445.34" y="544.54" style="font-family:'Helvetica';font-size:26.73px;fill:#606060" text-anchor="middle">6.7</text>
	<text x="3514.99" y="548.18" style="font-family:'Helvetica';font-size:26.73px;fill:#606060" text-anchor="middle">6.3</text>
	<text x="3631.50" y="544.54" style="font-family:'Helvetica';font-size:26.73px;fill:#606060" text-anchor="middle">6.7</text>
	<text x="3701.16" y="531.44" style="font-family:'Helvetica';font-size:26.73px;fill:#606060" text-anchor="middle">8.3</text>
	<text x="3817.53" y="530.36" style="font-family:'Helvetica';font-size:26.73px;fill:#606060" text-anchor="middle">8.4</text>
	<text x="3887.32" y="559.79" style="font-family:'Helvetica';font-size:26.73px;fill:#606060" text-anchor="middle">4.9</text>
	<text x="4073.36" y="599.75" style="font-family:'Helvetica';font-size:26.73px;fill:#606060" text-anchor="middle">0.2</text>
	<line x1="2398.82" y1="611.29" x2="2372.09" y2="611.29" style="stroke:#606060;stroke-width:3.84"/>
	<text x="2358.86" y="625.31" style="font-family:'Helvetica';font-size:39.96px;fill:#606060" text-anchor="end">0</text>
	<line x1="2398.82" y1="527.05" x2="2372.09" y2="527.05" style="stroke:#606060;stroke-width:3.84"/>
	<text x="2358.86" y="541.07" style="font-family:'Helvetica';font-size:39.96px;fill:#606060" text-anchor="end">10</text>
	<line x1="2398.82" y1="442.67" x2="2372.09" y2="442.67" style="stroke:#606060;stroke-width:3.84"/>
	<text x="2358.86" y="456.69" style="font-family:'Helvetica';font-size:39.96px;fill:#606060" text-anchor="end">20</text>
	<line x1="2398.82" y1="358.43" x2="2372.09" y2="358.43" style="stroke:#606060;stroke-width:3.84"/>
	<text x="2358.86" y="372.45" style="font-family:'Helvetica';font-size:39.96px;fill:#606060" text-anchor="end">30</text>
	<line x1="2398.82" y1="274.05" x2="2372.09" y2="274.05" style="stroke:#606060;stroke-width:3.84"/>
	<text x="2358.86" y="288.07" style="font-family:'Helvetica';font-size:39.96px;fill:#606060" text-anchor="end">40</text>
	<line x1="2398.82" y1="611.29" x2="2398.82" y2="274.05" style="stroke:#000000;stroke-width:3.84"/>
	<text x="2277.72" y="409.06" style="font-family:'Helvetica';font-size:53.33px;fill:#000000" transform="rotate(-90 2277.72,409.06)" text-anchor="middle">Percent</text>
	<text x="2559.52" y="647.93" style="font-family:'Helvetica';font-size:39.96px;fill:#606060" transform="rotate(-45 2559.52,647.93)" text-anchor="end">[-1;-0.5]</text>
	<text x="2745.69" y="647.93" style="font-family:'Helvetica';font-size:39.96px;fill:#606060" transform="rotate(-45 2745.69,647.93)" text-anchor="end">]-0.5;-0.2]</text>
	<text x="2931.85" y="647.93" style="font-family:'Helvetica';font-size:39.96px;fill:#606060" transform="rotate(-45 2931.85,647.93)" text-anchor="end">]-0.2;-0.1]</text>
	<text x="3117.88" y="647.93" style="font-family:'Helvetica';font-size:39.96px;fill:#606060" transform="rotate(-45 3117.88,647.93)" text-anchor="end">]-0.1;-0.05]</text>
	<text x="3304.05" y="647.93" style="font-family:'Helvetica';font-size:39.96px;fill:#606060" transform="rotate(-45 3304.05,647.93)" text-anchor="end">]-0.05;0.05[</text>
	<text x="3490.08" y="647.93" style="font-family:'Helvetica';font-size:39.96px;fill:#606060" transform="rotate(-45 3490.08,647.93)" text-anchor="end">[0.05;0.1[</text>
	<text x="3676.24" y="647.93" style="font-family:'Helvetica';font-size:39.96px;fill:#606060" transform="rotate(-45 3676.24,647.93)" text-anchor="end">[0.1;0.2[</text>
	<text x="3862.27" y="647.93" style="font-family:'Helvetica';font-size:39.96px;fill:#606060" transform="rotate(-45 3862.27,647.93)" text-anchor="end">[0.2;0.5[</text>
	<text x="4048.44" y="647.93" style="font-family:'Helvetica';font-size:39.96px;fill:#606060" transform="rotate(-45 4048.44,647.93)" text-anchor="end">[0.5;1]</text>
	<text x="3294.14" y="179.28" style="font-family:'Helvetica';font-size:53.33px;fill:#000000" text-anchor="middle">CO</text>
	<rect x="63.31" y="884.40" width="2096.68" height="821.08" style="fill:#FFFFFF"/>
	<rect x="65.23" y="886.32" width="2092.85" height="817.24" style="fill:none;stroke:#FFFFFF;stroke-width:3.84"/>
	<rect x="302.26" y="1028.04" width="1790.51" height="404.33" style="fill:#E0E0E0"/>
	<rect x="304.18" y="1029.96" width="1786.67" height="400.49" style="fill:none;stroke:#FFFFFF;stroke-width:3.84"/>
	<line x1="302.26" y1="1432.37" x2="2092.77" y2="1432.37" style="stroke:#FFFFFF;stroke-width:3.84"/>
	<line x1="302.26" y1="1319.92" x2="2092.77" y2="1319.92" style="stroke:#FFFFFF;stroke-width:3.84"/>
	<line x1="302.26" y1="1207.59" x2="2092.77" y2="1207.59" style="stroke:#FFFFFF;stroke-width:3.84"/>
	<line x1="302.26" y1="1095.14" x2="2092.77" y2="1095.14" style="stroke:#FFFFFF;stroke-width:3.84"/>
	<rect x="383.40" y="1413.47" width="69.66" height="18.90" style="fill:#808080"/>
	<rect x="385.32" y="1415.39" width="65.82" height="15.06" style="fill:none;stroke:#000000;stroke-width:3.84"/>
	<rect x="453.06" y="1428.86" width="69.66" height="3.51" style="fill:#B0CEFF"/>
	<rect x="454.98" y="1430.78" width="65.82" height="-0.33" style="fill:none;stroke:#619CFF;stroke-width:3.84"/>
	<rect x="569.43" y="1212.59" width="69.66" height="219.78" style="fill:#808080"/>
	<rect x="571.35" y="1214.51" width="65.82" height="215.94" style="fill:none;stroke:#000000;stroke-width:3.84"/>
	<rect x="639.09" y="1188.29" width="69.79" height="244.08" style="fill:#B0CEFF"/>
	<rect x="641.01" y="1190.21" width="65.96" height="240.24" style="fill:none;stroke:#619CFF;stroke-width:3.84"/>
	<rect x="755.60" y="1118.36" width="69.66" height="314.01" style="fill:#808080"/>
	<rect x="757.51" y="1120.28" width="65.82" height="310.17" style="fill:none;stroke:#000000;stroke-width:3.84"/>
	<rect x="825.26" y="1154.00" width="69.66" height="278.37" style="fill:#B0CEFF"/>
	<rect x="827.17" y="1155.92" width="65.82" height="274.53" style="fill:none;stroke:#619CFF;stroke-width:3.84"/>
	<rect x="941.63" y="1275.36" width="69.79" height="157.01" style="fill:#808080"/>
	<rect x="943.54" y="1277.28" width="65.96" height="153.17" style="fill:none;stroke:#000000;stroke-width:3.84"/>
	<rect x="1011.42" y="1277.66" width="69.66" height="154.71" style="fill:#B0CEFF"/>
	<rect x="1013.34" y="1279.58" width="65.82" height="150.87" style="fill:none;stroke:#619CFF;stroke-width:3.84"/>
	<rect x="1127.79" y="1231.49" width="69.66" height="200.88" style="fill:#808080"/>
	<rect x="1129.71" y="1233.41" width="65.82" height="197.04" style="fill:none;stroke:#000000;stroke-width:3.84"/>
	<rect x="1197.45" y="1231.35" width="69.79" height="201.02" style="fill:#B0CEFF"/>
	<rect x="1199.37" y="1233.27" width="65.96" height="197.18" style="fill:none;stroke:#619CFF;stroke-width:3.84"/>
	<rect x="1313.95" y="1375.81" width="69.66" height="56.57" style="fill:#808080"/>
	<rect x="1315.87" y="1377.73" width="65.82" height="52.73" style="fill:none;stroke:#000000;stroke-width:3.84"/>
	<rect x="1383.62" y="1341.25" width="69.66" height="91.13" style="fill:#B0CEFF"/>
	<rect x="1385.53" y="1343.17" width="65.82" height="87.29" style="fill:none;stroke:#619CFF;stroke-width:3.84"/>
	<rect x="1499.98" y="1338.14" width="69.66" height="94.23" style="fill:#808080"/>
	<rect x="1501.90" y="1340.06" width="65.82" height="90.39" style="fill:none;stroke:#000000;stroke-width:3.84"/>
	<rect x="1569.65" y="1322.35" width="69.80" height="110.03" style="fill:#B0CEFF"/>
	<rect x="1571.56" y="1324.27" width="65.96" height="106.19" style="fill:none;stroke:#619CFF;stroke-width:3.84"/>
	<rect x="1686.15" y="1369.60" width="69.66" height="62.78" style="fill:#808080"/>
	<rect x="1688.07" y="1371.52" width="65.82" height="58.94" style="fill:none;stroke:#000000;stroke-width:3.84"/>
	<rect x="1755.81" y="1392.82" width="69.66" height="39.56" style="fill:#B0CEFF"/>
	<rect x="1757.73" y="1394.74" width="65.82" height="35.72" style="fill:none;stroke:#619CFF;stroke-width:3.84"/>
	<rect x="1941.97" y="1430.62" width="69.66" height="1.76" style="fill:#B0CEFF"/>
	<rect x="1943.89" y="1432.54" width="65.82" height="-2.08" style="fill:none;stroke:#619CFF;stroke-width:3.84"/>
	<text x="418.23" y="1403.29" style="font-family:'Helvetica';font-size:26.73px;fill:#606060" text-anchor="middle">1.7</text>
	<text x="487.89" y="1418.68" style="font-family:'Helvetica';font-size:26.73px;fill:#606060" text-anchor="middle">0.3</text>
	<text x="604.26" y="1202.40" style="font-family:'Helvetica';font-size:26.73px;fill:#606060" text-anchor="middle">19.6</text>
	<text x="674.05" y="1178.10" style="font-family:'Helvetica';font-size:26.73px;fill:#606060" text-anchor="middle">21.7</text>
	<text x="790.42" y="1108.17" style="font-family:'Helvetica';font-size:26.73px;fill:#606060" text-anchor="middle">27.9</text>
	<text x="860.09" y="1143.68" style="font-family:'Helvetica';font-size:26.73px;fill:#606060" text-anchor="middle">24.8</text>
	<text x="976.59" y="1265.18" style="font-family:'Helvetica';font-size:26.73px;fill:#606060" text-anchor="middle">14.0</text>
	<text x="1046.25" y="1267.47" style="font-family:'Helvetica';font-size:26.73px;fill:#606060" text-anchor="middle">13.8</text>
	<text x="1162.62" y="1221.17" style="font-family:'Helvetica';font-size:26.73px;fill:#606060" text-anchor="middle">17.9</text>
	<text x="1232.28" y="1221.03" style="font-family:'Helvetica';font-size:26.73px;fill:#606060" text-anchor="middle">17.9</text>
	<text x="1348.79" y="1365.62" style="font-family:'Helvetica';font-size:26.73px;fill:#606060" text-anchor="middle">5.0</text>
	<text x="1418.44" y="1331.06" style="font-family:'Helvetica';font-size:26.73px;fill:#606060" text-anchor="middle">8.1</text>
	<text x="1534.82" y="1327.95" style="font-family:'Helvetica';font-size:26.73px;fill:#606060" text-anchor="middle">8.4</text>
	<text x="1604.61" y="1312.16" style="font-family:'Helvetica';font-size:26.73px;fill:#606060" text-anchor="middle">9.8</text>
	<text x="1720.98" y="1359.28" style="font-family:'Helvetica';font-size:26.73px;fill:#606060" text-anchor="middle">5.6</text>
	<text x="1790.64" y="1382.63" style="font-family:'Helvetica';font-size:26.73px;fill:#606060" text-anchor="middle">3.5</text>
	<text x="1976.81" y="1420.43" style="font-family:'Helvetica';font-size:26.73px;fill:#606060" text-anchor="middle">0.2</text>
	<line x1="302.26" y1="1432.37" x2="275.54" y2="1432.37" style="stroke:#606060;stroke-width:3.84"/>
	<text x="262.17" y="1446.39" style="font-family:'Helvetica';font-size:39.96px;fill:#606060" text-anchor="end">0</text>
	<line x1="302.26" y1="1319.92" x2="275.54" y2="1319.92" style="stroke:#606060;stroke-width:3.84"/>
	<text x="262.17" y="1333.94" style="font-family:'Helvetica';font-size:39.96px;fill:#606060" text-anchor="end">10</text>
	<line x1="302.26" y1="1207.59" x2="275.54" y2="1207.59" style="stroke:#606060;stroke-width:3.84"/>
	<text x="262.17" y="1221.61" style="font-family:'Helvetica';font-size:39.96px;fill:#606060" text-anchor="end">20</text>
	<line x1="302.26" y1="1095.14" x2="275.54" y2="1095.14" style="stroke:#606060;stroke-width:3.84"/>
	<text x="262.17" y="1109.16" style="font-family:'Helvetica';font-size:39.96px;fill:#606060" text-anchor="end">30</text>
	<line x1="302.26" y1="1432.37" x2="302.26" y2="1095.14" style="stroke:#000000;stroke-width:3.84"/>
	<text x="181.17" y="1230.14" style="font-family:'Helvetica';font-size:53.33px;fill:#000000" transform="rotate(-90 181.17,1230.14)" text-anchor="middle">Percent</text>
	<text x="462.97" y="1468.88" style="font-family:'Helvetica';font-size:39.96px;fill:#606060" transform="rotate(-45 462.97,1468.88)" text-anchor="end">[-1;-0.5]</text>
	<text x="649.00" y="1468.88" style="font-family:'Helvetica';font-size:39.96px;fill:#606060" transform="rotate(-45 649.00,1468.88)" text-anchor="end">]-0.5;-0.2]</text>
	<text x="835.17" y="1468.88" style="font-family:'Helvetica';font-size:39.96px;fill:#606060" transform="rotate(-45 835.17,1468.88)" text-anchor="end">]-0.2;-0.1]</text>
	<text x="1021.33" y="1468.88" style="font-family:'Helvetica';font-size:39.96px;fill:#606060" transform="rotate(-45 1021.33,1468.88)" text-anchor="end">]-0.1;-0.05]</text>
	<text x="1207.36" y="1468.88" style="font-family:'Helvetica';font-size:39.96px;fill:#606060" transform="rotate(-45 1207.36,1468.88)" text-anchor="end">]-0.05;0.05[</text>
	<text x="1393.53" y="1468.88" style="font-family:'Helvetica';font-size:39.96px;fill:#606060" transform="rotate(-45 1393.53,1468.88)" text-anchor="end">[0.05;0.1[</text>
	<text x="1579.56" y="1468.88" style="font-family:'Helvetica';font-size:39.96px;fill:#606060" transform="rotate(-45 1579.56,1468.88)" text-anchor="end">[0.1;0.2[</text>
	<text x="1765.72" y="1468.88" style="font-family:'Helvetica';font-size:39.96px;fill:#606060" transform="rotate(-45 1765.72,1468.88)" text-anchor="end">[0.2;0.5[</text>
	<text x="1951.89" y="1468.88" style="font-family:'Helvetica';font-size:39.96px;fill:#606060" transform="rotate(-45 1951.89,1468.88)" text-anchor="end">[0.5;1]</text>
	<text x="1197.45" y="1000.37" style="font-family:'Helvetica';font-size:53.33px;fill:#000000" text-anchor="middle">EX</text>
	<rect x="2160.00" y="884.40" width="2096.55" height="821.08" style="fill:#FFFFFF"/>
	<rect x="2161.92" y="886.32" width="2092.71" height="817.24" style="fill:none;stroke:#FFFFFF;stroke-width:3.84"/>
	<rect x="2398.82" y="1028.04" width="1790.50" height="404.33" style="fill:#E0E0E0"/>
	<rect x="2400.73" y="1029.96" width="1786.67" height="400.49" style="fill:none;stroke:#FFFFFF;stroke-width:3.84"/>
	<line x1="2398.82" y1="1432.37" x2="4189.32" y2="1432.37" style="stroke:#FFFFFF;stroke-width:3.84"/>
	<line x1="2398.82" y1="1321.54" x2="4189.32" y2="1321.54" style="stroke:#FFFFFF;stroke-width:3.84"/>
	<line x1="2398.82" y1="1210.70" x2="4189.32" y2="1210.70" style="stroke:#FFFFFF;stroke-width:3.84"/>
	<line x1="2398.82" y1="1100.00" x2="4189.32" y2="1100.00" style="stroke:#FFFFFF;stroke-width:3.84"/>
	<rect x="2560.28" y="1427.24" width="78.43" height="5.13" style="fill:#B0CEFF"/>
	<rect x="2562.19" y="1429.16" width="74.60" height="1.29" style="fill:none;stroke:#619CFF;stroke-width:3.84"/>
	<rect x="2691.36" y="1209.48" width="78.57" height="222.89" style="fill:#808080"/>
	<rect x="2693.28" y="1211.40" width="74.73" height="219.05" style="fill:none;stroke:#000000;stroke-width:3.84"/>
	<rect x="2769.93" y="1218.93" width="78.57" height="213.44" style="fill:#B0CEFF"/>
	<rect x="2771.85" y="1220.85" width="74.73" height="209.60" style="fill:none;stroke:#619CFF;stroke-width:3.84"/>
	<rect x="2901.01" y="1147.65" width="78.57" height="284.72" style="fill:#808080"/>
	<rect x="2902.93" y="1149.57" width="74.73" height="280.88" style="fill:none;stroke:#000000;stroke-width:3.84"/>
	<rect x="2979.59" y="1095.14" width="78.57" height="337.24" style="fill:#B0CEFF"/>
	<rect x="2981.50" y="1097.06" width="74.73" height="333.40" style="fill:none;stroke:#619CFF;stroke-width:3.84"/>
	<rect x="3110.67" y="1234.32" width="78.57" height="198.05" style="fill:#808080"/>
	<rect x="3112.59" y="1236.24" width="74.73" height="194.21" style="fill:none;stroke:#000000;stroke-width:3.84"/>
	<rect x="3189.24" y="1281.58" width="78.57" height="150.80" style="fill:#B0CEFF"/>
	<rect x="3191.16" y="1283.49" width="74.73" height="146.96" style="fill:none;stroke:#619CFF;stroke-width:3.84"/>
	<rect x="3320.46" y="1178.57" width="78.43" height="253.80" style="fill:#808080"/>
	<rect x="3322.38" y="1180.49" width="74.60" height="249.96" style="fill:none;stroke:#000000;stroke-width:3.84"/>
	<rect x="3398.90" y="1201.92" width="78.57" height="230.45" style="fill:#B0CEFF"/>
	<rect x="3400.81" y="1203.84" width="74.73" height="226.61" style="fill:none;stroke:#619CFF;stroke-width:3.84"/>
	<rect x="3530.11" y="1382.83" width="78.44" height="49.55" style="fill:#808080"/>
	<rect x="3532.03" y="1384.75" width="74.60" height="45.71" style="fill:none;stroke:#000000;stroke-width:3.84"/>
	<rect x="3608.55" y="1364.60" width="78.57" height="67.77" style="fill:#B0CEFF"/>
	<rect x="3610.47" y="1366.52" width="74.73" height="63.93" style="fill:none;stroke:#619CFF;stroke-width:3.84"/>
	<rect x="3739.77" y="1358.12" width="78.43" height="74.25" style="fill:#808080"/>
	<rect x="3741.69" y="1360.04" width="74.60" height="70.41" style="fill:none;stroke:#000000;stroke-width:3.84"/>
	<rect x="3818.20" y="1357.85" width="78.57" height="74.52" style="fill:#B0CEFF"/>
	<rect x="3820.12" y="1359.77" width="74.73" height="70.68" style="fill:none;stroke:#619CFF;stroke-width:3.84"/>
	<rect x="3949.43" y="1407.67" width="78.57" height="24.71" style="fill:#808080"/>
	<rect x="3951.34" y="1409.59" width="74.73" height="20.87" style="fill:none;stroke:#000000;stroke-width:3.84"/>
	<rect x="4027.99" y="1403.62" width="78.44" height="28.76" style="fill:#B0CEFF"/>
	<rect x="4029.91" y="1405.54" width="74.60" height="24.92" style="fill:none;stroke:#619CFF;stroke-width:3.84"/>
	<text x="2599.56" y="1417.06" style="font-family:'Helvetica';font-size:26.73px;fill:#606060" text-anchor="middle">0.5</text>
	<text x="2730.65" y="1199.30" style="font-family:'Helvetica';font-size:26.73px;fill:#606060" text-anchor="middle">20.1</text>
	<text x="2809.22" y="1208.61" style="font-family:'Helvetica';font-size:26.73px;fill:#606060" text-anchor="middle">19.3</text>
	<text x="2940.30" y="1137.33" style="font-family:'Helvetica';font-size:26.73px;fill:#606060" text-anchor="middle">25.7</text>
	<text x="3018.87" y="1084.95" style="font-family:'Helvetica';font-size:26.73px;fill:#606060" text-anchor="middle">30.4</text>
	<text x="3149.95" y="1224.00" style="font-family:'Helvetica';font-size:26.73px;fill:#606060" text-anchor="middle">17.9</text>
	<text x="3228.53" y="1271.39" style="font-family:'Helvetica';font-size:26.73px;fill:#606060" text-anchor="middle">13.6</text>
	<text x="3359.61" y="1168.25" style="font-family:'Helvetica';font-size:26.73px;fill:#606060" text-anchor="middle">22.9</text>
	<text x="3438.18" y="1191.74" style="font-family:'Helvetica';font-size:26.73px;fill:#606060" text-anchor="middle">20.8</text>
	<text x="3569.40" y="1372.64" style="font-family:'Helvetica';font-size:26.73px;fill:#606060" text-anchor="middle">4.5</text>
	<text x="3647.84" y="1354.42" style="font-family:'Helvetica';font-size:26.73px;fill:#606060" text-anchor="middle">6.1</text>
	<text x="3779.05" y="1347.80" style="font-family:'Helvetica';font-size:26.73px;fill:#606060" text-anchor="middle">6.7</text>
	<text x="3857.49" y="1347.53" style="font-family:'Helvetica';font-size:26.73px;fill:#606060" text-anchor="middle">6.7</text>
	<text x="3988.71" y="1397.35" style="font-family:'Helvetica';font-size:26.73px;fill:#606060" text-anchor="middle">2.2</text>
	<text x="4067.15" y="1393.30" style="font-family:'Helvetica';font-size:26.73px;fill:#606060" text-anchor="middle">2.6</text>
	<line x1="2398.82" y1="1432.37" x2="2372.09" y2="1432.37" style="stroke:#606060;stroke-width:3.84"/>
	<text x="2358.86" y="1446.39" style="font-family:'Helvetica';font-size:39.96px;fill:#606060" text-anchor="end">0</text>
	<line x1="2398.82" y1="1321.54" x2="2372.09" y2="1321.54" style="stroke:#606060;stroke-width:3.84"/>
	<text x="2358.86" y="1335.56" style="font-family:'Helvetica';font-size:39.96px;fill:#606060" text-anchor="end">10</text>
	<line x1="2398.82" y1="1210.70" x2="2372.09" y2="1210.70" style="stroke:#606060;stroke-width:3.84"/>
	<text x="2358.86" y="1224.72" style="font-family:'Helvetica';font-size:39.96px;fill:#606060" text-anchor="end">20</text>
	<line x1="2398.82" y1="1100.00" x2="2372.09" y2="1100.00" style="stroke:#606060;stroke-width:3.84"/>
	<text x="2358.86" y="1114.02" style="font-family:'Helvetica';font-size:39.96px;fill:#606060" text-anchor="end">30</text>
	<line x1="2398.82" y1="1432.37" x2="2398.82" y2="1100.00" style="stroke:#000000;stroke-width:3.84"/>
	<text x="2277.72" y="1230.14" style="font-family:'Helvetica';font-size:53.33px;fill:#000000" transform="rotate(-90 2277.72,1230.14)" text-anchor="middle">Percent</text>
	<text x="2570.19" y="1468.88" style="font-family:'Helvetica';font-size:39.96px;fill:#606060" transform="rotate(-45 2570.19,1468.88)" text-anchor="end">[-1;-0.5]</text>
	<text x="2779.84" y="1468.88" style="font-family:'Helvetica';font-size:39.96px;fill:#606060" transform="rotate(-45 2779.84,1468.88)" text-anchor="end">]-0.5;-0.2]</text>
	<text x="2989.50" y="1468.88" style="font-family:'Helvetica';font-size:39.96px;fill:#606060" transform="rotate(-45 2989.50,1468.88)" text-anchor="end">]-0.2;-0.1]</text>
	<text x="3199.15" y="1468.88" style="font-family:'Helvetica';font-size:39.96px;fill:#606060" transform="rotate(-45 3199.15,1468.88)" text-anchor="end">]-0.1;-0.05]</text>
	<text x="3408.81" y="1468.88" style="font-family:'Helvetica';font-size:39.96px;fill:#606060" transform="rotate(-45 3408.81,1468.88)" text-anchor="end">]-0.05;0.05[</text>
	<text x="3618.46" y="1468.88" style="font-family:'Helvetica';font-size:39.96px;fill:#606060" transform="rotate(-45 3618.46,1468.88)" text-anchor="end">[0.05;0.1[</text>
	<text x="3828.12" y="1468.88" style="font-family:'Helvetica';font-size:39.96px;fill:#606060" transform="rotate(-45 3828.12,1468.88)" text-anchor="end">[0.1;0.2[</text>
	<text x="4037.91" y="1468.88" style="font-family:'Helvetica';font-size:39.96px;fill:#606060" transform="rotate(-45 4037.91,1468.88)" text-anchor="end">[0.2;0.5[</text>
	<text x="3294.14" y="1000.37" style="font-family:'Helvetica';font-size:53.33px;fill:#000000" text-anchor="middle">AG</text>
	<rect x="63.31" y="1705.48" width="2096.68" height="821.08" style="fill:#FFFFFF"/>
	<rect x="65.23" y="1707.40" width="2092.85" height="817.24" style="fill:none;stroke:#FFFFFF;stroke-width:3.84"/>
	<rect x="302.26" y="1848.99" width="1790.51" height="404.47" style="fill:#E0E0E0"/>
	<rect x="304.18" y="1850.91" width="1786.67" height="400.63" style="fill:none;stroke:#FFFFFF;stroke-width:3.84"/>
	<line x1="302.26" y1="2253.46" x2="2092.77" y2="2253.46" style="stroke:#FFFFFF;stroke-width:3.84"/>
	<line x1="302.26" y1="2169.08" x2="2092.77" y2="2169.08" style="stroke:#FFFFFF;stroke-width:3.84"/>
	<line x1="302.26" y1="2084.84" x2="2092.77" y2="2084.84" style="stroke:#FFFFFF;stroke-width:3.84"/>
	<line x1="302.26" y1="2000.60" x2="2092.77" y2="2000.60" style="stroke:#FFFFFF;stroke-width:3.84"/>
	<line x1="302.26" y1="1916.22" x2="2092.77" y2="1916.22" style="stroke:#FFFFFF;stroke-width:3.84"/>
	<rect x="383.40" y="2163.95" width="69.66" height="89.51" style="fill:#808080"/>
	<rect x="385.32" y="2165.87" width="65.82" height="85.67" style="fill:none;stroke:#000000;stroke-width:3.84"/>
	<rect x="453.06" y="2176.10" width="69.66" height="77.36" style="fill:#B0CEFF"/>
	<rect x="454.98" y="2178.02" width="65.82" height="73.52" style="fill:none;stroke:#619CFF;stroke-width:3.84"/>
	<rect x="569.43" y="1942.68" width="69.66" height="310.77" style="fill:#808080"/>
	<rect x="571.35" y="1944.60" width="65.82" height="306.93" style="fill:none;stroke:#000000;stroke-width:3.84"/>
	<rect x="639.09" y="1926.08" width="69.79" height="327.38" style="fill:#B0CEFF"/>
	<rect x="641.01" y="1928.00" width="65.96" height="323.54" style="fill:none;stroke:#619CFF;stroke-width:3.84"/>
	<rect x="755.60" y="2093.34" width="69.66" height="160.11" style="fill:#808080"/>
	<rect x="757.51" y="2095.26" width="65.82" height="156.27" style="fill:none;stroke:#000000;stroke-width:3.84"/>
	<rect x="825.26" y="2115.48" width="69.66" height="137.97" style="fill:#B0CEFF"/>
	<rect x="827.17" y="2117.40" width="65.82" height="134.13" style="fill:none;stroke:#619CFF;stroke-width:3.84"/>
	<rect x="941.63" y="2225.24" width="69.79" height="28.22" style="fill:#808080"/>
	<rect x="943.54" y="2227.16" width="65.96" height="24.38" style="fill:none;stroke:#000000;stroke-width:3.84"/>
	<rect x="1011.42" y="2197.97" width="69.66" height="55.49" style="fill:#B0CEFF"/>
	<rect x="1013.34" y="2199.89" width="65.82" height="51.65" style="fill:none;stroke:#619CFF;stroke-width:3.84"/>
	<rect x="1127.79" y="2168.67" width="69.66" height="84.78" style="fill:#808080"/>
	<rect x="1129.71" y="2170.59" width="65.82" height="80.94" style="fill:none;stroke:#000000;stroke-width:3.84"/>
	<rect x="1197.45" y="2156.79" width="69.79" height="96.66" style="fill:#B0CEFF"/>
	<rect x="1199.37" y="2158.71" width="65.96" height="92.82" style="fill:none;stroke:#619CFF;stroke-width:3.84"/>
	<rect x="1313.95" y="2201.61" width="69.66" height="51.84" style="fill:#808080"/>
	<rect x="1315.87" y="2203.53" width="65.82" height="48.00" style="fill:none;stroke:#000000;stroke-width:3.84"/>
	<rect x="1383.62" y="2213.49" width="69.66" height="39.96" style="fill:#B0CEFF"/>
	<rect x="1385.53" y="2215.41" width="65.82" height="36.12" style="fill:none;stroke:#619CFF;stroke-width:3.84"/>
	<rect x="1499.98" y="2215.79" width="69.66" height="37.67" style="fill:#808080"/>
	<rect x="1501.90" y="2217.71" width="65.82" height="33.83" style="fill:none;stroke:#000000;stroke-width:3.84"/>
	<rect x="1569.65" y="2201.88" width="69.80" height="51.57" style="fill:#B0CEFF"/>
	<rect x="1571.56" y="2203.80" width="65.96" height="47.73" style="fill:none;stroke:#619CFF;stroke-width:3.84"/>
	<rect x="1686.15" y="2182.85" width="69.66" height="70.61" style="fill:#808080"/>
	<rect x="1688.07" y="2184.77" width="65.82" height="66.77" style="fill:none;stroke:#000000;stroke-width:3.84"/>
	<rect x="1755.81" y="2197.97" width="69.66" height="55.49" style="fill:#B0CEFF"/>
	<rect x="1757.73" y="2199.89" width="65.82" height="51.65" style="fill:none;stroke:#619CFF;stroke-width:3.84"/>
	<rect x="1872.18" y="2244.01" width="69.79" height="9.45" style="fill:#808080"/>
	<rect x="1874.10" y="2245.93" width="65.96" height="5.61" style="fill:none;stroke:#000000;stroke-width:3.84"/>
	<rect x="1941.97" y="2252.11" width="69.66" height="1.35" style="fill:#B0CEFF"/>
	<rect x="1943.89" y="2254.03" width="65.82" height="-2.49" style="fill:none;stroke:#619CFF;stroke-width:3.84"/>
	<text x="418.23" y="2153.76" style="font-family:'Helvetica';font-size:26.73px;fill:#606060" text-anchor="middle">10.6</text>
	<text x="487.89" y="2165.91" style="font-family:'Helvetica';font-size:26.73px;fill:#606060" text-anchor="middle">9.2</text>
	<text x="604.26" y="1932.36" style="font-family:'Helvetica';font-size:26.73px;fill:#606060" text-anchor="middle">36.9</text>
	<text x="674.05" y="1915.75" style="font-family:'Helvetica';font-size:26.73px;fill:#606060" text-anchor="middle">38.8</text>
	<text x="790.42" y="2083.02" style="font-family:'Helvetica';font-size:26.73px;fill:#606060" text-anchor="middle">19.0</text>
	<text x="860.09" y="2105.30" style="font-family:'Helvetica';font-size:26.73px;fill:#606060" text-anchor="middle">16.4</text>
	<text x="976.59" y="2214.92" style="font-family:'Helvetica';font-size:26.73px;fill:#606060" text-anchor="middle">3.4</text>
	<text x="1046.25" y="2187.78" style="font-family:'Helvetica';font-size:26.73px;fill:#606060" text-anchor="middle">6.6</text>
	<text x="1162.62" y="2158.49" style="font-family:'Helvetica';font-size:26.73px;fill:#606060" text-anchor="middle">10.1</text>
	<text x="1232.28" y="2146.47" style="font-family:'Helvetica';font-size:26.73px;fill:#606060" text-anchor="middle">11.5</text>
	<text x="1348.79" y="2191.43" style="font-family:'Helvetica';font-size:26.73px;fill:#606060" text-anchor="middle">6.1</text>
	<text x="1418.44" y="2203.31" style="font-family:'Helvetica';font-size:26.73px;fill:#606060" text-anchor="middle">4.7</text>
	<text x="1534.82" y="2205.47" style="font-family:'Helvetica';font-size:26.73px;fill:#606060" text-anchor="middle">4.5</text>
	<text x="1604.61" y="2191.70" style="font-family:'Helvetica';font-size:26.73px;fill:#606060" text-anchor="middle">6.1</text>
	<text x="1720.98" y="2172.53" style="font-family:'Helvetica';font-size:26.73px;fill:#606060" text-anchor="middle">8.4</text>
	<text x="1790.64" y="2187.78" style="font-family:'Helvetica';font-size:26.73px;fill:#606060" text-anchor="middle">6.6</text>
	<text x="1907.01" y="2233.82" style="font-family:'Helvetica';font-size:26.73px;fill:#606060" text-anchor="middle">1.1</text>
	<text x="1976.81" y="2241.92" style="font-family:'Helvetica';font-size:26.73px;fill:#606060" text-anchor="middle">0.2</text>
	<line x1="302.26" y1="2253.46" x2="275.54" y2="2253.46" style="stroke:#606060;stroke-width:3.84"/>
	<text x="262.17" y="2267.48" style="font-family:'Helvetica';font-size:39.96px;fill:#606060" text-anchor="end">0</text>
	<line x1="302.26" y1="2169.08" x2="275.54" y2="2169.08" style="stroke:#606060;stroke-width:3.84"/>
	<text x="262.17" y="2183.10" style="font-family:'Helvetica';font-size:39.96px;fill:#606060" text-anchor="end">10</text>
	<line x1="302.26" y1="2084.84" x2="275.54" y2="2084.84" style="stroke:#606060;stroke-width:3.84"/>
	<text x="262.17" y="2098.86" style="font-family:'Helvetica';font-size:39.96px;fill:#606060" text-anchor="end">20</text>
	<line x1="302.26" y1="2000.60" x2="275.54" y2="2000.60" style="stroke:#606060;stroke-width:3.84"/>
	<text x="262.17" y="2014.62" style="font-family:'Helvetica';font-size:39.96px;fill:#606060" text-anchor="end">30</text>
	<line x1="302.26" y1="1916.22" x2="275.54" y2="1916.22" style="stroke:#606060;stroke-width:3.84"/>
	<text x="262.17" y="1930.24" style="font-family:'Helvetica';font-size:39.96px;fill:#606060" text-anchor="end">40</text>
	<line x1="302.26" y1="2253.46" x2="302.26" y2="1916.22" style="stroke:#000000;stroke-width:3.84"/>
	<text x="181.17" y="2051.22" style="font-family:'Helvetica';font-size:53.33px;fill:#000000" transform="rotate(-90 181.17,2051.22)" text-anchor="middle">Percent</text>
	<text x="462.97" y="2289.96" style="font-family:'Helvetica';font-size:39.96px;fill:#606060" transform="rotate(-45 462.97,2289.96)" text-anchor="end">[-1;-0.5]</text>
	<text x="649.00" y="2289.96" style="font-family:'Helvetica';font-size:39.96px;fill:#606060" transform="rotate(-45 649.00,2289.96)" text-anchor="end">]-0.5;-0.2]</text>
	<text x="835.17" y="2289.96" style="font-family:'Helvetica';font-size:39.96px;fill:#606060" transform="rotate(-45 835.17,2289.96)" text-anchor="end">]-0.2;-0.1]</text>
	<text x="1021.33" y="2289.96" style="font-family:'Helvetica';font-size:39.96px;fill:#606060" transform="rotate(-45 1021.33,2289.96)" text-anchor="end">]-0.1;-0.05]</text>
	<text x="1207.36" y="2289.96" style="font-family:'Helvetica';font-size:39.96px;fill:#606060" transform="rotate(-45 1207.36,2289.96)" text-anchor="end">]-0.05;0.05[</text>
	<text x="1393.53" y="2289.96" style="font-family:'Helvetica';font-size:39.96px;fill:#606060" transform="rotate(-45 1393.53,2289.96)" text-anchor="end">[0.05;0.1[</text>
	<text x="1579.56" y="2289.96" style="font-family:'Helvetica';font-size:39.96px;fill:#606060" transform="rotate(-45 1579.56,2289.96)" text-anchor="end">[0.1;0.2[</text>
	<text x="1765.72" y="2289.96" style="font-family:'Helvetica';font-size:39.96px;fill:#606060" transform="rotate(-45 1765.72,2289.96)" text-anchor="end">[0.2;0.5[</text>
	<text x="1951.89" y="2289.96" style="font-family:'Helvetica';font-size:39.96px;fill:#606060" transform="rotate(-45 1951.89,2289.96)" text-anchor="end">[0.5;1]</text>
	<text x="1197.45" y="1821.45" style="font-family:'Helvetica';font-size:53.33px;fill:#000000" text-anchor="middle">ES</text>
	<text x="80.59" y="2787.35" style="font-family:'Helvetica';font-size:39.96px;fill:#000000">Traits corrected from acquiesence bias.</text>
	<rect x="1438.83" y="2561.13" width="1442.34" height="146.34" style="fill:#FFFFFF"/>
	<rect x="1441.71" y="2564.00" width="1436.58" height="140.58" style="fill:none;stroke:#FFFFFF;stroke-width:5.76"/>
	<rect x="1482.03" y="2604.33" width="143.91" height="59.94" style="fill:#808080"/>
	<rect x="1484.91" y="2607.21" width="138.15" height="54.18" style="fill:none;stroke:#000000;stroke-width:5.76"/>
	<rect x="2199.96" y="2604.33" width="144.05" height="59.94" style="fill:#B0CEFF"/>
	<rect x="2202.84" y="2607.21" width="138.29" height="54.18" style="fill:none;stroke:#619CFF;stroke-width:5.76"/>
	<text x="1686.02" y="2655.31" style="font-family:'Helvetica';font-size:59.94px;fill:#000000">];30] in 2016-17</text>
	<text x="2403.95" y="2655.31" style="font-family:'Helvetica';font-size:59.94px;fill:#000000">]30;[ in 2016-17</text>
</svg>
