<?xml version="1.0" encoding="UTF-8" standalone="no"?>
<!-- This is a Stata 15.1 generated SVG file (http://www.stata.com) -->

<svg version="1.1" width="6.00in" height="4.00in" viewBox="0 0 4320 2880" xmlns="http://www.w3.org/2000/svg" xmlns:xlink="http://www.w3.org/1999/xlink">
	<desc>Stata Graph - Graph</desc>
	<rect x="0" y="0" width="4320" height="2880" style="fill:#FFFFFF;stroke:none"/>
	<rect x="0.00" y="0.00" width="4320.00" height="2880.00" style="fill:#FFFFFF"/>
	<rect x="2.88" y="2.88" width="4314.24" height="2874.24" style="fill:none;stroke:#FFFFFF;stroke-width:5.76"/>
	<rect x="63.31" y="63.32" width="1397.79" height="1268.88" style="fill:#FFFFFF"/>
	<rect x="65.23" y="65.24" width="1393.95" height="1265.04" style="fill:none;stroke:#FFFFFF;stroke-width:3.84"/>
	<rect x="302.26" y="206.96" width="1091.61" height="852.13" style="fill:#E0E0E0"/>
	<rect x="304.18" y="208.88" width="1087.77" height="848.29" style="fill:none;stroke:#FFFFFF;stroke-width:3.84"/>
	<line x1="302.26" y1="1059.09" x2="1393.88" y2="1059.09" style="stroke:#FFFFFF;stroke-width:3.84"/>
	<line x1="302.26" y1="797.46" x2="1393.88" y2="797.46" style="stroke:#FFFFFF;stroke-width:3.84"/>
	<line x1="302.26" y1="535.82" x2="1393.88" y2="535.82" style="stroke:#FFFFFF;stroke-width:3.84"/>
	<line x1="302.26" y1="274.05" x2="1393.88" y2="274.05" style="stroke:#FFFFFF;stroke-width:3.84"/>
	<rect x="377.46" y="1043.43" width="40.23" height="15.66" style="fill:#808080"/>
	<rect x="379.38" y="1045.35" width="36.39" height="11.82" style="fill:none;stroke:#000000;stroke-width:3.84"/>
	<rect x="417.69" y="1055.99" width="40.37" height="3.11" style="fill:#B0CEFF"/>
	<rect x="419.61" y="1057.91" width="36.53" height="-0.73" style="fill:none;stroke:#619CFF;stroke-width:3.84"/>
	<rect x="485.06" y="936.64" width="40.23" height="122.45" style="fill:#808080"/>
	<rect x="486.97" y="938.56" width="36.39" height="118.61" style="fill:none;stroke:#000000;stroke-width:3.84"/>
	<rect x="525.28" y="795.30" width="40.37" height="263.79" style="fill:#B0CEFF"/>
	<rect x="527.20" y="797.22" width="36.53" height="259.95" style="fill:none;stroke:#619CFF;stroke-width:3.84"/>
	<rect x="592.65" y="798.40" width="40.23" height="260.69" style="fill:#808080"/>
	<rect x="594.57" y="800.32" width="36.39" height="256.85" style="fill:none;stroke:#000000;stroke-width:3.84"/>
	<rect x="632.88" y="669.61" width="40.37" height="389.48" style="fill:#B0CEFF"/>
	<rect x="634.80" y="671.53" width="36.53" height="385.64" style="fill:none;stroke:#619CFF;stroke-width:3.84"/>
	<rect x="700.25" y="908.29" width="40.23" height="150.80" style="fill:#808080"/>
	<rect x="702.16" y="910.21" width="36.39" height="146.96" style="fill:none;stroke:#000000;stroke-width:3.84"/>
	<rect x="740.48" y="757.50" width="40.23" height="301.59" style="fill:#B0CEFF"/>
	<rect x="742.39" y="759.42" width="36.39" height="297.75" style="fill:none;stroke:#619CFF;stroke-width:3.84"/>
	<rect x="807.71" y="603.59" width="40.37" height="455.50" style="fill:#808080"/>
	<rect x="809.62" y="605.51" width="36.53" height="451.66" style="fill:none;stroke:#000000;stroke-width:3.84"/>
	<rect x="848.07" y="449.69" width="40.23" height="609.40" style="fill:#B0CEFF"/>
	<rect x="849.99" y="451.61" width="36.39" height="605.56" style="fill:none;stroke:#619CFF;stroke-width:3.84"/>
	<rect x="915.30" y="880.08" width="40.37" height="179.01" style="fill:#808080"/>
	<rect x="917.22" y="882.00" width="36.53" height="175.17" style="fill:none;stroke:#000000;stroke-width:3.84"/>
	<rect x="955.66" y="817.30" width="40.23" height="241.79" style="fill:#B0CEFF"/>
	<rect x="957.58" y="819.22" width="36.39" height="237.95" style="fill:none;stroke:#619CFF;stroke-width:3.84"/>
	<rect x="1022.90" y="512.60" width="40.37" height="546.49" style="fill:#808080"/>
	<rect x="1024.81" y="514.52" width="36.53" height="542.65" style="fill:none;stroke:#000000;stroke-width:3.84"/>
	<rect x="1063.26" y="631.94" width="40.23" height="427.15" style="fill:#B0CEFF"/>
	<rect x="1065.18" y="633.86" width="36.39" height="423.31" style="fill:none;stroke:#619CFF;stroke-width:3.84"/>
	<rect x="1130.49" y="317.79" width="40.23" height="741.30" style="fill:#808080"/>
	<rect x="1132.41" y="319.71" width="36.39" height="737.46" style="fill:none;stroke:#000000;stroke-width:3.84"/>
	<rect x="1170.72" y="704.17" width="40.37" height="354.92" style="fill:#B0CEFF"/>
	<rect x="1172.64" y="706.09" width="36.53" height="351.08" style="fill:none;stroke:#619CFF;stroke-width:3.84"/>
	<rect x="1238.09" y="914.64" width="40.23" height="144.45" style="fill:#808080"/>
	<rect x="1240.00" y="916.56" width="36.39" height="140.61" style="fill:none;stroke:#000000;stroke-width:3.84"/>
	<rect x="1278.32" y="1033.98" width="40.37" height="25.11" style="fill:#B0CEFF"/>
	<rect x="1280.23" y="1035.90" width="36.53" height="21.27" style="fill:none;stroke:#619CFF;stroke-width:3.84"/>
	<text x="397.57" y="1024.88" style="font-family:'Helvetica';font-size:26.73px;fill:#606060" text-anchor="middle">0.6</text>
	<text x="437.94" y="1037.43" style="font-family:'Helvetica';font-size:26.73px;fill:#606060" text-anchor="middle">0.1</text>
	<text x="505.17" y="918.09" style="font-family:'Helvetica';font-size:26.73px;fill:#606060" text-anchor="middle">4.7</text>
	<text x="545.53" y="776.74" style="font-family:'Helvetica';font-size:26.73px;fill:#606060" text-anchor="middle">10.1</text>
	<text x="612.76" y="779.85" style="font-family:'Helvetica';font-size:26.73px;fill:#606060" text-anchor="middle">10.0</text>
	<text x="653.00" y="651.05" style="font-family:'Helvetica';font-size:26.73px;fill:#606060" text-anchor="middle">14.9</text>
	<text x="720.36" y="889.74" style="font-family:'Helvetica';font-size:26.73px;fill:#606060" text-anchor="middle">5.8</text>
	<text x="760.59" y="738.94" style="font-family:'Helvetica';font-size:26.73px;fill:#606060" text-anchor="middle">11.5</text>
	<text x="827.96" y="585.04" style="font-family:'Helvetica';font-size:26.73px;fill:#606060" text-anchor="middle">17.4</text>
	<text x="868.18" y="431.14" style="font-family:'Helvetica';font-size:26.73px;fill:#606060" text-anchor="middle">23.3</text>
	<text x="935.41" y="861.52" style="font-family:'Helvetica';font-size:26.73px;fill:#606060" text-anchor="middle">6.8</text>
	<text x="975.78" y="798.75" style="font-family:'Helvetica';font-size:26.73px;fill:#606060" text-anchor="middle">9.2</text>
	<text x="1043.01" y="494.05" style="font-family:'Helvetica';font-size:26.73px;fill:#606060" text-anchor="middle">20.9</text>
	<text x="1083.38" y="613.39" style="font-family:'Helvetica';font-size:26.73px;fill:#606060" text-anchor="middle">16.3</text>
	<text x="1150.61" y="299.24" style="font-family:'Helvetica';font-size:26.73px;fill:#606060" text-anchor="middle">28.3</text>
	<text x="1190.97" y="685.61" style="font-family:'Helvetica';font-size:26.73px;fill:#606060" text-anchor="middle">13.6</text>
	<text x="1258.20" y="896.08" style="font-family:'Helvetica';font-size:26.73px;fill:#606060" text-anchor="middle">5.5</text>
	<text x="1298.43" y="1015.43" style="font-family:'Helvetica';font-size:26.73px;fill:#606060" text-anchor="middle">1.0</text>
	<line x1="302.26" y1="1059.09" x2="275.54" y2="1059.09" style="stroke:#606060;stroke-width:3.84"/>
	<text x="262.17" y="1073.11" style="font-family:'Helvetica';font-size:39.96px;fill:#606060" text-anchor="end">0</text>
	<line x1="302.26" y1="797.46" x2="275.54" y2="797.46" style="stroke:#606060;stroke-width:3.84"/>
	<text x="262.17" y="811.48" style="font-family:'Helvetica';font-size:39.96px;fill:#606060" text-anchor="end">10</text>
	<line x1="302.26" y1="535.82" x2="275.54" y2="535.82" style="stroke:#606060;stroke-width:3.84"/>
	<text x="262.17" y="549.84" style="font-family:'Helvetica';font-size:39.96px;fill:#606060" text-anchor="end">20</text>
	<line x1="302.26" y1="274.05" x2="275.54" y2="274.05" style="stroke:#606060;stroke-width:3.84"/>
	<text x="262.17" y="288.07" style="font-family:'Helvetica';font-size:39.96px;fill:#606060" text-anchor="end">30</text>
	<line x1="302.26" y1="1059.09" x2="302.26" y2="274.05" style="stroke:#000000;stroke-width:3.84"/>
	<text x="181.17" y="633.02" style="font-family:'Helvetica';font-size:53.33px;fill:#000000" transform="rotate(-90 181.17,633.02)" text-anchor="middle">Percent</text>
	<text x="427.60" y="1095.74" style="font-family:'Helvetica';font-size:39.96px;fill:#606060" transform="rotate(-45 427.60,1095.74)" text-anchor="end">[-1;-0.5]</text>
	<text x="535.20" y="1095.74" style="font-family:'Helvetica';font-size:39.96px;fill:#606060" transform="rotate(-45 535.20,1095.74)" text-anchor="end">]-0.5;-0.2]</text>
	<text x="642.79" y="1095.74" style="font-family:'Helvetica';font-size:39.96px;fill:#606060" transform="rotate(-45 642.79,1095.74)" text-anchor="end">]-0.2;-0.1]</text>
	<text x="750.39" y="1095.74" style="font-family:'Helvetica';font-size:39.96px;fill:#606060" transform="rotate(-45 750.39,1095.74)" text-anchor="end">]-0.1;-0.05]</text>
	<text x="857.98" y="1095.74" style="font-family:'Helvetica';font-size:39.96px;fill:#606060" transform="rotate(-45 857.98,1095.74)" text-anchor="end">]-0.05;0.05[</text>
	<text x="965.58" y="1095.74" style="font-family:'Helvetica';font-size:39.96px;fill:#606060" transform="rotate(-45 965.58,1095.74)" text-anchor="end">[0.05;0.1[</text>
	<text x="1073.17" y="1095.74" style="font-family:'Helvetica';font-size:39.96px;fill:#606060" transform="rotate(-45 1073.17,1095.74)" text-anchor="end">[0.1;0.2[</text>
	<text x="1180.63" y="1095.74" style="font-family:'Helvetica';font-size:39.96px;fill:#606060" transform="rotate(-45 1180.63,1095.74)" text-anchor="end">[0.2;0.5[</text>
	<text x="1288.23" y="1095.74" style="font-family:'Helvetica';font-size:39.96px;fill:#606060" transform="rotate(-45 1288.23,1095.74)" text-anchor="end">[0.5;1]</text>
	<text x="848.07" y="179.28" style="font-family:'Helvetica';font-size:53.33px;fill:#000000" text-anchor="middle">OP</text>
	<rect x="1461.11" y="63.32" width="1397.79" height="1268.88" style="fill:#FFFFFF"/>
	<rect x="1463.02" y="65.24" width="1393.95" height="1265.04" style="fill:none;stroke:#FFFFFF;stroke-width:3.84"/>
	<rect x="1699.92" y="206.96" width="1091.74" height="852.13" style="fill:#E0E0E0"/>
	<rect x="1701.84" y="208.88" width="1087.91" height="848.29" style="fill:none;stroke:#FFFFFF;stroke-width:3.84"/>
	<line x1="1699.92" y1="1059.09" x2="2791.67" y2="1059.09" style="stroke:#FFFFFF;stroke-width:3.84"/>
	<line x1="1699.92" y1="862.80" x2="2791.67" y2="862.80" style="stroke:#FFFFFF;stroke-width:3.84"/>
	<line x1="1699.92" y1="666.64" x2="2791.67" y2="666.64" style="stroke:#FFFFFF;stroke-width:3.84"/>
	<line x1="1699.92" y1="470.35" x2="2791.67" y2="470.35" style="stroke:#FFFFFF;stroke-width:3.84"/>
	<line x1="1699.92" y1="274.05" x2="2791.67" y2="274.05" style="stroke:#FFFFFF;stroke-width:3.84"/>
	<rect x="1775.25" y="1047.35" width="40.23" height="11.75" style="fill:#808080"/>
	<rect x="1777.17" y="1049.27" width="36.39" height="7.91" style="fill:none;stroke:#000000;stroke-width:3.84"/>
	<rect x="1815.48" y="993.21" width="40.37" height="65.88" style="fill:#B0CEFF"/>
	<rect x="1817.40" y="995.13" width="36.53" height="62.04" style="fill:none;stroke:#619CFF;stroke-width:3.84"/>
	<rect x="1882.71" y="580.91" width="40.37" height="478.18" style="fill:#808080"/>
	<rect x="1884.63" y="582.83" width="36.53" height="474.34" style="fill:none;stroke:#000000;stroke-width:3.84"/>
	<rect x="1923.08" y="326.44" width="40.23" height="732.66" style="fill:#B0CEFF"/>
	<rect x="1924.99" y="328.36" width="36.39" height="728.82" style="fill:none;stroke:#619CFF;stroke-width:3.84"/>
	<rect x="1990.31" y="743.46" width="40.37" height="315.63" style="fill:#808080"/>
	<rect x="1992.22" y="745.38" width="36.53" height="311.79" style="fill:none;stroke:#000000;stroke-width:3.84"/>
	<rect x="2030.67" y="717.54" width="40.23" height="341.56" style="fill:#B0CEFF"/>
	<rect x="2032.59" y="719.46" width="36.39" height="337.72" style="fill:none;stroke:#619CFF;stroke-width:3.84"/>
	<rect x="2097.90" y="936.64" width="40.36" height="122.45" style="fill:#808080"/>
	<rect x="2099.82" y="938.56" width="36.53" height="118.61" style="fill:none;stroke:#000000;stroke-width:3.84"/>
	<rect x="2138.26" y="894.25" width="40.23" height="164.84" style="fill:#B0CEFF"/>
	<rect x="2140.18" y="896.17" width="36.39" height="161.00" style="fill:none;stroke:#619CFF;stroke-width:3.84"/>
	<rect x="2205.49" y="696.34" width="40.23" height="362.75" style="fill:#808080"/>
	<rect x="2207.41" y="698.26" width="36.39" height="358.91" style="fill:none;stroke:#000000;stroke-width:3.84"/>
	<rect x="2245.72" y="795.30" width="40.37" height="263.79" style="fill:#B0CEFF"/>
	<rect x="2247.64" y="797.22" width="36.53" height="259.95" style="fill:none;stroke:#619CFF;stroke-width:3.84"/>
	<rect x="2313.09" y="934.21" width="40.23" height="124.88" style="fill:#808080"/>
	<rect x="2315.01" y="936.13" width="36.39" height="121.04" style="fill:none;stroke:#000000;stroke-width:3.84"/>
	<rect x="2353.32" y="934.21" width="40.36" height="124.88" style="fill:#B0CEFF"/>
	<rect x="2355.24" y="936.13" width="36.53" height="121.04" style="fill:none;stroke:#619CFF;stroke-width:3.84"/>
	<rect x="2420.68" y="759.93" width="40.23" height="299.16" style="fill:#808080"/>
	<rect x="2422.60" y="761.85" width="36.39" height="295.32" style="fill:none;stroke:#000000;stroke-width:3.84"/>
	<rect x="2460.92" y="903.57" width="40.37" height="155.52" style="fill:#B0CEFF"/>
	<rect x="2462.83" y="905.49" width="36.53" height="151.68" style="fill:none;stroke:#619CFF;stroke-width:3.84"/>
	<rect x="2528.28" y="814.06" width="40.23" height="245.03" style="fill:#808080"/>
	<rect x="2530.20" y="815.98" width="36.39" height="241.19" style="fill:none;stroke:#000000;stroke-width:3.84"/>
	<rect x="2568.51" y="948.39" width="40.23" height="110.70" style="fill:#B0CEFF"/>
	<rect x="2570.43" y="950.31" width="36.39" height="106.86" style="fill:none;stroke:#619CFF;stroke-width:3.84"/>
	<rect x="2635.74" y="1056.80" width="40.37" height="2.30" style="fill:#808080"/>
	<rect x="2637.66" y="1058.72" width="36.53" height="-1.54" style="fill:none;stroke:#000000;stroke-width:3.84"/>
	<rect x="2676.11" y="1056.80" width="40.23" height="2.30" style="fill:#B0CEFF"/>
	<rect x="2678.02" y="1058.72" width="36.39" height="-1.54" style="fill:none;stroke:#619CFF;stroke-width:3.84"/>
	<text x="1795.37" y="1028.79" style="font-family:'Helvetica';font-size:26.73px;fill:#606060" text-anchor="middle">0.6</text>
	<text x="1835.60" y="974.65" style="font-family:'Helvetica';font-size:26.73px;fill:#606060" text-anchor="middle">3.4</text>
	<text x="1902.96" y="562.36" style="font-family:'Helvetica';font-size:26.73px;fill:#606060" text-anchor="middle">24.4</text>
	<text x="1943.19" y="307.88" style="font-family:'Helvetica';font-size:26.73px;fill:#606060" text-anchor="middle">37.3</text>
	<text x="2010.56" y="724.90" style="font-family:'Helvetica';font-size:26.73px;fill:#606060" text-anchor="middle">16.1</text>
	<text x="2050.78" y="698.98" style="font-family:'Helvetica';font-size:26.73px;fill:#606060" text-anchor="middle">17.4</text>
	<text x="2118.01" y="918.09" style="font-family:'Helvetica';font-size:26.73px;fill:#606060" text-anchor="middle">6.2</text>
	<text x="2158.38" y="875.70" style="font-family:'Helvetica';font-size:26.73px;fill:#606060" text-anchor="middle">8.4</text>
	<text x="2225.61" y="677.78" style="font-family:'Helvetica';font-size:26.73px;fill:#606060" text-anchor="middle">18.5</text>
	<text x="2265.97" y="776.74" style="font-family:'Helvetica';font-size:26.73px;fill:#606060" text-anchor="middle">13.4</text>
	<text x="2333.20" y="915.66" style="font-family:'Helvetica';font-size:26.73px;fill:#606060" text-anchor="middle">6.4</text>
	<text x="2373.57" y="915.66" style="font-family:'Helvetica';font-size:26.73px;fill:#606060" text-anchor="middle">6.4</text>
	<text x="2440.80" y="741.37" style="font-family:'Helvetica';font-size:26.73px;fill:#606060" text-anchor="middle">15.2</text>
	<text x="2481.03" y="885.01" style="font-family:'Helvetica';font-size:26.73px;fill:#606060" text-anchor="middle">7.9</text>
	<text x="2548.40" y="795.51" style="font-family:'Helvetica';font-size:26.73px;fill:#606060" text-anchor="middle">12.5</text>
	<text x="2588.63" y="929.83" style="font-family:'Helvetica';font-size:26.73px;fill:#606060" text-anchor="middle">5.6</text>
	<text x="2655.99" y="1038.24" style="font-family:'Helvetica';font-size:26.73px;fill:#606060" text-anchor="middle">0.1</text>
	<text x="2696.22" y="1038.24" style="font-family:'Helvetica';font-size:26.73px;fill:#606060" text-anchor="middle">0.1</text>
	<line x1="1699.92" y1="1059.09" x2="1673.33" y2="1059.09" style="stroke:#606060;stroke-width:3.84"/>
	<text x="1659.96" y="1073.11" style="font-family:'Helvetica';font-size:39.96px;fill:#606060" text-anchor="end">0</text>
	<line x1="1699.92" y1="862.80" x2="1673.33" y2="862.80" style="stroke:#606060;stroke-width:3.84"/>
	<text x="1659.96" y="876.82" style="font-family:'Helvetica';font-size:39.96px;fill:#606060" text-anchor="end">10</text>
	<line x1="1699.92" y1="666.64" x2="1673.33" y2="666.64" style="stroke:#606060;stroke-width:3.84"/>
	<text x="1659.96" y="680.66" style="font-family:'Helvetica';font-size:39.96px;fill:#606060" text-anchor="end">20</text>
	<line x1="1699.92" y1="470.35" x2="1673.33" y2="470.35" style="stroke:#606060;stroke-width:3.84"/>
	<text x="1659.96" y="484.37" style="font-family:'Helvetica';font-size:39.96px;fill:#606060" text-anchor="end">30</text>
	<line x1="1699.92" y1="274.05" x2="1673.33" y2="274.05" style="stroke:#606060;stroke-width:3.84"/>
	<text x="1659.96" y="288.07" style="font-family:'Helvetica';font-size:39.96px;fill:#606060" text-anchor="end">40</text>
	<line x1="1699.92" y1="1059.09" x2="1699.92" y2="274.05" style="stroke:#000000;stroke-width:3.84"/>
	<text x="1578.83" y="633.02" style="font-family:'Helvetica';font-size:53.33px;fill:#000000" transform="rotate(-90 1578.83,633.02)" text-anchor="middle">Percent</text>
	<text x="1825.39" y="1095.74" style="font-family:'Helvetica';font-size:39.96px;fill:#606060" transform="rotate(-45 1825.39,1095.74)" text-anchor="end">[-1;-0.5]</text>
	<text x="1932.99" y="1095.74" style="font-family:'Helvetica';font-size:39.96px;fill:#606060" transform="rotate(-45 1932.99,1095.74)" text-anchor="end">]-0.5;-0.2]</text>
	<text x="2040.58" y="1095.74" style="font-family:'Helvetica';font-size:39.96px;fill:#606060" transform="rotate(-45 2040.58,1095.74)" text-anchor="end">]-0.2;-0.1]</text>
	<text x="2148.18" y="1095.74" style="font-family:'Helvetica';font-size:39.96px;fill:#606060" transform="rotate(-45 2148.18,1095.74)" text-anchor="end">]-0.1;-0.05]</text>
	<text x="2255.64" y="1095.74" style="font-family:'Helvetica';font-size:39.96px;fill:#606060" transform="rotate(-45 2255.64,1095.74)" text-anchor="end">]-0.05;0.05[</text>
	<text x="2363.23" y="1095.74" style="font-family:'Helvetica';font-size:39.96px;fill:#606060" transform="rotate(-45 2363.23,1095.74)" text-anchor="end">[0.05;0.1[</text>
	<text x="2470.83" y="1095.74" style="font-family:'Helvetica';font-size:39.96px;fill:#606060" transform="rotate(-45 2470.83,1095.74)" text-anchor="end">[0.1;0.2[</text>
	<text x="2578.42" y="1095.74" style="font-family:'Helvetica';font-size:39.96px;fill:#606060" transform="rotate(-45 2578.42,1095.74)" text-anchor="end">[0.2;0.5[</text>
	<text x="2686.02" y="1095.74" style="font-family:'Helvetica';font-size:39.96px;fill:#606060" transform="rotate(-45 2686.02,1095.74)" text-anchor="end">[0.5;1]</text>
	<text x="2245.72" y="179.28" style="font-family:'Helvetica';font-size:53.33px;fill:#000000" text-anchor="middle">CO</text>
	<rect x="2858.90" y="63.32" width="1397.66" height="1268.88" style="fill:#FFFFFF"/>
	<rect x="2860.81" y="65.24" width="1393.82" height="1265.04" style="fill:none;stroke:#FFFFFF;stroke-width:3.84"/>
	<rect x="3097.71" y="206.96" width="1091.61" height="852.13" style="fill:#E0E0E0"/>
	<rect x="3099.63" y="208.88" width="1087.77" height="848.29" style="fill:none;stroke:#FFFFFF;stroke-width:3.84"/>
	<line x1="3097.71" y1="1059.09" x2="4189.32" y2="1059.09" style="stroke:#FFFFFF;stroke-width:3.84"/>
	<line x1="3097.71" y1="904.92" x2="4189.32" y2="904.92" style="stroke:#FFFFFF;stroke-width:3.84"/>
	<line x1="3097.71" y1="750.61" x2="4189.32" y2="750.61" style="stroke:#FFFFFF;stroke-width:3.84"/>
	<line x1="3097.71" y1="596.44" x2="4189.32" y2="596.44" style="stroke:#FFFFFF;stroke-width:3.84"/>
	<line x1="3097.71" y1="442.27" x2="4189.32" y2="442.27" style="stroke:#FFFFFF;stroke-width:3.84"/>
	<line x1="3097.71" y1="287.96" x2="4189.32" y2="287.96" style="stroke:#FFFFFF;stroke-width:3.84"/>
	<rect x="3172.91" y="1055.45" width="40.36" height="3.65" style="fill:#808080"/>
	<rect x="3174.82" y="1057.37" width="36.53" height="-0.19" style="fill:none;stroke:#000000;stroke-width:3.84"/>
	<rect x="3213.27" y="1040.60" width="40.23" height="18.50" style="fill:#B0CEFF"/>
	<rect x="3215.19" y="1042.52" width="36.39" height="14.66" style="fill:none;stroke:#619CFF;stroke-width:3.84"/>
	<rect x="3280.50" y="596.30" width="40.36" height="462.79" style="fill:#808080"/>
	<rect x="3282.42" y="598.22" width="36.53" height="458.95" style="fill:none;stroke:#000000;stroke-width:3.84"/>
	<rect x="3320.86" y="403.66" width="40.23" height="655.44" style="fill:#B0CEFF"/>
	<rect x="3322.78" y="405.58" width="36.39" height="651.60" style="fill:none;stroke:#619CFF;stroke-width:3.84"/>
	<rect x="3388.09" y="577.81" width="40.23" height="481.28" style="fill:#808080"/>
	<rect x="3390.01" y="579.73" width="36.39" height="477.44" style="fill:none;stroke:#000000;stroke-width:3.84"/>
	<rect x="3428.32" y="274.05" width="40.37" height="785.04" style="fill:#B0CEFF"/>
	<rect x="3430.24" y="275.97" width="36.53" height="781.20" style="fill:none;stroke:#619CFF;stroke-width:3.84"/>
	<rect x="3495.69" y="844.30" width="40.23" height="214.79" style="fill:#808080"/>
	<rect x="3497.61" y="846.22" width="36.39" height="210.95" style="fill:none;stroke:#000000;stroke-width:3.84"/>
	<rect x="3535.92" y="633.29" width="40.36" height="425.80" style="fill:#B0CEFF"/>
	<rect x="3537.84" y="635.21" width="36.53" height="421.96" style="fill:none;stroke:#619CFF;stroke-width:3.84"/>
	<rect x="3603.28" y="433.36" width="40.23" height="625.73" style="fill:#808080"/>
	<rect x="3605.20" y="435.28" width="36.39" height="621.89" style="fill:none;stroke:#000000;stroke-width:3.84"/>
	<rect x="3643.51" y="507.34" width="40.37" height="551.75" style="fill:#B0CEFF"/>
	<rect x="3645.43" y="509.26" width="36.53" height="547.91" style="fill:none;stroke:#619CFF;stroke-width:3.84"/>
	<rect x="3710.74" y="907.35" width="40.37" height="151.74" style="fill:#808080"/>
	<rect x="3712.66" y="909.27" width="36.53" height="147.90" style="fill:none;stroke:#000000;stroke-width:3.84"/>
	<rect x="3751.11" y="829.59" width="40.23" height="229.50" style="fill:#B0CEFF"/>
	<rect x="3753.03" y="831.51" width="36.39" height="225.66" style="fill:none;stroke:#619CFF;stroke-width:3.84"/>
	<rect x="3818.34" y="507.34" width="40.36" height="551.75" style="fill:#808080"/>
	<rect x="3820.26" y="509.26" width="36.53" height="547.91" style="fill:none;stroke:#000000;stroke-width:3.84"/>
	<rect x="3858.70" y="766.54" width="40.23" height="292.55" style="fill:#B0CEFF"/>
	<rect x="3860.62" y="768.46" width="36.39" height="288.71" style="fill:none;stroke:#619CFF;stroke-width:3.84"/>
	<rect x="3925.93" y="492.62" width="40.37" height="566.47" style="fill:#808080"/>
	<rect x="3927.85" y="494.54" width="36.53" height="562.63" style="fill:none;stroke:#000000;stroke-width:3.84"/>
	<rect x="3966.30" y="936.91" width="40.23" height="122.18" style="fill:#B0CEFF"/>
	<rect x="3968.22" y="938.83" width="36.39" height="118.34" style="fill:none;stroke:#619CFF;stroke-width:3.84"/>
	<rect x="4033.53" y="1033.17" width="40.23" height="25.92" style="fill:#808080"/>
	<rect x="4035.45" y="1035.09" width="36.39" height="22.08" style="fill:none;stroke:#000000;stroke-width:3.84"/>
	<rect x="4073.76" y="1055.45" width="40.36" height="3.65" style="fill:#B0CEFF"/>
	<rect x="4075.68" y="1057.37" width="36.53" height="-0.19" style="fill:none;stroke:#619CFF;stroke-width:3.84"/>
	<text x="3193.02" y="1036.89" style="font-family:'Helvetica';font-size:26.73px;fill:#606060" text-anchor="middle">0.1</text>
	<text x="3233.39" y="1022.04" style="font-family:'Helvetica';font-size:26.73px;fill:#606060" text-anchor="middle">0.6</text>
	<text x="3300.61" y="577.75" style="font-family:'Helvetica';font-size:26.73px;fill:#606060" text-anchor="middle">15.0</text>
	<text x="3340.98" y="385.10" style="font-family:'Helvetica';font-size:26.73px;fill:#606060" text-anchor="middle">21.2</text>
	<text x="3408.21" y="559.25" style="font-family:'Helvetica';font-size:26.73px;fill:#606060" text-anchor="middle">15.6</text>
	<text x="3448.57" y="255.63" style="font-family:'Helvetica';font-size:26.73px;fill:#606060" text-anchor="middle">25.5</text>
	<text x="3515.80" y="825.75" style="font-family:'Helvetica';font-size:26.73px;fill:#606060" text-anchor="middle">7.0</text>
	<text x="3556.03" y="614.74" style="font-family:'Helvetica';font-size:26.73px;fill:#606060" text-anchor="middle">13.8</text>
	<text x="3623.40" y="414.80" style="font-family:'Helvetica';font-size:26.73px;fill:#606060" text-anchor="middle">20.3</text>
	<text x="3663.63" y="488.78" style="font-family:'Helvetica';font-size:26.73px;fill:#606060" text-anchor="middle">17.9</text>
	<text x="3730.99" y="888.79" style="font-family:'Helvetica';font-size:26.73px;fill:#606060" text-anchor="middle">4.9</text>
	<text x="3771.22" y="811.03" style="font-family:'Helvetica';font-size:26.73px;fill:#606060" text-anchor="middle">7.4</text>
	<text x="3838.59" y="488.78" style="font-family:'Helvetica';font-size:26.73px;fill:#606060" text-anchor="middle">17.9</text>
	<text x="3878.82" y="747.99" style="font-family:'Helvetica';font-size:26.73px;fill:#606060" text-anchor="middle">9.5</text>
	<text x="3946.05" y="474.07" style="font-family:'Helvetica';font-size:26.73px;fill:#606060" text-anchor="middle">18.4</text>
	<text x="3986.42" y="918.36" style="font-family:'Helvetica';font-size:26.73px;fill:#606060" text-anchor="middle">4.0</text>
	<text x="4053.65" y="1014.62" style="font-family:'Helvetica';font-size:26.73px;fill:#606060" text-anchor="middle">0.8</text>
	<text x="4094.01" y="1036.89" style="font-family:'Helvetica';font-size:26.73px;fill:#606060" text-anchor="middle">0.1</text>
	<line x1="3097.71" y1="1059.09" x2="3070.98" y2="1059.09" style="stroke:#606060;stroke-width:3.84"/>
	<text x="3057.61" y="1073.11" style="font-family:'Helvetica';font-size:39.96px;fill:#606060" text-anchor="end">0</text>
	<line x1="3097.71" y1="904.92" x2="3070.98" y2="904.92" style="stroke:#606060;stroke-width:3.84"/>
	<text x="3057.61" y="918.94" style="font-family:'Helvetica';font-size:39.96px;fill:#606060" text-anchor="end">5</text>
	<line x1="3097.71" y1="750.61" x2="3070.98" y2="750.61" style="stroke:#606060;stroke-width:3.84"/>
	<text x="3057.61" y="764.63" style="font-family:'Helvetica';font-size:39.96px;fill:#606060" text-anchor="end">10</text>
	<line x1="3097.71" y1="596.44" x2="3070.98" y2="596.44" style="stroke:#606060;stroke-width:3.84"/>
	<text x="3057.61" y="610.46" style="font-family:'Helvetica';font-size:39.96px;fill:#606060" text-anchor="end">15</text>
	<line x1="3097.71" y1="442.27" x2="3070.98" y2="442.27" style="stroke:#606060;stroke-width:3.84"/>
	<text x="3057.61" y="456.29" style="font-family:'Helvetica';font-size:39.96px;fill:#606060" text-anchor="end">20</text>
	<line x1="3097.71" y1="287.96" x2="3070.98" y2="287.96" style="stroke:#606060;stroke-width:3.84"/>
	<text x="3057.61" y="301.98" style="font-family:'Helvetica';font-size:39.96px;fill:#606060" text-anchor="end">25</text>
	<line x1="3097.71" y1="1059.09" x2="3097.71" y2="287.96" style="stroke:#000000;stroke-width:3.84"/>
	<text x="2976.61" y="633.02" style="font-family:'Helvetica';font-size:53.33px;fill:#000000" transform="rotate(-90 2976.61,633.02)" text-anchor="middle">Percent</text>
	<text x="3223.18" y="1095.74" style="font-family:'Helvetica';font-size:39.96px;fill:#606060" transform="rotate(-45 3223.18,1095.74)" text-anchor="end">[-1;-0.5]</text>
	<text x="3330.78" y="1095.74" style="font-family:'Helvetica';font-size:39.96px;fill:#606060" transform="rotate(-45 3330.78,1095.74)" text-anchor="end">]-0.5;-0.2]</text>
	<text x="3438.24" y="1095.74" style="font-family:'Helvetica';font-size:39.96px;fill:#606060" transform="rotate(-45 3438.24,1095.74)" text-anchor="end">]-0.2;-0.1]</text>
	<text x="3545.83" y="1095.74" style="font-family:'Helvetica';font-size:39.96px;fill:#606060" transform="rotate(-45 3545.83,1095.74)" text-anchor="end">]-0.1;-0.05]</text>
	<text x="3653.43" y="1095.74" style="font-family:'Helvetica';font-size:39.96px;fill:#606060" transform="rotate(-45 3653.43,1095.74)" text-anchor="end">]-0.05;0.05[</text>
	<text x="3761.02" y="1095.74" style="font-family:'Helvetica';font-size:39.96px;fill:#606060" transform="rotate(-45 3761.02,1095.74)" text-anchor="end">[0.05;0.1[</text>
	<text x="3868.62" y="1095.74" style="font-family:'Helvetica';font-size:39.96px;fill:#606060" transform="rotate(-45 3868.62,1095.74)" text-anchor="end">[0.1;0.2[</text>
	<text x="3976.21" y="1095.74" style="font-family:'Helvetica';font-size:39.96px;fill:#606060" transform="rotate(-45 3976.21,1095.74)" text-anchor="end">[0.2;0.5[</text>
	<text x="4083.67" y="1095.74" style="font-family:'Helvetica';font-size:39.96px;fill:#606060" transform="rotate(-45 4083.67,1095.74)" text-anchor="end">[0.5;1]</text>
	<text x="3643.51" y="179.28" style="font-family:'Helvetica';font-size:53.33px;fill:#000000" text-anchor="middle">EX</text>
	<rect x="63.31" y="1332.20" width="1397.79" height="1268.88" style="fill:#FFFFFF"/>
	<rect x="65.23" y="1334.12" width="1393.95" height="1265.04" style="fill:none;stroke:#FFFFFF;stroke-width:3.84"/>
	<rect x="302.26" y="1475.84" width="1091.61" height="852.13" style="fill:#E0E0E0"/>
	<rect x="304.18" y="1477.76" width="1087.77" height="848.29" style="fill:none;stroke:#FFFFFF;stroke-width:3.84"/>
	<line x1="302.26" y1="2327.98" x2="1393.88" y2="2327.98" style="stroke:#FFFFFF;stroke-width:3.84"/>
	<line x1="302.26" y1="2066.34" x2="1393.88" y2="2066.34" style="stroke:#FFFFFF;stroke-width:3.84"/>
	<line x1="302.26" y1="1804.71" x2="1393.88" y2="1804.71" style="stroke:#FFFFFF;stroke-width:3.84"/>
	<line x1="302.26" y1="1542.94" x2="1393.88" y2="1542.94" style="stroke:#FFFFFF;stroke-width:3.84"/>
	<rect x="378.54" y="2321.77" width="45.36" height="6.21" style="fill:#808080"/>
	<rect x="380.46" y="2323.69" width="41.52" height="2.37" style="fill:none;stroke:#000000;stroke-width:3.84"/>
	<rect x="423.90" y="2318.53" width="45.36" height="9.45" style="fill:#B0CEFF"/>
	<rect x="425.82" y="2320.45" width="41.52" height="5.61" style="fill:none;stroke:#619CFF;stroke-width:3.84"/>
	<rect x="499.63" y="2023.28" width="45.50" height="304.70" style="fill:#808080"/>
	<rect x="501.55" y="2025.20" width="41.66" height="300.86" style="fill:none;stroke:#000000;stroke-width:3.84"/>
	<rect x="545.13" y="1819.15" width="45.36" height="508.82" style="fill:#B0CEFF"/>
	<rect x="547.05" y="1821.07" width="41.52" height="504.98" style="fill:none;stroke:#619CFF;stroke-width:3.84"/>
	<rect x="620.87" y="1885.03" width="45.36" height="442.94" style="fill:#808080"/>
	<rect x="622.78" y="1886.95" width="41.52" height="439.10" style="fill:none;stroke:#000000;stroke-width:3.84"/>
	<rect x="666.23" y="1558.33" width="45.36" height="769.65" style="fill:#B0CEFF"/>
	<rect x="668.14" y="1560.25" width="41.52" height="765.81" style="fill:none;stroke:#619CFF;stroke-width:3.84"/>
	<rect x="742.10" y="2148.96" width="45.36" height="179.01" style="fill:#808080"/>
	<rect x="744.01" y="2150.88" width="41.52" height="175.17" style="fill:none;stroke:#000000;stroke-width:3.84"/>
	<rect x="787.46" y="1947.95" width="45.36" height="380.03" style="fill:#B0CEFF"/>
	<rect x="789.37" y="1949.87" width="41.52" height="376.19" style="fill:none;stroke:#619CFF;stroke-width:3.84"/>
	<rect x="863.19" y="1693.47" width="45.49" height="634.51" style="fill:#808080"/>
	<rect x="865.11" y="1695.39" width="41.66" height="630.67" style="fill:none;stroke:#000000;stroke-width:3.84"/>
	<rect x="908.68" y="1772.04" width="45.36" height="555.94" style="fill:#B0CEFF"/>
	<rect x="910.60" y="1773.96" width="41.52" height="552.10" style="fill:none;stroke:#619CFF;stroke-width:3.84"/>
	<rect x="984.42" y="2104.95" width="45.36" height="223.02" style="fill:#808080"/>
	<rect x="986.34" y="2106.87" width="41.52" height="219.18" style="fill:none;stroke:#000000;stroke-width:3.84"/>
	<rect x="1029.78" y="2177.18" width="45.50" height="150.80" style="fill:#B0CEFF"/>
	<rect x="1031.70" y="2179.10" width="41.66" height="146.96" style="fill:none;stroke:#619CFF;stroke-width:3.84"/>
	<rect x="1105.65" y="1872.48" width="45.36" height="455.50" style="fill:#808080"/>
	<rect x="1107.57" y="1874.40" width="41.52" height="451.66" style="fill:none;stroke:#000000;stroke-width:3.84"/>
	<rect x="1151.01" y="2152.07" width="45.36" height="175.91" style="fill:#B0CEFF"/>
	<rect x="1152.93" y="2153.99" width="41.52" height="172.07" style="fill:none;stroke:#619CFF;stroke-width:3.84"/>
	<rect x="1226.88" y="1957.26" width="45.36" height="370.72" style="fill:#808080"/>
	<rect x="1228.80" y="1959.18" width="41.52" height="366.88" style="fill:none;stroke:#000000;stroke-width:3.84"/>
	<rect x="1272.24" y="2261.96" width="45.36" height="66.02" style="fill:#B0CEFF"/>
	<rect x="1274.16" y="2263.88" width="41.52" height="62.18" style="fill:none;stroke:#619CFF;stroke-width:3.84"/>
	<text x="401.22" y="2303.21" style="font-family:'Helvetica';font-size:26.73px;fill:#606060" text-anchor="middle">0.2</text>
	<text x="446.58" y="2299.97" style="font-family:'Helvetica';font-size:26.73px;fill:#606060" text-anchor="middle">0.4</text>
	<text x="522.32" y="2004.72" style="font-family:'Helvetica';font-size:26.73px;fill:#606060" text-anchor="middle">11.6</text>
	<text x="567.81" y="1800.60" style="font-family:'Helvetica';font-size:26.73px;fill:#606060" text-anchor="middle">19.4</text>
	<text x="643.54" y="1866.48" style="font-family:'Helvetica';font-size:26.73px;fill:#606060" text-anchor="middle">16.9</text>
	<text x="688.90" y="1539.77" style="font-family:'Helvetica';font-size:26.73px;fill:#606060" text-anchor="middle">29.4</text>
	<text x="764.77" y="2130.41" style="font-family:'Helvetica';font-size:26.73px;fill:#606060" text-anchor="middle">6.8</text>
	<text x="810.13" y="1929.39" style="font-family:'Helvetica';font-size:26.73px;fill:#606060" text-anchor="middle">14.5</text>
	<text x="886.01" y="1674.91" style="font-family:'Helvetica';font-size:26.73px;fill:#606060" text-anchor="middle">24.2</text>
	<text x="931.37" y="1753.48" style="font-family:'Helvetica';font-size:26.73px;fill:#606060" text-anchor="middle">21.2</text>
	<text x="1007.10" y="2086.40" style="font-family:'Helvetica';font-size:26.73px;fill:#606060" text-anchor="middle">8.5</text>
	<text x="1052.60" y="2158.62" style="font-family:'Helvetica';font-size:26.73px;fill:#606060" text-anchor="middle">5.8</text>
	<text x="1128.33" y="1853.92" style="font-family:'Helvetica';font-size:26.73px;fill:#606060" text-anchor="middle">17.4</text>
	<text x="1173.69" y="2133.51" style="font-family:'Helvetica';font-size:26.73px;fill:#606060" text-anchor="middle">6.7</text>
	<text x="1249.56" y="1938.84" style="font-family:'Helvetica';font-size:26.73px;fill:#606060" text-anchor="middle">14.2</text>
	<text x="1294.92" y="2243.54" style="font-family:'Helvetica';font-size:26.73px;fill:#606060" text-anchor="middle">2.5</text>
	<line x1="302.26" y1="2327.98" x2="275.54" y2="2327.98" style="stroke:#606060;stroke-width:3.84"/>
	<text x="262.17" y="2342.00" style="font-family:'Helvetica';font-size:39.96px;fill:#606060" text-anchor="end">0</text>
	<line x1="302.26" y1="2066.34" x2="275.54" y2="2066.34" style="stroke:#606060;stroke-width:3.84"/>
	<text x="262.17" y="2080.36" style="font-family:'Helvetica';font-size:39.96px;fill:#606060" text-anchor="end">10</text>
	<line x1="302.26" y1="1804.71" x2="275.54" y2="1804.71" style="stroke:#606060;stroke-width:3.84"/>
	<text x="262.17" y="1818.73" style="font-family:'Helvetica';font-size:39.96px;fill:#606060" text-anchor="end">20</text>
	<line x1="302.26" y1="1542.94" x2="275.54" y2="1542.94" style="stroke:#606060;stroke-width:3.84"/>
	<text x="262.17" y="1556.96" style="font-family:'Helvetica';font-size:39.96px;fill:#606060" text-anchor="end">30</text>
	<line x1="302.26" y1="2327.98" x2="302.26" y2="1542.94" style="stroke:#000000;stroke-width:3.84"/>
	<text x="181.17" y="1901.91" style="font-family:'Helvetica';font-size:53.33px;fill:#000000" transform="rotate(-90 181.17,1901.91)" text-anchor="middle">Percent</text>
	<text x="433.81" y="2364.62" style="font-family:'Helvetica';font-size:39.96px;fill:#606060" transform="rotate(-45 433.81,2364.62)" text-anchor="end">[-1;-0.5]</text>
	<text x="555.04" y="2364.62" style="font-family:'Helvetica';font-size:39.96px;fill:#606060" transform="rotate(-45 555.04,2364.62)" text-anchor="end">]-0.5;-0.2]</text>
	<text x="676.14" y="2364.62" style="font-family:'Helvetica';font-size:39.96px;fill:#606060" transform="rotate(-45 676.14,2364.62)" text-anchor="end">]-0.2;-0.1]</text>
	<text x="797.37" y="2364.62" style="font-family:'Helvetica';font-size:39.96px;fill:#606060" transform="rotate(-45 797.37,2364.62)" text-anchor="end">]-0.1;-0.05]</text>
	<text x="918.60" y="2364.62" style="font-family:'Helvetica';font-size:39.96px;fill:#606060" transform="rotate(-45 918.60,2364.62)" text-anchor="end">]-0.05;0.05[</text>
	<text x="1039.69" y="2364.62" style="font-family:'Helvetica';font-size:39.96px;fill:#606060" transform="rotate(-45 1039.69,2364.62)" text-anchor="end">[0.05;0.1[</text>
	<text x="1160.92" y="2364.62" style="font-family:'Helvetica';font-size:39.96px;fill:#606060" transform="rotate(-45 1160.92,2364.62)" text-anchor="end">[0.1;0.2[</text>
	<text x="1282.15" y="2364.62" style="font-family:'Helvetica';font-size:39.96px;fill:#606060" transform="rotate(-45 1282.15,2364.62)" text-anchor="end">[0.2;0.5[</text>
	<text x="848.07" y="1448.17" style="font-family:'Helvetica';font-size:53.33px;fill:#000000" text-anchor="middle">AG</text>
	<rect x="1461.11" y="1332.20" width="1397.79" height="1268.88" style="fill:#FFFFFF"/>
	<rect x="1463.02" y="1334.12" width="1393.95" height="1265.04" style="fill:none;stroke:#FFFFFF;stroke-width:3.84"/>
	<rect x="1699.92" y="1475.84" width="1091.74" height="852.13" style="fill:#E0E0E0"/>
	<rect x="1701.84" y="1477.76" width="1087.91" height="848.29" style="fill:none;stroke:#FFFFFF;stroke-width:3.84"/>
	<line x1="1699.92" y1="2327.98" x2="2791.67" y2="2327.98" style="stroke:#FFFFFF;stroke-width:3.84"/>
	<line x1="1699.92" y1="2131.68" x2="2791.67" y2="2131.68" style="stroke:#FFFFFF;stroke-width:3.84"/>
	<line x1="1699.92" y1="1935.53" x2="2791.67" y2="1935.53" style="stroke:#FFFFFF;stroke-width:3.84"/>
	<line x1="1699.92" y1="1739.23" x2="2791.67" y2="1739.23" style="stroke:#FFFFFF;stroke-width:3.84"/>
	<line x1="1699.92" y1="1542.94" x2="2791.67" y2="1542.94" style="stroke:#FFFFFF;stroke-width:3.84"/>
	<rect x="1775.25" y="2325.68" width="40.23" height="2.30" style="fill:#808080"/>
	<rect x="1777.17" y="2327.60" width="36.39" height="-1.54" style="fill:none;stroke:#000000;stroke-width:3.84"/>
	<rect x="1815.48" y="2141.81" width="40.37" height="186.17" style="fill:#B0CEFF"/>
	<rect x="1817.40" y="2143.73" width="36.53" height="182.33" style="fill:none;stroke:#619CFF;stroke-width:3.84"/>
	<rect x="1882.71" y="1885.03" width="40.37" height="442.94" style="fill:#808080"/>
	<rect x="1884.63" y="1886.95" width="36.53" height="439.10" style="fill:none;stroke:#000000;stroke-width:3.84"/>
	<rect x="1923.08" y="1574.12" width="40.23" height="753.85" style="fill:#B0CEFF"/>
	<rect x="1924.99" y="1576.04" width="36.39" height="750.01" style="fill:none;stroke:#619CFF;stroke-width:3.84"/>
	<rect x="1990.31" y="1823.88" width="40.37" height="504.10" style="fill:#808080"/>
	<rect x="1992.22" y="1825.80" width="36.53" height="500.26" style="fill:none;stroke:#000000;stroke-width:3.84"/>
	<rect x="2030.67" y="1995.87" width="40.23" height="332.11" style="fill:#B0CEFF"/>
	<rect x="2032.59" y="1997.79" width="36.39" height="328.27" style="fill:none;stroke:#619CFF;stroke-width:3.84"/>
	<rect x="2097.90" y="2160.71" width="40.36" height="167.27" style="fill:#808080"/>
	<rect x="2099.82" y="2162.63" width="36.53" height="163.43" style="fill:none;stroke:#000000;stroke-width:3.84"/>
	<rect x="2138.26" y="2212.55" width="40.23" height="115.43" style="fill:#B0CEFF"/>
	<rect x="2140.18" y="2214.47" width="36.39" height="111.59" style="fill:none;stroke:#619CFF;stroke-width:3.84"/>
	<rect x="2205.49" y="1889.76" width="40.23" height="438.22" style="fill:#808080"/>
	<rect x="2207.41" y="1891.68" width="36.39" height="434.38" style="fill:none;stroke:#000000;stroke-width:3.84"/>
	<rect x="2245.72" y="2108.87" width="40.37" height="219.11" style="fill:#B0CEFF"/>
	<rect x="2247.64" y="2110.79" width="36.53" height="215.27" style="fill:none;stroke:#619CFF;stroke-width:3.84"/>
	<rect x="2313.09" y="2205.53" width="40.23" height="122.45" style="fill:#808080"/>
	<rect x="2315.01" y="2207.45" width="36.39" height="118.61" style="fill:none;stroke:#000000;stroke-width:3.84"/>
	<rect x="2353.32" y="2229.02" width="40.36" height="98.96" style="fill:#B0CEFF"/>
	<rect x="2355.24" y="2230.94" width="36.53" height="95.12" style="fill:none;stroke:#619CFF;stroke-width:3.84"/>
	<rect x="2420.68" y="2120.61" width="40.23" height="207.36" style="fill:#808080"/>
	<rect x="2422.60" y="2122.53" width="36.39" height="203.52" style="fill:none;stroke:#000000;stroke-width:3.84"/>
	<rect x="2460.92" y="2214.84" width="40.37" height="113.13" style="fill:#B0CEFF"/>
	<rect x="2462.83" y="2216.76" width="36.53" height="109.29" style="fill:none;stroke:#619CFF;stroke-width:3.84"/>
	<rect x="2528.28" y="2252.65" width="40.23" height="75.33" style="fill:#808080"/>
	<rect x="2530.20" y="2254.57" width="36.39" height="71.49" style="fill:none;stroke:#000000;stroke-width:3.84"/>
	<rect x="2568.51" y="2191.35" width="40.23" height="136.62" style="fill:#B0CEFF"/>
	<rect x="2570.43" y="2193.27" width="36.39" height="132.78" style="fill:none;stroke:#619CFF;stroke-width:3.84"/>
	<rect x="2635.74" y="2325.68" width="40.37" height="2.30" style="fill:#808080"/>
	<rect x="2637.66" y="2327.60" width="36.53" height="-1.54" style="fill:none;stroke:#000000;stroke-width:3.84"/>
	<rect x="2676.11" y="2320.96" width="40.23" height="7.02" style="fill:#B0CEFF"/>
	<rect x="2678.02" y="2322.88" width="36.39" height="3.18" style="fill:none;stroke:#619CFF;stroke-width:3.84"/>
	<text x="1795.37" y="2307.13" style="font-family:'Helvetica';font-size:26.73px;fill:#606060" text-anchor="middle">0.1</text>
	<text x="1835.60" y="2123.39" style="font-family:'Helvetica';font-size:26.73px;fill:#606060" text-anchor="middle">9.5</text>
	<text x="1902.96" y="1866.48" style="font-family:'Helvetica';font-size:26.73px;fill:#606060" text-anchor="middle">22.6</text>
	<text x="1943.19" y="1555.57" style="font-family:'Helvetica';font-size:26.73px;fill:#606060" text-anchor="middle">38.4</text>
	<text x="2010.56" y="1805.32" style="font-family:'Helvetica';font-size:26.73px;fill:#606060" text-anchor="middle">25.7</text>
	<text x="2050.78" y="1977.32" style="font-family:'Helvetica';font-size:26.73px;fill:#606060" text-anchor="middle">16.9</text>
	<text x="2118.01" y="2142.15" style="font-family:'Helvetica';font-size:26.73px;fill:#606060" text-anchor="middle">8.5</text>
	<text x="2158.38" y="2193.99" style="font-family:'Helvetica';font-size:26.73px;fill:#606060" text-anchor="middle">5.9</text>
	<text x="2225.61" y="1871.20" style="font-family:'Helvetica';font-size:26.73px;fill:#606060" text-anchor="middle">22.3</text>
	<text x="2265.97" y="2090.31" style="font-family:'Helvetica';font-size:26.73px;fill:#606060" text-anchor="middle">11.2</text>
	<text x="2333.20" y="2186.97" style="font-family:'Helvetica';font-size:26.73px;fill:#606060" text-anchor="middle">6.2</text>
	<text x="2373.57" y="2210.46" style="font-family:'Helvetica';font-size:26.73px;fill:#606060" text-anchor="middle">5.0</text>
	<text x="2440.80" y="2102.06" style="font-family:'Helvetica';font-size:26.73px;fill:#606060" text-anchor="middle">10.6</text>
	<text x="2481.03" y="2196.42" style="font-family:'Helvetica';font-size:26.73px;fill:#606060" text-anchor="middle">5.8</text>
	<text x="2548.40" y="2234.09" style="font-family:'Helvetica';font-size:26.73px;fill:#606060" text-anchor="middle">3.8</text>
	<text x="2588.63" y="2172.80" style="font-family:'Helvetica';font-size:26.73px;fill:#606060" text-anchor="middle">7.0</text>
	<text x="2655.99" y="2307.13" style="font-family:'Helvetica';font-size:26.73px;fill:#606060" text-anchor="middle">0.1</text>
	<text x="2696.22" y="2302.40" style="font-family:'Helvetica';font-size:26.73px;fill:#606060" text-anchor="middle">0.4</text>
	<line x1="1699.92" y1="2327.98" x2="1673.33" y2="2327.98" style="stroke:#606060;stroke-width:3.84"/>
	<text x="1659.96" y="2342.00" style="font-family:'Helvetica';font-size:39.96px;fill:#606060" text-anchor="end">0</text>
	<line x1="1699.92" y1="2131.68" x2="1673.33" y2="2131.68" style="stroke:#606060;stroke-width:3.84"/>
	<text x="1659.96" y="2145.70" style="font-family:'Helvetica';font-size:39.96px;fill:#606060" text-anchor="end">10</text>
	<line x1="1699.92" y1="1935.53" x2="1673.33" y2="1935.53" style="stroke:#606060;stroke-width:3.84"/>
	<text x="1659.96" y="1949.55" style="font-family:'Helvetica';font-size:39.96px;fill:#606060" text-anchor="end">20</text>
	<line x1="1699.92" y1="1739.23" x2="1673.33" y2="1739.23" style="stroke:#606060;stroke-width:3.84"/>
	<text x="1659.96" y="1753.25" style="font-family:'Helvetica';font-size:39.96px;fill:#606060" text-anchor="end">30</text>
	<line x1="1699.92" y1="1542.94" x2="1673.33" y2="1542.94" style="stroke:#606060;stroke-width:3.84"/>
	<text x="1659.96" y="1556.96" style="font-family:'Helvetica';font-size:39.96px;fill:#606060" text-anchor="end">40</text>
	<line x1="1699.92" y1="2327.98" x2="1699.92" y2="1542.94" style="stroke:#000000;stroke-width:3.84"/>
	<text x="1578.83" y="1901.91" style="font-family:'Helvetica';font-size:53.33px;fill:#000000" transform="rotate(-90 1578.83,1901.91)" text-anchor="middle">Percent</text>
	<text x="1825.39" y="2364.62" style="font-family:'Helvetica';font-size:39.96px;fill:#606060" transform="rotate(-45 1825.39,2364.62)" text-anchor="end">[-1;-0.5]</text>
	<text x="1932.99" y="2364.62" style="font-family:'Helvetica';font-size:39.96px;fill:#606060" transform="rotate(-45 1932.99,2364.62)" text-anchor="end">]-0.5;-0.2]</text>
	<text x="2040.58" y="2364.62" style="font-family:'Helvetica';font-size:39.96px;fill:#606060" transform="rotate(-45 2040.58,2364.62)" text-anchor="end">]-0.2;-0.1]</text>
	<text x="2148.18" y="2364.62" style="font-family:'Helvetica';font-size:39.96px;fill:#606060" transform="rotate(-45 2148.18,2364.62)" text-anchor="end">]-0.1;-0.05]</text>
	<text x="2255.64" y="2364.62" style="font-family:'Helvetica';font-size:39.96px;fill:#606060" transform="rotate(-45 2255.64,2364.62)" text-anchor="end">]-0.05;0.05[</text>
	<text x="2363.23" y="2364.62" style="font-family:'Helvetica';font-size:39.96px;fill:#606060" transform="rotate(-45 2363.23,2364.62)" text-anchor="end">[0.05;0.1[</text>
	<text x="2470.83" y="2364.62" style="font-family:'Helvetica';font-size:39.96px;fill:#606060" transform="rotate(-45 2470.83,2364.62)" text-anchor="end">[0.1;0.2[</text>
	<text x="2578.42" y="2364.62" style="font-family:'Helvetica';font-size:39.96px;fill:#606060" transform="rotate(-45 2578.42,2364.62)" text-anchor="end">[0.2;0.5[</text>
	<text x="2686.02" y="2364.62" style="font-family:'Helvetica';font-size:39.96px;fill:#606060" transform="rotate(-45 2686.02,2364.62)" text-anchor="end">[0.5;1]</text>
	<text x="2245.72" y="1448.17" style="font-family:'Helvetica';font-size:53.33px;fill:#000000" text-anchor="middle">ES</text>
	<rect x="1495.93" y="2635.65" width="1328.13" height="146.48" style="fill:#FFFFFF"/>
	<rect x="1498.81" y="2638.53" width="1322.37" height="140.72" style="fill:none;stroke:#FFFFFF;stroke-width:5.76"/>
	<rect x="1539.14" y="2678.85" width="144.05" height="60.08" style="fill:#808080"/>
	<rect x="1542.01" y="2681.73" width="138.29" height="54.32" style="fill:none;stroke:#000000;stroke-width:5.76"/>
	<rect x="2220.34" y="2678.85" width="144.05" height="60.08" style="fill:#B0CEFF"/>
	<rect x="2223.22" y="2681.73" width="138.29" height="54.32" style="fill:none;stroke:#619CFF;stroke-width:5.76"/>
	<text x="1743.12" y="2729.83" style="font-family:'Helvetica';font-size:59.94px;fill:#000000">Non-corrected</text>
	<text x="2424.33" y="2729.83" style="font-family:'Helvetica';font-size:59.94px;fill:#000000">Corrected</text>
</svg>
