<?xml version="1.0" encoding="UTF-8" standalone="no"?>
<!-- This is a Stata 15.1 generated SVG file (http://www.stata.com) -->

<svg version="1.1" width="6.00in" height="4.00in" viewBox="0 0 4320 2880" xmlns="http://www.w3.org/2000/svg" xmlns:xlink="http://www.w3.org/1999/xlink">
	<desc>Stata Graph - g1</desc>
	<rect x="0" y="0" width="4320" height="2880" style="fill:#FFFFFF;stroke:none"/>
	<rect x="0.00" y="0.00" width="4320.00" height="2880.00" style="fill:#FFFFFF"/>
	<rect x="2.88" y="2.88" width="4314.24" height="2874.24" style="fill:none;stroke:#FFFFFF;stroke-width:5.76"/>
	<rect x="284.04" y="100.85" width="3935.11" height="2228.34" style="fill:#E0E0E0"/>
	<rect x="286.92" y="103.73" width="3929.36" height="2222.58" style="fill:none;stroke:#FFFFFF;stroke-width:5.76"/>
	<line x1="284.04" y1="2329.19" x2="4219.15" y2="2329.19" style="stroke:#FFFFFF;stroke-width:5.76"/>
	<line x1="284.04" y1="1839.13" x2="4219.15" y2="1839.13" style="stroke:#FFFFFF;stroke-width:5.76"/>
	<line x1="284.04" y1="1349.21" x2="4219.15" y2="1349.21" style="stroke:#FFFFFF;stroke-width:5.76"/>
	<line x1="284.04" y1="859.15" x2="4219.15" y2="859.15" style="stroke:#FFFFFF;stroke-width:5.76"/>
	<line x1="284.04" y1="369.23" x2="4219.15" y2="369.23" style="stroke:#FFFFFF;stroke-width:5.76"/>
	<rect x="417.29" y="1077.72" width="161.73" height="1251.47" style="fill:#808080"/>
	<rect x="420.16" y="1080.60" width="155.97" height="1245.71" style="fill:none;stroke:#000000;stroke-width:5.76"/>
	<rect x="579.01" y="854.29" width="161.73" height="1474.90" style="fill:#B0CEFF"/>
	<rect x="581.89" y="857.17" width="155.97" height="1469.14" style="fill:none;stroke:#619CFF;stroke-width:5.76"/>
	<rect x="740.75" y="813.66" width="161.73" height="1515.53" style="fill:#80E0D7"/>
	<rect x="743.62" y="816.54" width="155.97" height="1509.77" style="fill:none;stroke:#00C0AF;stroke-width:5.76"/>
	<rect x="902.48" y="1578.04" width="161.86" height="751.15" style="fill:#E4CC80"/>
	<rect x="905.35" y="1580.92" width="156.11" height="745.39" style="fill:none;stroke:#C99800;stroke-width:5.76"/>
	<rect x="1172.61" y="243.54" width="161.87" height="2085.65" style="fill:#808080"/>
	<rect x="1175.49" y="246.42" width="156.11" height="2079.89" style="fill:none;stroke:#000000;stroke-width:5.76"/>
	<rect x="1334.47" y="230.45" width="161.73" height="2098.74" style="fill:#B0CEFF"/>
	<rect x="1337.35" y="233.33" width="155.97" height="2092.98" style="fill:none;stroke:#619CFF;stroke-width:5.76"/>
	<rect x="1496.20" y="575.51" width="161.73" height="1753.68" style="fill:#80E0D7"/>
	<rect x="1499.08" y="578.39" width="155.97" height="1747.92" style="fill:none;stroke:#00C0AF;stroke-width:5.76"/>
	<rect x="1657.93" y="1391.06" width="161.73" height="938.13" style="fill:#E4CC80"/>
	<rect x="1660.81" y="1393.94" width="155.97" height="932.37" style="fill:none;stroke:#C99800;stroke-width:5.76"/>
	<rect x="1928.07" y="1154.67" width="161.73" height="1174.52" style="fill:#808080"/>
	<rect x="1930.95" y="1157.55" width="155.97" height="1168.76" style="fill:none;stroke:#000000;stroke-width:5.76"/>
	<rect x="2089.80" y="364.51" width="161.86" height="1964.69" style="fill:#B0CEFF"/>
	<rect x="2092.68" y="367.39" width="156.11" height="1958.93" style="fill:none;stroke:#619CFF;stroke-width:5.76"/>
	<rect x="2251.67" y="570.52" width="161.73" height="1758.67" style="fill:#80E0D7"/>
	<rect x="2254.54" y="573.40" width="155.97" height="1752.91" style="fill:none;stroke:#00C0AF;stroke-width:5.76"/>
	<rect x="2413.40" y="399.34" width="161.73" height="1929.86" style="fill:#E4CC80"/>
	<rect x="2416.27" y="402.22" width="155.97" height="1924.10" style="fill:none;stroke:#C99800;stroke-width:5.76"/>
	<rect x="2683.53" y="542.57" width="161.73" height="1786.62" style="fill:#808080"/>
	<rect x="2686.41" y="545.45" width="155.97" height="1780.86" style="fill:none;stroke:#000000;stroke-width:5.76"/>
	<rect x="2845.26" y="887.91" width="161.73" height="1441.28" style="fill:#B0CEFF"/>
	<rect x="2848.14" y="890.79" width="155.97" height="1435.52" style="fill:none;stroke:#619CFF;stroke-width:5.76"/>
	<rect x="3006.99" y="720.78" width="161.87" height="1608.42" style="fill:#80E0D7"/>
	<rect x="3009.87" y="723.66" width="156.11" height="1602.66" style="fill:none;stroke:#00C0AF;stroke-width:5.76"/>
	<rect x="3168.86" y="1191.12" width="161.73" height="1138.07" style="fill:#E4CC80"/>
	<rect x="3171.73" y="1194.00" width="155.97" height="1132.31" style="fill:none;stroke:#C99800;stroke-width:5.76"/>
	<rect x="3438.99" y="201.56" width="161.73" height="2127.63" style="fill:#808080"/>
	<rect x="3441.87" y="204.44" width="155.97" height="2121.87" style="fill:none;stroke:#000000;stroke-width:5.76"/>
	<rect x="3600.72" y="341.56" width="161.73" height="1987.64" style="fill:#B0CEFF"/>
	<rect x="3603.60" y="344.44" width="155.97" height="1981.88" style="fill:none;stroke:#619CFF;stroke-width:5.76"/>
	<rect x="3762.45" y="439.03" width="161.73" height="1890.16" style="fill:#80E0D7"/>
	<rect x="3765.33" y="441.91" width="155.97" height="1884.40" style="fill:none;stroke:#00C0AF;stroke-width:5.76"/>
	<rect x="3924.18" y="1372.03" width="161.87" height="957.16" style="fill:#E4CC80"/>
	<rect x="3927.06" y="1374.91" width="156.11" height="951.41" style="fill:none;stroke:#C99800;stroke-width:5.76"/>
	<text x="498.15" y="1031.80" style="font-family:'Helvetica';font-size:39.96px;fill:#606060" text-anchor="middle">0.51</text>
	<text x="659.88" y="808.37" style="font-family:'Helvetica';font-size:39.96px;fill:#606060" text-anchor="middle">0.60</text>
	<text x="821.61" y="767.60" style="font-family:'Helvetica';font-size:39.96px;fill:#606060" text-anchor="middle">0.62</text>
	<text x="983.48" y="1531.98" style="font-family:'Helvetica';font-size:39.96px;fill:#606060" text-anchor="middle">0.31</text>
	<text x="1253.61" y="197.49" style="font-family:'Helvetica';font-size:39.96px;fill:#606060" text-anchor="middle">0.85</text>
	<text x="1415.34" y="184.53" style="font-family:'Helvetica';font-size:39.96px;fill:#606060" text-anchor="middle">0.86</text>
	<text x="1577.07" y="529.46" style="font-family:'Helvetica';font-size:39.96px;fill:#606060" text-anchor="middle">0.72</text>
	<text x="1738.80" y="1345.14" style="font-family:'Helvetica';font-size:39.96px;fill:#606060" text-anchor="middle">0.38</text>
	<text x="2008.93" y="1108.75" style="font-family:'Helvetica';font-size:39.96px;fill:#606060" text-anchor="middle">0.48</text>
	<text x="2170.80" y="318.58" style="font-family:'Helvetica';font-size:39.96px;fill:#606060" text-anchor="middle">0.80</text>
	<text x="2332.53" y="524.60" style="font-family:'Helvetica';font-size:39.96px;fill:#606060" text-anchor="middle">0.72</text>
	<text x="2494.26" y="353.42" style="font-family:'Helvetica';font-size:39.96px;fill:#606060" text-anchor="middle">0.79</text>
	<text x="2764.40" y="496.65" style="font-family:'Helvetica';font-size:39.96px;fill:#606060" text-anchor="middle">0.73</text>
	<text x="2926.13" y="841.85" style="font-family:'Helvetica';font-size:39.96px;fill:#606060" text-anchor="middle">0.59</text>
	<text x="3087.86" y="674.86" style="font-family:'Helvetica';font-size:39.96px;fill:#606060" text-anchor="middle">0.66</text>
	<text x="3249.72" y="1145.20" style="font-family:'Helvetica';font-size:39.96px;fill:#606060" text-anchor="middle">0.46</text>
	<text x="3519.86" y="155.64" style="font-family:'Helvetica';font-size:39.96px;fill:#606060" text-anchor="middle">0.87</text>
	<text x="3681.59" y="295.50" style="font-family:'Helvetica';font-size:39.96px;fill:#606060" text-anchor="middle">0.81</text>
	<text x="3843.32" y="393.11" style="font-family:'Helvetica';font-size:39.96px;fill:#606060" text-anchor="middle">0.77</text>
	<text x="4005.05" y="1325.97" style="font-family:'Helvetica';font-size:39.96px;fill:#606060" text-anchor="middle">0.39</text>
	<line x1="284.04" y1="2329.19" x2="244.08" y2="2329.19" style="stroke:#606060;stroke-width:5.76"/>
	<text x="224.10" y="2357.20" style="font-family:'Helvetica';font-size:79.92px;fill:#606060" text-anchor="end">0</text>
	<line x1="284.04" y1="1839.13" x2="244.08" y2="1839.13" style="stroke:#606060;stroke-width:5.76"/>
	<text x="224.10" y="1867.14" style="font-family:'Helvetica';font-size:79.92px;fill:#606060" text-anchor="end">.2</text>
	<line x1="284.04" y1="1349.21" x2="244.08" y2="1349.21" style="stroke:#606060;stroke-width:5.76"/>
	<text x="224.10" y="1377.22" style="font-family:'Helvetica';font-size:79.92px;fill:#606060" text-anchor="end">.4</text>
	<line x1="284.04" y1="859.15" x2="244.08" y2="859.15" style="stroke:#606060;stroke-width:5.76"/>
	<text x="224.10" y="887.16" style="font-family:'Helvetica';font-size:79.92px;fill:#606060" text-anchor="end">.6</text>
	<line x1="284.04" y1="369.23" x2="244.08" y2="369.23" style="stroke:#606060;stroke-width:5.76"/>
	<text x="224.10" y="397.24" style="font-family:'Helvetica';font-size:79.92px;fill:#606060" text-anchor="end">.8</text>
	<line x1="284.04" y1="2329.19" x2="284.04" y2="369.23" style="stroke:#000000;stroke-width:5.76"/>
	<text x="740.75" y="2425.03" style="font-family:'Helvetica';font-size:79.92px;fill:#606060" text-anchor="middle">AG</text>
	<text x="1496.20" y="2425.03" style="font-family:'Helvetica';font-size:79.92px;fill:#606060" text-anchor="middle">CO</text>
	<text x="2251.67" y="2425.03" style="font-family:'Helvetica';font-size:79.92px;fill:#606060" text-anchor="middle">ES</text>
	<text x="3006.99" y="2425.03" style="font-family:'Helvetica';font-size:79.92px;fill:#606060" text-anchor="middle">EX</text>
	<text x="3762.45" y="2425.03" style="font-family:'Helvetica';font-size:79.92px;fill:#606060" text-anchor="middle">OP</text>
	<text x="301.32" y="2749.82" style="font-family:'Helvetica';font-size:39.96px;fill:#000000">McDonald's Ω</text>
	<rect x="511.79" y="2503.75" width="3479.63" height="166.32" style="fill:#FFFFFF"/>
	<rect x="514.66" y="2506.63" width="3473.87" height="160.56" style="fill:none;stroke:#FFFFFF;stroke-width:5.76"/>
	<rect x="554.99" y="2556.94" width="144.04" height="59.94" style="fill:#808080"/>
	<rect x="557.86" y="2559.82" width="138.29" height="54.18" style="fill:none;stroke:#000000;stroke-width:5.76"/>
	<rect x="1489.72" y="2556.94" width="144.05" height="59.94" style="fill:#B0CEFF"/>
	<rect x="1492.60" y="2559.82" width="138.29" height="54.18" style="fill:none;stroke:#619CFF;stroke-width:5.76"/>
	<rect x="2291.63" y="2556.94" width="143.91" height="59.94" style="fill:#80E0D7"/>
	<rect x="2294.50" y="2559.82" width="138.15" height="54.18" style="fill:none;stroke:#00C0AF;stroke-width:5.76"/>
	<rect x="3226.36" y="2556.94" width="144.05" height="59.94" style="fill:#E4CC80"/>
	<rect x="3229.24" y="2559.82" width="138.29" height="54.18" style="fill:none;stroke:#C99800;stroke-width:5.76"/>
	<text x="758.97" y="2614.92" style="font-family:'Helvetica';font-size:79.92px;fill:#000000">Non-cor. 2016-17</text>
	<text x="1693.85" y="2614.92" style="font-family:'Helvetica';font-size:79.92px;fill:#000000">Corr. 2016-17</text>
	<text x="2495.61" y="2614.92" style="font-family:'Helvetica';font-size:79.92px;fill:#000000">Non-cor. 2020-21</text>
	<text x="3430.35" y="2614.92" style="font-family:'Helvetica';font-size:79.92px;fill:#000000">Corr. 2020-21</text>
</svg>
