<?xml version="1.0" encoding="UTF-8" standalone="no"?>
<!-- This is a Stata 15.1 generated SVG file (http://www.stata.com) -->

<svg version="1.1" width="6.00in" height="4.00in" viewBox="0 0 4320 2880" xmlns="http://www.w3.org/2000/svg" xmlns:xlink="http://www.w3.org/1999/xlink">
	<desc>Stata Graph - Graph</desc>
	<rect x="0" y="0" width="4320" height="2880" style="fill:#FFFFFF;stroke:none"/>
	<rect x="0.00" y="0.00" width="4320.00" height="2880.00" style="fill:#FFFFFF"/>
	<rect x="2.88" y="2.88" width="4314.24" height="2874.24" style="fill:none;stroke:#FFFFFF;stroke-width:5.76"/>
	<rect x="63.31" y="63.32" width="2096.68" height="2678.71" style="fill:#FFFFFF"/>
	<rect x="65.47" y="65.48" width="2092.37" height="2674.39" style="fill:none;stroke:#FFFFFF;stroke-width:4.32"/>
	<rect x="314.95" y="224.91" width="1769.45" height="2159.90" style="fill:#E0E0E0"/>
	<rect x="317.11" y="227.07" width="1765.13" height="2155.58" style="fill:none;stroke:#FFFFFF;stroke-width:4.32"/>
	<line x1="314.95" y1="2175.42" x2="2084.40" y2="2175.42" style="stroke:#FFFFFF;stroke-width:4.32"/>
	<line x1="314.95" y1="2041.50" x2="2084.40" y2="2041.50" style="stroke:#FFFFFF;stroke-width:4.32"/>
	<line x1="314.95" y1="1907.58" x2="2084.40" y2="1907.58" style="stroke:#FFFFFF;stroke-width:4.32"/>
	<line x1="314.95" y1="1773.66" x2="2084.40" y2="1773.66" style="stroke:#FFFFFF;stroke-width:4.32"/>
	<line x1="314.95" y1="1639.74" x2="2084.40" y2="1639.74" style="stroke:#FFFFFF;stroke-width:4.32"/>
	<line x1="314.95" y1="1505.81" x2="2084.40" y2="1505.81" style="stroke:#FFFFFF;stroke-width:4.32"/>
	<line x1="314.95" y1="1371.89" x2="2084.40" y2="1371.89" style="stroke:#FFFFFF;stroke-width:4.32"/>
	<line x1="314.95" y1="1237.97" x2="2084.40" y2="1237.97" style="stroke:#FFFFFF;stroke-width:4.32"/>
	<line x1="314.95" y1="1104.05" x2="2084.40" y2="1104.05" style="stroke:#FFFFFF;stroke-width:4.32"/>
	<line x1="314.95" y1="970.13" x2="2084.40" y2="970.13" style="stroke:#FFFFFF;stroke-width:4.32"/>
	<line x1="314.95" y1="836.20" x2="2084.40" y2="836.20" style="stroke:#FFFFFF;stroke-width:4.32"/>
	<line x1="314.95" y1="702.28" x2="2084.40" y2="702.28" style="stroke:#FFFFFF;stroke-width:4.32"/>
	<line x1="314.95" y1="568.36" x2="2084.40" y2="568.36" style="stroke:#FFFFFF;stroke-width:4.32"/>
	<line x1="314.95" y1="434.44" x2="2084.40" y2="434.44" style="stroke:#FFFFFF;stroke-width:4.32"/>
	<rect x="415.26" y="1089.20" width="123.66" height="282.69" style="fill:#808080"/>
	<rect x="417.42" y="1091.36" width="119.34" height="278.37" style="fill:none;stroke:#000000;stroke-width:4.32"/>
	<rect x="538.92" y="1371.89" width="123.80" height="657.06" style="fill:#B0CEFF"/>
	<rect x="541.08" y="1374.05" width="119.48" height="652.74" style="fill:none;stroke:#619CFF;stroke-width:4.32"/>
	<rect x="745.61" y="1371.89" width="123.66" height="213.03" style="fill:#808080"/>
	<rect x="747.76" y="1374.05" width="119.34" height="208.71" style="fill:none;stroke:#000000;stroke-width:4.32"/>
	<rect x="869.26" y="1371.89" width="123.79" height="740.49" style="fill:#B0CEFF"/>
	<rect x="871.42" y="1374.05" width="119.48" height="736.17" style="fill:none;stroke:#619CFF;stroke-width:4.32"/>
	<rect x="1075.95" y="705.79" width="123.66" height="666.10" style="fill:#808080"/>
	<rect x="1078.11" y="707.95" width="119.34" height="661.78" style="fill:none;stroke:#000000;stroke-width:4.32"/>
	<rect x="1199.61" y="1371.89" width="123.80" height="23.63" style="fill:#B0CEFF"/>
	<rect x="1201.77" y="1374.05" width="119.48" height="19.31" style="fill:none;stroke:#619CFF;stroke-width:4.32"/>
	<rect x="1406.30" y="1371.89" width="123.66" height="133.52" style="fill:#808080"/>
	<rect x="1408.45" y="1374.05" width="119.34" height="129.20" style="fill:none;stroke:#000000;stroke-width:4.32"/>
	<rect x="1529.95" y="1371.89" width="123.80" height="281.75" style="fill:#B0CEFF"/>
	<rect x="1532.11" y="1374.05" width="119.48" height="277.43" style="fill:none;stroke:#619CFF;stroke-width:4.32"/>
	<rect x="1736.64" y="1371.89" width="123.66" height="149.31" style="fill:#808080"/>
	<rect x="1738.80" y="1374.05" width="119.34" height="144.99" style="fill:none;stroke:#000000;stroke-width:4.32"/>
	<rect x="1860.30" y="1371.89" width="123.66" height="694.18" style="fill:#B0CEFF"/>
	<rect x="1862.46" y="1374.05" width="119.34" height="689.86" style="fill:none;stroke:#619CFF;stroke-width:4.32"/>
	<text x="477.09" y="1044.23" style="font-family:'Helvetica';font-size:29.97px;fill:#606060" text-anchor="middle">21.10</text>
	<text x="600.88" y="2094.96" style="font-family:'Helvetica';font-size:29.97px;fill:#606060" text-anchor="middle">-49.07</text>
	<text x="807.43" y="1650.93" style="font-family:'Helvetica';font-size:29.97px;fill:#606060" text-anchor="middle">-15.92</text>
	<text x="931.23" y="2178.39" style="font-family:'Helvetica';font-size:29.97px;fill:#606060" text-anchor="middle">-55.30</text>
	<text x="1137.78" y="660.96" style="font-family:'Helvetica';font-size:29.97px;fill:#606060" text-anchor="middle">49.73</text>
	<text x="1261.44" y="1461.53" style="font-family:'Helvetica';font-size:29.97px;fill:#606060" text-anchor="middle">-1.77</text>
	<text x="1468.13" y="1571.28" style="font-family:'Helvetica';font-size:29.97px;fill:#606060" text-anchor="middle">-9.97</text>
	<text x="1591.79" y="1719.65" style="font-family:'Helvetica';font-size:29.97px;fill:#606060" text-anchor="middle">-21.04</text>
	<text x="1798.47" y="1587.21" style="font-family:'Helvetica';font-size:29.97px;fill:#606060" text-anchor="middle">-11.16</text>
	<text x="1922.13" y="2132.08" style="font-family:'Helvetica';font-size:29.97px;fill:#606060" text-anchor="middle">-51.84</text>
	<line x1="314.95" y1="2242.39" x2="299.97" y2="2242.39" style="stroke:#606060;stroke-width:4.32"/>
	<line x1="314.95" y1="2175.42" x2="299.97" y2="2175.42" style="stroke:#606060;stroke-width:4.32"/>
	<line x1="314.95" y1="2108.46" x2="299.97" y2="2108.46" style="stroke:#606060;stroke-width:4.32"/>
	<line x1="314.95" y1="2041.50" x2="299.97" y2="2041.50" style="stroke:#606060;stroke-width:4.32"/>
	<line x1="314.95" y1="1974.54" x2="299.97" y2="1974.54" style="stroke:#606060;stroke-width:4.32"/>
	<line x1="314.95" y1="1907.58" x2="299.97" y2="1907.58" style="stroke:#606060;stroke-width:4.32"/>
	<line x1="314.95" y1="1840.62" x2="299.97" y2="1840.62" style="stroke:#606060;stroke-width:4.32"/>
	<line x1="314.95" y1="1773.66" x2="299.97" y2="1773.66" style="stroke:#606060;stroke-width:4.32"/>
	<line x1="314.95" y1="1706.70" x2="299.97" y2="1706.70" style="stroke:#606060;stroke-width:4.32"/>
	<line x1="314.95" y1="1639.74" x2="299.97" y2="1639.74" style="stroke:#606060;stroke-width:4.32"/>
	<line x1="314.95" y1="1572.77" x2="299.97" y2="1572.77" style="stroke:#606060;stroke-width:4.32"/>
	<line x1="314.95" y1="1505.81" x2="299.97" y2="1505.81" style="stroke:#606060;stroke-width:4.32"/>
	<line x1="314.95" y1="1438.85" x2="299.97" y2="1438.85" style="stroke:#606060;stroke-width:4.32"/>
	<line x1="314.95" y1="1371.89" x2="299.97" y2="1371.89" style="stroke:#606060;stroke-width:4.32"/>
	<line x1="314.95" y1="1304.93" x2="299.97" y2="1304.93" style="stroke:#606060;stroke-width:4.32"/>
	<line x1="314.95" y1="1237.97" x2="299.97" y2="1237.97" style="stroke:#606060;stroke-width:4.32"/>
	<line x1="314.95" y1="1171.01" x2="299.97" y2="1171.01" style="stroke:#606060;stroke-width:4.32"/>
	<line x1="314.95" y1="1104.05" x2="299.97" y2="1104.05" style="stroke:#606060;stroke-width:4.32"/>
	<line x1="314.95" y1="1037.09" x2="299.97" y2="1037.09" style="stroke:#606060;stroke-width:4.32"/>
	<line x1="314.95" y1="970.13" x2="299.97" y2="970.13" style="stroke:#606060;stroke-width:4.32"/>
	<line x1="314.95" y1="903.16" x2="299.97" y2="903.16" style="stroke:#606060;stroke-width:4.32"/>
	<line x1="314.95" y1="836.20" x2="299.97" y2="836.20" style="stroke:#606060;stroke-width:4.32"/>
	<line x1="314.95" y1="769.24" x2="299.97" y2="769.24" style="stroke:#606060;stroke-width:4.32"/>
	<line x1="314.95" y1="702.28" x2="299.97" y2="702.28" style="stroke:#606060;stroke-width:4.32"/>
	<line x1="314.95" y1="635.32" x2="299.97" y2="635.32" style="stroke:#606060;stroke-width:4.32"/>
	<line x1="314.95" y1="568.36" x2="299.97" y2="568.36" style="stroke:#606060;stroke-width:4.32"/>
	<line x1="314.95" y1="501.40" x2="299.97" y2="501.40" style="stroke:#606060;stroke-width:4.32"/>
	<line x1="314.95" y1="434.44" x2="299.97" y2="434.44" style="stroke:#606060;stroke-width:4.32"/>
	<line x1="314.95" y1="367.48" x2="299.97" y2="367.48" style="stroke:#606060;stroke-width:4.32"/>
	<line x1="314.95" y1="2309.35" x2="284.99" y2="2309.35" style="stroke:#606060;stroke-width:4.32"/>
	<text x="269.87" y="2330.36" style="font-family:'Helvetica';font-size:59.94px;fill:#606060" text-anchor="end">-70</text>
	<line x1="314.95" y1="2175.42" x2="284.99" y2="2175.42" style="stroke:#606060;stroke-width:4.32"/>
	<text x="269.87" y="2196.44" style="font-family:'Helvetica';font-size:59.94px;fill:#606060" text-anchor="end">-60</text>
	<line x1="314.95" y1="2041.50" x2="284.99" y2="2041.50" style="stroke:#606060;stroke-width:4.32"/>
	<text x="269.87" y="2062.51" style="font-family:'Helvetica';font-size:59.94px;fill:#606060" text-anchor="end">-50</text>
	<line x1="314.95" y1="1907.58" x2="284.99" y2="1907.58" style="stroke:#606060;stroke-width:4.32"/>
	<text x="269.87" y="1928.59" style="font-family:'Helvetica';font-size:59.94px;fill:#606060" text-anchor="end">-40</text>
	<line x1="314.95" y1="1773.66" x2="284.99" y2="1773.66" style="stroke:#606060;stroke-width:4.32"/>
	<text x="269.87" y="1794.67" style="font-family:'Helvetica';font-size:59.94px;fill:#606060" text-anchor="end">-30</text>
	<line x1="314.95" y1="1639.74" x2="284.99" y2="1639.74" style="stroke:#606060;stroke-width:4.32"/>
	<text x="269.87" y="1660.75" style="font-family:'Helvetica';font-size:59.94px;fill:#606060" text-anchor="end">-20</text>
	<line x1="314.95" y1="1505.81" x2="284.99" y2="1505.81" style="stroke:#606060;stroke-width:4.32"/>
	<text x="269.87" y="1526.83" style="font-family:'Helvetica';font-size:59.94px;fill:#606060" text-anchor="end">-10</text>
	<line x1="314.95" y1="1371.89" x2="284.99" y2="1371.89" style="stroke:#606060;stroke-width:4.32"/>
	<text x="269.87" y="1392.90" style="font-family:'Helvetica';font-size:59.94px;fill:#606060" text-anchor="end">0</text>
	<line x1="314.95" y1="1237.97" x2="284.99" y2="1237.97" style="stroke:#606060;stroke-width:4.32"/>
	<text x="269.87" y="1258.98" style="font-family:'Helvetica';font-size:59.94px;fill:#606060" text-anchor="end">10</text>
	<line x1="314.95" y1="1104.05" x2="284.99" y2="1104.05" style="stroke:#606060;stroke-width:4.32"/>
	<text x="269.87" y="1125.06" style="font-family:'Helvetica';font-size:59.94px;fill:#606060" text-anchor="end">20</text>
	<line x1="314.95" y1="970.13" x2="284.99" y2="970.13" style="stroke:#606060;stroke-width:4.32"/>
	<text x="269.87" y="991.14" style="font-family:'Helvetica';font-size:59.94px;fill:#606060" text-anchor="end">30</text>
	<line x1="314.95" y1="836.20" x2="284.99" y2="836.20" style="stroke:#606060;stroke-width:4.32"/>
	<text x="269.87" y="857.22" style="font-family:'Helvetica';font-size:59.94px;fill:#606060" text-anchor="end">40</text>
	<line x1="314.95" y1="702.28" x2="284.99" y2="702.28" style="stroke:#606060;stroke-width:4.32"/>
	<text x="269.87" y="723.29" style="font-family:'Helvetica';font-size:59.94px;fill:#606060" text-anchor="end">50</text>
	<line x1="314.95" y1="568.36" x2="284.99" y2="568.36" style="stroke:#606060;stroke-width:4.32"/>
	<text x="269.87" y="589.37" style="font-family:'Helvetica';font-size:59.94px;fill:#606060" text-anchor="end">60</text>
	<line x1="314.95" y1="434.44" x2="284.99" y2="434.44" style="stroke:#606060;stroke-width:4.32"/>
	<text x="269.87" y="455.45" style="font-family:'Helvetica';font-size:59.94px;fill:#606060" text-anchor="end">70</text>
	<line x1="314.95" y1="300.51" x2="284.99" y2="300.51" style="stroke:#606060;stroke-width:4.32"/>
	<text x="269.87" y="321.53" style="font-family:'Helvetica';font-size:59.94px;fill:#606060" text-anchor="end">80</text>
	<line x1="314.95" y1="2309.35" x2="314.95" y2="300.51" style="stroke:#000000;stroke-width:4.32"/>
	<text x="538.92" y="2456.81" style="font-family:'Helvetica';font-size:59.94px;fill:#606060" text-anchor="middle">AG</text>
	<text x="869.26" y="2456.81" style="font-family:'Helvetica';font-size:59.94px;fill:#606060" text-anchor="middle">CO</text>
	<text x="1199.61" y="2456.81" style="font-family:'Helvetica';font-size:59.94px;fill:#606060" text-anchor="middle">ES</text>
	<text x="1529.95" y="2456.81" style="font-family:'Helvetica';font-size:59.94px;fill:#606060" text-anchor="middle">EX</text>
	<text x="1860.30" y="2456.81" style="font-family:'Helvetica';font-size:59.94px;fill:#606060" text-anchor="middle">OP</text>
	<text x="1199.61" y="193.90" style="font-family:'Helvetica';font-size:59.94px;fill:#000000" text-anchor="middle">Variation over time (2016-17 / 2020-21)</text>
	<rect x="769.50" y="2515.76" width="860.36" height="124.74" style="fill:#FFFFFF"/>
	<rect x="771.66" y="2517.92" width="856.04" height="120.42" style="fill:none;stroke:#FFFFFF;stroke-width:4.32"/>
	<rect x="801.90" y="2555.72" width="108.00" height="44.96" style="fill:#808080"/>
	<rect x="804.06" y="2557.88" width="103.68" height="40.64" style="fill:none;stroke:#000000;stroke-width:4.32"/>
	<rect x="1289.52" y="2555.72" width="108.00" height="44.96" style="fill:#B0CEFF"/>
	<rect x="1291.68" y="2557.88" width="103.68" height="40.64" style="fill:none;stroke:#619CFF;stroke-width:4.32"/>
	<text x="969.84" y="2599.15" style="font-family:'Helvetica';font-size:59.94px;fill:#000000">Non-cor.</text>
	<text x="1457.46" y="2599.15" style="font-family:'Helvetica';font-size:59.94px;fill:#000000">Corr.</text>
	<rect x="2160.00" y="63.32" width="2096.55" height="2678.71" style="fill:#FFFFFF"/>
	<rect x="2162.16" y="65.48" width="2092.23" height="2674.39" style="fill:none;stroke:#FFFFFF;stroke-width:4.32"/>
	<rect x="2411.51" y="224.91" width="1769.44" height="2159.90" style="fill:#E0E0E0"/>
	<rect x="2413.66" y="227.07" width="1765.13" height="2155.58" style="fill:none;stroke:#FFFFFF;stroke-width:4.32"/>
	<line x1="2411.51" y1="2175.42" x2="4180.95" y2="2175.42" style="stroke:#FFFFFF;stroke-width:4.32"/>
	<line x1="2411.51" y1="2041.50" x2="4180.95" y2="2041.50" style="stroke:#FFFFFF;stroke-width:4.32"/>
	<line x1="2411.51" y1="1907.58" x2="4180.95" y2="1907.58" style="stroke:#FFFFFF;stroke-width:4.32"/>
	<line x1="2411.51" y1="1773.66" x2="4180.95" y2="1773.66" style="stroke:#FFFFFF;stroke-width:4.32"/>
	<line x1="2411.51" y1="1639.74" x2="4180.95" y2="1639.74" style="stroke:#FFFFFF;stroke-width:4.32"/>
	<line x1="2411.51" y1="1505.81" x2="4180.95" y2="1505.81" style="stroke:#FFFFFF;stroke-width:4.32"/>
	<line x1="2411.51" y1="1371.89" x2="4180.95" y2="1371.89" style="stroke:#FFFFFF;stroke-width:4.32"/>
	<line x1="2411.51" y1="1237.97" x2="4180.95" y2="1237.97" style="stroke:#FFFFFF;stroke-width:4.32"/>
	<line x1="2411.51" y1="1104.05" x2="4180.95" y2="1104.05" style="stroke:#FFFFFF;stroke-width:4.32"/>
	<line x1="2411.51" y1="970.13" x2="4180.95" y2="970.13" style="stroke:#FFFFFF;stroke-width:4.32"/>
	<line x1="2411.51" y1="836.20" x2="4180.95" y2="836.20" style="stroke:#FFFFFF;stroke-width:4.32"/>
	<line x1="2411.51" y1="702.28" x2="4180.95" y2="702.28" style="stroke:#FFFFFF;stroke-width:4.32"/>
	<line x1="2411.51" y1="568.36" x2="4180.95" y2="568.36" style="stroke:#FFFFFF;stroke-width:4.32"/>
	<line x1="2411.51" y1="434.44" x2="4180.95" y2="434.44" style="stroke:#FFFFFF;stroke-width:4.32"/>
	<rect x="2511.81" y="1132.67" width="123.80" height="239.22" style="fill:#808080"/>
	<rect x="2513.97" y="1134.83" width="119.48" height="234.90" style="fill:none;stroke:#000000;stroke-width:4.32"/>
	<rect x="2635.61" y="1371.89" width="123.66" height="675.42" style="fill:#B0CEFF"/>
	<rect x="2637.76" y="1374.05" width="119.34" height="671.10" style="fill:none;stroke:#619CFF;stroke-width:4.32"/>
	<rect x="2842.16" y="1363.52" width="123.79" height="8.37" style="fill:#808080"/>
	<rect x="2844.31" y="1365.68" width="119.48" height="4.05" style="fill:none;stroke:#000000;stroke-width:4.32"/>
	<rect x="2965.95" y="1371.89" width="123.66" height="622.76" style="fill:#B0CEFF"/>
	<rect x="2968.11" y="1374.05" width="119.34" height="618.44" style="fill:none;stroke:#619CFF;stroke-width:4.32"/>
	<rect x="3172.50" y="470.89" width="123.80" height="901.00" style="fill:#808080"/>
	<rect x="3174.66" y="473.05" width="119.48" height="896.68" style="fill:none;stroke:#000000;stroke-width:4.32"/>
	<rect x="3296.30" y="1241.48" width="123.66" height="130.41" style="fill:#B0CEFF"/>
	<rect x="3298.45" y="1243.64" width="119.34" height="126.09" style="fill:none;stroke:#619CFF;stroke-width:4.32"/>
	<rect x="3502.84" y="1371.89" width="123.80" height="258.66" style="fill:#808080"/>
	<rect x="3505.00" y="1374.05" width="119.48" height="254.34" style="fill:none;stroke:#000000;stroke-width:4.32"/>
	<rect x="3626.64" y="1371.89" width="123.66" height="391.64" style="fill:#B0CEFF"/>
	<rect x="3628.80" y="1374.05" width="119.34" height="387.32" style="fill:none;stroke:#619CFF;stroke-width:4.32"/>
	<rect x="3833.19" y="1371.89" width="123.66" height="88.02" style="fill:#808080"/>
	<rect x="3835.35" y="1374.05" width="119.34" height="83.70" style="fill:none;stroke:#000000;stroke-width:4.32"/>
	<rect x="3956.85" y="1371.89" width="123.80" height="660.97" style="fill:#B0CEFF"/>
	<rect x="3959.01" y="1374.05" width="119.48" height="656.65" style="fill:none;stroke:#619CFF;stroke-width:4.32"/>
	<text x="2573.78" y="1087.84" style="font-family:'Helvetica';font-size:29.97px;fill:#606060" text-anchor="middle">17.85</text>
	<text x="2697.43" y="2113.18" style="font-family:'Helvetica';font-size:29.97px;fill:#606060" text-anchor="middle">-50.44</text>
	<text x="2904.12" y="1318.56" style="font-family:'Helvetica';font-size:29.97px;fill:#606060" text-anchor="middle">0.62</text>
	<text x="3027.78" y="2060.67" style="font-family:'Helvetica';font-size:29.97px;fill:#606060" text-anchor="middle">-46.51</text>
	<text x="3234.33" y="426.06" style="font-family:'Helvetica';font-size:29.97px;fill:#606060" text-anchor="middle">67.27</text>
	<text x="3358.13" y="1196.52" style="font-family:'Helvetica';font-size:29.97px;fill:#606060" text-anchor="middle">9.74</text>
	<text x="3564.68" y="1696.56" style="font-family:'Helvetica';font-size:29.97px;fill:#606060" text-anchor="middle">-19.32</text>
	<text x="3688.47" y="1829.41" style="font-family:'Helvetica';font-size:29.97px;fill:#606060" text-anchor="middle">-29.25</text>
	<text x="3895.02" y="1525.79" style="font-family:'Helvetica';font-size:29.97px;fill:#606060" text-anchor="middle">-6.58</text>
	<text x="4018.82" y="2098.74" style="font-family:'Helvetica';font-size:29.97px;fill:#606060" text-anchor="middle">-49.36</text>
	<line x1="2411.51" y1="2309.35" x2="2381.53" y2="2309.35" style="stroke:#606060;stroke-width:4.32"/>
	<text x="2366.55" y="2330.36" style="font-family:'Helvetica';font-size:59.94px;fill:#606060" text-anchor="end">-70</text>
	<line x1="2411.51" y1="2175.42" x2="2381.53" y2="2175.42" style="stroke:#606060;stroke-width:4.32"/>
	<text x="2366.55" y="2196.44" style="font-family:'Helvetica';font-size:59.94px;fill:#606060" text-anchor="end">-60</text>
	<line x1="2411.51" y1="2041.50" x2="2381.53" y2="2041.50" style="stroke:#606060;stroke-width:4.32"/>
	<text x="2366.55" y="2062.51" style="font-family:'Helvetica';font-size:59.94px;fill:#606060" text-anchor="end">-50</text>
	<line x1="2411.51" y1="1907.58" x2="2381.53" y2="1907.58" style="stroke:#606060;stroke-width:4.32"/>
	<text x="2366.55" y="1928.59" style="font-family:'Helvetica';font-size:59.94px;fill:#606060" text-anchor="end">-40</text>
	<line x1="2411.51" y1="1773.66" x2="2381.53" y2="1773.66" style="stroke:#606060;stroke-width:4.32"/>
	<text x="2366.55" y="1794.67" style="font-family:'Helvetica';font-size:59.94px;fill:#606060" text-anchor="end">-30</text>
	<line x1="2411.51" y1="1639.74" x2="2381.53" y2="1639.74" style="stroke:#606060;stroke-width:4.32"/>
	<text x="2366.55" y="1660.75" style="font-family:'Helvetica';font-size:59.94px;fill:#606060" text-anchor="end">-20</text>
	<line x1="2411.51" y1="1505.81" x2="2381.53" y2="1505.81" style="stroke:#606060;stroke-width:4.32"/>
	<text x="2366.55" y="1526.83" style="font-family:'Helvetica';font-size:59.94px;fill:#606060" text-anchor="end">-10</text>
	<line x1="2411.51" y1="1371.89" x2="2381.53" y2="1371.89" style="stroke:#606060;stroke-width:4.32"/>
	<text x="2366.55" y="1392.90" style="font-family:'Helvetica';font-size:59.94px;fill:#606060" text-anchor="end">0</text>
	<line x1="2411.51" y1="1237.97" x2="2381.53" y2="1237.97" style="stroke:#606060;stroke-width:4.32"/>
	<text x="2366.55" y="1258.98" style="font-family:'Helvetica';font-size:59.94px;fill:#606060" text-anchor="end">10</text>
	<line x1="2411.51" y1="1104.05" x2="2381.53" y2="1104.05" style="stroke:#606060;stroke-width:4.32"/>
	<text x="2366.55" y="1125.06" style="font-family:'Helvetica';font-size:59.94px;fill:#606060" text-anchor="end">20</text>
	<line x1="2411.51" y1="970.13" x2="2381.53" y2="970.13" style="stroke:#606060;stroke-width:4.32"/>
	<text x="2366.55" y="991.14" style="font-family:'Helvetica';font-size:59.94px;fill:#606060" text-anchor="end">30</text>
	<line x1="2411.51" y1="836.20" x2="2381.53" y2="836.20" style="stroke:#606060;stroke-width:4.32"/>
	<text x="2366.55" y="857.22" style="font-family:'Helvetica';font-size:59.94px;fill:#606060" text-anchor="end">40</text>
	<line x1="2411.51" y1="702.28" x2="2381.53" y2="702.28" style="stroke:#606060;stroke-width:4.32"/>
	<text x="2366.55" y="723.29" style="font-family:'Helvetica';font-size:59.94px;fill:#606060" text-anchor="end">50</text>
	<line x1="2411.51" y1="568.36" x2="2381.53" y2="568.36" style="stroke:#606060;stroke-width:4.32"/>
	<text x="2366.55" y="589.37" style="font-family:'Helvetica';font-size:59.94px;fill:#606060" text-anchor="end">60</text>
	<line x1="2411.51" y1="434.44" x2="2381.53" y2="434.44" style="stroke:#606060;stroke-width:4.32"/>
	<text x="2366.55" y="455.45" style="font-family:'Helvetica';font-size:59.94px;fill:#606060" text-anchor="end">70</text>
	<line x1="2411.51" y1="300.51" x2="2381.53" y2="300.51" style="stroke:#606060;stroke-width:4.32"/>
	<text x="2366.55" y="321.53" style="font-family:'Helvetica';font-size:59.94px;fill:#606060" text-anchor="end">80</text>
	<line x1="2411.51" y1="2309.35" x2="2411.51" y2="300.51" style="stroke:#000000;stroke-width:4.32"/>
	<text x="2635.61" y="2456.81" style="font-family:'Helvetica';font-size:59.94px;fill:#606060" text-anchor="middle">AG</text>
	<text x="2965.95" y="2456.81" style="font-family:'Helvetica';font-size:59.94px;fill:#606060" text-anchor="middle">CO</text>
	<text x="3296.30" y="2456.81" style="font-family:'Helvetica';font-size:59.94px;fill:#606060" text-anchor="middle">ES</text>
	<text x="3626.64" y="2456.81" style="font-family:'Helvetica';font-size:59.94px;fill:#606060" text-anchor="middle">EX</text>
	<text x="3956.85" y="2456.81" style="font-family:'Helvetica';font-size:59.94px;fill:#606060" text-anchor="middle">OP</text>
	<text x="3296.30" y="193.90" style="font-family:'Helvetica';font-size:59.94px;fill:#000000" text-anchor="middle">Variation over correction (Non-cor. / Corr.)</text>
	<rect x="2824.88" y="2515.76" width="942.70" height="124.74" style="fill:#FFFFFF"/>
	<rect x="2827.03" y="2517.92" width="938.39" height="120.42" style="fill:none;stroke:#FFFFFF;stroke-width:4.32"/>
	<rect x="2857.28" y="2555.72" width="108.00" height="44.96" style="fill:#808080"/>
	<rect x="2859.43" y="2557.88" width="103.68" height="40.64" style="fill:none;stroke:#000000;stroke-width:4.32"/>
	<rect x="3336.26" y="2555.72" width="108.00" height="44.96" style="fill:#B0CEFF"/>
	<rect x="3338.41" y="2557.88" width="103.68" height="40.64" style="fill:none;stroke:#619CFF;stroke-width:4.32"/>
	<text x="3025.35" y="2599.15" style="font-family:'Helvetica';font-size:59.94px;fill:#000000">2016-17</text>
	<text x="3504.20" y="2599.15" style="font-family:'Helvetica';font-size:59.94px;fill:#000000">2020-21</text>
	<text x="80.59" y="2787.35" style="font-family:'Helvetica';font-size:39.96px;fill:#000000">Variation rate of McDonald's Ω</text>
</svg>
