<?xml version="1.0" encoding="UTF-8" standalone="no"?>
<!-- This is a Stata 15.1 generated SVG file (http://www.stata.com) -->

<svg version="1.1" width="6.00in" height="4.00in" viewBox="0 0 4320 2880" xmlns="http://www.w3.org/2000/svg" xmlns:xlink="http://www.w3.org/1999/xlink">
	<desc>Stata Graph - Graph</desc>
	<rect x="0" y="0" width="4320" height="2880" style="fill:#FFFFFF;stroke:none"/>
	<rect x="0.00" y="0.00" width="4320.00" height="2880.00" style="fill:#FFFFFF"/>
	<rect x="2.88" y="2.88" width="4314.24" height="2874.24" style="fill:none;stroke:#FFFFFF;stroke-width:5.76"/>
	<rect x="63.31" y="63.32" width="1397.79" height="2678.71" style="fill:#FFFFFF"/>
	<rect x="65.47" y="65.48" width="1393.47" height="2674.39" style="fill:none;stroke:#FFFFFF;stroke-width:4.32"/>
	<rect x="332.10" y="138.92" width="1053.41" height="2048.93" style="fill:#E0E0E0"/>
	<rect x="334.26" y="141.08" width="1049.09" height="2044.61" style="fill:none;stroke:#FFFFFF;stroke-width:4.32"/>
	<line x1="332.10" y1="2187.84" x2="1385.51" y2="2187.84" style="stroke:#FFFFFF;stroke-width:4.32"/>
	<line x1="332.10" y1="1721.55" x2="1385.51" y2="1721.55" style="stroke:#FFFFFF;stroke-width:4.32"/>
	<line x1="332.10" y1="1255.25" x2="1385.51" y2="1255.25" style="stroke:#FFFFFF;stroke-width:4.32"/>
	<line x1="332.10" y1="788.95" x2="1385.51" y2="788.95" style="stroke:#FFFFFF;stroke-width:4.32"/>
	<line x1="332.10" y1="322.66" x2="1385.51" y2="322.66" style="stroke:#FFFFFF;stroke-width:4.32"/>
	<rect x="424.98" y="1713.45" width="86.67" height="474.40" style="fill:#808080"/>
	<rect x="427.14" y="1715.61" width="82.35" height="470.08" style="fill:none;stroke:#000000;stroke-width:4.32"/>
	<rect x="511.65" y="1747.87" width="86.67" height="439.97" style="fill:#B0CEFF"/>
	<rect x="513.81" y="1750.03" width="82.35" height="435.65" style="fill:none;stroke:#619CFF;stroke-width:4.32"/>
	<rect x="656.37" y="401.36" width="86.67" height="1786.48" style="fill:#808080"/>
	<rect x="658.53" y="403.52" width="82.35" height="1782.16" style="fill:none;stroke:#000000;stroke-width:4.32"/>
	<rect x="743.04" y="214.52" width="86.67" height="1973.33" style="fill:#B0CEFF"/>
	<rect x="745.20" y="216.68" width="82.35" height="1969.01" style="fill:none;stroke:#619CFF;stroke-width:4.32"/>
	<rect x="887.76" y="1662.96" width="86.67" height="524.89" style="fill:#808080"/>
	<rect x="889.92" y="1665.12" width="82.35" height="520.57" style="fill:none;stroke:#000000;stroke-width:4.32"/>
	<rect x="974.43" y="1634.74" width="86.67" height="553.10" style="fill:#B0CEFF"/>
	<rect x="976.59" y="1636.90" width="82.35" height="548.78" style="fill:none;stroke:#619CFF;stroke-width:4.32"/>
	<rect x="1119.29" y="310.50" width="86.67" height="1877.34" style="fill:#808080"/>
	<rect x="1121.44" y="312.66" width="82.35" height="1873.02" style="fill:none;stroke:#000000;stroke-width:4.32"/>
	<rect x="1205.95" y="491.00" width="86.67" height="1696.84" style="fill:#B0CEFF"/>
	<rect x="1208.11" y="493.16" width="82.35" height="1692.52" style="fill:none;stroke:#619CFF;stroke-width:4.32"/>
	<text x="468.32" y="1668.21" style="font-family:'Helvetica';font-size:29.97px;fill:#606060" text-anchor="middle">10.2</text>
	<text x="554.99" y="1702.77" style="font-family:'Helvetica';font-size:29.97px;fill:#606060" text-anchor="middle">9.4</text>
	<text x="699.71" y="356.26" style="font-family:'Helvetica';font-size:29.97px;fill:#606060" text-anchor="middle">38.3</text>
	<text x="786.38" y="169.42" style="font-family:'Helvetica';font-size:29.97px;fill:#606060" text-anchor="middle">42.3</text>
	<text x="931.10" y="1617.86" style="font-family:'Helvetica';font-size:29.97px;fill:#606060" text-anchor="middle">11.3</text>
	<text x="1017.77" y="1589.64" style="font-family:'Helvetica';font-size:29.97px;fill:#606060" text-anchor="middle">11.9</text>
	<text x="1162.62" y="265.41" style="font-family:'Helvetica';font-size:29.97px;fill:#606060" text-anchor="middle">40.3</text>
	<text x="1249.29" y="445.91" style="font-family:'Helvetica';font-size:29.97px;fill:#606060" text-anchor="middle">36.4</text>
	<line x1="332.10" y1="2187.84" x2="302.00" y2="2187.84" style="stroke:#606060;stroke-width:4.32"/>
	<text x="287.01" y="2203.61" style="font-family:'Helvetica';font-size:44.95px;fill:#606060" text-anchor="end">0</text>
	<line x1="332.10" y1="1721.55" x2="302.00" y2="1721.55" style="stroke:#606060;stroke-width:4.32"/>
	<text x="287.01" y="1737.32" style="font-family:'Helvetica';font-size:44.95px;fill:#606060" text-anchor="end">10</text>
	<line x1="332.10" y1="1255.25" x2="302.00" y2="1255.25" style="stroke:#606060;stroke-width:4.32"/>
	<text x="287.01" y="1271.02" style="font-family:'Helvetica';font-size:44.95px;fill:#606060" text-anchor="end">20</text>
	<line x1="332.10" y1="788.95" x2="302.00" y2="788.95" style="stroke:#606060;stroke-width:4.32"/>
	<text x="287.01" y="804.72" style="font-family:'Helvetica';font-size:44.95px;fill:#606060" text-anchor="end">30</text>
	<line x1="332.10" y1="322.66" x2="302.00" y2="322.66" style="stroke:#606060;stroke-width:4.32"/>
	<text x="287.01" y="338.42" style="font-family:'Helvetica';font-size:44.95px;fill:#606060" text-anchor="end">40</text>
	<line x1="332.10" y1="2187.84" x2="332.10" y2="322.66" style="stroke:#000000;stroke-width:4.32"/>
	<text x="195.93" y="1163.31" style="font-family:'Helvetica';font-size:59.94px;fill:#000000" transform="rotate(-90 195.93,1163.31)" text-anchor="middle">Percent</text>
	<text x="522.80" y="2228.96" style="font-family:'Helvetica';font-size:44.95px;fill:#606060" transform="rotate(-45 522.80,2228.96)" text-anchor="end">Always biased</text>
	<text x="754.19" y="2228.96" style="font-family:'Helvetica';font-size:44.95px;fill:#606060" transform="rotate(-45 754.19,2228.96)" text-anchor="end">Becomes biased</text>
	<text x="985.58" y="2228.96" style="font-family:'Helvetica';font-size:44.95px;fill:#606060" transform="rotate(-45 985.58,2228.96)" text-anchor="end">Leave bias</text>
	<text x="1217.10" y="2228.96" style="font-family:'Helvetica';font-size:44.95px;fill:#606060" transform="rotate(-45 1217.10,2228.96)" text-anchor="end">Never biased</text>
	<rect x="489.78" y="2530.75" width="738.05" height="109.76" style="fill:#FFFFFF"/>
	<rect x="491.94" y="2532.91" width="733.73" height="105.44" style="fill:none;stroke:#FFFFFF;stroke-width:4.32"/>
	<rect x="522.18" y="2563.15" width="108.00" height="44.96" style="fill:#808080"/>
	<rect x="524.34" y="2565.31" width="103.68" height="40.64" style="fill:none;stroke:#000000;stroke-width:4.32"/>
	<rect x="869.94" y="2563.15" width="108.00" height="44.96" style="fill:#B0CEFF"/>
	<rect x="872.10" y="2565.31" width="103.68" height="40.64" style="fill:none;stroke:#619CFF;stroke-width:4.32"/>
	<text x="690.12" y="2601.46" style="font-family:'Helvetica';font-size:44.95px;fill:#000000">Male</text>
	<text x="1037.88" y="2601.46" style="font-family:'Helvetica';font-size:44.95px;fill:#000000">Female</text>
	<rect x="1461.11" y="63.32" width="1397.79" height="2678.71" style="fill:#FFFFFF"/>
	<rect x="1463.26" y="65.48" width="1393.47" height="2674.39" style="fill:none;stroke:#FFFFFF;stroke-width:4.32"/>
	<rect x="1714.64" y="138.92" width="1068.66" height="2048.93" style="fill:#E0E0E0"/>
	<rect x="1716.79" y="141.08" width="1064.34" height="2044.61" style="fill:none;stroke:#FFFFFF;stroke-width:4.32"/>
	<line x1="1714.64" y1="2187.84" x2="2783.30" y2="2187.84" style="stroke:#FFFFFF;stroke-width:4.32"/>
	<line x1="1714.64" y1="1793.10" x2="2783.30" y2="1793.10" style="stroke:#FFFFFF;stroke-width:4.32"/>
	<line x1="1714.64" y1="1398.49" x2="2783.30" y2="1398.49" style="stroke:#FFFFFF;stroke-width:4.32"/>
	<line x1="1714.64" y1="1003.88" x2="2783.30" y2="1003.88" style="stroke:#FFFFFF;stroke-width:4.32"/>
	<line x1="1714.64" y1="609.26" x2="2783.30" y2="609.26" style="stroke:#FFFFFF;stroke-width:4.32"/>
	<line x1="1714.64" y1="214.52" x2="2783.30" y2="214.52" style="stroke:#FFFFFF;stroke-width:4.32"/>
	<rect x="1802.93" y="1695.76" width="63.72" height="492.08" style="fill:#808080"/>
	<rect x="1805.08" y="1697.92" width="59.40" height="487.76" style="fill:none;stroke:#000000;stroke-width:4.32"/>
	<rect x="1866.65" y="1914.87" width="63.59" height="272.97" style="fill:#B0CEFF"/>
	<rect x="1868.80" y="1917.03" width="59.27" height="268.65" style="fill:none;stroke:#619CFF;stroke-width:4.32"/>
	<rect x="1930.23" y="1816.32" width="63.72" height="371.53" style="fill:#80E0D7"/>
	<rect x="1932.39" y="1818.48" width="59.40" height="367.21" style="fill:none;stroke:#00C0AF;stroke-width:4.32"/>
	<rect x="2036.61" y="682.03" width="63.59" height="1505.81" style="fill:#808080"/>
	<rect x="2038.77" y="684.19" width="59.27" height="1501.49" style="fill:none;stroke:#000000;stroke-width:4.32"/>
	<rect x="2100.20" y="527.32" width="63.72" height="1660.53" style="fill:#B0CEFF"/>
	<rect x="2102.35" y="529.48" width="59.40" height="1656.21" style="fill:none;stroke:#619CFF;stroke-width:4.32"/>
	<rect x="2163.92" y="562.82" width="63.72" height="1625.02" style="fill:#80E0D7"/>
	<rect x="2166.07" y="564.98" width="59.40" height="1620.70" style="fill:none;stroke:#00C0AF;stroke-width:4.32"/>
	<rect x="2270.30" y="1685.91" width="63.59" height="501.94" style="fill:#808080"/>
	<rect x="2272.45" y="1688.07" width="59.27" height="497.62" style="fill:none;stroke:#000000;stroke-width:4.32"/>
	<rect x="2333.88" y="1721.55" width="63.72" height="466.30" style="fill:#B0CEFF"/>
	<rect x="2336.04" y="1723.71" width="59.40" height="461.98" style="fill:none;stroke:#619CFF;stroke-width:4.32"/>
	<rect x="2397.60" y="2002.08" width="63.59" height="185.76" style="fill:#80E0D7"/>
	<rect x="2399.76" y="2004.24" width="59.27" height="181.44" style="fill:none;stroke:#00C0AF;stroke-width:4.32"/>
	<rect x="2503.84" y="741.03" width="63.72" height="1446.82" style="fill:#808080"/>
	<rect x="2506.00" y="743.19" width="59.40" height="1442.50" style="fill:none;stroke:#000000;stroke-width:4.32"/>
	<rect x="2567.57" y="640.99" width="63.72" height="1546.85" style="fill:#B0CEFF"/>
	<rect x="2569.72" y="643.15" width="59.40" height="1542.53" style="fill:none;stroke:#619CFF;stroke-width:4.32"/>
	<rect x="2631.28" y="423.50" width="63.59" height="1764.34" style="fill:#80E0D7"/>
	<rect x="2633.44" y="425.66" width="59.27" height="1760.02" style="fill:none;stroke:#00C0AF;stroke-width:4.32"/>
	<text x="1834.79" y="1650.53" style="font-family:'Helvetica';font-size:29.97px;fill:#606060" text-anchor="middle">12.5</text>
	<text x="1898.37" y="1869.64" style="font-family:'Helvetica';font-size:29.97px;fill:#606060" text-anchor="middle">6.9</text>
	<text x="1962.09" y="1771.22" style="font-family:'Helvetica';font-size:29.97px;fill:#606060" text-anchor="middle">9.4</text>
	<text x="2068.47" y="636.93" style="font-family:'Helvetica';font-size:29.97px;fill:#606060" text-anchor="middle">38.2</text>
	<text x="2132.05" y="482.22" style="font-family:'Helvetica';font-size:29.97px;fill:#606060" text-anchor="middle">42.1</text>
	<text x="2195.78" y="517.59" style="font-family:'Helvetica';font-size:29.97px;fill:#606060" text-anchor="middle">41.2</text>
	<text x="2302.02" y="1640.67" style="font-family:'Helvetica';font-size:29.97px;fill:#606060" text-anchor="middle">12.7</text>
	<text x="2365.74" y="1676.31" style="font-family:'Helvetica';font-size:29.97px;fill:#606060" text-anchor="middle">11.8</text>
	<text x="2429.46" y="1956.98" style="font-family:'Helvetica';font-size:29.97px;fill:#606060" text-anchor="middle">4.7</text>
	<text x="2535.70" y="695.93" style="font-family:'Helvetica';font-size:29.97px;fill:#606060" text-anchor="middle">36.7</text>
	<text x="2599.43" y="595.89" style="font-family:'Helvetica';font-size:29.97px;fill:#606060" text-anchor="middle">39.2</text>
	<text x="2663.01" y="378.27" style="font-family:'Helvetica';font-size:29.97px;fill:#606060" text-anchor="middle">44.7</text>
	<line x1="1714.64" y1="2187.84" x2="1684.67" y2="2187.84" style="stroke:#606060;stroke-width:4.32"/>
	<text x="1669.55" y="2203.61" style="font-family:'Helvetica';font-size:44.95px;fill:#606060" text-anchor="end">0</text>
	<line x1="1714.64" y1="1793.10" x2="1684.67" y2="1793.10" style="stroke:#606060;stroke-width:4.32"/>
	<text x="1669.55" y="1808.87" style="font-family:'Helvetica';font-size:44.95px;fill:#606060" text-anchor="end">10</text>
	<line x1="1714.64" y1="1398.49" x2="1684.67" y2="1398.49" style="stroke:#606060;stroke-width:4.32"/>
	<text x="1669.55" y="1414.26" style="font-family:'Helvetica';font-size:44.95px;fill:#606060" text-anchor="end">20</text>
	<line x1="1714.64" y1="1003.88" x2="1684.67" y2="1003.88" style="stroke:#606060;stroke-width:4.32"/>
	<text x="1669.55" y="1019.64" style="font-family:'Helvetica';font-size:44.95px;fill:#606060" text-anchor="end">30</text>
	<line x1="1714.64" y1="609.26" x2="1684.67" y2="609.26" style="stroke:#606060;stroke-width:4.32"/>
	<text x="1669.55" y="625.03" style="font-family:'Helvetica';font-size:44.95px;fill:#606060" text-anchor="end">40</text>
	<line x1="1714.64" y1="214.52" x2="1684.67" y2="214.52" style="stroke:#606060;stroke-width:4.32"/>
	<text x="1669.55" y="230.29" style="font-family:'Helvetica';font-size:44.95px;fill:#606060" text-anchor="end">50</text>
	<line x1="1714.64" y1="2187.84" x2="1714.64" y2="214.52" style="stroke:#000000;stroke-width:4.32"/>
	<text x="1593.58" y="1163.31" style="font-family:'Helvetica';font-size:59.94px;fill:#000000" transform="rotate(-90 1593.58,1163.31)" text-anchor="middle">Percent</text>
	<text x="1909.52" y="2228.96" style="font-family:'Helvetica';font-size:44.95px;fill:#606060" transform="rotate(-45 1909.52,2228.96)" text-anchor="end">Always biased</text>
	<text x="2143.20" y="2228.96" style="font-family:'Helvetica';font-size:44.95px;fill:#606060" transform="rotate(-45 2143.20,2228.96)" text-anchor="end">Becomes biased</text>
	<text x="2376.89" y="2228.96" style="font-family:'Helvetica';font-size:44.95px;fill:#606060" transform="rotate(-45 2376.89,2228.96)" text-anchor="end">Leave bias</text>
	<text x="2610.57" y="2228.96" style="font-family:'Helvetica';font-size:44.95px;fill:#606060" transform="rotate(-45 2610.57,2228.96)" text-anchor="end">Never biased</text>
	<rect x="1740.56" y="2530.75" width="1016.82" height="109.76" style="fill:#FFFFFF"/>
	<rect x="1742.71" y="2532.91" width="1012.50" height="105.44" style="fill:none;stroke:#FFFFFF;stroke-width:4.32"/>
	<rect x="1772.95" y="2563.15" width="98.55" height="44.96" style="fill:#808080"/>
	<rect x="1775.11" y="2565.31" width="94.23" height="40.64" style="fill:none;stroke:#000000;stroke-width:4.32"/>
	<rect x="2104.65" y="2563.15" width="98.55" height="44.96" style="fill:#B0CEFF"/>
	<rect x="2106.81" y="2565.31" width="94.23" height="40.64" style="fill:none;stroke:#619CFF;stroke-width:4.32"/>
	<rect x="2454.30" y="2563.15" width="98.55" height="44.96" style="fill:#80E0D7"/>
	<rect x="2456.46" y="2565.31" width="94.23" height="40.64" style="fill:none;stroke:#00C0AF;stroke-width:4.32"/>
	<text x="1926.18" y="2601.46" style="font-family:'Helvetica';font-size:44.95px;fill:#000000">Dalits</text>
	<text x="2257.88" y="2601.46" style="font-family:'Helvetica';font-size:44.95px;fill:#000000">Middle</text>
	<text x="2607.53" y="2601.46" style="font-family:'Helvetica';font-size:44.95px;fill:#000000">Upper</text>
	<rect x="2858.90" y="63.32" width="1397.66" height="2678.71" style="fill:#FFFFFF"/>
	<rect x="2861.05" y="65.48" width="1393.34" height="2674.39" style="fill:none;stroke:#FFFFFF;stroke-width:4.32"/>
	<rect x="3109.32" y="138.92" width="1071.63" height="2048.93" style="fill:#E0E0E0"/>
	<rect x="3111.48" y="141.08" width="1067.31" height="2044.61" style="fill:none;stroke:#FFFFFF;stroke-width:4.32"/>
	<line x1="3109.32" y1="2187.84" x2="4180.95" y2="2187.84" style="stroke:#FFFFFF;stroke-width:4.32"/>
	<line x1="3109.32" y1="1734.91" x2="4180.95" y2="1734.91" style="stroke:#FFFFFF;stroke-width:4.32"/>
	<line x1="3109.32" y1="1282.12" x2="4180.95" y2="1282.12" style="stroke:#FFFFFF;stroke-width:4.32"/>
	<line x1="3109.32" y1="829.32" x2="4180.95" y2="829.32" style="stroke:#FFFFFF;stroke-width:4.32"/>
	<line x1="3109.32" y1="376.52" x2="4180.95" y2="376.52" style="stroke:#FFFFFF;stroke-width:4.32"/>
	<rect x="3202.61" y="1555.36" width="88.43" height="632.48" style="fill:#808080"/>
	<rect x="3204.76" y="1557.52" width="84.11" height="628.16" style="fill:none;stroke:#000000;stroke-width:4.32"/>
	<rect x="3291.03" y="1793.10" width="88.42" height="394.75" style="fill:#B0CEFF"/>
	<rect x="3293.19" y="1795.26" width="84.11" height="390.43" style="fill:none;stroke:#619CFF;stroke-width:4.32"/>
	<rect x="3438.72" y="214.52" width="88.43" height="1973.33" style="fill:#808080"/>
	<rect x="3440.88" y="216.68" width="84.11" height="1969.01" style="fill:none;stroke:#000000;stroke-width:4.32"/>
	<rect x="3527.15" y="415.27" width="88.43" height="1772.58" style="fill:#B0CEFF"/>
	<rect x="3529.30" y="417.43" width="84.11" height="1768.26" style="fill:none;stroke:#619CFF;stroke-width:4.32"/>
	<rect x="3674.70" y="1782.97" width="88.43" height="404.87" style="fill:#808080"/>
	<rect x="3676.86" y="1785.13" width="84.11" height="400.55" style="fill:none;stroke:#000000;stroke-width:4.32"/>
	<rect x="3763.13" y="1633.93" width="88.43" height="553.91" style="fill:#B0CEFF"/>
	<rect x="3765.28" y="1636.09" width="84.11" height="549.59" style="fill:none;stroke:#619CFF;stroke-width:4.32"/>
	<rect x="3910.82" y="669.88" width="88.42" height="1517.96" style="fill:#808080"/>
	<rect x="3912.97" y="672.04" width="84.11" height="1513.64" style="fill:none;stroke:#000000;stroke-width:4.32"/>
	<rect x="3999.24" y="380.57" width="88.43" height="1807.27" style="fill:#B0CEFF"/>
	<rect x="4001.40" y="382.73" width="84.11" height="1802.95" style="fill:none;stroke:#619CFF;stroke-width:4.32"/>
	<text x="3246.75" y="1510.13" style="font-family:'Helvetica';font-size:29.97px;fill:#606060" text-anchor="middle">14.0</text>
	<text x="3335.18" y="1748.00" style="font-family:'Helvetica';font-size:29.97px;fill:#606060" text-anchor="middle">8.7</text>
	<text x="3482.86" y="169.42" style="font-family:'Helvetica';font-size:29.97px;fill:#606060" text-anchor="middle">43.6</text>
	<text x="3571.29" y="370.03" style="font-family:'Helvetica';font-size:29.97px;fill:#606060" text-anchor="middle">39.1</text>
	<text x="3718.98" y="1737.88" style="font-family:'Helvetica';font-size:29.97px;fill:#606060" text-anchor="middle">8.9</text>
	<text x="3807.41" y="1588.70" style="font-family:'Helvetica';font-size:29.97px;fill:#606060" text-anchor="middle">12.2</text>
	<text x="3955.09" y="624.78" style="font-family:'Helvetica';font-size:29.97px;fill:#606060" text-anchor="middle">33.5</text>
	<text x="4043.52" y="335.47" style="font-family:'Helvetica';font-size:29.97px;fill:#606060" text-anchor="middle">39.9</text>
	<line x1="3109.32" y1="2187.84" x2="3079.22" y2="2187.84" style="stroke:#606060;stroke-width:4.32"/>
	<text x="3064.23" y="2203.61" style="font-family:'Helvetica';font-size:44.95px;fill:#606060" text-anchor="end">0</text>
	<line x1="3109.32" y1="1734.91" x2="3079.22" y2="1734.91" style="stroke:#606060;stroke-width:4.32"/>
	<text x="3064.23" y="1750.68" style="font-family:'Helvetica';font-size:44.95px;fill:#606060" text-anchor="end">10</text>
	<line x1="3109.32" y1="1282.12" x2="3079.22" y2="1282.12" style="stroke:#606060;stroke-width:4.32"/>
	<text x="3064.23" y="1297.88" style="font-family:'Helvetica';font-size:44.95px;fill:#606060" text-anchor="end">20</text>
	<line x1="3109.32" y1="829.32" x2="3079.22" y2="829.32" style="stroke:#606060;stroke-width:4.32"/>
	<text x="3064.23" y="845.09" style="font-family:'Helvetica';font-size:44.95px;fill:#606060" text-anchor="end">30</text>
	<line x1="3109.32" y1="376.52" x2="3079.22" y2="376.52" style="stroke:#606060;stroke-width:4.32"/>
	<text x="3064.23" y="392.29" style="font-family:'Helvetica';font-size:44.95px;fill:#606060" text-anchor="end">40</text>
	<line x1="3109.32" y1="2187.84" x2="3109.32" y2="376.52" style="stroke:#000000;stroke-width:4.32"/>
	<text x="2991.37" y="1163.31" style="font-family:'Helvetica';font-size:59.94px;fill:#000000" transform="rotate(-90 2991.37,1163.31)" text-anchor="middle">Percent</text>
	<text x="3302.18" y="2228.96" style="font-family:'Helvetica';font-size:44.95px;fill:#606060" transform="rotate(-45 3302.18,2228.96)" text-anchor="end">Always biased</text>
	<text x="3538.29" y="2228.96" style="font-family:'Helvetica';font-size:44.95px;fill:#606060" transform="rotate(-45 3538.29,2228.96)" text-anchor="end">Becomes biased</text>
	<text x="3774.27" y="2228.96" style="font-family:'Helvetica';font-size:44.95px;fill:#606060" transform="rotate(-45 3774.27,2228.96)" text-anchor="end">Leave bias</text>
	<text x="4010.39" y="2228.96" style="font-family:'Helvetica';font-size:44.95px;fill:#606060" transform="rotate(-45 4010.39,2228.96)" text-anchor="end">Never biased</text>
	<rect x="3135.24" y="2530.75" width="1019.79" height="109.76" style="fill:#FFFFFF"/>
	<rect x="3137.40" y="2532.91" width="1015.47" height="105.44" style="fill:none;stroke:#FFFFFF;stroke-width:4.32"/>
	<rect x="3167.64" y="2563.15" width="96.66" height="44.96" style="fill:#808080"/>
	<rect x="3169.80" y="2565.31" width="92.34" height="40.64" style="fill:none;stroke:#000000;stroke-width:4.32"/>
	<rect x="3680.91" y="2563.15" width="96.66" height="44.96" style="fill:#B0CEFF"/>
	<rect x="3683.07" y="2565.31" width="92.34" height="40.64" style="fill:none;stroke:#619CFF;stroke-width:4.32"/>
	<text x="3318.03" y="2601.46" style="font-family:'Helvetica';font-size:44.95px;fill:#000000">];30] in 2016-17</text>
	<text x="3831.30" y="2601.46" style="font-family:'Helvetica';font-size:44.95px;fill:#000000">]30;[ in 2016-17</text>
	<text x="80.59" y="2787.35" style="font-family:'Helvetica';font-size:39.96px;fill:#000000">Acquiesence bias</text>
</svg>
